<svg id="Texto" xmlns="http://www.w3.org/2000/svg" viewBox="0 0 18.07 17.81"><defs><style>.cls-1{fill:#0a72b2;}</style></defs><title>Icone FACEBOOK</title><path class="cls-1" d="M1225,1538.51a0.93,0.93,0,0,0-1-1h-16a0.94,0.94,0,0,0-.94.63,1.33,1.33,0,0,0-.06.53q0,7.74,0,15.49a1,1,0,0,0,.79,1.16h8.83q0-3.33,0-6.66a0.2,0.2,0,0,0-.24-0.23h-1.81a0.22,0.22,0,0,1-.27-0.27c0-.71,0-1.42,0-2.13,0-.24.09-0.28,0.29-0.27h1.78a0.21,0.21,0,0,0,.25-0.25,18.24,18.24,0,0,1,.05-2.43,3,3,0,0,1,1.8-2.53,3.65,3.65,0,0,1,1.44-.31c0.67,0,1.34,0,2,.07a0.21,0.21,0,0,1,.23.26c0,0.63,0,1.26,0,1.9a0.22,0.22,0,0,1-.27.27c-0.4,0-.81,0-1.21,0a1.09,1.09,0,0,0-1.27,1.26c0,0.49,0,1,0,1.48a0.23,0.23,0,0,0,.28.29c0.69,0,1.38,0,2.07,0,0.24,0,.29.06,0.26,0.3-0.1.68-.17,1.37-0.25,2.06a0.3,0.3,0,0,1-.37.33c-0.52,0-1,0-1.57,0s-0.42,0-.42.41q0,3.07,0,6.13c0,0.12,0,.24,0,0.36h4.8a1,1,0,0,0,.85-1.17s0-.1,0-0.15q0-7.57,0-15.13A2.88,2.88,0,0,0,1225,1538.51Z" transform="translate(-1206.89 -1537.51)"/></svg>