<svg id="Camada_1" data-name="Camada 1" xmlns="http://www.w3.org/2000/svg" viewBox="0 0 32 32"><defs><style>.cls-1{fill:#fff;}.cls-2{fill:#268697;}</style></defs><title>Alugai - Favicon - 32x32</title><rect class="cls-1" width="32" height="32"/><path class="cls-2" d="M0,24.47a7.51,7.51,0,0,0,5.41,4s0.7,0.48,2.37-.84,7.78-1.36,12.14-.84a4.75,4.75,0,0,0,2.2-.84s6.55-3.39,9-4.35a1.3,1.3,0,0,0,.88-1.5c-0.22-1.14-3.39-.92-8.31.84A2.53,2.53,0,0,1,23,23.32s-1.14,1.41-6.42.44l0-.4s-0.18-.26,3.65,0c0,0,2.51.22,2.64-1.41,0,0,.57-1.58-3.08-1.67a27.54,27.54,0,0,1-6.38-1,4.76,4.76,0,0,0-4,1C7.34,21.87.48,24.29,0,24.47Z"/><path class="cls-2" d="M28.8,17.33a1,1,0,0,1-1,1.07h-13a1,1,0,0,1-1-1.07V4.47a1,1,0,0,1,1-1.07h13a1,1,0,0,1,1,1.07V17.33Z"/><path class="cls-1" d="M22.47,11H17.68l1.26-1.18a0.37,0.37,0,0,0-.51-0.55l-1.95,1.83a0.44,0.44,0,0,0,0,.59l1.85,1.85a0.38,0.38,0,0,0,.53,0,0.37,0.37,0,0,0,0-.53l-1.26-1.26h4.89A0.37,0.37,0,0,0,22.47,11Z"/><path class="cls-1" d="M20.17,10.58H25l-1.26,1.18a0.37,0.37,0,0,0,.51.54l1.95-1.83a0.44,0.44,0,0,0,0-.59L24.33,8a0.37,0.37,0,0,0-.53,0,0.37,0.37,0,0,0,0,.53l1.26,1.26H20.17A0.37,0.37,0,0,0,20.17,10.58Z"/></svg>