<svg id="Texto" xmlns="http://www.w3.org/2000/svg" viewBox="0 0 18.07 18.05"><defs><style>.cls-1{fill:#0a72b2;}</style></defs><title>Icone INSTAGRAM</title><path class="cls-1" d="M1335.41,1574.87h5.06a4.11,4.11,0,0,0,1.76,5,3.87,3.87,0,0,0,4.58-.12,4.09,4.09,0,0,0,1.56-4.87h5.08q0,0.13,0,.26,0,2.94,0,5.88a4.51,4.51,0,0,1-3.83,4.52,4.16,4.16,0,0,1-.68.05h-9a4.5,4.5,0,0,1-4.51-4.42c0-2,0-4.1,0-6.14C1335.4,1575,1335.41,1574.94,1335.41,1574.87Z" transform="translate(-1335.39 -1567.54)"/><path class="cls-1" d="M1344.42,1573.84a2.5,2.5,0,1,1-2.49,2.51A2.49,2.49,0,0,1,1344.42,1573.84Z" transform="translate(-1335.39 -1567.54)"/><path class="cls-1" d="M1353.45,1572a4.52,4.52,0,0,0-4.51-4.42h-8.79v4.69h-1v-4.62l-0.7.18a0.32,0.32,0,0,0-.27.37c0,1.26,0,2.53,0,3.79,0,0.09,0,.19,0,0.28h-1v-3.75l-0.24.2a5.11,5.11,0,0,0-1.5,4.67h5.86a0.57,0.57,0,0,0,.34-0.14,4.19,4.19,0,0,1,5.59,0,0.63,0.63,0,0,0,.38.15h5.85C1353.45,1572.87,1353.46,1572.41,1353.45,1572Zm-2.45-.19a0.49,0.49,0,0,1-.49.55l-0.8,0-0.79,0a0.5,0.5,0,0,1-.5-0.54q0-.73,0-1.46a0.51,0.51,0,0,1,.53-0.54h1.52a0.51,0.51,0,0,1,.53.56c0,0.24,0,.49,0,0.73S1351,1571.53,1351,1571.76Z" transform="translate(-1335.39 -1567.54)"/></svg>