<svg id="Camada_1" data-name="Camada 1" xmlns="http://www.w3.org/2000/svg" viewBox="0 0 277.34 71.13"><defs><style>.cls-1{fill:#23879a;}.cls-2{fill:#fff;}</style></defs><title>Marca Aluga Ai</title><path class="cls-1" d="M473.36,64.19H465.7c-6.35,0-6.79,6.13-6.79,6.13l-0.11,42.49,6.68-.11V95h7.34v17.63h6.57V70.54C479.39,64.3,473.36,64.19,473.36,64.19Zm-0.48,8.54V89h-7.45V72.33a2,2,0,0,1,1.79-2.23h3.47C473,70.1,472.89,72.73,472.89,72.73Z" transform="translate(-350.51 -50.76)"/><path class="cls-1" d="M570.61,64.19h-7.67c-6.35,0-6.79,6.13-6.79,6.13L556,112.81l6.68-.11V95h7.34v17.63h6.57V70.54C576.64,64.3,570.61,64.19,570.61,64.19Zm-0.47,8.54V89h-7.45V72.33a2,2,0,0,1,1.79-2.23h3.47C570.25,70.1,570.14,72.73,570.14,72.73Z" transform="translate(-350.51 -50.76)"/><path class="cls-1" d="M607.41,64.19h-7.67c-6.35,0-6.79,6.13-6.79,6.13l-0.11,42.49,6.68-.11V95h7.34v17.63h6.57V70.54C613.43,64.3,607.41,64.19,607.41,64.19Zm-0.48,8.54V89h-7.45V72.33a2,2,0,0,1,1.79-2.23h3.47C607,70.1,606.93,72.73,606.93,72.73Z" transform="translate(-350.51 -50.76)"/><path class="cls-1" d="M491.76,106V80.91h0V64.08h-6.55l-0.09,48.6h0.56v0l15.11,0V106h-9Z" transform="translate(-350.51 -50.76)"/><path class="cls-1" d="M518.81,64.3s-0.13,38.29-.13,40.37a2,2,0,0,1-1.79,2.23h-3.74c-2.3,0-2.19-2.63-2.19-2.63L511,64.41h-6.57v42.05c0,6.24,6,6.35,6,6.35h7.67c6.35,0,6.79-6.13,6.79-6.13l0.11-42.49Z" transform="translate(-350.51 -50.76)"/><path class="cls-1" d="M551.89,88.79H541.37v6.7h4l0,10.21a2,2,0,0,1-1.59,1.21H540c-2.3,0-2.19-2.63-2.19-2.63l0.07-26.07h-0.22c0-3.24,0-5.58,0-6.1a2,2,0,0,1,1.79-2.23h3.74c2.3,0,2.19,2.63,2.19,2.63v5.44h6.51V70.32c0-6.24-6-6.35-6-6.35H538.2c-6.35,0-6.79,6.13-6.79,6.13l0,8.11H531.3v28.36h0c0.07,6.13,6,6.24,6,6.24H545c6.35,0,6.79-6.13,6.79-6.13v-0.33h0.11V95.48h0V88.82h0v0Z" transform="translate(-350.51 -50.76)"/><path class="cls-1" d="M625.52,112.7V106h0V80.91h0V64.08h-6.55l-0.09,48.6h0.56v0h6.12Z" transform="translate(-350.51 -50.76)"/><polygon class="cls-1" points="268.14 10.36 272.67 10.36 277.34 2.48 270.92 2.48 268.14 10.36"/><path class="cls-1" d="M350.51,110.22s3.72,9.06,15.27,11.42c0,0,2,1.37,6.7-2.36s22-3.85,34.26-2.36a13.4,13.4,0,0,0,6.21-2.36s18.5-9.56,25.33-12.29a3.68,3.68,0,0,0,2.48-4.22c-0.62-3.23-9.56-2.61-23.46,2.36,0,0,1,4.47-1.74,6.58,0,0-3.23,4-18.12,1.24l-0.13-1.12s-0.5-.74,10.3,0c0,0,7.08.62,7.45-4,0,0,1.61-4.47-8.69-4.72,0,0-10.55-.37-18-2.86,0,0-5.46-1.61-11.3,2.86S351.88,109.73,350.51,110.22Z" transform="translate(-350.51 -50.76)"/><path class="cls-1" d="M431.83,90.08a2.9,2.9,0,0,1-2.76,3H392.38a2.9,2.9,0,0,1-2.76-3V53.77a2.9,2.9,0,0,1,2.76-3h36.69a2.9,2.9,0,0,1,2.76,3v36.3Z" transform="translate(-350.51 -50.76)"/><path class="cls-2" d="M413.95,72.24h0l-13.53,0L404,68.94a1.06,1.06,0,0,0-1.45-1.54L397,72.57a1.25,1.25,0,0,0,0,1.66l5.21,5.21a1.06,1.06,0,0,0,1.49,0,1.06,1.06,0,0,0,0-1.49l-3.56-3.56,13.8,0A1.05,1.05,0,0,0,413.95,72.24Z" transform="translate(-350.51 -50.76)"/><path class="cls-2" d="M407.45,71h0L421,71l-3.55,3.34a1.06,1.06,0,0,0,1.45,1.54l5.49-5.17a1.25,1.25,0,0,0,0-1.66l-5.21-5.21a1.06,1.06,0,0,0-1.49,0,1.06,1.06,0,0,0,0,1.49l3.56,3.56-13.8,0A1.06,1.06,0,0,0,407.45,71Z" transform="translate(-350.51 -50.76)"/></svg>