<svg id="Texto" xmlns="http://www.w3.org/2000/svg" viewBox="0 0 17.77 14.45"><defs><style>.cls-1{fill:#0a72b2;}</style></defs><title>Icone Twitter</title><path class="cls-1" d="M1353.15,1541.89v0a1.7,1.7,0,0,1-.32.48,7.34,7.34,0,0,1-.8.86,5.22,5.22,0,0,1-.57.47,0.19,0.19,0,0,0-.09.18c0,0.15,0,.3,0,0.45a9.08,9.08,0,0,1-.15,1.63,10.59,10.59,0,0,1-.42,1.62,11.36,11.36,0,0,1-.47,1.16,10.93,10.93,0,0,1-.92,1.59,10.15,10.15,0,0,1-.66.84c-0.17.2-.34,0.39-0.52,0.57a10,10,0,0,1-2.09,1.59,9.86,9.86,0,0,1-1.79.79,10.48,10.48,0,0,1-1.84.42c-0.25,0-.51,0-0.76.05h-1.29a7.94,7.94,0,0,1-1.9-.23,10.58,10.58,0,0,1-2.54-1q-0.29-.15-0.57-0.33a0.15,0.15,0,0,1-.09-0.09c0-.05,0-0.06.08-0.05l0.54,0a3.79,3.79,0,0,0,.5,0l0.49,0a7.28,7.28,0,0,0,2.36-.65,7.43,7.43,0,0,0,1.24-.74,0.12,0.12,0,0,0,.05-0.05,4.28,4.28,0,0,1-.76-0.13,3.65,3.65,0,0,1-1.43-.76,3.75,3.75,0,0,1-.93-1.21,3.8,3.8,0,0,1-.15-0.37c0-.1,0-0.15.11-0.13a3.21,3.21,0,0,0,.56.05,3.51,3.51,0,0,0,.7-0.07l0.12,0a3,3,0,0,1-.51-0.16,3.57,3.57,0,0,1-1.37-1,3.63,3.63,0,0,1-.9-2,2.39,2.39,0,0,1,0-.4c0-.13,0-0.15.15-0.1a3.64,3.64,0,0,0,.73.28,4.11,4.11,0,0,0,.65.11,2.33,2.33,0,0,0-.21-0.18,3.79,3.79,0,0,1-.8-0.94,3.7,3.7,0,0,1-.22-3.29c0-.12.11-0.23,0.17-0.34s0.11-.1.17,0a9.1,9.1,0,0,0,.63.7,10.27,10.27,0,0,0,1,.85,10.66,10.66,0,0,0,1.62,1,10.2,10.2,0,0,0,2.87,1,8.7,8.7,0,0,0,1,.13H1344c0.06,0,.08,0,0.06-0.08a3.74,3.74,0,0,1-.06-0.81,3.47,3.47,0,0,1,.14-0.91,3.56,3.56,0,0,1,.63-1.24,3.67,3.67,0,0,1,1.71-1.23,2.61,2.61,0,0,1,.85-0.15h0.11a0.09,0.09,0,0,0,.08,0H1348l0.35,0a2.57,2.57,0,0,1,.58.15,3.65,3.65,0,0,1,1.18.7l0.18,0.18a0.14,0.14,0,0,0,.14,0,7.32,7.32,0,0,0,1.91-.69l0.2-.11a0.09,0.09,0,0,1,.1,0,0.08,0.08,0,0,1,0,.11,3.43,3.43,0,0,1-.35.74,3.79,3.79,0,0,1-1,1.08l-0.1,0h0a4.17,4.17,0,0,1,.44-0.08,7.48,7.48,0,0,0,1.41-.44A0.09,0.09,0,0,1,1353.15,1541.89Z" transform="translate(-1335.39 -1540.17)"/></svg>