<svg id="Camada_1" data-name="Camada 1" xmlns="http://www.w3.org/2000/svg" viewBox="0 0 310.97 212.76"><defs><style>.cls-1{fill:#23879a;}.cls-2{fill:#2d3036;}.cls-3{fill:#dff1f6;}.cls-4{fill:#000100;opacity:0.2;}.cls-5{fill:#282829;}.cls-6{fill:#0f0c13;}.cls-7{fill:none;stroke:#0f0c13;stroke-miterlimit:10;}.cls-8{fill:#1c191b;}.cls-9{fill:#393337;}.cls-10{fill:#fff;}.cls-11{fill:#5c8eb6;}.cls-12{fill:#a6afac;}.cls-13{fill:#4279bd;}.cls-14{fill:#aacc83;}.cls-15{fill:#e9492a;}.cls-16{fill:#fab51d;}.cls-17{fill:#67b32e;}.cls-18{fill:#5ab031;}</style></defs><title>10 HQ</title><rect class="cls-1" width="310.97" height="212.76"/><rect class="cls-2" x="16.01" y="15.37" width="281.57" height="181.63"/><rect class="cls-3" x="29.78" y="24.25" width="254.04" height="163.88"/><rect class="cls-4" x="43.29" y="66.12" width="84.2" height="10.16"/><rect class="cls-4" x="43.29" y="83.65" width="84.2" height="2.54"/><rect class="cls-4" x="43.29" y="87.9" width="84.2" height="2.54"/><rect class="cls-4" x="43.29" y="92.14" width="84.2" height="2.54"/><rect class="cls-4" x="43.29" y="96.39" width="84.2" height="2.54"/><rect class="cls-4" x="43.29" y="100.64" width="84.2" height="2.54"/><path class="cls-5" d="M708.13,2687.76c-0.17-3,1-6.49-5.49-7s-82.87-7.32-86.36-7.65-3.49.83-3.49,0.83a3.67,3.67,0,0,0-3.62,0c-2.12,1-22.59,16.89-22.59,16.89a17.39,17.39,0,0,0-.51,4.08c-5.38,4.23-9.77,7.89-11.06,9.65-3.66,5,.33,21.63,1.5,23.63s16,1.66,43.93,4.83,57.08,11.81,58.74,11.65,2.33-2.33,7-7.82,22-30,22-30S708.29,2690.75,708.13,2687.76Z" transform="translate(-466.64 -2564.98)"/><path class="cls-6" d="M577.59,2702.82s-3.08,2.33-3.16,5.16a20.47,20.47,0,0,1,6.57-1.33c4.16-.25,95.18,12.4,95.68,12.56s1.91-2.08,2.25-2.33-1.66,3.16-1.5,12.4,1.08,14.89,2,14.48S707.3,2707,707.3,2707s0.48-22.18,0-23.55-1.41,4.08-2.75,4.91a2.16,2.16,0,0,1-2.58-.5l-21.63,27.71s-45.76-4.24-59.9-6.24-39.6-5-42.52-6.49" transform="translate(-466.64 -2564.98)"/><path class="cls-7" d="M668.57,2721.29s2.87,0.19,3,2.75,0.44,12.85.56,14.41-0.25,3-2.18,2.56-2.87-2-3.12-9.3S665.88,2721.54,668.57,2721.29Z" transform="translate(-466.64 -2564.98)"/><path class="cls-8" d="M649.35,2736.27s-7.51-2.31-8.5-9.42,6.94-6.43,6.94-6.43,7.61,0,8.92,9.24C656.71,2729.65,658.21,2738.76,649.35,2736.27Z" transform="translate(-466.64 -2564.98)"/><path class="cls-4" d="M650,2736.31s-6.85-2.11-7.75-8.59,6.33-5.86,6.33-5.86,6.94,0,8.14,8.42a8.49,8.49,0,0,1,.08,1,10,10,0,0,0-.09-1.66c-1.31-9.25-8.92-9.24-8.92-9.24s-7.92-.69-6.94,6.43,8.5,9.42,8.5,9.42a9.88,9.88,0,0,0,3,.42A9.61,9.61,0,0,1,650,2736.31Z" transform="translate(-466.64 -2564.98)"/><path class="cls-9" d="M649.58,2733.87s-5.48-1.68-6.2-6.88,5.06-4.69,5.06-4.69,5.56,0,6.51,6.74C655,2729,656,2735.69,649.58,2733.87Z" transform="translate(-466.64 -2564.98)"/><path class="cls-10" d="M654.88,2728.93a8,8,0,0,0-1.73-4.18,6.93,6.93,0,0,1,1.14,3.08s0.85,5.18-4.18,3.76c0,0-4.27-1.31-4.83-5.35-0.43-3.13,2.17-3.6,3.37-3.65-0.74,0-5.29-.07-4.66,4.42,0.68,4.89,5.84,6.47,5.84,6.47C655.91,2735.19,654.88,2728.93,654.88,2728.93Z" transform="translate(-466.64 -2564.98)"/><path class="cls-9" d="M628.46,2732.09a2.7,2.7,0,0,1-1.82-2c-0.21-1.52,1.48-1.37,1.48-1.37a2,2,0,0,1,1.91,2A1.15,1.15,0,0,1,628.46,2732.09Z" transform="translate(-466.64 -2564.98)"/><path class="cls-6" d="M630,2730.67a2,2,0,0,0-1.91-2s-1.69-.15-1.48,1.37a2.7,2.7,0,0,0,1.82,2A1.15,1.15,0,0,0,630,2730.67Zm-1.46.9a2.21,2.21,0,0,1-1.49-1.65,1,1,0,0,1,1.21-1.12,1.66,1.66,0,0,1,1.56,1.61A0.94,0.94,0,0,1,628.57,2731.58Z" transform="translate(-466.64 -2564.98)"/><path class="cls-11" d="M582.24,2711.62s-0.59-1.19-2.87-1.19c-1.74,0-2.94,1.47-2.94,3.71s1.32,3.4,2.57,3.4c0.67,0,2.09-.06,2.62-1.17,0,0,43.41,5.55,45.31,5.91,0,0,2.91.46,3.33-1.89s-1.95-3.57-3.83-3.93C622.43,2715.72,589.64,2712.12,582.24,2711.62Z" transform="translate(-466.64 -2564.98)"/><path class="cls-10" d="M580.25,2712.05l46.18,5.32s2.75,0.33,2.58,2.33-2.75,1.83-2.75,1.83l-46.68-5.74a2.41,2.41,0,0,1-2.16-2.3C577.38,2711.43,580.25,2712.05,580.25,2712.05Z" transform="translate(-466.64 -2564.98)"/><path class="cls-9" d="M587,2723.47l3.47,0.15a1.91,1.91,0,0,1,2.14,1.79c0.06,1.93-2.06,1.68-2.06,1.68l-4.43-.25a1.69,1.69,0,0,1-1.19-1.55C584.89,2724,585.64,2723.47,587,2723.47Z" transform="translate(-466.64 -2564.98)"/><path class="cls-6" d="M590.48,2723.61l-3.47-.15c-1.37,0-2.12.56-2.06,1.81a1.69,1.69,0,0,0,1.19,1.55l4.43,0.25s2.12,0.25,2.06-1.68A1.91,1.91,0,0,0,590.48,2723.61Zm0,3.26-4.09-.23a1.56,1.56,0,0,1-1.1-1.44c-0.06-1.16.63-1.68,1.9-1.68l3.21,0.13a1.77,1.77,0,0,1,2,1.65C592.49,2727.1,590.53,2726.87,590.53,2726.87Z" transform="translate(-466.64 -2564.98)"/><path class="cls-9" d="M596.49,2724l10.59,0.77a1.91,1.91,0,0,1,2.14,1.79c0.06,1.93-2.06,1.68-2.06,1.68l-11.54-.87a1.69,1.69,0,0,1-1.19-1.55C594.37,2724.53,595.12,2724,596.49,2724Z" transform="translate(-466.64 -2564.98)"/><path class="cls-6" d="M596.5,2724l10.59,0.77a1.92,1.92,0,0,1,2.14,1.77s0,0,0,0a1.91,1.91,0,0,0-2.14-1.79L596.5,2724c-1.37,0-2.12.56-2.06,1.81h0C594.4,2724.58,595.14,2724,596.5,2724Z" transform="translate(-466.64 -2564.98)"/><path class="cls-6" d="M607.52,2727.88L596,2727a1.69,1.69,0,0,1-1.19-1.55,1.77,1.77,0,0,1,.27-1.14,1.53,1.53,0,0,0-.63,1.47,1.69,1.69,0,0,0,1.19,1.55l11.54,0.87a2.11,2.11,0,0,0,1.78-.62A2.46,2.46,0,0,1,607.52,2727.88Z" transform="translate(-466.64 -2564.98)"/><path class="cls-9" d="M612.51,2725.56l10.57,1a1.91,1.91,0,0,1,2.11,1.83c0,1.94-2.09,1.65-2.09,1.65l-11.53-1.08a1.69,1.69,0,0,1-1.16-1.58C610.38,2726.09,611.13,2725.54,612.51,2725.56Z" transform="translate(-466.64 -2564.98)"/><path class="cls-6" d="M623.41,2729.84l-11.53-1.08a1.69,1.69,0,0,1-1.16-1.58,1.53,1.53,0,0,1,.65-1.45,1.48,1.48,0,0,0-1,1.61,1.69,1.69,0,0,0,1.16,1.58L623.1,2730a2.43,2.43,0,0,0,1.46-.29A2.66,2.66,0,0,1,623.41,2729.84Z" transform="translate(-466.64 -2564.98)"/><path class="cls-4" d="M653.36,2722.65a9.1,9.1,0,0,0-5.57-2.29s-7.92-.69-6.94,6.43c0.82,5.93,6.18,8.52,7.94,9.22C641.24,2723.09,653.33,2722.65,653.36,2722.65Z" transform="translate(-466.64 -2564.98)"/><path class="cls-10" d="M587,2694.52l25.52-20.22s-2.12-.75-3.43.31-21.4,16.41-21.4,16.41A9.89,9.89,0,0,0,587,2694.52Z" transform="translate(-466.64 -2564.98)"/><rect class="cls-6" x="582.46" y="2687.22" width="36.1" height="0.5" transform="translate(-2044.56 -1562) rotate(-39.69)"/><rect class="cls-6" x="583.78" y="2687.54" width="36.1" height="0.5" transform="translate(-2044.47 -1561.09) rotate(-39.69)"/><rect class="cls-6" x="585.29" y="2687.76" width="36.1" height="0.5" transform="translate(-2044.26 -1560.07) rotate(-39.69)"/><rect class="cls-6" x="586.61" y="2688.08" width="36.1" height="0.5" transform="translate(-2044.16 -1559.16) rotate(-39.69)"/><polygon class="cls-6" points="208.94 143.65 208.62 143.26 230.5 119.3 230.82 119.69 208.94 143.65"/><polygon class="cls-6" points="210.25 143.97 209.93 143.58 231.81 119.62 232.13 120.01 210.25 143.97"/><polygon class="cls-6" points="211.77 144.19 211.45 143.8 233.33 119.84 233.65 120.23 211.77 144.19"/><polygon class="cls-6" points="213.08 144.51 212.76 144.12 234.64 120.16 234.96 120.55 213.08 144.51"/><path class="cls-5" d="M680.55,2706a17.81,17.81,0,0,1-6.49,1.37c-3-.12-8.36-2-11.73,0s-3.74,8.73-3.37,12.72,0.37,29.7,7.61,31.57,12-15.23,14-16.35,11.61-5.36,14.1-5.24a12.22,12.22,0,0,1,8.49,3.49c3.37,3,7.24,4.74,10.23,2.62s-1.1-17.17-8.49-27.08S693,2700,691,2699.9,685.29,2705.39,680.55,2706Z" transform="translate(-466.64 -2564.98)"/><path class="cls-12" d="M713,2734.55c-0.87-1.42-11-7.91-13.47-8.22s-10.55,1.32-14.29,3.35-6.19,6.94-8.2,10.63-10.25,9.46-10.25,9.46c-0.35.25-.28,1,0,1.92,7.22,1.82,12-15.23,13.95-16.35s11.61-5.36,14.1-5.24a12.22,12.22,0,0,1,8.49,3.49c3.37,3,7.24,4.74,10.23,2.62a2.18,2.18,0,0,0,.74-1.19A2.24,2.24,0,0,1,713,2734.55Z" transform="translate(-466.64 -2564.98)"/><path class="cls-6" d="M662.46,2709.13s-3.24,1.73-2.87,4.55,5.49,26.4,5.24,29.65c0,0-3.26-1.28-3.19.86,0,0-1.71-5.71-2.38-18.32C659.26,2725.86,657.09,2708.13,662.46,2709.13Z" transform="translate(-466.64 -2564.98)"/><path class="cls-6" d="M713.37,2736.22a1.5,1.5,0,0,0,.26-0.23v0c2.46-2.85-1.6-17.24-8.75-26.83-7.39-9.91-11.86-9.11-13.85-9.24s-5.74,5.49-10.48,6.12a17.81,17.81,0,0,1-6.49,1.37c-0.3,0-.63,0-1-0.09a2.37,2.37,0,0,1-1,.42s-4.38-.57-7.27.58a7.59,7.59,0,0,0-4.54,5.32c-0.42,1.71,4.83,20.13,5.57,25.13s-0.25,5.08-.25,5.08-4,.46-3.68,1.39h0c0.12,0.39,1.74,5.41,4.58,6.43l0,0a4.33,4.33,0,0,0,1.5.12c3.91-.75,11-16.39,12.36-17.88s6.74-4.66,11.15-5.82,8.49-1.5,11.4.25,10.13,6.62,9.45,8.39A5.11,5.11,0,0,0,713.37,2736.22Zm-1.66-3.2s-7.65-5.84-9.9-6.37a17,17,0,0,0-11.65.5c-6.07,2.21-8.07,2.94-9.24,4.78S675,2743,673,2743.83s-5.16-.33-5.41-6.32a55.58,55.58,0,0,0-3.49-15.93c-1-2.12,1.83-11.44,7.4-11.11s6.91,4.91,10.73,4,2.83-7.4,8.65-6.49,15,5.16,18.64,12.73S713.29,2730.43,711.71,2733Z" transform="translate(-466.64 -2564.98)"/><path class="cls-13" d="M693.46,2709.43a1.33,1.33,0,0,0,1.17-1.66,1.77,1.77,0,0,0-1.8-1.43,1.31,1.31,0,0,0-1.27,1.66A1.55,1.55,0,0,0,693.46,2709.43Z" transform="translate(-466.64 -2564.98)"/><path class="cls-14" d="M698.82,2711.92a1.33,1.33,0,0,0,1.17-1.66,1.77,1.77,0,0,0-1.8-1.43,1.31,1.31,0,0,0-1.27,1.66A1.55,1.55,0,0,0,698.82,2711.92Z" transform="translate(-466.64 -2564.98)"/><path class="cls-15" d="M700.38,2707.55a1.33,1.33,0,0,0,1.17-1.66,1.77,1.77,0,0,0-1.8-1.43,1.31,1.31,0,0,0-1.27,1.66A1.55,1.55,0,0,0,700.38,2707.55Z" transform="translate(-466.64 -2564.98)"/><path class="cls-16" d="M695,2704.45a1.33,1.33,0,0,0,1.17-1.66,1.77,1.77,0,0,0-1.8-1.43,1.31,1.31,0,0,0-1.27,1.66A1.55,1.55,0,0,0,695,2704.45Z" transform="translate(-466.64 -2564.98)"/><path class="cls-12" d="M683.47,2714.23a2.27,2.27,0,0,0,2-2.84,3,3,0,0,0-3.07-2.45c-0.62,0-2.45.39-2.17,2.83S682.33,2714.29,683.47,2714.23Z" transform="translate(-466.64 -2564.98)"/><path class="cls-6" d="M695.68,2724s4.9-.73,3.2-7.09c-1.29-4.81-5.31-4.84-6.43-4.66s-3.39,1.76-3,7C690,2724.79,693.63,2724.42,695.68,2724Z" transform="translate(-466.64 -2564.98)"/><path class="cls-8" d="M695.62,2723.43s4.66-.7,3-6.74c-1.23-4.58-5-4.6-6.12-4.44s-3.23,1.67-2.81,6.66C690.17,2724.21,693.67,2723.86,695.62,2723.43Z" transform="translate(-466.64 -2564.98)"/><path class="cls-6" d="M697.59,2719.29a1.74,1.74,0,0,1-.68.74,1.47,1.47,0,0,0,.92-0.37c0.15-.3.7,1.73,0,2.63a9.89,9.89,0,0,0,1.22-2,5.44,5.44,0,0,0-.43-3.6C698,2715.93,697.91,2719,697.59,2719.29Z" transform="translate(-466.64 -2564.98)"/><path class="cls-6" d="M689.45,2717.38s1.85-.93,2.38.34,0.76-3.68,2.57-3.88,0.81-1.36.81-1.36S690.24,2710.26,689.45,2717.38Z" transform="translate(-466.64 -2564.98)"/><path class="cls-12" d="M695.69,2720.25a2.76,2.76,0,0,0,2.43-3.45,3.68,3.68,0,0,0-3.72-3c-0.75,0-3,.47-2.64,3.43S694.31,2720.33,695.69,2720.25Z" transform="translate(-466.64 -2564.98)"/><path class="cls-4" d="M693.54,2715.58l-1.81,1.38s0.2,2,1.24,2.73a3.37,3.37,0,0,0,2.17.59c0.06,0-1.31-1.67-.85-2.8A1.67,1.67,0,0,0,693.54,2715.58Z" transform="translate(-466.64 -2564.98)"/><path class="cls-12" d="M696.08,2719.47a3,3,0,0,0,2.66-3.78,4,4,0,0,0-4.08-3.26c-0.83,0-3.26.52-2.89,3.76S694.56,2719.55,696.08,2719.47Z" transform="translate(-466.64 -2564.98)"/><path class="cls-4" d="M692.36,2716.74s1.74,3.08,4.55,1.62,1.11-4.24.23-4.78a4.59,4.59,0,0,0-2.91-.58c-1.25.25,3,.58,2.25,2.58S693,2716.53,692.36,2716.74Z" transform="translate(-466.64 -2564.98)"/><path class="cls-6" d="M689.77,2719.32s2.05,0.33,2.1-.57a3,3,0,0,0,3.28,1.69s-1.82.59-1.7,1.47a2.3,2.3,0,0,0,1.39,1.74c0.37,0-2.48.62-3.59-.56A7.45,7.45,0,0,1,689.77,2719.32Z" transform="translate(-466.64 -2564.98)"/><path class="cls-6" d="M663.62,2717s1.55,4.71,7.52,2c4.53-2.08,3.88-6,3.52-7.12s-2.3-3.05-7.39-1.74C661.85,2711.49,662.83,2715.05,663.62,2717Z" transform="translate(-466.64 -2564.98)"/><path class="cls-8" d="M664.14,2716.84s1.47,4.48,7.16,1.87c4.31-2,3.69-5.75,3.35-6.78s-2.19-2.9-7-1.66C662.45,2711.6,663.39,2715,664.14,2716.84Z" transform="translate(-466.64 -2564.98)"/><path class="cls-6" d="M666.89,2711.71s-1.46.17-1.27,2.41,1.51,2.66,1.51,2.66a1.62,1.62,0,0,1-.45-1.21c-0.08-1,.79.62,1.5,1a5,5,0,0,1-.46-2.7C668,2712.79,668.05,2711.13,666.89,2711.71Z" transform="translate(-466.64 -2564.98)"/><path class="cls-6" d="M668.55,2718.09a1.74,1.74,0,0,1-.84-0.54,1.47,1.47,0,0,0,.52.84c0.32,0.09-1.59,1-2.6.4a9.89,9.89,0,0,0,2.19.87,5.44,5.44,0,0,0,3.48-1C671.93,2717.91,668.91,2718.35,668.55,2718.09Z" transform="translate(-466.64 -2564.98)"/><path class="cls-6" d="M669.07,2709.75s1.23,1.67.07,2.41,3.76,0.13,4.25,1.88,1.47,0.57,1.47.57S676.23,2709.34,669.07,2709.75Z" transform="translate(-466.64 -2564.98)"/><path class="cls-12" d="M671.52,2716.62a2.76,2.76,0,0,0,1.93-3.75,3.68,3.68,0,0,0-4.1-2.43c-0.75.1-2.88,0.88-2.14,3.76S670.16,2716.88,671.52,2716.62Z" transform="translate(-466.64 -2564.98)"/><path class="cls-4" d="M668.74,2712.29l-1.6,1.61s0.47,2,1.61,2.53a3.37,3.37,0,0,0,2.23.28c0.06,0-1.53-1.48-1.23-2.65A1.67,1.67,0,0,0,668.74,2712.29Z" transform="translate(-466.64 -2564.98)"/><path class="cls-12" d="M671.79,2715.79a3,3,0,0,0,2.11-4.11,4,4,0,0,0-4.5-2.66c-0.82.11-3.15,1-2.34,4.13S670.3,2716.08,671.79,2715.79Z" transform="translate(-466.64 -2564.98)"/><path class="cls-4" d="M667.72,2713.6s2.15,2.81,4.73,1,0.51-4.36-.43-4.77a4.59,4.59,0,0,0-3-.17c-1.2.42,3,.17,2.58,2.24S668.31,2713.31,667.72,2713.6Z" transform="translate(-466.64 -2564.98)"/><path class="cls-6" d="M677.21,2716.56s4.66-1.23,7,1.62,3.48,8.67,0,10.5-7,1.62-9.53-2.71S673.59,2716.73,677.21,2716.56Z" transform="translate(-466.64 -2564.98)"/><path class="cls-8" d="M677.6,2716.54s4.33-1.14,6.48,1.5,3.23,8,0,9.74-6.52,1.5-8.84-2.51S674.24,2716.7,677.6,2716.54Z" transform="translate(-466.64 -2564.98)"/><path class="cls-6" d="M675.24,2722.19a5.53,5.53,0,0,0,1.77,3.52,6.33,6.33,0,0,0,5.85.42,3.73,3.73,0,0,0,2.16-4.31c-0.36-2.56-3.18-5.16-5.65-5.08S674.68,2718.18,675.24,2722.19Z" transform="translate(-466.64 -2564.98)"/><path class="cls-12" d="M681.3,2726.31a4.11,4.11,0,0,0,3.62-5.14c-0.68-3.91-4.43-4.43-5.55-4.43s-4.43.7-3.93,5.12S679.24,2726.42,681.3,2726.31Z" transform="translate(-466.64 -2564.98)"/><path class="cls-4" d="M676.17,2719.49a6.32,6.32,0,0,0,.5,4.33c1.06,2.56,4.83,2.09,6.19,1.11s2-3.92.42-6.17-3.1-1.24-3.17-.5,1.05,2.68-.7,2.81-1.93-1.37-2.25-2.06S676.61,2718.59,676.17,2719.49Z" transform="translate(-466.64 -2564.98)"/><path class="cls-6" d="M674.08,2719.88s0.84,6.36,4.78,7.11a4,4,0,0,0,1.25,2.25,7.41,7.41,0,0,1-5.68-4.68A10,10,0,0,1,674.08,2719.88Z" transform="translate(-466.64 -2564.98)"/><path class="cls-6" d="M684.82,2720.27a4.89,4.89,0,0,1-.61,5.17,2.22,2.22,0,0,1-.9,2.72s2.62-.59,2.85-2.46S685.7,2720.49,684.82,2720.27Z" transform="translate(-466.64 -2564.98)"/><path class="cls-6" d="M673.12,2717.55s1.38-2.54.43-2.81l1.31-.14s-0.44,2.33-1.88,2.95" transform="translate(-466.64 -2564.98)"/><path class="cls-17" d="M684.78,2710.63a2.43,2.43,0,0,0-.54-0.1,1.88,1.88,0,0,0-.37,0,2.5,2.5,0,0,0-.41,0,3.4,3.4,0,0,0-.41.07,4,4,0,0,0-.61-0.62,2.57,2.57,0,0,0-.63-0.4l0.43,0.59,0.37,0.56h0a4.17,4.17,0,0,0-1.42.85,2.57,2.57,0,0,0-.49.57l0.65-.34,0.66-.31c0.24-.1.5-0.22,0.76-0.3l0.11,0c0.06,0.1.12,0.21,0.18,0.32a7.53,7.53,0,0,1,.35.74c0.1,0.24.19,0.47,0.26,0.67s0.12,0.38.16,0.5l0.07,0.2s0-.07,0-0.2a2.42,2.42,0,0,0,0-.54,1.89,1.89,0,0,0,0-.36,2.5,2.5,0,0,0-.08-0.4,3,3,0,0,0-.14-0.42,4.12,4.12,0,0,0-.19-0.41c0-.08-0.09-0.16-0.14-0.24l0.2-.05c0.25-.06.49-0.12,0.7-0.15l0.52-.08,0.2,0Z" transform="translate(-466.64 -2564.98)"/><path class="cls-18" d="M648.2,2624.8s9.27-5.22,11.31-6.24,10,27.38,10,27.38,37.4-51.22,57.86-51.22l13.21,10.58s-60.74,31.18-73.24,56.23C667.38,2661.53,656.56,2625.37,648.2,2624.8Z" transform="translate(-466.64 -2564.98)"/><path class="cls-1" d="M547.22,2600.53H544.9a2,2,0,0,0-2.06,1.86l0,12.9,2,0v-5.39h2.23v5.35h2v-12.77A1.85,1.85,0,0,0,547.22,2600.53Zm-0.14,2.59v4.94h-2.26V2603a0.62,0.62,0,0,1,.54-0.68h1.05A0.72,0.72,0,0,1,547.08,2603.12Z" transform="translate(-466.64 -2564.98)"/><path class="cls-1" d="M576.75,2600.53h-2.33a2,2,0,0,0-2.06,1.86l0,12.9,2,0v-5.39h2.23v5.35h2v-12.77A1.85,1.85,0,0,0,576.75,2600.53Zm-0.14,2.59v4.94h-2.26V2603a0.62,0.62,0,0,1,.54-0.68h1.05A0.72,0.72,0,0,1,576.61,2603.12Z" transform="translate(-466.64 -2564.98)"/><path class="cls-1" d="M587.92,2600.53h-2.33a2,2,0,0,0-2.06,1.86l0,12.9,2,0v-5.39h2.23v5.35h2v-12.77A1.85,1.85,0,0,0,587.92,2600.53Zm-0.14,2.59v4.94h-2.26V2603a0.62,0.62,0,0,1,.54-0.68h1.05A0.72,0.72,0,0,1,587.78,2603.12Z" transform="translate(-466.64 -2564.98)"/><path class="cls-1" d="M552.81,2613.23v-7.63h0v-5.11h-2l0,14.76h4.76v-2h-2.73Z" transform="translate(-466.64 -2564.98)"/><path class="cls-1" d="M561,2600.56s0,11.63,0,12.26a0.62,0.62,0,0,1-.54.68H559.3a0.72,0.72,0,0,1-.66-0.8l0-12.1h-2v12.77a1.85,1.85,0,0,0,1.83,1.93h2.33a2,2,0,0,0,2.06-1.86l0-12.9Z" transform="translate(-466.64 -2564.98)"/><path class="cls-1" d="M571.06,2608h-3.19v2h1.21v3.1a0.62,0.62,0,0,1-.48.37h-1.14a0.72,0.72,0,0,1-.66-0.8l0-7.91h-0.07c0-1,0-1.7,0-1.85a0.62,0.62,0,0,1,.54-0.68h1.14a0.72,0.72,0,0,1,.67.8v1.65h2v-2.32a1.85,1.85,0,0,0-1.83-1.93h-2.33a2,2,0,0,0-2.06,1.86v2.46h0v8.58h0v0h0a1.85,1.85,0,0,0,1.83,1.9H569a2,2,0,0,0,2.06-1.86v-0.1h0V2610h0v-2h0Z" transform="translate(-466.64 -2564.98)"/><path class="cls-1" d="M593.42,2615.26v-2h0v-7.63h0v-5.11h-2l0,14.76h2Z" transform="translate(-466.64 -2564.98)"/><polygon class="cls-1" points="124.69 34.62 126.07 34.62 127.49 32.22 125.54 32.22 124.69 34.62"/><path class="cls-1" d="M509.93,2614.51a6.44,6.44,0,0,0,4.64,3.47s0.6,0.41,2-.72,6.67-1.17,10.4-.72a4.07,4.07,0,0,0,1.88-.72s5.62-2.9,7.69-3.73a1.12,1.12,0,0,0,.75-1.28c-0.19-1-2.9-.79-7.12.72a2.17,2.17,0,0,1-.53,2s-1,1.21-5.5.38l0-.34s-0.15-.23,3.13,0c0,0,2.15.19,2.26-1.21,0,0,.49-1.36-2.64-1.43a23.6,23.6,0,0,1-5.47-.87,4.08,4.08,0,0,0-3.43.87C516.22,2612.28,510.34,2614.35,509.93,2614.51Z" transform="translate(-466.64 -2564.98)"/><path class="cls-1" d="M534.61,2608.39a0.88,0.88,0,0,1-.84.92H522.64a0.88,0.88,0,0,1-.84-0.92v-11a0.88,0.88,0,0,1,.84-0.92h11.14a0.88,0.88,0,0,1,.84.92v11Z" transform="translate(-466.64 -2564.98)"/><path class="cls-10" d="M529.19,2603h-4.11l1.08-1a0.32,0.32,0,0,0-.44-0.47l-1.67,1.57a0.38,0.38,0,0,0,0,.5l1.58,1.58a0.32,0.32,0,0,0,.45,0,0.32,0.32,0,0,0,0-.45l-1.08-1.08h4.19A0.32,0.32,0,0,0,529.19,2603Z" transform="translate(-466.64 -2564.98)"/><path class="cls-10" d="M527.21,2602.6h4.11l-1.08,1a0.32,0.32,0,0,0,.44.47l1.67-1.57a0.38,0.38,0,0,0,0-.5l-1.58-1.58a0.32,0.32,0,0,0-.45,0,0.32,0.32,0,0,0,0,.45l1.08,1.08h-4.19A0.32,0.32,0,0,0,527.21,2602.6Z" transform="translate(-466.64 -2564.98)"/></svg>