<svg id="Camada_1" data-name="Camada 1" xmlns="http://www.w3.org/2000/svg" viewBox="0 0 310.97 213.38"><defs><style>.cls-1{fill:#23879a;}.cls-1,.cls-10,.cls-4{opacity:0.2;}.cls-2{fill:#ffe7a3;}.cls-3{fill:#5c8eb6;}.cls-11,.cls-14,.cls-4{fill:#000100;}.cls-5{fill:#d51116;}.cls-6{fill:#fbc887;}.cls-7{fill:#fff;}.cls-15,.cls-8{fill:#d17f43;}.cls-9{fill:#f4e600;}.cls-12{fill:#2b2b2b;}.cls-13{fill:#212145;}.cls-14{opacity:0.4;}.cls-15{fill-rule:evenodd;}.cls-16{fill:#1b2120;}.cls-17{fill:#c75f16;}.cls-18{fill:#5789a9;}</style></defs><title>11 HQ</title><path class="cls-1" d="M31.69,0H275.35A35.62,35.62,0,0,1,311,35.62V196.33a0,0,0,0,1,0,0H0a0,0,0,0,1,0,0V31.69A31.69,31.69,0,0,1,31.69,0Z"/><path class="cls-1" d="M791.45,2761s177.06-114.93,311-82.36V2761h-311Z" transform="translate(-791.45 -2564.67)"/><path class="cls-1" d="M1102.42,2761s-177.06-114.93-311-82.36V2761h311Z" transform="translate(-791.45 -2564.67)"/><rect class="cls-2" y="196.33" width="310.97" height="16.74"/><path class="cls-3" d="M911.52,2683.53a6.56,6.56,0,0,0,1.14-3.55,24.21,24.21,0,0,1-6.74-9.12c-0.53-1.65-6.52-4.46-6.52-4.46-0.24-3-6-3.09-6.24-5.28a3.13,3.13,0,0,1,0-.34,44.65,44.65,0,0,0-8.37,2.43c-8.38,2.09-12.45,9.86-12.45,9.86-11.48,20.83,2,40.72,2,40.72l-1.13,3.14,44.27-.71c-6.23-6.38-12.35-21.52-12.35-21.52,10.08,5.05,12.33.15,12.33,0.15,2.76-1.89,2.23-3,1.44-5.74S911.52,2683.53,911.52,2683.53Z" transform="translate(-791.45 -2564.67)"/><path class="cls-4" d="M899.47,2668.18l1.53,11.74,8.36,3.72,2.17-.11s1.31-2.52,1.14-3.55c0,0-8.75.31-10-.74S899.47,2668.18,899.47,2668.18Z" transform="translate(-791.45 -2564.67)"/><path class="cls-4" d="M905.1,2694.81c-0.44-1.11-2.38-5.45-6.49-6.85-4.73-1.61-26.85-.5-26.85-0.5l-1.66,1.68c-0.77-3.75.64-12.65,0.67-12.82-8.6,19.64,3.54,37.57,3.54,37.57l-1.13,3.13,7.29-.29s0.5-4.32-.51-5.79-2.54-7.61-2.54-7.61c1.65-.16,3.68-2.24,3.68-2.24,2.56-.06,7.42-2.1,12.93-4.05s12.79,1.74,12.79,1.74h0c-1.08-2.37-1.73-4-1.73-4h0Z" transform="translate(-791.45 -2564.67)"/><path class="cls-5" d="M873.44,2610.46L872,2611s-16,16.34-18.26,27.68,7.14-3.89,25.44.58c0,0,13.61-3.54,8.09-11.69S881.73,2611.79,873.44,2610.46Z" transform="translate(-791.45 -2564.67)"/><path class="cls-4" d="M887.27,2627.57c-5.22-7.7-5.53-15-12.54-16.87-2.84,3-15.72,17-17.69,27.1a8.53,8.53,0,0,0-.06,4.5c4.11-1.66,11.68-5.61,22.2-3C879.19,2639.26,892.79,2635.72,887.27,2627.57Z" transform="translate(-791.45 -2564.67)"/><path class="cls-6" d="M926.08,2605.4s-1.55-7.86-15.24-8.93-31.21,9.91-35,10.85c0,0-5.31,1.1-1.58,9.73l-1.5,3.45s-2.4,2-.81,6.75,4.88,4.63,8,3.2c0,0-3,13.34.89,20.93,0.89,1.73,2.9,2.93,5.54,3.72a20.79,20.79,0,0,0-2.13,9.06c0.22,4.8,7.66.45,8.78-.58a41,41,0,0,1,1.22-7.26c8.42,0.46,18.06-1,21-2.35,5-2.37,10-9.24,10.47-12.76S921.9,2619.4,926.08,2605.4Z" transform="translate(-791.45 -2564.67)"/><path class="cls-7" d="M914.58,2607.24c-0.29.1-3.73,1-4.34,4.24s-0.66,7,1.37,9.43,5.12,0.93,6.8-1.84,2.09-8.63,1.69-9.27S917.26,2606.32,914.58,2607.24Z" transform="translate(-791.45 -2564.67)"/><path class="cls-7" d="M892.84,2608.77a4.9,4.9,0,0,0-3.62,3c-1.31,2.74-1.56,7.23.46,9.34s7.41,0.64,8-2.3,0.53-7.77-.55-8.93A5.21,5.21,0,0,0,892.84,2608.77Z" transform="translate(-791.45 -2564.67)"/><path class="cls-8" d="M890.82,2643.91a28.16,28.16,0,0,0,9.69-.35c4.31-1.13,19.53-6.43,19.66-9.26s-1.3,1.54-5.15,3-16.24,6.28-18.34,6.17S889.61,2643.79,890.82,2643.91Z" transform="translate(-791.45 -2564.67)"/><path class="cls-8" d="M903.93,2632.74c0.34,0.31,5,1.52,6.76.08s2-4.46.07-5.53-4.27-2-4.53-3.48-1.66,1.44-.67,2.28,5.37,2,4.89,3.71-3.13,2.43-4.6,2.32S903,2631.91,903.93,2632.74Z" transform="translate(-791.45 -2564.67)"/><path class="cls-8" d="M918.68,2607.84c-2-1.46-3.21-1.07-5.82-.4s-3.75,4.6-3.79,7.08,0.36,5.41,1.84,7.14,4.77,1.9,7.06.08,2.46-9,2.46-9C921.16,2611.3,920.72,2609.3,918.68,2607.84Zm-3,13.74c-1.65.6-3.83-.94-4.7-2.45s-1.57-6.66,1.4-10.05,5.85-.55,6.93,1-0.06,5.48-.06,5.48C919.4,2616.48,917.29,2621,915.64,2621.58Z" transform="translate(-791.45 -2564.67)"/><path class="cls-8" d="M898.16,2610.29c-1-2.17-3.73-3.06-5.24-3.08s-3.45,1.68-4.41,5-1.28,5.32-.86,6.44c0,0,.85,3,2.83,4.08a5.69,5.69,0,0,0,7.19-2.32C899.24,2617.61,899.17,2612.45,898.16,2610.29Zm-3,10.37a4,4,0,0,1-6.43-2.06c-0.85-2.59.37-7.3,1.89-8.41a3.42,3.42,0,0,1,2.77-.75,2.62,2.62,0,0,1,3.8,1.57C898.33,2614,897.74,2618.71,895.17,2620.66Z" transform="translate(-791.45 -2564.67)"/><path class="cls-8" d="M913,2614.14s-0.44,2.53,1.54,2.76,3.24-1.88,3-3.6-1.55-2.89-2.58-2.36a0.82,0.82,0,0,0-.42,1.29s1.66-1.28,2.19.3-0.24,3.08-1.14,3.34-1.9-1.65-1.76-2S913,2613.38,913,2614.14Z" transform="translate(-791.45 -2564.67)"/><path class="cls-8" d="M891.33,2614.61s-0.44,2.53,1.54,2.76,3.24-1.88,3-3.6-1.55-2.89-2.58-2.36a0.82,0.82,0,0,0-.42,1.29s1.66-1.28,2.19.3-0.24,3.08-1.14,3.34-1.9-1.65-1.76-2S891.37,2613.85,891.33,2614.61Z" transform="translate(-791.45 -2564.67)"/><path class="cls-4" d="M910.63,2596.72c-13.69-1.08-31.21,9.91-35,10.85,0,0-5.31,1.1-1.58,9.73l-1.5,3.45a3.73,3.73,0,0,0-.87,1.27l4.54,4.86,1.61-5.15,4.46,4.57,2.58-8.76,5.48,0.06-3-8.31,7-1.56s2.6,4.76,5.54,5.48c0,0,4-3.93,6.73-4.31a31,31,0,0,0,5.46,2.86,5.84,5.84,0,0,1,4.51-2.88s5.15,2.8,7.95,3h0a41.59,41.59,0,0,1,1.32-6.25S924.32,2597.8,910.63,2596.72Z" transform="translate(-791.45 -2564.67)"/><path class="cls-9" d="M874.52,2608s-6,13.81-5.95,13.4,2.92-1.88,2.92-1.88,4.31,5,5,5.27,0.62-6.43.9-6.84,5.83,4.87,5.83,4.87-0.74-6.86.09-7.26,4.65,0.74,5.75.21-6.24-5.69-5.65-9.25S877.4,2605,874.52,2608Z" transform="translate(-791.45 -2564.67)"/><g class="cls-10"><path class="cls-11" d="M875.39,2612.26l8.29-4a3.47,3.47,0,0,1-.27-1.84c0.59-3.56-6-1.51-8.89,1.5,0,0-5,11.53-5.82,13.2a18.34,18.34,0,0,1,2.79-1.69s4.31,5,5,5.27,0.62-6.43.9-6.84,5.83,4.87,5.83,4.87-0.74-6.86.09-7.26a2.32,2.32,0,0,1,1-.07l-0.19-.2-2.31-1.76-1.83,4.46-4.21-2.8-2.78,3.54,1.72-6.56Z" transform="translate(-791.45 -2564.67)"/><path class="cls-11" d="M868.7,2621.16a0.35,0.35,0,0,0-.13.2A0.31,0.31,0,0,0,868.7,2621.16Z" transform="translate(-791.45 -2564.67)"/></g><path class="cls-9" d="M927.55,2605.07s2.82,4.56,4.18,5.39-4.13.5-4.13,0.5l2.06,4.31-5.23-1.19,1.66-8.68S924.41,2603.66,927.55,2605.07Z" transform="translate(-791.45 -2564.67)"/><path class="cls-4" d="M927.32,2613l-1.44-2.07,1.18-3.05,1.6-.26s-0.2-.78-0.42-1.5c-0.41-.63-0.68-1.06-0.68-1.06l-0.54-.23c-0.38-.07-0.87-0.17-1.36-0.21a1.4,1.4,0,0,0,.43.78l-1.66,8.68,5.23,1.19-1.94-4.06h0Z" transform="translate(-791.45 -2564.67)"/><path class="cls-5" d="M925.46,2586.19c-4.32-5.53-20.48-6.27-20.48-6.27-4.58-6.36-8.68-.1-8.68-0.1s-5.3-.06-14.15,6.68S872,2611,872,2611c25.34-10.52,56-6.74,56-6.74C928,2603.48,929.78,2591.72,925.46,2586.19Z" transform="translate(-791.45 -2564.67)"/><path class="cls-6" d="M905.09,2694.67c10.08,5.05,12.33.15,12.33,0.15,2.76-1.89,2.23-3,1.44-5.74s-7.33-5.57-7.33-5.57-2.69-2-10.53-3.6l1,4.21s-7.73-3-14-2.27-7.7,2.38-7.7,2.38l-1.6-3.86s-4-1.24-6.93,6.59l2.11,7.33s-1.23,3.18-.69,4.56,4.55,1.33,6.4-.56a15.38,15.38,0,0,0,4.31-1c2.11-.89,6.74-5.95,10.85-6.08s10.1,3.5,10.1,3.5l0.37,0.29Z" transform="translate(-791.45 -2564.67)"/><path class="cls-12" d="M869.82,2767.33s-2.42,4.22-2.55,6.72c0,0,14.23,6.42,26.63,2.36,0.38-.18,2.59-5.63-2.38-8,0,0-4.8.17-6.43-2.13C885.09,2766.26,875.46,2762.71,869.82,2767.33Z" transform="translate(-791.45 -2564.67)"/><path class="cls-12" d="M905,2764.51l-2.19,4.84s13.93,5.76,25.69,2.94c0,0,4-3.6,1.5-8.44,0,0-9.14,1.38-11.51.34S905,2764.51,905,2764.51Z" transform="translate(-791.45 -2564.67)"/><path class="cls-13" d="M918.55,2764.19c1.32-1.29-1.74-3.31-1.74-3.31,9.18-11.4-2.24-42.23-2.24-42.23l2.5-2.44-0.26-.27c-11.77-.38-43.76,1-43.76,1l-0.1.38c2.5,7.1,2,33.73,1,39.23s-2.21,1.48-3.89,4.89a5.83,5.83,0,0,0-.07,5.75l-0.18.16a74,74,0,0,0,15.27-1.07c0.32-3.83,6-12,8.71-17.71s2.64-14.49,2.64-14.49c8,4.14,10.21,17.32,10.12,18.82s-0.15,4.28-.06,5.48-2.06.73-2.49,2.37,0.92,3,1.05,3.78a0.65,0.65,0,0,1,0,.17Z" transform="translate(-791.45 -2564.67)"/><g class="cls-10"><path class="cls-11" d="M882,2692.39s0.78-2.18,1.4-2.55,7,1.14,7,1.14a99.11,99.11,0,0,1-8.69,6.58c1,0.34,2.23-.18,3.87-1.37,2.4-1.78,5.92-4.88,9.13-5a9.34,9.34,0,0,1,2,.19h0c1.86,0-9.62-2.57-11.88-3s-4.08-2.84-4.61-4.11C880.27,2684.26,882.19,2689.92,882,2692.39Z" transform="translate(-791.45 -2564.67)"/></g><path class="cls-4" d="M918.85,2689.11a3.62,3.62,0,0,0-.77-1.31c-0.1.8-.68,1.61-2.7,1.46-3.83-.29-8.88-4.4-13.35-5.1,0,0,6.39,2.45,8.95,6s3,4.62,6.43,4.68C920.18,2693,919.64,2691.86,918.85,2689.11Z" transform="translate(-791.45 -2564.67)"/><path class="cls-4" d="M902,2684.16s8.89-.22,11.52.49c0,0-4-3.12-12.56-4.74Z" transform="translate(-791.45 -2564.67)"/><path class="cls-4" d="M873.87,2694.3a18.53,18.53,0,0,0,.87,3.26c0.36,0.56,3.77.87,4.83,0.73s-3.53,1.07-4.44.74S873.48,2696.29,873.87,2694.3Z" transform="translate(-791.45 -2564.67)"/><path class="cls-4" d="M879.6,2682.55l-0.9-2.16,3.24,0s-5.23-5.89-5.37-5.94-1.13-1.43-2.54-1.31a4.33,4.33,0,0,1,3,.95c1.23,1.11,5.92,6.78,5.92,6.78Z" transform="translate(-791.45 -2564.67)"/><path class="cls-14" d="M909.19,2764.51c0-1.43,0-3.58-.07-6.75-0.28-7.49-6.64-25.47-8.71-27.87s0-6.21-.71-9.33c0,0-.22,5.3-1.05,5.77a1,1,0,0,1-1.37-.43s-1.15-7.41-2.36-9.21h-0.75a27.26,27.26,0,0,1,1.11,2.55s1.52,4.59,1.27,7.32a60.55,60.55,0,0,0-.08,6.58l0.21,1.05c7.77,4.28,10,17.2,9.88,18.69s-0.15,4.28-.06,5.48-2.06.73-2.49,2.37,0.92,3,1.05,3.78a0.65,0.65,0,0,1,0,.17Z" transform="translate(-791.45 -2564.67)"/><path class="cls-4" d="M916.88,2716.21l-0.26-.27c-11.77-.38-43.76,1-43.76,1l-0.1.38c2.5,7.1,2,33.73,1,39.23s-2.21,1.48-3.89,4.89a5.83,5.83,0,0,0-.07,5.75l-0.18.16a61.32,61.32,0,0,0,9.1-.25s1.32-32.12,2.61-38.68,2.69-4.9,6.67-5.4c3.62-.45,23.79-0.94,27.49-1-0.66-2.08-1.12-3.32-1.12-3.32Z" transform="translate(-791.45 -2564.67)"/><path class="cls-4" d="M882.26,2664s-0.43,5.8,3.33,4.65,8.66-3.16,9-4.51a6.66,6.66,0,0,1-5.17,4.71C884.67,2669.69,881,2671.11,882.26,2664Z" transform="translate(-791.45 -2564.67)"/><path class="cls-9" d="M890.74,2601.11s11.12-6.88,20.36-6.77,12.94,2.54,17.2,8.4,2,6.29,2,6.29-0.28-1.35-5.19-2.75-0.34,3.13,0,3.58-6.11-.67-7.86-3.67-2.43,3.65-2.43,3.65-5.2-1.5-6.22-3.45-6.29,2.36-6.9,3.3-5.85-1.81-5.67-4.31S892.54,2600.09,890.74,2601.11Z" transform="translate(-791.45 -2564.67)"/><path class="cls-4" d="M923,2606.24a16.52,16.52,0,0,1-4.67-.74c-1.84-.71-4-3.68-4.36-1.9s-2.7,2.5-2.7,2.5c-2.34.52-6.26-3.36-6.26-3.36-2.47.52-3.68,3.92-3.68,3.92-1.3-.5-4.12-5-4.12-5s2.32,0.64,5.44-2.06c1.87-1.62,10.74-2.67,17-4a26.89,26.89,0,0,0-8.5-1.2c-9.24-.11-20.36,6.77-20.36,6.77,1.8-1,5.44,1.77,5.26,4.27s5.06,5.25,5.67,4.31,5.88-5.25,6.9-3.3,6.22,3.45,6.22,3.45,0.68-6.65,2.43-3.65,8.15,4.12,7.86,3.67S922.35,2607,923,2606.24Z" transform="translate(-791.45 -2564.67)"/><path class="cls-4" d="M896.33,2579.71s2.59-3.8,5.77-2.3c0,0-2.55,1.56,2.36,2.3C904.46,2579.71,899.27,2578.89,896.33,2579.71Z" transform="translate(-791.45 -2564.67)"/><path class="cls-4" d="M923.53,2646.21c-4.41,4.51-30.31,11.8-37.73,5.68s-5.77-21.44-5.77-21.44-3,13.34.89,20.93c0.89,1.73,2.9,2.93,5.54,3.72a20.79,20.79,0,0,0-2.13,9.06c0.22,4.8,7.66.45,8.78-.58a41,41,0,0,1,1.22-7.26c8.42,0.46,18.06-1,21-2.35C918.4,2652.5,921.51,2649.28,923.53,2646.21Z" transform="translate(-791.45 -2564.67)"/><path class="cls-6" d="M995.84,2648.8l1.42-1.06A7.89,7.89,0,0,0,995.84,2648.8Z" transform="translate(-791.45 -2564.67)"/><path class="cls-6" d="M970.62,2614.24l-0.41,5.57-1.13,12.14c0.9,0.92,4.83,8.83,9.75,10a41.72,41.72,0,0,0,5.83,1.17l-0.07,5.85s-0.43.11-1.08,0.33l1.1,0.36,11.22-.83-1.31-5s13-3.13,15.25-6.94,2.36-13.86,2.36-13.86l-0.28-7s4.14-.68,4.23-5.66c0.05-2.39.09-4.52,0.1-5.75,0-.41,0-0.82-0.06-1.21a1.74,1.74,0,0,1-.08-0.85c-0.27-2.18-1-3.82-2.62-4.09,0,0,2.37-3.64-2.25-6.71s-7.16-9-11-9.86-28.41,3.77-28.46,7.75l-0.1,8.33s-3.18-1.38-3.88,7.79l0,3.65C968.09,2614.69,970.62,2614.24,970.62,2614.24Z" transform="translate(-791.45 -2564.67)"/><path class="cls-7" d="M1000.84,2600.94s-2.93,2.61-3.65,4.8-1,4.71-.07,5.53,3.78,0.18,5,.06,5-.08,5-1.45,0.43-5.66.07-6-1.43-2.84-2.62-2.86Z" transform="translate(-791.45 -2564.67)"/><path class="cls-7" d="M981.22,2599.2s-2.35-.85-3.28.22-1.32,3.07-1,5.81-0.18,3.28,2,3.95,4.26,1.15,5.18.43,3.51-3.44,3.51-3.44a15.84,15.84,0,0,0-.48-4.31c-0.54-1.54-2.55-2.16-3.18-2.37A17,17,0,0,0,981.22,2599.2Z" transform="translate(-791.45 -2564.67)"/><path class="cls-15" d="M1006.45,2601.65c-1.94-1.85-3.59-1.23-5-1a9.83,9.83,0,0,0-4.27,2.69,7,7,0,0,0-1.39,4.37c-0.12,2.47-.45,3.24.78,3.75a11.62,11.62,0,0,0,5.11,1.16c3.1,0,6-1.57,6.06-3S1008.39,2603.5,1006.45,2601.65ZM1006,2609a6.51,6.51,0,0,1-2.94,1.61c-1.65.35-5.74-.89-5.74-0.89-0.72-1.2.61-4.93,1.63-6.19a4.84,4.84,0,0,1,5.95-.84C1006.92,2604.12,1006.41,2608.77,1006,2609Z" transform="translate(-791.45 -2564.67)"/><path class="cls-15" d="M988.4,2602.35c-0.88-2.66.49-2.73-2.15-3.22s-4.27-1.88-6-1.26-3.1-.13-4.15,3.15-0.15,4.66-.08,6.58a3.34,3.34,0,0,0,2.43,3.41c0.44,0.12,8.95.29,9.34-1.81S989.28,2605,988.4,2602.35Zm-5.56,6.51c-2.66,1-4.2-.42-4.29-0.69a7.54,7.54,0,0,1-1.61-2.94,16.31,16.31,0,0,1,.69-4.29s0.55-.45,1-0.87,1.84-1,2.47-.46,3.1,0.49,4.83,1.34,1,2.11,1.14,4.12S985.5,2607.89,982.84,2608.86Z" transform="translate(-791.45 -2564.67)"/><path class="cls-15" d="M981.55,2601.79s-0.35-1.45-1.18-1-1,3.31-.06,5.45,3.17,2.17,3.91,1.36,1.5-3,.77-3.64-0.45-.58-0.83.48-0.87,2.09-2,1.83-1.16-1.17-1.33-2.73S981.1,2601.31,981.55,2601.79Z" transform="translate(-791.45 -2564.67)"/><path class="cls-15" d="M1001.18,2603s-1.83.31-2,1.65-0.06,5.09,1.95,5.2,3.78-2.51,4-3.79,0.23-3.65-.88-3,0.06,2.83-1.14,4.1-1.3,2.1-2.21,1.21-0.87-3.39-.32-3.77S1002.19,2603.26,1001.18,2603Z" transform="translate(-791.45 -2564.67)"/><path class="cls-8" d="M987,2615.3a0.7,0.7,0,0,0-1.11,0c-0.56.63,0.78,3.85,2.23,5s6.93,1.18,8.49.1,1.83-6,.5-6.11-0.12,2.65-1.49,3.82-1.75,2.54-4.76,1.68A5.79,5.79,0,0,1,987,2615.3Z" transform="translate(-791.45 -2564.67)"/><path class="cls-8" d="M978.25,2626.07s3.34,2.68,10.18,3.14c8.33,0.56,9.69-.07,12.18-2s1.06,3-1,3.09-14.68.19-19.8-2.24C978.41,2627.4,976.65,2625.74,978.25,2626.07Z" transform="translate(-791.45 -2564.67)"/><path class="cls-4" d="M971.9,2599.34l-1.27,14.9s-3.2-.17-2.91-4.87c0,0,1.53,1.08,2-1.43S971.9,2599.34,971.9,2599.34Z" transform="translate(-791.45 -2564.67)"/><path class="cls-4" d="M1013,2599.32c-0.14.58-1.16,16.64-1.16,16.64a5.25,5.25,0,0,0,4.35-5.09c0.42-4.63-3.32-1-3-4.41A36.87,36.87,0,0,0,1013,2599.32Z" transform="translate(-791.45 -2564.67)"/><path class="cls-16" d="M969.36,2598.8a1.27,1.27,0,0,0-.23.51A2,2,0,0,0,969.36,2598.8Z" transform="translate(-791.45 -2564.67)"/><path class="cls-16" d="M1015.61,2580.16c-2.6-4.45-13.34-7.71-26.1-7a32.89,32.89,0,0,0-14.4,3.8,17.26,17.26,0,0,0-2.39,1.54l-0.5.39,0,0a9.14,9.14,0,0,0-.82.74l-2.48,9.11s1,7,1.09,8.42a0.83,0.83,0,0,0-.56.1,3.19,3.19,0,0,1,0,1.54,2.41,2.41,0,0,1,2.14-.83s0.67-6.79,2-7.31,1.34,0.3,3.56,1.82c7,4.8,33,2.69,33.54,1.36,0,0,4.23,1.78,2.69,4.63,0,0,2,.12,2.7,4.94l0.12-.37c-0.56-1.4,2.23-8.47,2.77-9.86a0.93,0.93,0,0,0,0-.35,0.48,0.48,0,0,0,.19-0.25C1019.68,2590.93,1018.2,2584.61,1015.61,2580.16Z" transform="translate(-791.45 -2564.67)"/><path class="cls-4" d="M1012,2621.35c-4.2,20.41-17,16.42-25.69,17.69s-17.29-7.1-17.29-7.1c0.9,0.92,4.83,8.83,9.75,10a41.72,41.72,0,0,0,5.83,1.17l-0.07,5.85s-0.43.11-1.08,0.33l1.1,0.36,11.22-.83-1.31-5s13-3.13,15.25-6.94,2.36-13.86,2.36-13.86Z" transform="translate(-791.45 -2564.67)"/><path class="cls-12" d="M990.91,2767.08l-2.45,5.09s1.38,3.3.86,4.58,22.59,2,28.31.34c0,0-2.71-8.84-8.16-10.51a48.89,48.89,0,0,1-11.16-5.57S992.87,2763,990.91,2767.08Z" transform="translate(-791.45 -2564.67)"/><path class="cls-12" d="M967.66,2762.88s-13.44,5.23-18.89,4.89a8.44,8.44,0,0,0,1.33,4.86s28.49,1.25,33.43.4c0,0,1.4-5.91,1.17-8s-7.84-7.5-8.57-7.32S967.66,2762.88,967.66,2762.88Z" transform="translate(-791.45 -2564.67)"/><path class="cls-16" d="M1008.84,2765.47s-3-26.16-.46-41.88l-1.55-2.72s-2.33-5.33-3.23-6.25,0.89-4.19.89-4.19,2.46-8.92-9-9.79-27.7,3.69-27.7,3.69l-2,13.71c0.46,5.24,2.72,31,3.27,39.84l-2,2c-0.92.9,2,1.12,0.88,2.75a1.3,1.3,0,0,1-.29.27,12.48,12.48,0,0,1,1.73,1.83c0.72,1,11.14.52,15.31,0.3,0.87-6.93,1.76-16.79.85-23,0,0,5.19,9.2,5.37,25.09,0,0,11.43-2,19.78-.29A15.56,15.56,0,0,0,1008.84,2765.47Z" transform="translate(-791.45 -2564.67)"/><path class="cls-4" d="M1008.84,2765.38s-2.63-23-.87-38.8a30.32,30.32,0,0,1,.42-3.08l-1.55-2.72s-2.33-5.33-3.23-6.25,0.89-4.19.89-4.19a8.2,8.2,0,0,0-.74-5.73,44.85,44.85,0,0,0-6.51-1.84c-1.92-.32-14.82,2.2-17,1.44a44.87,44.87,0,0,0-7.46-1.19h0s-0.55.29-1.27,0.77l-2.47,6.41c0.23,0.1,4.77,2,7.27,1.46s11.88-.21,17.35.3,7.24,14.6,7.24,14.6,0.78,35.58-.46,39.16c0,0,7.13-.3,10.26,1A15.56,15.56,0,0,0,1008.84,2765.38Z" transform="translate(-791.45 -2564.67)"/><path class="cls-6" d="M966,2675.42s-5.81,16.81-4,30.23l3.78,12.38,5.49-13.39,3.1-30.66S971.12,2670.17,966,2675.42Z" transform="translate(-791.45 -2564.67)"/><path class="cls-4" d="M965.12,2678.31l2,0.43-0.05,4.32,2.21,2.19s-1.47,16.06-2.77,18.15,2.48,6.86,2.48,6.86l2.3-5.62s1-11,1.46-14.42,0-13.89,0-13.89l-2.32-1.24-4.46.32Z" transform="translate(-791.45 -2564.67)"/><path class="cls-17" d="M1023.29,2676.12c0-4.2,2-16.42-2.65-22.69,0,0-5.46-1.53-6.53-3.91l-4.38-.05-2.53-2.41-8.59-.1c-1.28,0-2.85,1.52-2.85,1.52l-0.49-1.87a8.85,8.85,0,0,1-4.93,2.28,31,31,0,0,1-6,0l-0.52-.12a18.66,18.66,0,0,0-6.14,3c-2.22,2-5.17,4.87-5.17,4.87s-1.19,7.66-2.48,8.56l-1.29.9s-3.5,2.33-3.89,4.7a3.51,3.51,0,0,0,1.6,3.53s-0.18.36-.47,1a18.19,18.19,0,0,0,3.75.25l-1.71,5.27,3.28,0.59c1.06,2.94-3.54,20.79-3.54,20.79s1,6.41,12.92,4.36S1003,2710,1003,2710c1.79-.71,4.3-4.7,4.3-4.7,0.4,1.1.76,16.59,0.76,16.59v0.78q0.13-.75.29-1.46l0.34,17.36,6.44-4.13-0.05,4.38,11-6.08s0.28-39.09-.57-44.59S1023.24,2680.32,1023.29,2676.12Z" transform="translate(-791.45 -2564.67)"/><path class="cls-4" d="M990.89,2652.8a42,42,0,0,0-4.12,8.63c-1.14,3.91-.67,22.83-0.67,22.83s-7.43,5.12-8,6c0,0-1.78-3.86-2.51-4.41s6.23-24.77,7.36-27.41,5.61-8.44,5.61-8.44Z" transform="translate(-791.45 -2564.67)"/><path class="cls-18" d="M990.17,2652a20.45,20.45,0,0,0-1.89-2.31s-2.9.65-3.4,0-2.57,2.8-2.13,4-13.45,21.13-14.69,27.32c0,0,6.73,4.65,8,7.68,0,0,5.19-6,7.48-6.67,0,0-.33-18.82,4.44-27.44C987.94,2654.5,990,2652.79,990.17,2652Z" transform="translate(-791.45 -2564.67)"/><path class="cls-16" d="M1026.09,2732.79s0.28-39.09-.57-44.59-2.28-7.88-2.23-12.08,2-16.42-2.65-22.69c0,0-5.46-1.53-6.53-3.91l-4.38-.05-2.53-2.41-8.09-.1a24,24,0,0,0-2.3,1.31,95,95,0,0,0-5,8.9h0s-2.88,1.18-3.45,2.73-2,3.27-2,3.81-0.32,3.4.73,3.71c0.68,0.56,5.43.57,5.43,0.57l11.09-5.82a1.27,1.27,0,0,0,.26.52,6.08,6.08,0,0,1,2.69,4l0.62,28.24s-1.62,4.22-.22,5.2,0.2,2.06.3,5.21c0.06,2,1.37,13.21,1.16,21.68l0.23,11.58,6.44-4.13-0.05,4.38Z" transform="translate(-791.45 -2564.67)"/><path class="cls-4" d="M1026,2699.08l-5.14,3.14-4.8.63,1.28,30.16,2,3.5-4.29,2.36,0.05-4.38-0.6-28.92-3.11,2.16,0.21,29-2.94,1.88-1.39-33.27a32.11,32.11,0,0,1,.58-4c0.39-1.3-2.24-1.64.26-10.21,0.25-.84,10-2,10-2l7.63,2.09Z" transform="translate(-791.45 -2564.67)"/><path class="cls-4" d="M1013.68,2656.5s3.38-1.18,6.08-.34c0,0-1.12.67-2.21,1.21s4.14,10,5.07,12.21a8.13,8.13,0,0,1,.86,3.27,29.19,29.19,0,0,0,.06,6.37c0.45,2.13-4.37,4.2-4.77,4s-3-12.71-3.82-14.26-3.26-5.55-3.78-5.5-1.79-4.76-1.79-4.76Z" transform="translate(-791.45 -2564.67)"/><path class="cls-17" d="M1003.62,2662.17s8.83-5.55,10.06-5.67c0,0,2.16,3,3,3.87s8.16,22.33,8.16,22.33-10.91,1.34-11.86.78S1001.49,2663.49,1003.62,2662.17Z" transform="translate(-791.45 -2564.67)"/><path class="cls-4" d="M1024.27,2680.74a20,20,0,0,1-2.56-3.29c-0.94-1.62-6.85-1.07-6.85-1.07s6.89-2.53,4.85-3.16-8.62-1.4-8.47-2.36,8.27-3.3,6.2-3.22-7.14,1.56-6.42-1.17,5.52-3.22,3.18-3.25-5.07.76-4.79-.06,4.86-5.86,4.86-5.86a7.74,7.74,0,0,0-.89-0.71c-1.95.75-9.74,5.57-9.74,5.57l-2,1c1.43,3.36,4.89,10.13,5.7,12,1.08,2.48,11.25,9.45,14.53,9.49S1024.27,2680.74,1024.27,2680.74Z" transform="translate(-791.45 -2564.67)"/><path class="cls-17" d="M1016.07,2678.59l3.38,0,1.52,2.85,3.85,1.23,1.78,7.79-8.47,7.3-8,1.09s-1.79-3.07-2.56-3.24-4.85-3.35-4.85-3.35l1.59-3.35,1.79,3Z" transform="translate(-791.45 -2564.67)"/><path class="cls-6" d="M992.53,2668l1.27,0.75a3.6,3.6,0,0,1,2.75,1c1.16,1.2,8.77,21.39,9.59,22.22s6.3,0.26,9.29-1.63,1.54-10.67.64-11.78-9.3-7.72-12.45-16.42Z" transform="translate(-791.45 -2564.67)"/><path class="cls-4" d="M1016.62,2680s-0.44,9.62-4,9.06-11.82-19.73-11.82-19.73l3.63-5.12h0c-0.31-.66-0.6-1.34-0.85-2L992.53,2668l1.27,0.75a3.6,3.6,0,0,1,2.75,1c1.16,1.2,8.77,21.39,9.59,22.22s6.3,0.26,9.29-1.63C1017.84,2688.85,1017.36,2682.85,1016.62,2680Z" transform="translate(-791.45 -2564.67)"/><path class="cls-4" d="M998.32,2658.1s-3,0-3.12,1.33-1.29,1.17-1.29.81,0.76-2.18,1.3-2.18,0-1.68,0-1.68a4.12,4.12,0,0,1,2.17.52c1.47,0.66,10.13-6.09,10.87-6.27s4.59-2,0,1.28A102,102,0,0,1,998.32,2658.1Z" transform="translate(-791.45 -2564.67)"/><path class="cls-4" d="M990.59,2662.57a8.61,8.61,0,0,0,4-.82,26.1,26.1,0,0,1,6.14-1.71c0.5,0,1,.55-1.2,1.35s-5.6,2.64-6.7,2.62l-2.51,0C989.84,2664,988,2662.32,990.59,2662.57Z" transform="translate(-791.45 -2564.67)"/><path class="cls-4" d="M988.27,2649.67l2.61,3.14,5.2-3.47-0.82-2.73s-1.57,3.86-3.1,4.12S988.27,2649.67,988.27,2649.67Z" transform="translate(-791.45 -2564.67)"/><path class="cls-4" d="M984.88,2649.63l-1-.82-3.68,1.44s1.84,3,2.56,3.37C982.75,2653.62,983.07,2650.13,984.88,2649.63Z" transform="translate(-791.45 -2564.67)"/><path class="cls-4" d="M968.74,2702.69s4.61,2.25,6.6,1.36,0.07-5.57.07-5.57,2.38,4,4.15,4.89c0,0,5.6-1.21,4.77-6.52,0,0,2.5,6.87,6,7.6s7.89-2.53,8.18-12.2c0,0,1.4,3.69,2.31,4.43s-1.11-15.91-3.59-21.24-0.64-5.67-.64-5.67,9.91,15.46,10.61,15.66,0.44,10.22.44,10.22-2.78,2.91-.62,4.48c0,0,2.05,5.41-4,9.91a39,39,0,0,0-18.75-3.77S970.87,2707.65,968.74,2702.69Z" transform="translate(-791.45 -2564.67)"/><path class="cls-4" d="M978.67,2654.95l-4.42,13.43-3.77,6.72-3.29.49s1.76-2.35,1-3,1.54-.22,3.07-2.52,3.53-5.47,3.34-8.32,0.6-2,1.32-4.07A4.84,4.84,0,0,1,978.67,2654.95Z" transform="translate(-791.45 -2564.67)"/><path class="cls-4" d="M985.55,2742s-5.6-16.33-7.11-19.09,0.5,20.74-.91,27.76-5.5,14.8-5.5,14.8l12.66-.46s1.52-18.81.71-22.29" transform="translate(-791.45 -2564.67)"/></svg>