<svg id="Camada_1" data-name="Camada 1" xmlns="http://www.w3.org/2000/svg" viewBox="0 0 315 232.61"><defs><style>.cls-1{fill:#fff;}.cls-2{fill:#23879a;}.cls-10,.cls-14,.cls-2{opacity:0.2;}.cls-3{fill:#e9c68e;}.cls-4{fill:#f07f20;opacity:0.5;}.cls-5{fill:#fbc787;}.cls-6{fill:#2b2b2b;}.cls-7{fill:#212145;}.cls-8{fill:#5c8db4;}.cls-10,.cls-15,.cls-9{fill:#000100;}.cls-9{opacity:0.4;}.cls-11{fill:#d07f43;}.cls-12{fill:#d41116;}.cls-13{fill:#f4e600;}</style></defs><title>01 HQ</title><rect class="cls-1" width="310.97" height="231.72"/><polygon class="cls-2" points="310.97 174.86 304.94 174.86 304.94 168.61 296.44 168.61 296.44 172.11 288.94 172.11 284.19 167.36 277.44 167.36 277.44 170.86 269.94 170.86 269.94 189.11 256.69 189.11 256.69 166.86 227.69 160.36 227.69 154.98 205.07 154.98 200.44 150.36 193.69 150.36 193.69 160.11 179.19 160.11 179.19 168.61 174.69 168.61 174.69 162.11 168.69 162.11 164.69 166.11 159.69 166.11 159.69 159.48 149.32 159.48 143.69 153.86 131.44 153.86 131.44 167.36 120.44 167.36 120.44 164.11 105.19 164.11 105.19 159.36 94.44 159.36 94.44 153.36 85.44 153.36 85.44 157.36 78.94 157.36 78.94 144.86 70.69 144.86 70.69 94.11 35.44 94.11 35.44 146.11 31.44 146.11 31.44 142.61 23.69 142.61 23.69 133.12 15.44 133.12 15.44 128.86 6.19 128.86 6.19 143.36 0 143.36 0 226.83 310.97 226.83 310.97 174.86"/><path class="cls-3" d="M748.95,1821H476.46s28.49,2.13,43.48,3.17,50.65,2.56,60.18,2.6,34.59,0,54.86,0,124.09-3.29,131.21-2.88S748.95,1821,748.95,1821Z" transform="translate(-452.5 -1594.22)"/><path class="cls-4" d="M656.08,1674.37s3.11,0,2.28-4.15a5,5,0,0,0-4.36-4.36,52.57,52.57,0,0,1-2.07-6.85c2.59,2.59,7.05,2.9,7.05,2.9-2.7-.83-3.73-5.6-3.73-5.6,3.53,0.21,8.71-2.28,8.71-2.28-2.28-3.94-7.67-3.53-8.82-4.87s1.14-1.14,1.14-1.14a11.56,11.56,0,0,0-6.43,0c-2.7-8.92-6-10.79-8.92-12.19s-14.52,1.4-14.52,1.4c-0.83-1.66-5-2.07-8.09,0s-4.36,7.47-4.36,7.47a111.22,111.22,0,0,0-7.67,8.5c-2.7,3.53-2.49,21.78-2.49,21.78-9.75,6.64-27.17,27.17-27.17,27.17,3,3.67,23.22-11.4,29.48-16.2-0.74,1.84.19,5.07,2.67,7.7l-2.9,2.9s-5,1-6.85,2.28-10.58,8.71-19.5,31.11-7.05,38.37-7.05,38.37l4.15,4.15-1.45,14.31s-6.43,4.77-8.5,5.19a4,4,0,0,1-3.42-.93l-3.22,3.63-2.14,1s-6.37-.13-7.4.91,0,12.45,0,16,0.21,7.67,6.43,8.3,10.37-.41,8.3-3.32-5-3.32-4.56-7.88S562,1806,562,1806h3.42c1,0,1.66-1.76,1.66-1.76s13.48-1.87,18.46-2.9,10.79-7.67,12-10.37c0,0,10.79,11.82,11.2,14.93s2.28,3.11,2.28,3.11a1.63,1.63,0,0,0,0,2.7c1.66,1.45,1.45,5.19,4.87,4.67a27.14,27.14,0,0,0,11.3-4.87c3.73-2.7,16.8-9.33,17-11s-2.7-1.66-2.39-4.25-5.29-2.59-7.36-2.59-6.43,7.47-12.45,8.09c0,0-1.87-3.11,0-3.73l-3.42-3.42s-4.25-16.91-7.36-21.05c0,0,5.19-10.16,5.81-12.24s2.28-17.63-2.9-31.32c0,0,1.45-.41,1.45-3.94s-6.64-18-6.64-18l1.76-1.76v-3.63l6.49-1.42h0c3.4,7,8.44,16.53,11,17.18,4.15,1,29-6.64,32.57-11.2s5-17.42,5-17.42A87,87,0,0,1,656.08,1674.37Zm-45.22,80.53a46,46,0,0,0,.43,5.2c-1.85.12-3.36,3.36-3.36,3.36a6.11,6.11,0,0,0-1-3l1.56-1.56a20,20,0,0,0-1-4.77c0.62-1.09,1-5.5,1-5.5C608.79,1750.65,611,1753.82,610.86,1754.91Z" transform="translate(-452.5 -1594.22)"/><path class="cls-5" d="M608.79,1693l-2.9,2.9s6.22,3.73,4.87,6l6.49-1.42h0c3.4,7,8.44,16.53,11,17.18,4.15,1,29-6.64,32.57-11.2s5-17.42,5-17.42a87,87,0,0,1-9.75-15.35s3.11,0,2.28-4.15a5,5,0,0,0-4.36-4.36,52.57,52.57,0,0,1-2.07-6.85c2.59,2.59,7.05,2.9,7.05,2.9-2.7-.83-3.73-5.6-3.73-5.6,3.53,0.21,8.71-2.28,8.71-2.28-2.28-3.94-7.67-3.53-8.82-4.87s1.14-1.14,1.14-1.14a11.56,11.56,0,0,0-6.43,0,32.28,32.28,0,0,0-2.36-5.93l-36.84,18.38-6.85,25.72,0.26,1.32,2-1.55C605.37,1687.1,606.31,1690.33,608.79,1693Z" transform="translate(-452.5 -1594.22)"/><path class="cls-1" d="M640.42,1672.65c0.13,0.39,2.68,4.15,4.29,3.74s3.79-4.54,2.93-5.22-1.6-3.16-5.85-3.54C641.79,1667.63,639.65,1670.46,640.42,1672.65Z" transform="translate(-452.5 -1594.22)"/><path class="cls-6" d="M641.88,1796.22c0.31-2.59-5.29-2.59-7.36-2.59s-6.43,7.47-12.45,8.09v0s-11.31,5.42-11.89,6.34a1.23,1.23,0,0,1-.34.29,2,2,0,0,0,1.26.63,1.63,1.63,0,0,0,0,2.7c1.66,1.45,1.45,5.19,4.87,4.67a27.14,27.14,0,0,0,11.3-4.87c3.73-2.7,16.8-9.33,17-11S641.56,1798.82,641.88,1796.22Z" transform="translate(-452.5 -1594.22)"/><path class="cls-6" d="M556.93,1820.88c6.22,0.62,10.37-.41,8.3-3.32s-5-3.32-4.56-7.88S562,1806,562,1806h3.38L560,1794.78l0-.09a20.53,20.53,0,0,0-3-.66c-2-.37-5.5,1.54-6.53,2.58s0,12.45,0,16S550.7,1820.25,556.93,1820.88Z" transform="translate(-452.5 -1594.22)"/><path class="cls-7" d="M622,1798l-3.42-3.42s-4.25-16.91-7.36-21.05c0,0,5.19-10.16,5.81-12.24a33.1,33.1,0,0,0,.67-5.91,12.59,12.59,0,0,0-2.13-2.1c-0.21,0-2.67-.55-5.84-1.23a8.22,8.22,0,0,1,1.08,2.87,46,46,0,0,0,.43,5.2c-1.85.12-3.36,3.36-3.36,3.36a6.11,6.11,0,0,0-1-3l1.56-1.56a20,20,0,0,0-1-4.77,9,9,0,0,0,.62-2.44c-6-1.26-13.49-2.68-13.78-1.84-0.48,1.4-2.19,6.53-5.15,8.56S578.74,1748,578.74,1748l-5.6,5.48a63.67,63.67,0,0,0-.67,14.88l4.15,4.15-1.45,14.31s-6.43,4.77-8.5,5.19a4,4,0,0,1-3.42-.93l-3.22,3.63s-0.14,10.34,1.71,11.24a0.31,0.31,0,0,1,.26.07h3.42c1,0,1.66-1.76,1.66-1.76s13.48-1.87,18.46-2.9,10.79-7.67,12-10.37c0,0,10.79,11.82,11.2,14.93S611,1809,611,1809s7.95-4.21,11-7.26C622,1801.73,620.17,1798.62,622,1798Z" transform="translate(-452.5 -1594.22)"/><path class="cls-8" d="M610,1729.67l4.43,0.37c-0.09-.26-0.18-0.52-0.28-0.78,0,0,2.16-1.76,2.2-2.57,0.17-3.52-7.38-19.41-7.38-19.41l1.76-1.76v-3.63l1.34-.29c-2.28-5-6.22-5.72-6.22-5.72s-5,1-6.85,2.28-10.58,8.71-19.5,31.11a102.9,102.9,0,0,0-6.49,24.32c6.58,6.48,19.56,6.8,19.56,6.8C599.5,1755.65,610,1729.67,610,1729.67Z" transform="translate(-452.5 -1594.22)"/><path class="cls-9" d="M576.61,1772.53l-1.45,14.31s-6.43,4.77-8.5,5.19a4,4,0,0,1-3.42-.93l-3.22,3.63s-0.14,10.34,1.71,11.24a0.31,0.31,0,0,1,.26.07h3.42c1,0,1.66-1.76,1.66-1.76s13.48-1.87,18.46-2.9,10.79-7.67,12-10.37C593.36,1784.3,576.61,1772.53,576.61,1772.53Z" transform="translate(-452.5 -1594.22)"/><path class="cls-10" d="M603.81,1704.81s-6.53-2.31-8.09,10.55,0.52,29-3.73,41.49a5.91,5.91,0,0,0-2.07,3.52c-0.31,2.18.1,9.75-4.46,11.1s-6.9-.62-7.31,1.94,6.9,4.49,10.22,3.86,15.87-23.65,15.45-32.67,2.59-19.62,1.35-26.87S602,1706.64,603.81,1704.81Z" transform="translate(-452.5 -1594.22)"/><path class="cls-5" d="M614.36,1730h0l-1.34-2.9a2.21,2.21,0,0,0-1.87,0l0.1,1.16a5.93,5.93,0,0,0-1.83,1.12l-0.61,1.07a44.38,44.38,0,0,0-.88-4.67s-0.24-1.87-10.5-1.09c0,0,.81,22.87-3.1,33.45,0,0-1.88.31-2,4.67a12,12,0,0,1-6.46,10.66,25.8,25.8,0,0,1-7.7,0s-2,1.59,2.49,4.28,14.78,3.27,17.89,0c0,0,1.87-4,2.49-4.51,0,0,5.13.62,5.13-2.8a28.35,28.35,0,0,0-1.24-7.31s0.62-2.59.16-3.32c-0.24-.37,1.67-4.77,3-11.32l0.62,0.2c0.31,2,2.49,5.19,2.39,6.27a46,46,0,0,0,.43,5.2c-1.85.12-3.36,3.36-3.36,3.36a23.92,23.92,0,0,1,0,3.73c-0.18,1.14,1.58,3,3.34,6.33,0,0,5.19-10.16,5.81-12.24S619.55,1743.65,614.36,1730Z" transform="translate(-452.5 -1594.22)"/><path class="cls-11" d="M658.21,1683.42s0.36,1.3-.67,1.3-2.33-1.19-4.62,1.35-5.7,10.22-6.9,13.9-2,6.17-3.53,7.42a8.24,8.24,0,0,0,0-3.32c-0.41-1.24,1.35-6,4.41-12.34S653,1681.45,658.21,1683.42Z" transform="translate(-452.5 -1594.22)"/><path class="cls-11" d="M645.42,1668.95c-0.56.56,0.43,0.82,1.21,2.61a3.3,3.3,0,0,1,.27,1.33,2.66,2.66,0,0,1-2.51,0,3.94,3.94,0,0,1-.93-0.71,6.08,6.08,0,0,1,.18-2s0-.41-0.21-0.21a4.42,4.42,0,0,0-.48,1.55c-0.42-.75-0.38-1.35-0.57-1.16a2.23,2.23,0,0,0,.11,2.1c0.58,1.21,2.2,2.6,3.8,2.17a2.49,2.49,0,0,1-2.5.73,4.68,4.68,0,0,1-3.37-2.72,6.78,6.78,0,0,1,.83-2.82c2.54-4.77,3.29-3.92,4-4.15a0.44,0.44,0,0,0,.26-0.78c-1.81-1.61-5.29,1.61-6.27,6a7.67,7.67,0,0,0,1.56,6.95c0-1.47-.3-2.71-0.4-4a5.41,5.41,0,0,0,3.2,2.43c1.94,0.31,4.32-.51,4.43-3.19A4.63,4.63,0,0,0,645.42,1668.95Z" transform="translate(-452.5 -1594.22)"/><path class="cls-11" d="M656.08,1673.67s-3,.22-3.85-0.32,1.2,2.34,4.55,1.71Z" transform="translate(-452.5 -1594.22)"/><path class="cls-8" d="M597.43,1724.64s-3.63-19.73,5.6-19.84c0,0,2.33-2.26,4.43,6.85s3.79,16.56,3.79,16.56S609,1723.32,597.43,1724.64Z" transform="translate(-452.5 -1594.22)"/><path class="cls-10" d="M610.9,1726.68a9.71,9.71,0,0,0,2.11.38l1.16,2.9s-2.9,1.06-3.76,2a77.93,77.93,0,0,1-1,19l-1-2.28-0.44-.2s0.77-11.09.77-18c0,0,.14-1.34,2.44-2.19Z" transform="translate(-452.5 -1594.22)"/><path class="cls-10" d="M597.43,1724.64s10.29-1.63,13.82,3.57a4.06,4.06,0,0,0-2.43,2.12s-0.25-1.49-.34-2-0.33-1.71-.33-1.71S602.82,1724.07,597.43,1724.64Z" transform="translate(-452.5 -1594.22)"/><path class="cls-10" d="M660.85,1706.45a14.8,14.8,0,0,0,1.92-3.7c-1.1,1.21-26.61,16-33.76,9.19s-11-23.53-11-23.53-0.21,7.08-4.38,6.75a7.54,7.54,0,0,1-4.86-2.19l-2.9,2.91c4.24,1.09,6.21,5.72,6.21,5.72h0l5.15-1.13h0c3.4,7,8.44,16.53,11,17.18C632.44,1718.69,657.33,1711,660.85,1706.45Z" transform="translate(-452.5 -1594.22)"/><path class="cls-10" d="M652,1656.42s-1.54,0-5,.16-37.49,17.35-37.65,17.63-0.4,3.59-.58,5.88c-1.8,1.9-2.89,3.72-2.63,5.17l1.82-1.37a14.55,14.55,0,0,0,3.32-1s8.11,5.49,13.25,4.17c0,0-2.8-5.37-1.4-7,0,0,6.69,0,8.95,2.83a17.9,17.9,0,0,0,0-6.46,3.48,3.48,0,0,1,2.77,1.42c1.11,1.5-4.64-8-8.34-8.34h-0.21a0.64,0.64,0,0,1,.18-0.58c1.24-1.09,17.12-8.09,17.12-8.09a7.13,7.13,0,0,0,1.4,2.1c0.76-1.54,3.5-2.72,3.5-2.72,1.14,1.52,4.46,1.78,4.46,1.78C652.65,1661.15,652,1656.42,652,1656.42Z" transform="translate(-452.5 -1594.22)"/><path class="cls-11" d="M608.79,1693s4.13,5,7.59,2.18a5.75,5.75,0,0,0,1.65-6.75S618.28,1698.45,608.79,1693Z" transform="translate(-452.5 -1594.22)"/><path class="cls-11" d="M614.18,1684c0.71,0.28-6.37-5.13-8.06,1.22C606.12,1685.26,608.58,1681.87,614.18,1684Z" transform="translate(-452.5 -1594.22)"/><path class="cls-12" d="M655.15,1648.46c-1.14-1.35,1.14-1.14,1.14-1.14a11.56,11.56,0,0,0-6.43,0c-2.7-8.92-6-10.79-8.92-12.19s-14.52,1.4-14.52,1.4c-0.83-1.66-5-2.07-8.09,0S614,1644,614,1644a111.22,111.22,0,0,0-7.67,8.5c-2.7,3.53-2.49,21.78-2.49,21.78-9.75,6.64-27.17,27.17-27.17,27.17,3,3.67,23.22-11.4,29.48-16.2,0,0-9-9.42,45.82-28.5,1.16-.4,2.33-0.52,3.4-0.8-0.05-.21-0.08-0.34-0.08-0.34a8.84,8.84,0,0,0,1.41,0,32.07,32.07,0,0,0,6.87-2.88C661.07,1649.44,656.23,1649.73,655.15,1648.46Z" transform="translate(-452.5 -1594.22)"/><path class="cls-10" d="M606.86,1684l6.78-10.91s-18.93,11.38-34.28,26.8c-2.44,2.46-.51,2.14-0.08,2.07,6.65-1.64,21.33-12.59,26.5-16.56C605.78,1685.43,606.15,1684.92,606.86,1684Z" transform="translate(-452.5 -1594.22)"/><path class="cls-13" d="M624.86,1667.65c-0.31,0-17.22,7-19.19,12.58,0,0-1.87,2.88.44,5,0,0,2.57-4.13,4.85-4.64,0,0,5.29,4.67,10.68,3.11a8.21,8.21,0,0,1,0-6.53s8.5,0.21,10.06,3.11c0,0,.1-3.42-1.56-4.46,0,0,2.39-1.65,3.63-.46C633.78,1675.38,631,1667.13,624.86,1667.65Z" transform="translate(-452.5 -1594.22)"/><path class="cls-13" d="M660.49,1662.57c-3-.91-4.08-6.13-4.08-6.13,3.86,0.23,9.53-2.5,9.53-2.5-2.5-4.31-8.4-3.86-9.64-5.33s1.25-1.25,1.25-1.25a12.65,12.65,0,0,0-7,0l-0.23-.75a47.17,47.17,0,0,0-5.44.75s-4.08,7,0,13.84l3-3s2.16,1,5.32,2.43c-0.2-.77-0.32-1.29-0.32-1.29C655.61,1662.23,660.49,1662.57,660.49,1662.57Z" transform="translate(-452.5 -1594.22)"/><path class="cls-10" d="M620.82,1675.95c-1.92.62-2.7,5.08-2.7,5.08a6.41,6.41,0,0,1-3.89-2.75c-1.86-4,13.61-10.16,13.61-10.16a6.37,6.37,0,0,0-3-.47,78.8,78.8,0,0,0-13.05,6.6c-3,1.92-5.45,4-6.14,6,0,0-1.87,2.88.44,5,0,0,2.57-4.13,4.85-4.64,0,0,5.29,4.67,10.68,3.11a8.21,8.21,0,0,1,0-6.53s8.5,0.21,10.06,3.11C629.68,1674.7,620.82,1675.95,620.82,1675.95Z" transform="translate(-452.5 -1594.22)"/><g class="cls-14"><path class="cls-15" d="M665.53,1654.08c-2.38,1-10.71.9-10.71,0.9a5,5,0,0,0,.75,2.81,27,27,0,0,1-4-2.66,11.19,11.19,0,0,0,.62,2.66c-1.56-.76-3-4.77-3-4.77v2.66a12.73,12.73,0,0,1-1.19-3.44c-0.3-1.8,2.41-4.88,2.41-4.88l-0.23-.76a46.24,46.24,0,0,0-5.4.76s-4.05,7.07,0,13.91l2.93-3s2.15,1,5.27,2.44c-0.2-.78-0.32-1.3-0.32-1.3,2.81,2.85,7.65,3.19,7.65,3.19-2.93-.91-4.05-6.16-4.05-6.16C659.68,1656.69,664.47,1654.57,665.53,1654.08Z" transform="translate(-452.5 -1594.22)"/><path class="cls-15" d="M665.66,1654l0.09,0Z" transform="translate(-452.5 -1594.22)"/></g><path class="cls-10" d="M625,1637.59s-8.49,2.37-5.8-1.31h0a8.1,8.1,0,0,0-1,.58c-3.11,2.07-4.36,7.47-4.36,7.47S622,1638.71,625,1637.59Z" transform="translate(-452.5 -1594.22)"/><path class="cls-10" d="M601,1773.18a24.66,24.66,0,0,0,3-7.93,16,16,0,0,1-1.95,8Z" transform="translate(-452.5 -1594.22)"/><path class="cls-10" d="M609.91,1767.11a20.63,20.63,0,0,0-.21-6,9.9,9.9,0,0,0-1.65,2.42,23.92,23.92,0,0,1,0,3.73c-0.18,1.14,1.58,3,3.34,6.33l1.11-2.2C611,1769.76,609.66,1768.3,609.91,1767.11Z" transform="translate(-452.5 -1594.22)"/></svg>