<svg xmlns="http://www.w3.org/2000/svg" viewBox="0 0 326.66 231.72"><defs><style>.cls-1{isolation:isolate;}.cls-2{fill:#f08020;opacity:0.5;}.cls-3{fill:#212145;}.cls-12,.cls-4,.cls-6{fill:#000100;}.cls-4{opacity:0.4;}.cls-5{fill:#fbc887;}.cls-11,.cls-16,.cls-6{opacity:0.2;}.cls-7{fill:#5c8eb6;}.cls-16,.cls-8{fill:#fff;}.cls-9{fill:#d51116;}.cls-10{mix-blend-mode:multiply;}.cls-13{fill:#f4e600;}.cls-14{fill:#d17f43;}.cls-15{fill:#5c8db4;opacity:0.1;}.cls-17{fill:#f9dec0;}.cls-18{fill:#3c6164;}.cls-19{fill:#282829;}.cls-20{fill:#0f0c13;}.cls-21{fill:none;stroke:#0f0c13;stroke-miterlimit:10;}.cls-22{fill:#1c191b;}.cls-23{fill:#393337;}.cls-24{fill:#a6afac;}.cls-25{fill:#4279bd;}.cls-26{fill:#aacc83;}.cls-27{fill:#e9492a;}.cls-28{fill:#fab51d;}.cls-29{fill:#67b32e;}.cls-30{fill:#21a637;}</style></defs><title>02 HQ</title><g class="cls-1"><g id="Camada_1" data-name="Camada 1"><path class="cls-2" d="M924,1651.28c-3.33.3-1.82,26-.91,28.45s-4.24-1.82-4.24-1.82-8.78-23.31-15.44-29.06a45.3,45.3,0,0,0-13-3.46s-2.12-3.2-8.17-3.5-9.38,5.75-9.38,5.75-17.86,5.15-21.49,9.08-6.66,32.69-6.66,32.69-13,20-15.44,31.78c0,0,20.58-5.75,29.06-4.84l2.42,13.62s-5.15.91-7.26,2.72-26.64,4.24-30.88,0c0,0-1.82-30.27,1.82-34.81,0,0,7.87,0,7.87-3.94s3-13.62,6.36-13.62c0,0-5.75-3.33-7.87,1.21s3-19.07-2.12-29.66c0,0-17.86,3.33-20.28,13s0.91,21.79,6.05,32.09c0,0-11.2,30.88-10.59,48.73,0,0-4.54,5.45,31.48,4.84,0,0,2.42,6.05,1.51,9.38,0,0,4.84-3,9.08-6.05,0,0-12.41,43.59,6.36,62.66l2.72,9.35h60.24s-0.3-18.43-3.63-24.49c0,0-12.41-6.66-20-45.71,0,0,2.42-3.63,24.22,3.94,0,0,.3-7,0-10.59,0,0,13.92-.3,15.74-2.72,0,0,5.75-7.57,6.66-49.34,0,0,5.15-23,5.45-29.66S927.32,1651,924,1651.28ZM920.06,1726c-10.59-30.88-2.72-43.59-2.72-43.59,2,2,2.12,4.54,3.12,7.26s5.66,3.33,5.66,3.33C927.93,1701.83,920.06,1726,920.06,1726Z" transform="translate(-791 -1594.22)"/><path class="cls-3" d="M852.58,1817.46l2.4,8.45h60.24s1.58-15.47-1.63-18.32-53.88-5.56-54-3.75S852.58,1817.46,852.58,1817.46Z" transform="translate(-791 -1594.22)"/><path class="cls-4" d="M873.65,1825.91a24.4,24.4,0,0,1,12.8-8.56c8.48-2.31,29.14-6.3,29.14-6.3s-10.08-6.3-21-4.78-42,11.2-42,11.2l2.4,8.45h18.68Z" transform="translate(-791 -1594.22)"/><path class="cls-5" d="M924.36,1651.28c-3.33.3-1.82,26-.91,28.45s-4.24-1.82-4.24-1.82-0.43-1.14-1.17-3a48.14,48.14,0,0,1-.51,6l0.28,1.63c1.86,2,2,4.48,3,7.15s5.66,3.33,5.66,3.33c1.82,8.78-6.05,33-6.05,33-1-3-1.88-5.83-2.59-8.49-2.05,8.19-7,19.1-5.73,20.68,2.1,2.65,3.35,10.95,3.35,10.95s14.66-.43,16.47-2.85c0,0,5.75-7.57,6.66-49.34,0,0,5.15-23,5.45-29.66S927.69,1651,924.36,1651.28Z" transform="translate(-791 -1594.22)"/><path class="cls-6" d="M922.48,1727.86a9,9,0,0,0-1.18-4.64c-0.53,1.76-.88,2.83-0.88,2.83-0.71-2.08-1.34-4.07-1.89-6a5.2,5.2,0,0,0-.5-0.27,4.82,4.82,0,0,0-.69-0.25c-1.88,7.69-6.39,16.64-5.24,18.09,0.4,0.5-.41,4.61-0.2,5.49l2.49-3.21S922.18,1728.87,922.48,1727.86Z" transform="translate(-791 -1594.22)"/><path class="cls-7" d="M911.66,1801.47s-12.41-6.66-20-45.71c0,0,2.42-3.63,24.22,3.94,0.61-13.92-4.24-27.85-4.24-27.85s-42.68-4.24-46-5.65a16.39,16.39,0,0,0-5.59-.35l0.74,4.19s-5.15.91-7.26,2.72c-1.34,1.15-11.63,2.54-20.09,2.33-1.61,6.21-.19,15.55-0.19,15.55l2.11,0s2.42,6.05,1.51,9.38c0,0,4.84-3,9.08-6.05,0,0-12.41,43.59,6.36,62.66l0.25,0.85c17.44-2.08,50.08-7.89,61-9.87A22.63,22.63,0,0,0,911.66,1801.47Z" transform="translate(-791 -1594.22)"/><path class="cls-6" d="M914,1737.58s-49.26-8.3-53.29-7.6a21.23,21.23,0,0,0-7.19,2.78s7,7.41,6.07,12.26c-0.72,3.78-12.93,5.15-18.24,5.57a3.6,3.6,0,0,1-.39-1.54c-0.08-3.48-1.26-12.25-4.26-13.88,0,0,3.36,8.72,2.22,15.58l-3.63-.05a15.38,15.38,0,0,1,1.59,9.31s8.1-5.85,9.08-6.05c0,0-3.21,7.21-4,30.82s11.52,32.58,11.52,32.58l17.61-2.52c-0.14-4.24-16.41-13.11-18.63-28.85s4.84-31.48,13.72-30.27,38.95-5.45,40.38-6.66,7.46-8.44,7.46-8.44C915.09,1739.34,914,1737.58,914,1737.58Z" transform="translate(-791 -1594.22)"/><path class="cls-5" d="M864.36,1656.94l-19.68,32.48s0.61,17.36,12.71,14.74c0,0,2.12,34.6,9.08,41.26s39.35,2.12,39.35,2.12,14.47-16.72,14.62-20-10.08-31.78-1.61-49.64c0,0-6.05-18.77-13-22.4S868.38,1650.3,864.36,1656.94Z" transform="translate(-791 -1594.22)"/><path class="cls-8" d="M908.17,1686s-8.59-7.48-8.19,3.42c0,0,1.84,7,4.09,7.91s6.1-1.87,6.6-3.27S911.2,1687.95,908.17,1686Z" transform="translate(-791 -1594.22)"/><path class="cls-8" d="M880.68,1701.93s-7.19-2.45-5-14c0,0,4.84-5.09,8.84,0s4,7.07,3.58,8.58S884.83,1704.4,880.68,1701.93Z" transform="translate(-791 -1594.22)"/><path class="cls-6" d="M905.83,1747.54s14.47-16.72,14.62-20c0,0-19.47,17.56-37.43,15.55S857.89,1703,857.89,1703c-9.2.59-7.6-14.65-7.6-14.65,10.14-12.55,17.73-12.54,17.73-12.54,37.26-4.39,46.78,5.33,48.71,8.13a31.47,31.47,0,0,1,2.11-6.06s-6.05-18.77-13-22.4-37.45-5.21-41.47,1.42l-19.68,32.48s0.61,17.36,12.71,14.74c0,0,2.12,34.6,9.08,41.26S905.83,1747.54,905.83,1747.54Z" transform="translate(-791 -1594.22)"/><path class="cls-9" d="M917.16,1673.19c-2.94-7.12-8.79-20.21-13.55-24.33a45.3,45.3,0,0,0-13-3.46s-2.12-3.2-8.17-3.5-9.38,5.75-9.38,5.75-17.86,5.15-21.49,9.08-6.66,32.69-6.66,32.69C867.57,1658.76,913.91,1672.2,917.16,1673.19Z" transform="translate(-791 -1594.22)"/><g class="cls-10"><path class="cls-9" d="M857.38,1704.19c-11.64,2.53-12.65-13.42-12.71-14.65-0.44.68-9.19,14.23-13.48,25.42l-1.41,4.2c-0.21.73-.39,1.45-0.53,2.13,0,0,20.58-5.75,29.06-4.84l0.79,4.46C857.86,1712,857.38,1704.19,857.38,1704.19Z" transform="translate(-791 -1594.22)"/></g><g class="cls-11"><path class="cls-12" d="M857.38,1704.19c-11.64,2.53-12.65-13.42-12.71-14.65-0.44.68-9.19,14.23-13.48,25.42l-1.41,4.2c-0.21.73-.39,1.45-0.53,2.13,0,0,20.58-5.75,29.06-4.84l0.79,4.46C857.86,1712,857.38,1704.19,857.38,1704.19Z" transform="translate(-791 -1594.22)"/></g><path class="cls-13" d="M868.41,1672.67s-2.54,19.77-2.08,23.1-7.42-6-8-7.4c0,0-2.88,3.46-2.27,4.83,0,0-5.45-3-5.75-4.83,0,0-5.3,1.5-5.6,3.92l0.49-3.92S852.76,1675.7,868.41,1672.67Z" transform="translate(-791 -1594.22)"/><path class="cls-13" d="M878.58,1670.27s2.74,12.49,10.61,13.4c0,0-1.82-3.63-.91-5.15,0,0,10.29.15,13.17,2.12,0,0-.45-3.78-2.88-5.6,0,0,14.95,2.72,18.6,5.9a6,6,0,0,0-1.34-4,31.08,31.08,0,0,1,4.63,2.18s-1.34-4.49-3.29-6c0,0,2.32-.92,3.29-0.51,0,0-3.27-5.5-11.44-5,0,0,1.56-3.49,4.87-2,0,0-4.56-7.26-22.88-4.08,0,0,3-3,4.69-3.18C895.69,1658.39,876.6,1659.59,878.58,1670.27Z" transform="translate(-791 -1594.22)"/><path class="cls-5" d="M822.59,1732.83s-1.82-30.27,1.82-34.81c0,0,7.87,0,7.87-3.94s3-13.62,6.36-13.62c0,0-5.75-3.33-7.87,1.21s3-19.07-2.12-29.66c0,0-17.86,3.33-20.28,13s0.91,21.79,6.05,32.09c0,0-11.2,30.88-10.59,48.73,0,0-4.54,5.45,31.48,4.84l0,0.09,0,0h3.55s2-5.71-2.22-15.58C830.49,1735.29,824.49,1734.74,822.59,1732.83Z" transform="translate(-791 -1594.22)"/><path class="cls-14" d="M899.44,1716.06s-20.56-2.12-21,7,13.17,15.27,19.83,9.6c0,0-1.06-1.28,0-2.19s-5.9,4.69-12.11-.15-5.87-5.6-5.13-7.87,6.8-6.21,19.21-4.54C900.23,1717.87,903.5,1717.87,899.44,1716.06Z" transform="translate(-791 -1594.22)"/><path class="cls-14" d="M898.57,1700.16c-0.27,0,1.41,1.16,2.22,1.77s1.92,5.25,1.51,6.36-3.73,1.51-4.94,1-1.72,1.11,0,1.72,6.26,0.2,6.36-3S903,1699.71,898.57,1700.16Z" transform="translate(-791 -1594.22)"/><path class="cls-14" d="M875.66,1687.91s-5,7.37,2.77,13.32,11.05-6.46,9.34-7.26,0,7.15-5.2,6.75-7.38-5.9-7.61-8.37S877.18,1688.61,875.66,1687.91Z" transform="translate(-791 -1594.22)"/><path class="cls-14" d="M883,1693.76c0-2.42-.81-9.28-3.94-5.85,0,0-4.15,9.48,2.06,10.9,0,0,.91-1.19-1-1.61C880.2,1697.19,883,1696.18,883,1693.76Zm-2.65,2.07a11.74,11.74,0,0,1-.73-1.61c-0.4-1.31.5-5.3,0.5-5.3,0.61-.35,1.72.91,1.66,4S880.35,1696,880.38,1695.83Z" transform="translate(-791 -1594.22)"/><path class="cls-14" d="M900,1689.42s0.8,8.22,4.79,8.78a6.51,6.51,0,0,0,7.42-5.82c0.25-3.36-4-7.55-4.74-6.13s2.42,1.66,2.83,4-0.05,4.91-2.32,6.21-4.59.45-5.4-2.23S900.09,1686.29,900,1689.42Z" transform="translate(-791 -1594.22)"/><path class="cls-14" d="M903.72,1689.67a12.79,12.79,0,0,0,.19,2.7c0.25,1.08,1.41,2.75,3.08,2.7s2.73-3.26,2.32-5-3.63-3.85-4.54-3.06-0.05,2.09.15,1.89,0.05-.9.55-1a3,3,0,0,1,3,3c0,2.58-1,3.33-2.17,3s-1.92-2.37-2-3.28S904,1688.87,903.72,1689.67Z" transform="translate(-791 -1594.22)"/><path class="cls-14" d="M872.94,1685.08s5.68-6.09,8.22-5.25c0,0-.5-2.62-4.11-2.22S870.21,1683.67,872.94,1685.08Z" transform="translate(-791 -1594.22)"/><path class="cls-14" d="M901.47,1682.46s3.65-1.51,5.57-.5,3.23,3.78,4.14,4,0.5-.67,0-1.38a15.45,15.45,0,0,1-1.78-2.63c0-.4-5.47-3.13-9.42-1.11S900.74,1682.73,901.47,1682.46Z" transform="translate(-791 -1594.22)"/><path class="cls-6" d="M836.9,1760s5.87-12.89-.18-24.84c0,0,7.9,5.48,2.74,23.2Z" transform="translate(-791 -1594.22)"/><path class="cls-6" d="M846,1753.95s12.73-6.32,14.15-6.36-0.24-12.45-6.58-14.82c0,0,9.2,6,5.17,13.67Z" transform="translate(-791 -1594.22)"/><path class="cls-6" d="M891.68,1755.77v-6.92h2.06S891.76,1753.25,891.68,1755.77Z" transform="translate(-791 -1594.22)"/><path class="cls-6" d="M830.36,1682.24l-0.6,9.5s1.24-10.32,1.62-11.06Z" transform="translate(-791 -1594.22)"/><path class="cls-6" d="M923.07,1680.45s5.92,0.65,7.59,3.22A5.63,5.63,0,0,0,923.07,1680.45Z" transform="translate(-791 -1594.22)"/><path class="cls-6" d="M824.4,1698s-2.88.25-3.48,0.78A5.34,5.34,0,0,1,824.4,1698Z" transform="translate(-791 -1594.22)"/><path class="cls-6" d="M881.79,1641.89c-5.65.13-8.75,5.76-8.75,5.76s10-2,13.82-1.92C886.86,1645.73,879.45,1645.41,881.79,1641.89Z" transform="translate(-791 -1594.22)"/><path class="cls-6" d="M915.82,1677a31.08,31.08,0,0,1,4.63,2.18s-1.34-4.49-3.29-6c0,0,2.32-.92,3.29-0.51,0,0-3.27-5.5-11.44-5a5,5,0,0,1,1.1-1.47c-0.71.09-1.26,0.18-1.55,0.26a59.83,59.83,0,0,0-6,2.22,30.28,30.28,0,0,1,13.09,6c-2.31-1.73-9-3.43-7.74-2.86s1.45,2.52,1.45,2.52c-4.3-2.83-13.76-2.83-13.76-2.83,0.91,1.11,0,2.83,0,2.83a36.94,36.94,0,0,1-6.46-3.94c-0.71,1.21-.5,3.94-0.5,3.94-2.22-1.61-2.72-7-2.72-7,0.28-2.83.47-5.15,0.58-7-4.58,1.62-9,4.6-8,10,0,0,2.74,12.49,10.61,13.4,0,0-1.82-3.63-.91-5.15,0,0,10.29.15,13.17,2.12,0,0-.45-3.78-2.88-5.6,0,0,14.94,2.72,18.6,5.9A6,6,0,0,0,915.82,1677Z" transform="translate(-791 -1594.22)"/><path class="cls-6" d="M845.18,1688.38l-0.49,3.92c0.3-2.42,5.6-3.92,5.6-3.92,0.3,1.83,5.75,4.83,5.75,4.83-0.61-1.36,2.27-4.83,2.27-4.83a26.19,26.19,0,0,0,2.85,3.74h0a39.69,39.69,0,0,1-2.95-7s-3.2,2.43-2.72,5a6.68,6.68,0,0,1-2.62-4.13s-2.47-.79-2.52.79c0,0-1-1.31,2.42-4.33s15.26-6.62,15.26-6.62h0c0.23-1.92.39-3.17,0.39-3.17C852.76,1675.7,845.18,1688.38,845.18,1688.38Z" transform="translate(-791 -1594.22)"/><polygon class="cls-15" points="53.18 231.72 312 174.51 312 0 0 47.18 0 230.38 53.18 231.72"/><path class="cls-16" d="M939.55,1618.94s22.09,73.68-23.73,130.12S895,1815.31,895,1815.31l43.13-10.13s-31.06-6.1-21.59-30.38,88.41-130.47,61.19-161.62Z" transform="translate(-791 -1594.22)"/><path class="cls-16" d="M996.59,1610.31s24.79,39.7-43.6,118.8c-45.86,53.05-4.6,73.16-4.6,73.16l16.65-3.2s-39.66-16,8.4-87.05,40.9-104.39,40.9-104.39Z" transform="translate(-791 -1594.22)"/><path class="cls-17" d="M818.25,1685.08s3.31,0.08,6.15,0,5.6,3,3.6,5.85-2.9,4.56-7.08,4.44S812.1,1685.08,818.25,1685.08Z" transform="translate(-791 -1594.22)"/><path class="cls-17" d="M921.33,1683.05s1,1.6,2.83,4.85,6,2.46,8.5,3,6.94,0.22,6.89-3-1.89-2.08-6.89-2.83S924.83,1680,921.33,1683.05Z" transform="translate(-791 -1594.22)"/><polygon class="cls-18" points="312 174.5 312 231.27 53.18 231.71 312 174.5"/><path class="cls-6" d="M991.32,1801.8a78,78,0,0,0,5.37,6.76c2.31,2.44,27.22,3.27,36.77,6s2.38,7.09,12.46,8.09,13-6.4,17-7.37,13,0.52,16.7-.72,9-10,4.67-17-4.33-9.41-15.67-13.67-48.87,3.64-56.28,5S991.32,1801.8,991.32,1801.8Z" transform="translate(-791 -1594.22)"/><path class="cls-17" d="M900.79,1701.93s-5.15,7.21-1.34,8.14,2.72-5.66,2-6.9" transform="translate(-791 -1594.22)"/><path class="cls-17" d="M928,1654.83c1-.27,15.69,6.67,14.36,11.83S920.62,1656.83,928,1654.83Z" transform="translate(-791 -1594.22)"/><path class="cls-19" d="M1073.06,1775.68c-0.11-2,.67-4.36-3.69-4.69s-55.67-4.92-58-5.14-2.35.56-2.35,0.56a2.46,2.46,0,0,0-2.43,0c-1.43.7-15.17,11.35-15.17,11.35a11.68,11.68,0,0,0-.34,2.74c-3.62,2.84-6.56,5.3-7.43,6.48-2.46,3.35.22,14.53,1,15.87s10.73,1.12,29.51,3.24,38.34,7.94,39.46,7.82,1.56-1.56,4.69-5.25,14.75-20.12,14.75-20.12S1073.17,1777.69,1073.06,1775.68Z" transform="translate(-791 -1594.22)"/><path class="cls-20" d="M985.37,1785.8s-2.07,1.56-2.12,3.47a13.75,13.75,0,0,1,4.42-.89c2.79-.17,63.94,8.33,64.27,8.44s1.29-1.4,1.51-1.56a24.61,24.61,0,0,0-1,8.33c0.11,6.2.73,10,1.34,9.72s18.72-24.7,18.72-24.7,0.32-14.9,0-15.82-1,2.74-1.84,3.3a1.45,1.45,0,0,1-1.73-.34l-14.53,18.61s-30.74-2.85-40.24-4.19-26.6-3.35-28.56-4.36" transform="translate(-791 -1594.22)"/><path class="cls-21" d="M1046.49,1798.21a2.1,2.1,0,0,1,2,1.84c0.08,1.72.29,8.63,0.38,9.68s-0.17,2-1.47,1.72-1.93-1.34-2.1-6.25S1044.68,1798.37,1046.49,1798.21Z" transform="translate(-791 -1594.22)"/><path class="cls-22" d="M1033.58,1808.27s-5-1.55-5.71-6.33,4.66-4.32,4.66-4.32,5.11,0,6,6.2C1038.52,1803.82,1039.53,1809.94,1033.58,1808.27Z" transform="translate(-791 -1594.22)"/><path class="cls-6" d="M1034,1808.29s-4.6-1.41-5.21-5.77,4.25-3.94,4.25-3.94,4.66,0,5.47,5.66a5.71,5.71,0,0,1,.06.7,6.68,6.68,0,0,0-.06-1.12c-0.88-6.22-6-6.2-6-6.2s-5.32-.46-4.66,4.32,5.71,6.33,5.71,6.33a6.64,6.64,0,0,0,2,.29A6.46,6.46,0,0,1,1034,1808.29Z" transform="translate(-791 -1594.22)"/><path class="cls-23" d="M1033.73,1806.66s-3.68-1.13-4.17-4.62,3.4-3.15,3.4-3.15,3.73,0,4.37,4.53C1037.34,1803.41,1038.07,1807.88,1033.73,1806.66Z" transform="translate(-791 -1594.22)"/><path class="cls-8" d="M1037.29,1803.34a5.37,5.37,0,0,0-1.16-2.81,4.65,4.65,0,0,1,.76,2.07s0.57,3.48-2.81,2.52c0,0-2.87-.88-3.24-3.6-0.29-2.1,1.46-2.42,2.26-2.46-0.5,0-3.55,0-3.13,3,0.46,3.28,3.92,4.35,3.92,4.35C1038,1807.54,1037.29,1803.34,1037.29,1803.34Z" transform="translate(-791 -1594.22)"/><path class="cls-23" d="M1019.54,1805.46a1.81,1.81,0,0,1-1.22-1.35,0.84,0.84,0,0,1,1-.92,1.37,1.37,0,0,1,1.28,1.33A0.78,0.78,0,0,1,1019.54,1805.46Z" transform="translate(-791 -1594.22)"/><path class="cls-20" d="M1020.6,1804.51a1.37,1.37,0,0,0-1.28-1.33,0.84,0.84,0,0,0-1,.92,1.81,1.81,0,0,0,1.22,1.35A0.78,0.78,0,0,0,1020.6,1804.51Zm-1,.61a1.48,1.48,0,0,1-1-1.11,0.69,0.69,0,0,1,.81-0.75,1.12,1.12,0,0,1,1,1.08A0.63,0.63,0,0,1,1019.62,1805.12Z" transform="translate(-791 -1594.22)"/><path class="cls-7" d="M988.49,1791.71a2,2,0,0,0-1.93-.8c-1.17,0-2,1-2,2.49s0.89,2.28,1.73,2.28a1.85,1.85,0,0,0,1.76-.78s29.16,3.73,30.44,4c0,0,2,.31,2.24-1.27s-1.31-2.4-2.57-2.64C1015.5,1794.46,993.47,1792,988.49,1791.71Z" transform="translate(-791 -1594.22)"/><path class="cls-8" d="M987.16,1792l31,3.58s1.84,0.22,1.73,1.56-1.84,1.23-1.84,1.23l-31.35-3.86a1.62,1.62,0,0,1-1.45-1.55C985.23,1791.58,987.16,1792,987.16,1792Z" transform="translate(-791 -1594.22)"/><path class="cls-23" d="M991.7,1799.67l2.33,0.1a1.29,1.29,0,0,1,1.44,1.2,1.15,1.15,0,0,1-1.38,1.13l-3-.17A1.17,1.17,0,0,1,991.7,1799.67Z" transform="translate(-791 -1594.22)"/><path class="cls-20" d="M994,1799.76l-2.33-.1a1.17,1.17,0,0,0-.59,2.26l3,0.17a1.15,1.15,0,0,0,1.38-1.13A1.29,1.29,0,0,0,994,1799.76Zm0,2.19-2.75-.15a1.08,1.08,0,0,1,.54-2.09l2.16,0.09a1.19,1.19,0,0,1,1.33,1.11A1.06,1.06,0,0,1,994.06,1802Z" transform="translate(-791 -1594.22)"/><path class="cls-23" d="M998.07,1800l7.11,0.52a1.29,1.29,0,0,1,1.44,1.2,1.15,1.15,0,0,1-1.38,1.13l-7.75-.59A1.17,1.17,0,0,1,998.07,1800Z" transform="translate(-791 -1594.22)"/><path class="cls-20" d="M998.07,1800.05l7.11,0.52a1.29,1.29,0,0,1,1.44,1.19s0,0,0,0a1.29,1.29,0,0,0-1.44-1.2l-7.11-.52a1.13,1.13,0,0,0-1.38,1.22h0A1.13,1.13,0,0,1,998.07,1800.05Z" transform="translate(-791 -1594.22)"/><path class="cls-20" d="M1005.48,1802.64l-7.75-.59a1.14,1.14,0,0,1-.8-1,1.19,1.19,0,0,1,.18-0.76,1,1,0,0,0-.42,1,1.14,1.14,0,0,0,.8,1l7.75,0.59a1.42,1.42,0,0,0,1.19-.42A1.65,1.65,0,0,1,1005.48,1802.64Z" transform="translate(-791 -1594.22)"/><path class="cls-23" d="M1008.83,1801.08l7.1,0.64a1.29,1.29,0,0,1,1.42,1.23,1.15,1.15,0,0,1-1.4,1.11l-7.74-.72A1.17,1.17,0,0,1,1008.83,1801.08Z" transform="translate(-791 -1594.22)"/><path class="cls-20" d="M1016.15,1803.95l-7.74-.72a1.14,1.14,0,0,1-.78-1.06,1,1,0,0,1,.44-1,1,1,0,0,0-.65,1.08,1.14,1.14,0,0,0,.78,1.06l7.74,0.72a1.63,1.63,0,0,0,1-.19A1.79,1.79,0,0,1,1016.15,1803.95Z" transform="translate(-791 -1594.22)"/><path class="cls-6" d="M1036.27,1799.12a6.11,6.11,0,0,0-3.74-1.54s-5.32-.46-4.66,4.32c0.55,4,4.15,5.72,5.33,6.19C1028.13,1799.42,1036.25,1799.12,1036.27,1799.12Z" transform="translate(-791 -1594.22)"/><path class="cls-8" d="M991.69,1780.22l17.14-13.58a2.71,2.71,0,0,0-2.31.21c-0.88.71-14.38,11-14.38,11A6.64,6.64,0,0,0,991.69,1780.22Z" transform="translate(-791 -1594.22)"/><rect class="cls-20" x="988.65" y="1775.32" width="24.25" height="0.34" transform="translate(-1694.23 -545.83) rotate(-39.69)"/><rect class="cls-20" x="989.53" y="1775.53" width="24.25" height="0.34" transform="translate(-1694.16 -545.22) rotate(-39.69)"/><rect class="cls-20" x="990.55" y="1775.68" width="24.25" height="0.34" transform="translate(-1694.02 -544.54) rotate(-39.69)"/><rect class="cls-20" x="991.43" y="1775.9" width="24.25" height="0.34" transform="translate(-1693.96 -543.92) rotate(-39.69)"/><polygon class="cls-20" points="260.2 195.48 259.99 195.22 274.68 179.12 274.89 179.38 260.2 195.48"/><polygon class="cls-20" points="261.08 195.69 260.87 195.43 275.56 179.34 275.78 179.6 261.08 195.69"/><polygon class="cls-20" points="262.1 195.84 261.88 195.58 276.58 179.49 276.8 179.75 262.1 195.84"/><polygon class="cls-20" points="262.98 196.05 262.77 195.8 277.46 179.7 277.68 179.96 262.98 196.05"/><path class="cls-19" d="M1054.54,1787.94a12,12,0,0,1-4.36.92c-2-.08-5.62-1.33-7.88,0s-2.51,5.86-2.26,8.55,0.25,20,5.11,21.21,8-10.23,9.39-11,7.8-3.6,9.47-3.52a8.21,8.21,0,0,1,5.7,2.34c2.26,2,4.86,3.19,6.87,1.76s-0.74-11.53-5.7-18.19-8-6.12-9.31-6.2S1057.72,1787.52,1054.54,1787.94Z" transform="translate(-791 -1594.22)"/><path class="cls-24" d="M1076.35,1807.11c-0.58-1-7.37-5.31-9-5.52s-7.09.89-9.6,2.25-4.16,4.66-5.51,7.14-6.89,6.36-6.89,6.36a1.26,1.26,0,0,0,0,1.29c4.85,1.22,8-10.23,9.37-11s7.8-3.6,9.47-3.52a8.21,8.21,0,0,1,5.7,2.34c2.26,2,4.86,3.19,6.87,1.76a1.46,1.46,0,0,0,.5-0.8A1.51,1.51,0,0,1,1076.35,1807.11Z" transform="translate(-791 -1594.22)"/><path class="cls-20" d="M1042.38,1790s-2.18,1.16-1.93,3.05,3.69,17.74,3.52,19.92c0,0-2.19-.86-2.14.58,0,0-1.15-3.84-1.6-12.31C1040.23,1801.28,1038.78,1789.37,1042.38,1790Z" transform="translate(-791 -1594.22)"/><path class="cls-20" d="M1076.59,1808.23a1,1,0,0,0,.17-0.16h0c1.65-1.91-1.08-11.58-5.88-18-5-6.66-8-6.12-9.31-6.2s-3.86,3.69-7,4.11a12,12,0,0,1-4.36.92l-0.65-.06a1.59,1.59,0,0,1-.66.28,11.86,11.86,0,0,0-4.88.39,5.1,5.1,0,0,0-3.05,3.58c-0.28,1.15,3.24,13.53,3.74,16.88s-0.17,3.41-.17,3.41-2.68.31-2.47,0.93h0c0.08,0.26,1.17,3.64,3.08,4.32h0a2.91,2.91,0,0,0,1,.08c2.63-.5,7.41-11,8.3-12a20.33,20.33,0,0,1,7.49-3.91c3-.78,5.7-1,7.66.17s6.81,4.45,6.35,5.63A3.43,3.43,0,0,0,1076.59,1808.23Zm-1.12-2.15s-5.14-3.92-6.65-4.28a11.43,11.43,0,0,0-7.82.34c-4.08,1.48-5.42,2-6.2,3.21s-4,7.44-5.31,8-3.47-.22-3.63-4.25a37.33,37.33,0,0,0-2.35-10.7c-0.67-1.42,1.23-7.68,5-7.46s4.64,3.3,7.21,2.68,1.9-5,5.81-4.36,10.06,3.47,12.52,8.55S1076.53,1804.35,1075.47,1806.08Z" transform="translate(-791 -1594.22)"/><path class="cls-25" d="M1063.2,1790.24a0.89,0.89,0,0,0,.79-1.12,1.19,1.19,0,0,0-1.21-1,0.88,0.88,0,0,0-.86,1.11A1,1,0,0,0,1063.2,1790.24Z" transform="translate(-791 -1594.22)"/><path class="cls-26" d="M1066.81,1791.91a0.89,0.89,0,0,0,.79-1.12,1.19,1.19,0,0,0-1.21-1,0.88,0.88,0,0,0-.86,1.11A1,1,0,0,0,1066.81,1791.91Z" transform="translate(-791 -1594.22)"/><path class="cls-27" d="M1067.86,1789a0.89,0.89,0,0,0,.79-1.12,1.19,1.19,0,0,0-1.21-1,0.88,0.88,0,0,0-.86,1.11A1,1,0,0,0,1067.86,1789Z" transform="translate(-791 -1594.22)"/><path class="cls-28" d="M1064.25,1786.89a0.89,0.89,0,0,0,.79-1.12,1.19,1.19,0,0,0-1.21-1,0.88,0.88,0,0,0-.86,1.11A1,1,0,0,0,1064.25,1786.89Z" transform="translate(-791 -1594.22)"/><path class="cls-24" d="M1056.5,1793.46a1.53,1.53,0,0,0,1.34-1.91,2,2,0,0,0-2.06-1.64,1.5,1.5,0,0,0-1.46,1.9A1.77,1.77,0,0,0,1056.5,1793.46Z" transform="translate(-791 -1594.22)"/><path class="cls-20" d="M1064.7,1800s3.29-.49,2.15-4.76a3.86,3.86,0,0,0-4.32-3.13c-0.76.12-2.28,1.18-2,4.7C1060.85,1800.56,1063.32,1800.31,1064.7,1800Z" transform="translate(-791 -1594.22)"/><path class="cls-22" d="M1064.66,1799.65s3.13-.47,2-4.53a3.67,3.67,0,0,0-4.11-3c-0.72.11-2.17,1.12-1.89,4.47C1061,1800.17,1063.35,1799.94,1064.66,1799.65Z" transform="translate(-791 -1594.22)"/><path class="cls-20" d="M1066,1796.86a1.17,1.17,0,0,1-.45.5,1,1,0,0,0,.61-0.25,1.71,1.71,0,0,1,0,1.77,6.65,6.65,0,0,0,.82-1.35,3.65,3.65,0,0,0-.29-2.42C1066.24,1794.61,1066.19,1796.66,1066,1796.86Z" transform="translate(-791 -1594.22)"/><path class="cls-20" d="M1060.51,1795.58s1.24-.62,1.6.23,0.51-2.47,1.72-2.6,0.54-.91.54-0.91S1061,1790.8,1060.51,1795.58Z" transform="translate(-791 -1594.22)"/><path class="cls-24" d="M1064.71,1797.51a1.85,1.85,0,0,0,1.63-2.31,2.47,2.47,0,0,0-2.5-2,1.82,1.82,0,0,0-1.77,2.3C1062.29,1797.49,1063.78,1797.56,1064.71,1797.51Z" transform="translate(-791 -1594.22)"/><path class="cls-6" d="M1063.26,1794.37l-1.21.92a3,3,0,0,0,.83,1.83,2.26,2.26,0,0,0,1.45.4s-0.88-1.12-.57-1.88A1.12,1.12,0,0,0,1063.26,1794.37Z" transform="translate(-791 -1594.22)"/><path class="cls-24" d="M1065,1797a2,2,0,0,0,1.79-2.54,2.71,2.71,0,0,0-2.74-2.19,2,2,0,0,0-1.94,2.53C1062.32,1797,1063.95,1797,1065,1797Z" transform="translate(-791 -1594.22)"/><path class="cls-6" d="M1062.47,1795.15s1.17,2.07,3.06,1.09,0.74-2.85.16-3.21a3.08,3.08,0,0,0-2-.39c-0.84.17,2,.39,1.51,1.73S1062.88,1795,1062.47,1795.15Z" transform="translate(-791 -1594.22)"/><path class="cls-20" d="M1060.73,1796.89s1.38,0.22,1.41-.38a2,2,0,0,0,2.2,1.13s-1.22.4-1.15,1a1.54,1.54,0,0,0,.93,1.17,2.92,2.92,0,0,1-2.41-.37A5,5,0,0,1,1060.73,1796.89Z" transform="translate(-791 -1594.22)"/><path class="cls-20" d="M1043.17,1795.32s1,3.16,5.05,1.32a3.86,3.86,0,0,0,2.36-4.79c-0.24-.73-1.54-2-5-1.17C1042,1791.62,1042.64,1794,1043.17,1795.32Z" transform="translate(-791 -1594.22)"/><path class="cls-22" d="M1043.51,1795.22s1,3,4.81,1.26a3.67,3.67,0,0,0,2.25-4.55c-0.23-.69-1.47-2-4.73-1.11C1042.38,1791.7,1043,1794,1043.51,1795.22Z" transform="translate(-791 -1594.22)"/><path class="cls-20" d="M1045.36,1791.77s-1,.11-0.85,1.62a1.86,1.86,0,0,0,1,1.79,1.09,1.09,0,0,1-.3-0.81c-0.06-.64.53,0.42,1,0.64a3.37,3.37,0,0,1-.31-1.81C1046.12,1792.5,1046.14,1791.38,1045.36,1791.77Z" transform="translate(-791 -1594.22)"/><path class="cls-20" d="M1046.48,1796.06a1.17,1.17,0,0,1-.57-0.36,1,1,0,0,0,.35.56,1.71,1.71,0,0,1-1.75.27,6.65,6.65,0,0,0,1.47.58,3.65,3.65,0,0,0,2.33-.69C1048.74,1795.93,1046.71,1796.23,1046.48,1796.06Z" transform="translate(-791 -1594.22)"/><path class="cls-20" d="M1046.83,1790.45s0.82,1.12,0,1.62,2.52,0.09,2.86,1.26,1,0.38,1,.38S1051.63,1790.18,1046.83,1790.45Z" transform="translate(-791 -1594.22)"/><path class="cls-24" d="M1048.47,1795.07a1.85,1.85,0,0,0,1.29-2.52,2.47,2.47,0,0,0-2.75-1.63,1.82,1.82,0,0,0-1.43,2.53C1046.07,1795.39,1047.55,1795.24,1048.47,1795.07Z" transform="translate(-791 -1594.22)"/><path class="cls-6" d="M1046.6,1792.16l-1.07,1.08a3,3,0,0,0,1.08,1.7,2.26,2.26,0,0,0,1.5.19s-1-1-.83-1.78A1.12,1.12,0,0,0,1046.6,1792.16Z" transform="translate(-791 -1594.22)"/><path class="cls-24" d="M1048.65,1794.51a2,2,0,0,0,1.42-2.76,2.71,2.71,0,0,0-3-1.79,2,2,0,0,0-1.57,2.77C1046,1794.86,1047.65,1794.71,1048.65,1794.51Z" transform="translate(-791 -1594.22)"/><path class="cls-6" d="M1045.92,1793s1.44,1.89,3.18.66,0.34-2.93-.29-3.2a3.08,3.08,0,0,0-2-.12c-0.81.28,2,.11,1.73,1.51S1046.31,1792.85,1045.92,1793Z" transform="translate(-791 -1594.22)"/><path class="cls-20" d="M1052.29,1795s3.13-.83,4.7,1.09,2.34,5.82,0,7.05-4.72,1.09-6.4-1.82S1049.86,1795.14,1052.29,1795Z" transform="translate(-791 -1594.22)"/><path class="cls-22" d="M1052.55,1795s2.91-.77,4.36,1,2.17,5.4,0,6.54-4.38,1-5.94-1.69S1050.3,1795.12,1052.55,1795Z" transform="translate(-791 -1594.22)"/><path class="cls-20" d="M1051,1798.81a3.72,3.72,0,0,0,1.19,2.36,4.25,4.25,0,0,0,3.93.28,2.51,2.51,0,0,0,1.45-2.89,4.25,4.25,0,0,0-3.8-3.41C1052.08,1795.21,1050.59,1796.12,1051,1798.81Z" transform="translate(-791 -1594.22)"/><path class="cls-24" d="M1055,1801.58a2.76,2.76,0,0,0,2.43-3.45,3.68,3.68,0,0,0-3.73-3c-0.75,0-3,.47-2.64,3.44S1053.66,1801.65,1055,1801.58Z" transform="translate(-791 -1594.22)"/><path class="cls-6" d="M1051.6,1797a4.25,4.25,0,0,0,.34,2.91c0.71,1.72,3.25,1.4,4.16.74a3.19,3.19,0,0,0,.28-4.14c-1-1.51-2.08-.84-2.13-0.33s0.71,1.8-.47,1.89-1.3-.92-1.51-1.38S1051.89,1796.4,1051.6,1797Z" transform="translate(-791 -1594.22)"/><path class="cls-20" d="M1050.19,1797.26s0.57,4.28,3.21,4.78a2.65,2.65,0,0,0,.84,1.51,5,5,0,0,1-3.81-3.14A6.72,6.72,0,0,1,1050.19,1797.26Z" transform="translate(-791 -1594.22)"/><path class="cls-20" d="M1057.4,1797.52a3.28,3.28,0,0,1-.41,3.47,1.49,1.49,0,0,1-.61,1.83s1.76-.4,1.91-1.65S1058,1797.67,1057.4,1797.52Z" transform="translate(-791 -1594.22)"/><path class="cls-20" d="M1049.54,1795.69s0.93-1.7.29-1.89l0.88-.09a3,3,0,0,1-1.26,2" transform="translate(-791 -1594.22)"/><path class="cls-29" d="M1057.37,1791a1.63,1.63,0,0,0-.36-0.07h-0.25a1.68,1.68,0,0,0-.27,0l-0.27,0a2.66,2.66,0,0,0-.41-0.42,1.72,1.72,0,0,0-.43-0.27l0.29,0.4,0.25,0.37h0a2.8,2.8,0,0,0-1,.57,1.72,1.72,0,0,0-.33.38l0.44-.23,0.44-.21c0.16-.07.33-0.15,0.51-0.2l0.07,0,0.12,0.22a5.06,5.06,0,0,1,.24.49c0.07,0.16.13,0.32,0.17,0.45s0.08,0.25.11,0.34l0,0.13s0,0,0-.14a1.63,1.63,0,0,0,0-.37,1.27,1.27,0,0,0,0-.24,1.68,1.68,0,0,0-.06-0.27,2,2,0,0,0-.09-0.28,2.77,2.77,0,0,0-.13-0.28l-0.1-.16,0.13,0,0.47-.1,0.35-.06,0.14,0Z" transform="translate(-791 -1594.22)"/><path class="cls-30" d="M1067.93,1716.35q0,12.57-9.09,20.2t-25.45,9.13v16.2h-10.83V1746q-19.29-.4-33.83-6.8v-20.87a91,91,0,0,0,16.56,6,88.67,88.67,0,0,0,17.27,3.08v-24.5l-5.3-2.06q-15.65-6.17-22.17-13.4t-6.52-17.9a23.36,23.36,0,0,1,9-18.85q9-7.39,25-9v-12.09h10.83v11.78a89.76,89.76,0,0,1,32.73,7.27l-7.43,18.5a85.49,85.49,0,0,0-25.29-6.17v23.32q15.41,5.93,21.94,10.28a30,30,0,0,1,9.56,9.57A23.73,23.73,0,0,1,1067.93,1716.35Zm-55.57-46.8a7.5,7.5,0,0,0,2.41,5.73,28.62,28.62,0,0,0,7.79,4.63v-18.58Q1012.36,1662.84,1012.36,1669.56Zm31.78,48a7.11,7.11,0,0,0-2.69-5.61,35.3,35.3,0,0,0-8.06-4.74v19.68Q1044.13,1725,1044.13,1717.54Z" transform="translate(-791 -1594.22)"/><path class="cls-30" d="M947,1750.49l1.58,0.95c1,0.62,2.44,1.47,4.14,2.55s3.69,2.32,5.79,3.7,4.34,2.85,6.57,4.34,4.44,3,6.51,4.44,4,2.8,5.62,4,3,2.17,3.93,2.86l1.48,1.11-1.58-.95c-1-.62-2.44-1.47-4.14-2.55s-3.69-2.32-5.79-3.7-4.34-2.85-6.57-4.34-4.44-3-6.51-4.44-4-2.8-5.62-4-3-2.17-3.93-2.86Z" transform="translate(-791 -1594.22)"/><path class="cls-30" d="M991.33,1762.44l-2-2.81-5.17-7.44c-2.11-3.1-4.61-6.68-7.23-10.57l-8.19-12.18-8.08-12.25c-2.58-3.91-4.93-7.6-7-10.74s-3.69-5.8-4.87-7.64l-1.82-2.91,2,2.81c1.25,1.8,3.06,4.34,5.18,7.44s4.62,6.68,7.23,10.57l8.19,12.18,8.08,12.25c2.58,3.91,4.93,7.6,7,10.74l4.87,7.64Z" transform="translate(-791 -1594.22)"/><path class="cls-30" d="M1056.07,1760l1.74-3,4.65-7.92c2-3.26,4.2-7.08,6.67-11.14l7.73-12.72,7.85-12.65c2.5-4,4.9-7.77,6.93-11s3.77-5.86,5-7.73l1.91-2.92-1.74,3c-1.13,1.91-2.7,4.66-4.65,7.92s-4.19,7.09-6.67,11.14l-7.73,12.72-7.85,12.65c-2.5,4-4.9,7.77-6.93,11l-5,7.73Z" transform="translate(-791 -1594.22)"/><path class="cls-30" d="M1072.64,1761.88s0.14-.23.39-0.61,0.62-.93,1.09-1.56c0.92-1.27,2.21-2.92,3.57-4.51s2.78-3.12,3.89-4.23c0.55-.56,1-1,1.37-1.32s0.54-.48.54-0.48-0.14.23-.39,0.61-0.62.93-1.09,1.56c-0.92,1.27-2.22,2.92-3.57,4.51s-2.78,3.12-3.89,4.23c-0.55.56-1,1-1.37,1.32S1072.64,1761.88,1072.64,1761.88Z" transform="translate(-791 -1594.22)"/><path class="cls-30" d="M1081,1785l1.1-.22c0.7-.12,1.7-0.33,2.91-0.52s2.61-.43,4.12-0.63,3.12-.41,4.74-0.61,3.23-.35,4.75-0.49,2.94-.22,4.16-0.32,2.24-.11,2.95-0.15l1.12,0-1.1.22c-0.7.12-1.7,0.34-2.91,0.52s-2.61.43-4.12,0.63-3.12.41-4.74,0.6-3.23.35-4.75,0.49-2.94.22-4.16,0.32-2.24.11-2.95,0.15Z" transform="translate(-791 -1594.22)"/><path class="cls-30" d="M967,1790.91l-3.25-.24c-2.06-.17-5-0.38-8.55-0.7s-7.66-.66-12.08-1.09l-13.83-1.36L915.47,1786c-4.41-.47-8.52-1-12-1.4s-6.46-.81-8.51-1.06l-3.23-.43,3.25,0.24c2.06,0.17,5,.38,8.55.7s7.66,0.66,12.08,1.09l13.83,1.36,13.82,1.49c4.41,0.48,8.52,1,12,1.4s6.46,0.81,8.51,1.06Z" transform="translate(-791 -1594.22)"/><path class="cls-30" d="M1081,1771.63l1.51-1.41c1-.88,2.34-2.17,4-3.67s3.64-3.26,5.77-5.1l6.69-5.77,6.77-5.67c2.16-1.81,4.22-3.44,6-4.87s3.24-2.57,4.27-3.39l1.64-1.26-1.51,1.41c-1,.88-2.34,2.17-4,3.67s-3.63,3.27-5.77,5.1l-6.69,5.77-6.77,5.66c-2.16,1.81-4.22,3.44-6,4.87s-3.24,2.57-4.27,3.39Z" transform="translate(-791 -1594.22)"/></g></g></svg>