<svg id="Camada_1" data-name="Camada 1" xmlns="http://www.w3.org/2000/svg" viewBox="0 0 312.28 231.72"><defs><style>.cls-1{fill:#fff;}.cls-2{fill:#23879a;}.cls-2,.cls-5{opacity:0.2;}.cls-3{fill:#f08020;}.cls-11,.cls-3{opacity:0.5;}.cls-4{fill:#212145;}.cls-12,.cls-5{fill:#000100;}.cls-6{fill:#fbc887;}.cls-7{fill:#d51116;}.cls-11,.cls-8{fill:#5c8eb6;}.cls-9{fill:#f4e600;}.cls-10{fill:#d17f43;}.cls-12{opacity:0.4;}.cls-13{fill:#b2ceed;}.cls-14{fill:#21a637;}</style></defs><title>03 HQ</title><rect class="cls-1" x="1.26" width="310.97" height="231.72"/><polygon class="cls-2" points="312.28 103.04 304.72 95.48 304.72 88.19 272.48 88.19 267.5 97.78 260.59 97.78 254.83 116.59 210.31 116.59 210.31 149.6 200.33 149.6 200.33 155.35 190.35 155.35 190.35 185.67 181.53 185.67 181.53 188.74 178.07 188.74 178.07 150.36 167.13 150.36 167.13 140.96 153.51 127.34 137.01 138.85 94.41 138.85 94.41 161.11 85.96 161.11 85.96 150.36 43.36 150.36 43.36 140.77 30.32 140.77 30.32 146.14 18.8 146.14 11.51 138.85 1.15 138.85 1.15 144.22 0 144.22 0 231.27 312.28 231.27 312.28 103.04"/><path class="cls-3" d="M1344.65,1669s3.62,1.3-2.2-8.5c0,0-6.63-13.24-12.06-15.36s-14.43-2.38-21.84-2.12-20.13,4-23.57,9.27-5.56,25.16-5.56,25.16a200,200,0,0,0-11.39,22.78s-13.24,6.09-14.83,8.74c0,0-23.57,14.3-26.22,17.21s0.26,32.84,5.83,49.26a28.46,28.46,0,0,0,7.42,5.3c5,2.65,12.32,9.93,12.32,9.93l10.2,2s3.44,23.57-4.77,32.84h59.85s6.09-17.48,1.85-33.11l8.47-6.09s6.09-1.59,6-6c0,0-6-12.32-6-13.11s2.91-15.89-3.71-26.48l-10.06-8.47h17.21s13.51-12.45,14.3-19.07-6.89-14.3-1.85-40.26Zm-86.16,109.88s-3.44-9.56-7.95-9.56h-8.74c-1.32-2.68-1.32-23-1.85-26.72s-1.59-8.38-1.59-8.38c2.38-4.41,18.27-5.92,18.27-5.92-0.22.92,1.67,3.76,1.24,4.58-11,21.05,2.33,44.28,2.33,44.28Zm60.78-10.46-5.43,5.43c1.85-3.18-1.59-6.62-1.59-6.62-8.74-11.65-16.42-28.34-16.42-28.34,9.8-5.56,18.27,5.56,18.27,5.56s-2.38,0-.79,3.71S1319.27,1768.42,1319.27,1768.42Z" transform="translate(-1129.22 -1594.22)"/><path class="cls-4" d="M1284.47,1763.13c-10.22-.66-9.56,10.46-9.56,10.46s3.69,15.63-4,20.26l-8.21-1.19s3.44,23.57-4.77,32.84h59.85s6.09-17.48,1.85-33.11c0,0-2.66-13.35-5.83-18.46C1313.83,1773.93,1294.7,1763.79,1284.47,1763.13Z" transform="translate(-1129.22 -1594.22)"/><path class="cls-5" d="M1314.95,1776.09a18.2,18.2,0,0,0-1.12-2.16s-3-1.57-7.16-3.51c-7.58-.15-20.92-0.4-31.37-0.57a14.26,14.26,0,0,0-.39,3.73s3.69,15.63-4,20.26l-8.21-1.19s3.44,23.57-4.77,32.84h15c6.09-11.79,1.72-34.3,10.2-44.1S1314.93,1776.09,1314.95,1776.09Z" transform="translate(-1129.22 -1594.22)"/><path class="cls-6" d="M1262.86,1784.77l-2.69-7.57,0,0-1.66,1.66s-3.44-9.56-7.95-9.56h-8.74c-1.32-2.68-1.32-23-1.85-26.72s-1.59-8.38-1.59-8.38c2.38-4.41,18.27-5.92,18.27-5.92,3.35-5.21-3.48-19.22-3.48-19.22l0-.06c-1.52.92-23.58,14.35-26.13,17.16s0.26,32.84,5.83,49.26a28.46,28.46,0,0,0,7.42,5.3c5,2.65,12.32,9.93,12.32,9.93l9.25,1.8A18.72,18.72,0,0,0,1262.86,1784.77Z" transform="translate(-1129.22 -1594.22)"/><path class="cls-5" d="M1256.1,1788.55s-3.53-.75-4.94-2.21c0,0,9.18,2.08,9.89,1.1S1262.81,1789,1256.1,1788.55Z" transform="translate(-1129.22 -1594.22)"/><path class="cls-5" d="M1254.45,1780.61a46.48,46.48,0,0,1-2.23-4.64c-0.09-.62,1.69,4.25,6.08,2.43A4.4,4.4,0,0,1,1254.45,1780.61Z" transform="translate(-1129.22 -1594.22)"/><path class="cls-6" d="M1324.44,1740.75l-10.06-8.47-1.46-8.31s20.78,6.36,23.37,3.61l-17-14.08-23.44,23.95,0.8,1c9.46-4.54,17.47,6,17.47,6s-2.38,0-.79,3.71,6,20.26,6,20.26a6.1,6.1,0,0,0-3.78,6.11s-1.67-.66-1.67-0.65l0,0c0.62,1.19,4.52,8.84,8.18,16.78l6.13-4.41s6.09-1.59,6-6c0,0-6-12.32-6-13.11S1331.06,1751.35,1324.44,1740.75Z" transform="translate(-1129.22 -1594.22)"/><path class="cls-5" d="M1322.66,1771.82s-1.92,5.2-1.49,5.81,4.72,0.77,4.72.77-3.77-4.72-2.39-6.58S1322.66,1771.82,1322.66,1771.82Z" transform="translate(-1129.22 -1594.22)"/><path class="cls-7" d="M1279.46,1677.45s-9,15.18-11.44,22.78,26.66-.79,30.63-1.15,9.27-22.25,1.24-24.81S1291.6,1660.85,1279.46,1677.45Z" transform="translate(-1129.22 -1594.22)"/><path class="cls-5" d="M1278.7,1682.31s-7.19,10.54-10.68,17.92c-3.42,7.22,26.66-.79,30.63-1.15s9.27-22.25,1.24-24.81S1290.85,1665.71,1278.7,1682.31Z" transform="translate(-1129.22 -1594.22)"/><path class="cls-8" d="M1253.15,1709.08s2.21,16.36,4.35,22.16l0.11,0.29a6.93,6.93,0,0,0,.57,1.18l-0.5.58c-10.7,21,2.48,44,2.48,44s37.81-11.72,53.63-3.31c1.85-3.18-1.59-6.62-1.59-6.62-8.74-11.65-16.42-28.34-16.42-28.34s7.35-12.05,20-7.68c0,0-14.76-13.9-16.49-18s-7.2-15.07-7.2-15.07a27.19,27.19,0,0,0-6.7-.55c-2.32.33-17.41,2.65-17.41,2.65S1254.74,1706.43,1253.15,1709.08Z" transform="translate(-1129.22 -1594.22)"/><path class="cls-5" d="M1295.79,1739a45.28,45.28,0,0,1-.6-21.88l2.1,2A64.74,64.74,0,0,0,1295.79,1739Z" transform="translate(-1129.22 -1594.22)"/><path class="cls-6" d="M1344.78,1668.14s3.49,2.15-2.34-7.65c0,0-29.62-5.56-59.15,13.86,0,0-3.35,2.3-2.3,11.48,1.15,10,10.42,4.59,10.42,4.59s0.19,3.2.69,7.83h0l-5.28,1.85s-1.46,6.62,3.44,8.34l3.14-.3c1.57,9.77,4.25,20.43,8.6,23.06l29.57,1.06s13.51-12.45,14.3-19.07-6.89-14.3-1.85-40.26Z" transform="translate(-1129.22 -1594.22)"/><path class="cls-1" d="M1335.42,1676.52s-5.26-2.87-6.43,3.73c0,0,1.26,5.35,3.21,6s5.93-.93,6.62-2.76S1339.85,1678.36,1335.42,1676.52Z" transform="translate(-1129.22 -1594.22)"/><path class="cls-1" d="M1307,1679.28s0.16-2.08,4-1.88,6.77,4,6.85,6.25-2.61,5.29-4.73,5.9-4.74-2.23-6.14-4.07S1307,1679.28,1307,1679.28Z" transform="translate(-1129.22 -1594.22)"/><path class="cls-5" d="M1283.29,1674.46s-2.36,1.62-2.49,7.55q0,0.32,0,.6c0,0.56,0,1.16.07,1.79l3.61-3.41c0.56,2.51,6.46,6,5.63,4.6s2.29-2.84,2.29-2.84c1.46,2.41,8.47,4.67,8.47,4.67s-1.84-8.53-.53-9.9,1.85,1.49,1.85,1.49c0.79-1.6,0-8.07,0-8.07l5.17-2.41c4,6.33,11.92,7,11.92,7-0.93-1.22,0-4.61,0-4.61,2.52,0,10.2,3,10.2,3,2.12-.86,1.85-4.17,1.85-4.17,5.56,1.72,10.46,8.34,10.46,8.34a29.55,29.55,0,0,0,2-3.43c0-.27.13-0.73,0.24-1.31l0.06-.3,0.75-4.8,0.19,0.09,0.42-2.1a41.78,41.78,0,0,0-2.95-5.64S1312.82,1655,1283.29,1674.46Z" transform="translate(-1129.22 -1594.22)"/><path class="cls-7" d="M1330.43,1645.14c-3.53-1.38-8.59-2-13.73-2.14-0.22-.58-1.29-2.76-4.79-2.76-4,0-5.09,2.9-5.09,2.9h0c-7.52.72-18.62,4.25-21.8,9.15-3.44,5.3-5.56,25.16-5.56,25.16,32.66-22.91,62.69-17,63-17C1342.31,1660.15,1335.79,1647.23,1330.43,1645.14Z" transform="translate(-1129.22 -1594.22)"/><path class="cls-9" d="M1307.66,1661.91c-0.08,5.56,3.88,9.89,10.42,12.45,0,0-.62-4.15.53-4.77,0,0,9.09.53,10.86,2,0,0,1.48-4.15-.2-4.42,0,0,8.67,1.33,12.38,8.24,0,0,2.65-2.71,1.41-4.92,0,0,3.34,3,4.15,5.82,0,0,1.25-7.07.47-9.28s4.87,0,6,1.21a13.71,13.71,0,0,0-10.76-9.59s-1.11-2.25,1-2.16c0,0-11.74-2.47-15.8,1.41,0,0-1.5-2.21,0-3.8,0,0-11.83,1.67-12.8,4.55,0,0-1.28-2.6-.86-3.84S1307.72,1657.71,1307.66,1661.91Z" transform="translate(-1129.22 -1594.22)"/><path class="cls-9" d="M1281,1675.44a60.89,60.89,0,0,0-2.27,6.87,48.14,48.14,0,0,1,6.27-3.43,9.62,9.62,0,0,0,4.86,4.4s1-2.65,2.21-2.91c0,0,5.3,4.59,7.42,5.12,0,0-1-9,0-10.33a1.18,1.18,0,0,1,2,0s0.52-8.73-3.84-7.89C1297.63,1667.26,1285.74,1667.72,1281,1675.44Z" transform="translate(-1129.22 -1594.22)"/><path class="cls-10" d="M1308.72,1715.32s-0.35-2.21.62-2.82a11.66,11.66,0,0,1,4.26-1.32c1.48-.18,4.83.09,6.6,0s7.33,1.68,10.24,3.62,4.68,2.47,5.3,2.3,0.09-.91-3.62-3-7.68-3.83-9.27-4.09-3.18.18-4.94,0a13.4,13.4,0,0,0-5.83.35c-2.21.71-2.33-.09-3.42,1.32S1306.33,1714.53,1308.72,1715.32Z" transform="translate(-1129.22 -1594.22)"/><path class="cls-10" d="M1326.11,1697c0.51,0,2.12,1.06,3.93.35s0.13-6.09-.4-6.36-1.77-.44-2-1.24,1.94,0.53,2.43.71,1.72,2.3,1.9,4.24-0.27,3.44-1.9,4-4,0-4.55-.71S1325.05,1697,1326.11,1697Z" transform="translate(-1129.22 -1594.22)"/><path class="cls-10" d="M1329.64,1681.29s0-1.5-.31-1.54-0.49.84-.26,2.07a12,12,0,0,0,2.38,4.41,4.19,4.19,0,0,0,3.84.93,7.42,7.42,0,0,0,4-3.44,10.1,10.1,0,0,0,0-4.15c-0.26-.75-0.35-0.4-0.26-0.75s-2.91-2.69-3.62-2.3,0.26,1,.62,1.19,1.94,1.1,2.12,1.81,0.49,3.58-.57,4.86a6.52,6.52,0,0,1-4.28,1.77,7.75,7.75,0,0,1-2.56-2.74C1330.3,1682.31,1329.65,1681.91,1329.64,1681.29Z" transform="translate(-1129.22 -1594.22)"/><path class="cls-10" d="M1332.33,1679.7a3.08,3.08,0,0,0-.36,1.5c0.14,0.49,1.22,3,2.27,3.13a2.89,2.89,0,0,0,2.82-1.41,5.7,5.7,0,0,0,0-3.22c-0.31-.62-1.83-2.21-2.82-2.25s-1.38-.22-1.33.66-0.18,1.19.18,1.1,0.35-.93.57-1a4.29,4.29,0,0,1,1.68.44,2.32,2.32,0,0,1,1.1,1.5c0.13,0.66.44,2.38-.31,2.82s-1.13.93-1.89,0.49a2.63,2.63,0,0,1-1.29-2C1332.77,1680.5,1333.13,1679.39,1332.33,1679.7Z" transform="translate(-1129.22 -1594.22)"/><path class="cls-10" d="M1313.6,1680.88c-0.37-1.29-1.7-2.82-2.63-2.9s-1.28,1.46-1.24,2.9-0.66,2-.4,3.67,2.3,2.75,2.3,2.75c0.53-.08-0.62-1.25,0-1.16a2.31,2.31,0,0,0,2-1.5A5.76,5.76,0,0,0,1313.6,1680.88Zm-1.21,3.72c-0.49.4-1.12-.19-1.41-0.24-0.61-.11-0.57-1-0.66-2.28s0.53-1.5.53-2.34,0.32-.35.76,0a2.19,2.19,0,0,1,1.27,2C1313,1683.14,1312.87,1684.2,1312.38,1684.6Z" transform="translate(-1129.22 -1594.22)"/><path class="cls-10" d="M1329,1672.33a6.75,6.75,0,0,0,3,0c1.91-.35,5.79,1.24,6.67,2s0.73-1.15-1.36-2.47a5.28,5.28,0,0,0-4.12-1C1332.29,1671,1327.57,1671.36,1329,1672.33Z" transform="translate(-1129.22 -1594.22)"/><path class="cls-10" d="M1304.48,1675.33s1.24-2.19,2.82-2.64,3.54-1.07,4.29-.8,0.3-1.13-2.7-1.05-4,1.32-4.41,2.64S1303.51,1675.77,1304.48,1675.33Z" transform="translate(-1129.22 -1594.22)"/><path class="cls-10" d="M1307,1679.28s-1.15,3-.35,5.08,3.63,4.83,5,4.83,3.22-1.15,4-1.41,1.06-4.15,1.5-4.33,1.24,0,.79,2.45-1.68,3-3.09,3.28-1.77,1.77-3.84,1a8.78,8.78,0,0,1-5.16-5.33C1305.1,1682.31,1305.28,1678.55,1307,1679.28Z" transform="translate(-1129.22 -1594.22)"/><path class="cls-11" d="M1313.83,1773.93l0,0Z" transform="translate(-1129.22 -1594.22)"/><path class="cls-5" d="M1285.4,1697.69s-2.46,1.39-2.1,7,6.61,7.51,10.5,5.64c0,0-7.35,2.24-8.73-3.87s2.61-8.81,2.61-8.81A10.68,10.68,0,0,0,1285.4,1697.69Z" transform="translate(-1129.22 -1594.22)"/><path class="cls-5" d="M1281.54,1772.38h0c-13.49-2.53-25.71-17.2-24.52-28.19s17.08-22.25,17.08-22.25c7.28-13.11-3.44-19.2-3.44-19.2,6.09,4.37,4.71,16.56.79,19.73-3.45,2.79-13.28,10.24-13.28,10.24l-0.5.58c-10.7,21,2.48,44,2.48,44A174.63,174.63,0,0,1,1281.54,1772.38Z" transform="translate(-1129.22 -1594.22)"/><path class="cls-5" d="M1291.46,1676.32c-1.46.86-2.94,4.56-2.94,4.56-1.84-1.23-2.55-6.34-2.55-6.34-1.25,0-2.72,1.93-2.72,1.93a16.07,16.07,0,0,1,.41-4.16,13.38,13.38,0,0,0-2.7,3.12,60.89,60.89,0,0,0-2.27,6.87,48.14,48.14,0,0,1,6.27-3.43,9.62,9.62,0,0,0,4.86,4.4s1-2.65,2.21-2.91c0,0,5.3,4.59,7.42,5.12,0,0-.24-2.21-0.36-4.6A11.43,11.43,0,0,1,1291.46,1676.32Z" transform="translate(-1129.22 -1594.22)"/><path class="cls-5" d="M1348.27,1666.14c-1.49-1-2.62-1.54-2.32-.9a4.2,4.2,0,0,1,0,3.17,10.5,10.5,0,0,0-5.09-3.81c1.46,2.25,0,6.23,0,6.23-1.59-5.16-13.24-7.42-13.24-7.42,1.72,1.72-.66,5-0.66,5-1.11-2.54-8.92-4.08-8.92-4.08a7.32,7.32,0,0,0-2.42,4.08,15.32,15.32,0,0,1-2.56-4.3c-0.9-2.92,4-5,4-5s1.34,3.74,1.69,2.1,5.13-4.41,4.9-4.06c-1.59,2.34.09,3.75,0.09,3.75a17.35,17.35,0,0,0,4.37-3s-1.5-2.21,0-3.8c0,0-11.83,1.67-12.8,4.55,0,0-1.28-2.6-.86-3.84s-6.76,2.86-6.82,7.06c-0.08,5.56,3.88,9.89,10.42,12.45,0,0-.62-4.15.53-4.77,0,0,9.09.53,10.86,2,0,0,1.48-4.15-.2-4.42,0,0,8.67,1.33,12.38,8.24,0,0,2.65-2.71,1.41-4.92,0,0,3.34,3,4.15,5.82,0,0,1.25-7.07.47-9.28A0.6,0.6,0,0,1,1348.27,1666.14Z" transform="translate(-1129.22 -1594.22)"/><path class="cls-5" d="M1313.57,1640.41a7,7,0,0,0-1.57-.17,5.56,5.56,0,0,0-4.31,1.7,12.49,12.49,0,0,0-.78,1.2l8.12-.08C1311.06,1641.94,1312.43,1641.14,1313.57,1640.41Z" transform="translate(-1129.22 -1594.22)"/><path class="cls-5" d="M1345.88,1713.19a8.59,8.59,0,0,0,.05-1.25h0c0,5.8-23.1,20.68-36.66,16.36s-17.86-37.89-17.86-37.89,0.19,3.2.69,7.83h0l-5.28,1.85s-1.46,6.62,3.44,8.34l3.14-.3c1.57,9.77,4.25,20.43,8.6,23.06l29.57,1.06S1345.09,1719.81,1345.88,1713.19Z" transform="translate(-1129.22 -1594.22)"/><path class="cls-12" d="M1295.12,1771.82s7.95,30.55-1.41,53.67h6.36s3.53-21.61,1.24-31.2c0,0,5.3-2,5.3-5,0,0-2.47-13.6-5.47-17.48,0,0,4.59,14.3,2.65,16.77s-3.62.88-3.62,0.88S1297.95,1776.41,1295.12,1771.82Z" transform="translate(-1129.22 -1594.22)"/><path class="cls-13" d="M1274.91,1773.59s-11.34,2.67-14.74,3.69c0,0-4.73,3.2-5.72,3.33s2.78,3.91,5.3,4.24,3.11,0,3.11,0-1.32,4.57-6.75,3.71a2.81,2.81,0,0,1-1.32,1.79l-1.08.56,9,1.76,8.21,1.19S1278.42,1790.41,1274.91,1773.59Z" transform="translate(-1129.22 -1594.22)"/><path class="cls-13" d="M1313.83,1773.93s14.24,5.22,16.36,6.15,1.46,2-.73,3a6.11,6.11,0,0,1,.4,1.52c0.07,0.73-1.72,1.72-1.72,1.72l-8.47,6.09S1316.21,1777.58,1313.83,1773.93Z" transform="translate(-1129.22 -1594.22)"/><path class="cls-5" d="M1260.21,1779.5c2.78-2,15.14-3.35,15.14-3.35h0c-0.13-.82-0.28-1.66-0.46-2.55,0,0-11.34,2.67-14.74,3.69,0,0-4.73,3.2-5.72,3.33s2.78,3.91,5.3,4.24,3.11,0,3.11,0-1.32,4.57-6.75,3.71a2.81,2.81,0,0,1-1.32,1.79l-1.08.56,9,1.76,7.59,1.1c-4.73-.78-16.24-4.78-12.36-4.19,4.06,0.62,12.8-6.44,10.86-5.85S1257.43,1781.53,1260.21,1779.5Z" transform="translate(-1129.22 -1594.22)"/><path class="cls-5" d="M1269.92,1783.48l5.69-5.08a15.07,15.07,0,0,1,.23,3.88S1275,1780.78,1269.92,1783.48Z" transform="translate(-1129.22 -1594.22)"/><path class="cls-5" d="M1275.43,1786.34s-5.82,3.89-10.32,3.66a24.8,24.8,0,0,0,9.53-.88A18.13,18.13,0,0,0,1275.43,1786.34Z" transform="translate(-1129.22 -1594.22)"/><path class="cls-5" d="M1330.19,1780.08c-2.12-.93-16.36-6.15-16.36-6.15a16.13,16.13,0,0,1,1.3,2.75l0.09,0s10.4,2.32,11.85,3.31-3,1.46-4.9.4,3.51,2.38,4.7,2.32,1,2.65-1.85,3.71a5.82,5.82,0,0,1-4.7,0s1.59,2.18,3.38,1.72-1.72,2.05-2.91.86a11,11,0,0,1-3.27-4.91h0c1.22,4.33,2.15,8.29,2.15,8.29l8.47-6.09s1.79-1,1.72-1.72a6.11,6.11,0,0,0-.4-1.52C1331.65,1782.06,1332.31,1781,1330.19,1780.08Z" transform="translate(-1129.22 -1594.22)"/><path class="cls-5" d="M1316.45,1780.49a27.41,27.41,0,0,0,5.07,1.64c2.05,0.33-5.49-3-6-4.5Z" transform="translate(-1129.22 -1594.22)"/><path class="cls-5" d="M1241.8,1769.24a6,6,0,0,0,1.32,2l-0.26-2h-1.06Z" transform="translate(-1129.22 -1594.22)"/><path class="cls-6" d="M1244.77,1783.72l3.32,4.52,3.07,1.11s-1.61-5.3-2.87-5.63A11.67,11.67,0,0,0,1244.77,1783.72Z" transform="translate(-1129.22 -1594.22)"/><polygon class="cls-5" points="121.94 195.12 119.07 191.48 120.51 194.6 121.94 195.12"/><path class="cls-6" d="M1243.3,1782.62l2.21,3.35a3.42,3.42,0,0,0,1.55.87s-0.59-3.65-1.52-4.64S1243.3,1782.62,1243.3,1782.62Z" transform="translate(-1129.22 -1594.22)"/><path class="cls-5" d="M1247.06,1786.83l-1.42-2.79,0.91,2.65A1.24,1.24,0,0,0,1247.06,1786.83Z" transform="translate(-1129.22 -1594.22)"/><path class="cls-14" d="M1341.86,1774.06a1.75,1.75,0,0,1-1.5.38,3.15,3.15,0,0,1-1.6-1l-0.88.7-0.47-.59,0.87-.69a6.13,6.13,0,0,1-1.09-2.14l1.14-.9a6.35,6.35,0,0,0,.39,1.16,6.18,6.18,0,0,0,.58,1.08l1.34-1.06-0.12-.38a4.12,4.12,0,0,1-.23-1.79,1.8,1.8,0,0,1,.7-1.13,1.63,1.63,0,0,1,1.42-.33,3.18,3.18,0,0,1,1.57,1l0.66-.52,0.47,0.59-0.64.51a6.26,6.26,0,0,1,1,2.1l-1.33.4a6,6,0,0,0-.76-1.65l-1.27,1a8.48,8.48,0,0,1,.39,1.64,2.09,2.09,0,0,1-.11.94A1.65,1.65,0,0,1,1341.86,1774.06ZM1342,1769a0.52,0.52,0,0,0-.21.38,2,2,0,0,0,.08.63l1-.8A0.65,0.65,0,0,0,1342,1769Zm-1.24,3.81a0.5,0.5,0,0,0,.19-0.39,2.46,2.46,0,0,0-.09-0.65l-1.07.85A0.71,0.71,0,0,0,1340.77,1772.81Z" transform="translate(-1129.22 -1594.22)"/><path class="cls-14" d="M1351.42,1779.07a1.75,1.75,0,0,1-1.5.38,3.15,3.15,0,0,1-1.6-1l-0.88.7-0.47-.59,0.87-.69a6.13,6.13,0,0,1-1.09-2.14l1.14-.9a6.35,6.35,0,0,0,.39,1.16,6.18,6.18,0,0,0,.58,1.08l1.34-1.06-0.12-.38a4.12,4.12,0,0,1-.23-1.79,1.8,1.8,0,0,1,.7-1.13,1.63,1.63,0,0,1,1.42-.33,3.18,3.18,0,0,1,1.57,1l0.66-.52,0.47,0.59-0.64.51a6.26,6.26,0,0,1,1,2.1l-1.33.4a6,6,0,0,0-.76-1.65l-1.27,1a8.48,8.48,0,0,1,.39,1.64,2.09,2.09,0,0,1-.11.94A1.65,1.65,0,0,1,1351.42,1779.07Zm0.15-5.06a0.52,0.52,0,0,0-.21.38,2,2,0,0,0,.08.63l1-.8A0.65,0.65,0,0,0,1351.57,1774Zm-1.24,3.81a0.5,0.5,0,0,0,.19-0.39,2.46,2.46,0,0,0-.09-0.65l-1.07.85A0.71,0.71,0,0,0,1350.33,1777.83Z" transform="translate(-1129.22 -1594.22)"/><path class="cls-14" d="M1344.47,1788.86a1.75,1.75,0,0,1-1.5.38,3.15,3.15,0,0,1-1.6-1l-0.88.7-0.47-.59,0.87-.69a6.13,6.13,0,0,1-1.09-2.14l1.14-.9a6.35,6.35,0,0,0,.39,1.16,6.18,6.18,0,0,0,.58,1.08l1.34-1.06-0.12-.38a4.12,4.12,0,0,1-.23-1.79,1.8,1.8,0,0,1,.7-1.13,1.63,1.63,0,0,1,1.42-.33,3.18,3.18,0,0,1,1.57,1l0.66-.52,0.47,0.59-0.64.51a6.26,6.26,0,0,1,1,2.1l-1.33.4a6,6,0,0,0-.76-1.65l-1.27,1a8.48,8.48,0,0,1,.39,1.64,2.09,2.09,0,0,1-.11.94A1.65,1.65,0,0,1,1344.47,1788.86Zm0.15-5.06a0.52,0.52,0,0,0-.21.38,2,2,0,0,0,.08.63l1-.8A0.65,0.65,0,0,0,1344.62,1783.8Zm-1.24,3.81a0.5,0.5,0,0,0,.19-0.39,2.46,2.46,0,0,0-.09-0.65l-1.07.85A0.71,0.71,0,0,0,1343.38,1787.61Z" transform="translate(-1129.22 -1594.22)"/><path class="cls-14" d="M1226.58,1778.63a2.09,2.09,0,0,1-.11-0.94,8.48,8.48,0,0,1,.39-1.64l-1.27-1a6,6,0,0,0-.76,1.65l-1.33-.4a6.26,6.26,0,0,1,1-2.1l-0.64-.51,0.47-.59,0.66,0.52a3.18,3.18,0,0,1,1.57-1,1.63,1.63,0,0,1,1.42.33,1.8,1.8,0,0,1,.7,1.13,4.12,4.12,0,0,1-.23,1.79l-0.12.38,1.34,1.06a6.18,6.18,0,0,0,.58-1.08,6.35,6.35,0,0,0,.39-1.16l1.14,0.9a6.13,6.13,0,0,1-1.09,2.14l0.87,0.69-0.47.59-0.88-.7a3.15,3.15,0,0,1-1.6,1,1.75,1.75,0,0,1-1.5-.38A1.65,1.65,0,0,1,1226.58,1778.63Zm-0.51-4.17,1,0.8a2,2,0,0,0,.08-0.63,0.52,0.52,0,0,0-.21-0.38A0.65,0.65,0,0,0,1226.08,1774.46Zm3.11,3.43-1.07-.85a2.46,2.46,0,0,0-.09.65,0.5,0.5,0,0,0,.19.39A0.71,0.71,0,0,0,1229.19,1777.9Z" transform="translate(-1129.22 -1594.22)"/><path class="cls-14" d="M1217,1783.65a2.09,2.09,0,0,1-.11-0.94,8.48,8.48,0,0,1,.39-1.64l-1.27-1a6,6,0,0,0-.76,1.65l-1.33-.4a6.26,6.26,0,0,1,1-2.1l-0.64-.51,0.47-.59,0.66,0.52a3.18,3.18,0,0,1,1.57-1,1.63,1.63,0,0,1,1.42.33,1.8,1.8,0,0,1,.7,1.13,4.12,4.12,0,0,1-.23,1.79l-0.12.38,1.34,1.06a6.18,6.18,0,0,0,.58-1.08,6.35,6.35,0,0,0,.39-1.16l1.14,0.9a6.13,6.13,0,0,1-1.09,2.14l0.87,0.69-0.47.59-0.88-.7a3.15,3.15,0,0,1-1.6,1,1.75,1.75,0,0,1-1.5-.38A1.65,1.65,0,0,1,1217,1783.65Zm-0.51-4.17,1,0.8a2,2,0,0,0,.08-0.63,0.52,0.52,0,0,0-.21-0.38A0.65,0.65,0,0,0,1216.52,1779.48Zm3.11,3.43-1.07-.85a2.46,2.46,0,0,0-.09.65,0.5,0.5,0,0,0,.19.39A0.71,0.71,0,0,0,1219.63,1782.91Z" transform="translate(-1129.22 -1594.22)"/><path class="cls-14" d="M1224,1793.44a2.09,2.09,0,0,1-.11-0.94,8.48,8.48,0,0,1,.39-1.64l-1.27-1a6,6,0,0,0-.76,1.65l-1.33-.4a6.26,6.26,0,0,1,1-2.1l-0.64-.51,0.47-.59,0.66,0.52a3.18,3.18,0,0,1,1.57-1,1.63,1.63,0,0,1,1.42.33,1.8,1.8,0,0,1,.7,1.13,4.12,4.12,0,0,1-.23,1.79l-0.12.38,1.34,1.06a6.18,6.18,0,0,0,.58-1.08,6.35,6.35,0,0,0,.39-1.16l1.14,0.9a6.13,6.13,0,0,1-1.09,2.14l0.87,0.69-0.47.59-0.88-.7a3.15,3.15,0,0,1-1.6,1,1.75,1.75,0,0,1-1.5-.38A1.65,1.65,0,0,1,1224,1793.44Zm-0.51-4.17,1,0.8a2,2,0,0,0,.08-0.63,0.52,0.52,0,0,0-.21-0.38A0.65,0.65,0,0,0,1223.47,1789.27Zm3.11,3.43-1.07-.85a2.46,2.46,0,0,0-.09.65,0.5,0.5,0,0,0,.19.39A0.71,0.71,0,0,0,1226.58,1792.7Z" transform="translate(-1129.22 -1594.22)"/></svg>