<svg id="Camada_1" data-name="Camada 1" xmlns="http://www.w3.org/2000/svg" viewBox="0 0 310.97 230.71"><defs><style>.cls-1{fill:#ffe7a3;}.cls-10,.cls-2,.cls-32{fill:#000100;}.cls-10,.cls-2{opacity:0.2;}.cls-3{fill:#ae6d44;}.cls-10,.cls-13,.cls-3,.cls-32,.cls-35,.cls-4,.cls-5,.cls-9{fill-rule:evenodd;}.cls-4{fill:#985d2c;}.cls-5{fill:#d09a66;}.cls-6{fill:#2d3036;}.cls-7{fill:#fff;}.cls-8{fill:#cecccc;}.cls-9{fill:#a0c0cc;}.cls-11{fill:#b0b7b6;}.cls-12{fill:#1e505a;}.cls-13,.cls-14{fill:#fbc887;}.cls-15{fill:#1b2120;}.cls-16{fill:#c75f16;}.cls-17,.cls-35{fill:#5789a9;}.cls-18{fill:#d17f43;}.cls-19{fill:#1f536e;}.cls-20{fill:#1086b6;}.cls-21{fill:#f1cd87;}.cls-22{fill:#f1deb3;}.cls-23{fill:#f2bb95;}.cls-24{fill:#f2eeb3;}.cls-25{fill:#85c4b1;}.cls-26{fill:#fefbe1;}.cls-27{fill:#c1c2cc;}.cls-28{fill:#fad4d6;}.cls-29{fill:#a7ae74;}.cls-30{fill:#d2df8c;}.cls-31{fill:#d41116;}.cls-33{fill:#bbe2ee;}.cls-34{fill:#daeef4;}</style></defs><title>05 HQ</title><polygon class="cls-1" points="0 229.54 0 0 143.42 22.64 143.42 230.71 0 229.54"/><polygon class="cls-1" points="143.42 22.64 143.42 230.71 310.97 230.71 310.97 0 143.42 22.64"/><path class="cls-2" d="M973.57,1931.5c-16.77,8.78-15.4,213.51-15.4,213.51H934.93V1936.72Z" transform="translate(-791.51 -1914.31)"/><path class="cls-2" d="M1026.66,2106.92l-0.39-.33-0.21-.17-0.18-.14-0.17-.13-0.14-.11-0.14-.1-0.1-.07-0.1-.07,0,0,0,0c6.34,2,8.93-1.62,12.67-33.64s2.88-48.73,2.88-48.73-0.94-12.1-17.76-15.27c-15.14-2.85-33.68-.49-39,3.13a7.2,7.2,0,0,0-1.21-.06,6.75,6.75,0,0,0-1.12.7l0.8-12.5a5,5,0,0,0,1.56-.69,1,1,0,0,1,.2-0.11c0.37-.43,1.21-2.46,2.18-11.78,1.3-12.53,0-19.88-5.4-22.25s-30.46-4.54-41.48,2.59c-10.32,6.68-1.5,17.9.72,16.11,0.12-.17.24-0.36,0.36-0.55h0c0.11,0.34,3,9.52,3,12.07s-2.59,2.38-3,4.32-0.22,3.67,3,4.1v0.58h0v3.74l0.59-.14,0,0.19,0.79,3.51h0l1.65-.05-0.31,0c-1.26.38-1.43,0.8-1.11,1.2h-0.1l-0.3,0a33.71,33.71,0,0,0-4.37.77l-0.09,0h0a152.65,152.65,0,0,0-15.11,4.68l-1.87-.34v-0.13l-8.47-1.41-3.21.53c-2.37-1.18-4.53-2.06-4.53-2.06-2.17,2.25-7.85,2.79-11.75,3l-0.94-4.3c17.61-3.37,32.78-6.22,32.78-6.22V1960.3l-86.22,3.25-2.88.58v57.78l2.88,2h0c0.47-.52,21.93-4.76,43.32-8.89l-1.25,6.16-73.24,12.2v5.27l5.73,2.19v99.86l4.66,2.36c0,0.47,0,1,0,1.43h2.8l1,0.5,1-.5H972s5.3-8.79,7.24-17.47c-0.72,8.29-1.27,17.46-1.27,17.46h6.4s0.29-21.44,1.59-27.63a17.93,17.93,0,0,1,.79-2.73l2.91,0.08,0,0.07,0.13,0.34,0.14,0.44,0.13,0.43,0.12,0.45c0.05,0.2.1,0.42,0.15,0.63l0.07,0.3c0.06,0.27.11,0.57,0.16,0.9v0.05q0.08,0.49.15,1.06h0c1,7.86,1.26,25.61,1.26,25.61h6.4s-0.19-3.13-.48-7.37c0.44,2.29.88,4.73,1.29,7.38h20.36s3-21.17,1.3-32c-0.12-.73-0.21-1.52-0.28-2.35a15.33,15.33,0,0,0,1.43-.78h0s3.1,1.28,4.39,7.47,1.59,27.63,1.59,27.63h6.4s-1.3-21.72-2.52-28.51a14.67,14.67,0,0,0-.93-3.11l0,0-0.08-.17-0.22-.47-0.23-.46-0.24-.45-0.25-.42-0.25-.42-0.27-.4q-0.24-.35-0.49-0.68l-0.25-.33-0.29-.35-0.24-.28-0.29-.32-0.24-.25-0.28-.28-0.23-.22-0.26-.24Zm-71.44-96.13-0.19,0h1.76c0,0.2,0,.39.06,0.58l0,0A5.67,5.67,0,0,0,955.22,2010.79Zm0.54-2.47,0.14,0.17h0Zm-0.33-.35,0,0,0,0Zm1.36,4.93H956.7l0.16-1.47A8.37,8.37,0,0,1,956.79,2012.9Zm-0.2,1h0c0.05-.23.13-0.55,0.19-1a8.44,8.44,0,0,1-.27,1.28S956.55,2014.11,956.59,2013.91Zm4.28,57.82v15.38c-1.91.54-4,1.2-6.2,2l1.88-4.44c-0.11-.15-0.22-0.27-0.33-0.4L956,2084c-0.12-.14-0.24-0.26-0.37-0.38l-0.26-.25L955,2083l-0.25-.19-0.4-.28-0.2-.12a7.24,7.24,0,0,0-.94-0.48,13.86,13.86,0,0,0-1.07-4.12c-0.64-1-3.36-1.78-5.43-1.71a3.12,3.12,0,0,0-2.15.68,1.57,1.57,0,0,0-.24.38h0c-0.86,1.81.25,6.38,0.25,6.38a1.54,1.54,0,0,0,0,.36,2.33,2.33,0,0,0,0,.48,6.71,6.71,0,0,0-1.51,1.42c-1,1.15-5.18,2.66-6.52,3.1s-2.84,6.79-2.84,6.79h0l-0.21-1.26q-0.26-1.55-.54-3.1c-0.56-3.11-1.17-6.23-1.83-9.29l-0.34-1.52c-0.45-2-.93-4-1.43-5.93q-0.63-2.42-1.31-4.69h21.89a4.3,4.3,0,0,0,1.45,1.66C952.74,2072.36,957,2072.16,960.88,2071.73Zm0-22.16a26.1,26.1,0,0,1-3.9,2,12.94,12.94,0,0,0-1,4.34c-4.26,1.36-8.41,3.22-8.41,3.22-0.78.11-4.05,4.05-4.05,4.05H925.76l0.17,0.5c-0.27-.7-0.54-1.39-0.82-2s-0.63-1.44-1-2.12-0.51-1-.78-1.52v-9.11l37.5-9v9.62Zm4.52,63.84,0.14-.88,1.63,0.18-0.27.7h-1.51Zm-8.6-102.66c0-.07,0-0.14,0-0.21h0l0-.18C956.75,2010.48,956.77,2010.61,956.79,2010.74Zm-0.25-1h0c0-.13-0.1-0.27-0.16-0.4,0.06,0.13.11,0.26,0.16,0.4h0Zm0.06,0.18c0,0.11.07,0.23,0.09,0.34C956.67,2010.12,956.64,2010,956.6,2009.89Zm-0.51-1.1,0.12,0.18Zm-106.85,44.86c-7.38,3.92-6.15,7-6.15,7h0a39.28,39.28,0,0,0-7.28,9.3h0a13.16,13.16,0,0,0-3.27,2.37v-25Zm129.89,62.91h0s1.16-1.41-1.54-2.91l3.44,0.22a14.6,14.6,0,0,0-.55,2.1c-0.2,1.11-.4,2.62-0.6,4.36A12.74,12.74,0,0,0,979.14,2116.56Z" transform="translate(-791.51 -1914.31)"/><polygon class="cls-3" points="40.81 123.07 40.81 226.42 49.27 230.71 49.27 121.66 40.81 123.07"/><polygon class="cls-4" points="57.74 123.07 57.74 226.42 49.27 230.71 49.27 121.66 57.74 123.07"/><polygon class="cls-5" points="35.07 119.1 35.07 124.37 108.29 152.27 107.76 142.25 35.07 119.1"/><polygon class="cls-3" points="131.64 103.01 131.64 177.66 140.1 181.95 140.1 101.6 131.64 103.01"/><polygon class="cls-4" points="148.57 103.01 148.57 177.66 140.1 181.95 140.1 101.6 148.57 103.01"/><polygon class="cls-3" points="186.07 116.86 186.07 191.51 194.53 195.8 194.53 115.45 186.07 116.86"/><polygon class="cls-4" points="203 116.86 203 191.51 194.53 195.8 194.53 115.45 203 116.86"/><polygon class="cls-3" points="99.67 140.88 213.66 115.01 140.1 101.6 35.07 119.1 99.67 140.88"/><polygon class="cls-5" points="99.67 140.88 99.67 146.33 211.99 119.47 213.66 115.01 99.67 140.88"/><path class="cls-6" d="M901.09,2015l-1.51,7.45s-8.21,1.4-9.18,3.13-0.76,5.19-.76,5.19,24.41-2.11,40.62-9.21c0,0-1.08-4.62-3-4.94s-14.69,2.68-14.69,2.68l-1.73-7.93Z" transform="translate(-791.51 -1914.31)"/><path class="cls-2" d="M927.23,2016.6c-1.25-.21-7,1-10.92,1.83l0.19,4.4s-23.87,5.11-23,3.59,8.07-3.09,8.07-3.09l2.23-7.49,7.64-1.66-0.62-2.84-9.72,3.64-1.51,7.45s-8.21,1.4-9.18,3.13-0.76,5.19-.76,5.19,24.41-2.11,40.62-9.21C930.25,2021.54,929.17,2016.93,927.23,2016.6Z" transform="translate(-791.51 -1914.31)"/><path class="cls-6" d="M857.75,2023.93c0.94-1,86.22-17.06,86.22-17.06v-46.55l-86.22,3.25v60.35Z" transform="translate(-791.51 -1914.31)"/><path class="cls-7" d="M863.19,2017.32l77.23-14.22v-38.94L863.19,1967v50.31Z" transform="translate(-791.51 -1914.31)"/><polygon class="cls-2" points="71.68 104.1 150.3 89.34 149.97 49.85 148.91 49.85 148.91 88.8 71.68 103.01 71.68 104.1"/><polygon class="cls-6" points="118.32 111.28 74.14 119.8 75.79 122.36 107.09 131.88 169.42 116 167.47 113.1 118.32 111.28"/><polygon class="cls-8" points="117.63 109.01 74.14 119.8 105.15 128.98 167.47 113.1 135.72 104.98 117.63 109.01"/><path class="cls-9" d="M925.5,2022.86l2.44-.48a4.11,4.11,0,0,1,1.12,0l2,0.28c0.28,0,.26.12,0,0.18l-2.44.5a3.34,3.34,0,0,1-1,0l-2-.29C925.29,2023,925.23,2022.92,925.5,2022.86Z" transform="translate(-791.51 -1914.31)"/><path class="cls-9" d="M929.27,2023.39l2.21-.46a4.28,4.28,0,0,1,1.2-.05l2,0.3c0.26,0,.18.13-0.17,0.21l-2.2.48a3.45,3.45,0,0,1-1.06.05l-2-.32C928.93,2023.55,928.94,2023.45,929.27,2023.39Z" transform="translate(-791.51 -1914.31)"/><path class="cls-9" d="M932.82,2023.94l2.2-.48a3.68,3.68,0,0,1,1.09-.07l1.73,0.28c0.24,0,.14.14-0.21,0.22l-2.19.5a3.1,3.1,0,0,1-1,.05l-1.74-.3C932.43,2024.1,932.49,2024,932.82,2023.94Z" transform="translate(-791.51 -1914.31)"/><path class="cls-9" d="M935.89,2024.47l2.19-.5a3.31,3.31,0,0,1,1.07-.06l1.84,0.35c0.27,0.05.2,0.17-.15,0.25l-2.19.51a3,3,0,0,1-1.07,0l-1.83-.36C935.5,2024.64,935.56,2024.54,935.89,2024.47Z" transform="translate(-791.51 -1914.31)"/><path class="cls-9" d="M939.18,2025.12l2.2-.51a3.27,3.27,0,0,1,1.17,0l2.35,0.49c0.35,0.08.36,0.21,0,.29l-2.22.52a3.35,3.35,0,0,1-1.24,0l-2.32-.5C938.82,2025.31,938.85,2025.2,939.18,2025.12Z" transform="translate(-791.51 -1914.31)"/><path class="cls-9" d="M943.38,2026l2.23-.52a3.69,3.69,0,0,1,1.37,0l3.26,0.72c0.49,0.11.62,0.27,0.26,0.36l-2.28.52a4.24,4.24,0,0,1-1.51-.07l-3.2-.72C943.1,2026.24,943.05,2026.11,943.38,2026Z" transform="translate(-791.51 -1914.31)"/><path class="cls-9" d="M921.55,2023.64l2.18-.43a3.79,3.79,0,0,1,1.06,0l2,0.3c0.28,0,.29.12,0,0.17l-2.17.45a3.09,3.09,0,0,1-.94,0l-2-.31C921.39,2023.77,921.31,2023.69,921.55,2023.64Z" transform="translate(-791.51 -1914.31)"/><path class="cls-9" d="M922.08,2024.89l5.17-1.08a4.13,4.13,0,0,1,1.21,0l2,0.31c0.28,0,.23.14-0.1,0.21l-5.1,1.12a3.14,3.14,0,0,1-1,0l-2-.34C921.86,2025,921.8,2024.95,922.08,2024.89Z" transform="translate(-791.51 -1914.31)"/><path class="cls-9" d="M928,2025l2.86-.63a3.49,3.49,0,0,1,1.08-.05l1.68,0.29c0.25,0,.19.15-0.13,0.22l-2.83.65a2.92,2.92,0,0,1-1,0l-1.71-.31C927.65,2025.16,927.67,2025.07,928,2025Z" transform="translate(-791.51 -1914.31)"/><path class="cls-9" d="M928.52,2026.17l5.39-1.25a3.14,3.14,0,0,1,1.07,0l1.77,0.35c0.28,0.06.25,0.17-.07,0.25l-5.35,1.27a2.75,2.75,0,0,1-1,0l-1.8-.37C928.25,2026.33,928.25,2026.24,928.52,2026.17Z" transform="translate(-791.51 -1914.31)"/><path class="cls-9" d="M935.32,2026l1.92-.45a2.94,2.94,0,0,1,1.08,0l2.32,0.5c0.35,0.08.39,0.2,0.08,0.28l-1.93.46a3.12,3.12,0,0,1-1.15,0l-2.3-.51C935,2026.2,935,2026.1,935.32,2026Z" transform="translate(-791.51 -1914.31)"/><path class="cls-9" d="M939.48,2026.95l1.94-.46a3.4,3.4,0,0,1,1.27,0l3.19,0.72c0.48,0.11.64,0.26,0.32,0.34l-2,.45a4,4,0,0,1-1.41-.08l-3.15-.72C939.28,2027.14,939.2,2027,939.48,2026.95Z" transform="translate(-791.51 -1914.31)"/><path class="cls-9" d="M918.25,2024.3L920,2024a3.58,3.58,0,0,1,1,0l2,0.32c0.28,0,.31.12,0.09,0.17l-1.69.35a2.94,2.94,0,0,1-.9,0l-2-.33C918.13,2024.43,918,2024.35,918.25,2024.3Z" transform="translate(-791.51 -1914.31)"/><path class="cls-9" d="M915.19,2024.93l1.57-.32a3.44,3.44,0,0,1,1,0l2,0.33c0.29,0,.34.12,0.13,0.16l-1.55.33a2.84,2.84,0,0,1-.88,0l-2-.34C915.1,2025,915,2025,915.19,2024.93Z" transform="translate(-791.51 -1914.31)"/><path class="cls-9" d="M912.36,2025.52l1.45-.3a3.35,3.35,0,0,1,1,0l2,0.34c0.29,0,.36.12,0.17,0.16l-1.43.31a2.78,2.78,0,0,1-.86,0l-2-.35C912.3,2025.63,912.17,2025.55,912.36,2025.52Z" transform="translate(-791.51 -1914.31)"/><path class="cls-9" d="M909.69,2026.08l1.37-.29a3.3,3.3,0,0,1,.95,0l2,0.35c0.29,0.05.38,0.12,0.2,0.16l-1.35.3a2.75,2.75,0,0,1-.85,0l-2.06-.36C909.65,2026.2,909.51,2026.12,909.69,2026.08Z" transform="translate(-791.51 -1914.31)"/><path class="cls-9" d="M907.14,2026.63l1.32-.29a3.26,3.26,0,0,1,.94,0l2.07,0.36c0.3,0.05.39,0.12,0.22,0.16l-1.3.29a2.73,2.73,0,0,1-.85,0l-2.09-.37C907.12,2026.75,907,2026.67,907.14,2026.63Z" transform="translate(-791.51 -1914.31)"/><path class="cls-9" d="M904.64,2027.18l1.3-.29a3.24,3.24,0,0,1,.94,0l2.1,0.37c0.3,0.05.41,0.13,0.24,0.16l-1.28.3a2.73,2.73,0,0,1-.86,0l-2.12-.37C904.62,2027.3,904.47,2027.22,904.64,2027.18Z" transform="translate(-791.51 -1914.31)"/><path class="cls-9" d="M902.14,2027.74l1.31-.29a3.21,3.21,0,0,1,.95,0l2.13,0.38c0.31,0.05.41,0.13,0.25,0.17l-1.29.3a2.73,2.73,0,0,1-.87,0l-2.15-.39C902.11,2027.86,902,2027.78,902.14,2027.74Z" transform="translate(-791.51 -1914.31)"/><path class="cls-9" d="M899.56,2028.32l1.35-.31a3.19,3.19,0,0,1,1,0l2.15,0.39c0.31,0.06.42,0.13,0.24,0.17l-1.34.32a2.73,2.73,0,0,1-.89,0l-2.16-.4C899.53,2028.45,899.38,2028.37,899.56,2028.32Z" transform="translate(-791.51 -1914.31)"/><path class="cls-9" d="M896.87,2028.94l1.43-.33a3.16,3.16,0,0,1,1,0l2.17,0.4c0.31,0.06.42,0.14,0.23,0.18l-1.42.34a2.72,2.72,0,0,1-.91,0l-2.18-.41C896.81,2029.08,896.68,2029,896.87,2028.94Z" transform="translate(-791.51 -1914.31)"/><path class="cls-9" d="M894,2029.61l1.53-.35a3.13,3.13,0,0,1,1,0l2.18,0.42c0.32,0.06.41,0.15,0.21,0.19l-1.53.37a2.72,2.72,0,0,1-.94,0l-2.18-.43C893.9,2029.76,893.78,2029.66,894,2029.61Z" transform="translate(-791.51 -1914.31)"/><path class="cls-9" d="M890.86,2030.34l1.67-.39a3.09,3.09,0,0,1,1,0l2.18,0.44c0.32,0.06.4,0.15,0.18,0.21l-1.67.41a2.72,2.72,0,0,1-1,0l-2.17-.45C890.74,2030.49,890.63,2030.39,890.86,2030.34Z" transform="translate(-791.51 -1914.31)"/><path class="cls-9" d="M887.43,2031.13l1.83-.43a3,3,0,0,1,1.06,0l2.17,0.46c0.32,0.07.38,0.17,0.14,0.22l-1.85.45a2.71,2.71,0,0,1-1,0l-2.15-.48C887.27,2031.3,887.18,2031.19,887.43,2031.13Z" transform="translate(-791.51 -1914.31)"/><path class="cls-9" d="M883.63,2032l2-.47a3,3,0,0,1,1.1,0l2.15,0.49c0.31,0.07.35,0.18,0.09,0.24l-2.06.5a2.7,2.7,0,0,1-1.06,0l-2.12-.51C883.42,2032.2,883.36,2032.08,883.63,2032Z" transform="translate(-791.51 -1914.31)"/><path class="cls-9" d="M879.42,2033l2.25-.52a3,3,0,0,1,1.14,0l2.11,0.52c0.31,0.08.32,0.19,0,.26l-2.3.55a2.69,2.69,0,0,1-1.11,0l-2.07-.55C879.14,2033.19,879.12,2033.06,879.42,2033Z" transform="translate(-791.51 -1914.31)"/><path class="cls-9" d="M874.11,2034.21l2.93-.67a2.91,2.91,0,0,1,1.19,0l2.06,0.56c0.3,0.08.27,0.21-.06,0.29l-3,.72a2.67,2.67,0,0,1-1.17,0l-2-.6C873.75,2034.44,873.76,2034.29,874.11,2034.21Z" transform="translate(-791.51 -1914.31)"/><path class="cls-9" d="M918.83,2025.58l1.58-.34a3.34,3.34,0,0,1,1,0l2.13,0.36c0.27,0,.28.13,0,0.18l-1.55.35a2.75,2.75,0,0,1-.91,0l-2.16-.37C918.66,2025.72,918.59,2025.63,918.83,2025.58Z" transform="translate(-791.51 -1914.31)"/><path class="cls-9" d="M915.83,2026.24l1.46-.32a3.22,3.22,0,0,1,1,0l2.17,0.37c0.27,0,.31.13,0.09,0.18l-1.42.33a2.67,2.67,0,0,1-.89,0l-2.21-.38C915.7,2026.37,915.61,2026.29,915.83,2026.24Z" transform="translate(-791.51 -1914.31)"/><path class="cls-9" d="M913,2026.86l1.37-.31a3.16,3.16,0,0,1,1,0l2.23,0.39c0.28,0,.33.13,0.13,0.18l-1.33.32a2.64,2.64,0,0,1-.88,0l-2.27-.39C912.92,2027,912.81,2026.91,913,2026.86Z" transform="translate(-791.51 -1914.31)"/><path class="cls-9" d="M910.33,2027.48l1.32-.3a3.13,3.13,0,0,1,1,0l2.28,0.4c0.29,0.05.36,0.13,0.16,0.18l-1.28.31a2.64,2.64,0,0,1-.88,0l-2.32-.4C910.25,2027.61,910.13,2027.53,910.33,2027.48Z" transform="translate(-791.51 -1914.31)"/><path class="cls-9" d="M907.68,2028.1l1.31-.31a3.12,3.12,0,0,1,1,0l2.33,0.41c0.3,0.05.37,0.13,0.18,0.18l-1.28.32a2.66,2.66,0,0,1-.9,0l-2.37-.41C907.6,2028.23,907.48,2028.14,907.68,2028.1Z" transform="translate(-791.51 -1914.31)"/><path class="cls-9" d="M905,2028.74l1.35-.32a3.13,3.13,0,0,1,1,0l2.38,0.42c0.3,0.05.38,0.14,0.18,0.19l-1.31.33a2.69,2.69,0,0,1-.92,0l-2.41-.43C904.9,2028.88,904.78,2028.79,905,2028.74Z" transform="translate(-791.51 -1914.31)"/><path class="cls-9" d="M902.17,2029.42l1.42-.34a3.14,3.14,0,0,1,1,0l2.42,0.43c0.31,0.05.38,0.14,0.17,0.19l-1.39.36a2.73,2.73,0,0,1-1,0l-2.44-.44C902.06,2029.57,902,2029.47,902.17,2029.42Z" transform="translate(-791.51 -1914.31)"/><path class="cls-9" d="M899.15,2030.15l1.53-.37a3.15,3.15,0,0,1,1.05,0l2.45,0.45c0.31,0.06.38,0.15,0.15,0.21l-1.51.39a2.77,2.77,0,0,1-1,0l-2.46-.47C899,2030.31,898.91,2030.21,899.15,2030.15Z" transform="translate(-791.51 -1914.31)"/><path class="cls-9" d="M895.85,2031l1.68-.41a3.15,3.15,0,0,1,1.1,0l2.46,0.47c0.31,0.06.36,0.16,0.11,0.22l-1.68.43a2.82,2.82,0,0,1-1,0l-2.47-.49C895.66,2031.14,895.59,2031,895.85,2031Z" transform="translate(-791.51 -1914.31)"/><path class="cls-9" d="M892.18,2031.85l1.87-.46a3.17,3.17,0,0,1,1.14,0l2.46,0.5c0.31,0.06.34,0.17,0.06,0.24l-1.88.48a2.87,2.87,0,0,1-1.1,0l-2.45-.53C891.94,2032,891.89,2031.93,892.18,2031.85Z" transform="translate(-791.51 -1914.31)"/><path class="cls-9" d="M888.08,2032.86l2.1-.51a3.18,3.18,0,0,1,1.2,0l2.45,0.54c0.31,0.07.31,0.19,0,.27l-2.12.54a2.91,2.91,0,0,1-1.17,0l-2.42-.57C887.76,2033.07,887.75,2032.94,888.08,2032.86Z" transform="translate(-791.51 -1914.31)"/><path class="cls-9" d="M883.44,2034l2.37-.57a3.18,3.18,0,0,1,1.26,0l2.4,0.58c0.31,0.07.26,0.21-.09,0.3l-2.41.61a3,3,0,0,1-1.24,0l-2.35-.62C883,2034.22,883.07,2034.07,883.44,2034Z" transform="translate(-791.51 -1914.31)"/><path class="cls-9" d="M878,2035.29l2.73-.66a3.24,3.24,0,0,1,1.35,0l2.31,0.63c0.3,0.08.21,0.23-.2,0.34l-2.8.71a3.05,3.05,0,0,1-1.34,0l-2.24-.68C877.51,2035.57,877.59,2035.4,878,2035.29Z" transform="translate(-791.51 -1914.31)"/><path class="cls-9" d="M882,2036.45l5.59-1.43a3.2,3.2,0,0,1,1.32,0l2,0.5c0.29,0.08.19,0.23-.24,0.34l-5.73,1.51a3.18,3.18,0,0,1-1.39.08l-1.85-.58C881.38,2036.75,881.53,2036.57,882,2036.45Z" transform="translate(-791.51 -1914.31)"/><path class="cls-9" d="M885.39,2037.49l6.75-1.8a3.05,3.05,0,0,1,1.27-.07l1.87,0.48c0.29,0.07.18,0.23-.24,0.35l-6.93,1.89a3.2,3.2,0,0,1-1.41.09l-1.73-.56C884.71,2037.8,884.9,2037.62,885.39,2037.49Z" transform="translate(-791.51 -1914.31)"/><path class="cls-9" d="M888.58,2038.49l9.64-2.64a3,3,0,0,1,1.26-.06l2,0.51c0.32,0.08.27,0.24-.14,0.35l-10,2.74a3.3,3.3,0,0,1-1.48.09l-1.8-.59C887.86,2038.82,888.07,2038.63,888.58,2038.49Z" transform="translate(-791.51 -1914.31)"/><path class="cls-9" d="M891.94,2039.58l4.47-1.23a3.2,3.2,0,0,1,1.44-.07l2.24,0.65c0.36,0.11.27,0.3-.23,0.44l-4.66,1.27a3.51,3.51,0,0,1-1.63.07l-2.07-.69C891.21,2039.92,891.41,2039.72,891.94,2039.58Z" transform="translate(-791.51 -1914.31)"/><path class="cls-9" d="M889.67,2034.5l2.44-.63a3.08,3.08,0,0,1,1.22,0l2,0.47c0.29,0.07.24,0.2-.13,0.3l-2.49.66a3,3,0,0,1-1.24.06l-2-.5C889.22,2034.74,889.29,2034.6,889.67,2034.5Z" transform="translate(-791.51 -1914.31)"/><path class="cls-9" d="M894.23,2033.33l2.15-.55a3,3,0,0,1,1.15,0l2.06,0.43c0.3,0.06.28,0.18,0,.27l-2.17.58a2.91,2.91,0,0,1-1.17,0l-2-.46C893.86,2033.55,893.89,2033.41,894.23,2033.33Z" transform="translate(-791.51 -1914.31)"/><path class="cls-9" d="M898.23,2032.29l1.9-.49a2.94,2.94,0,0,1,1.09,0l2.07,0.41c0.3,0.06.32,0.17,0,.24l-1.91.51a2.82,2.82,0,0,1-1.1,0l-2.06-.43C897.95,2032.49,897.93,2032.37,898.23,2032.29Z" transform="translate(-791.51 -1914.31)"/><path class="cls-9" d="M901.78,2031.37l1.7-.44a2.88,2.88,0,0,1,1,0l2.06,0.39c0.3,0.06.34,0.16,0.09,0.22L905,2032a2.74,2.74,0,0,1-1,0l-2.07-.4C901.56,2031.55,901.51,2031.44,901.78,2031.37Z" transform="translate(-791.51 -1914.31)"/><path class="cls-9" d="M905,2030.55l1.54-.4a2.82,2.82,0,0,1,1,0l2,0.37c0.3,0.05.36,0.15,0.13,0.21l-1.52.41a2.66,2.66,0,0,1-1,0l-2.06-.38C904.79,2030.71,904.72,2030.61,905,2030.55Z" transform="translate(-791.51 -1914.31)"/><path class="cls-9" d="M907.87,2029.8l1.44-.37a2.78,2.78,0,0,1,1,0l2,0.36c0.29,0.05.36,0.14,0.15,0.2l-1.41.38a2.6,2.6,0,0,1-.94,0l-2-.37C907.72,2029.95,907.65,2029.86,907.87,2029.8Z" transform="translate(-791.51 -1914.31)"/><path class="cls-9" d="M910.59,2029.1l1.37-.35a2.74,2.74,0,0,1,.93,0l2,0.35c0.29,0.05.35,0.14,0.15,0.19l-1.34.35a2.55,2.55,0,0,1-.91,0l-2-.36C910.46,2029.25,910.38,2029.16,910.59,2029.1Z" transform="translate(-791.51 -1914.31)"/><path class="cls-9" d="M913.22,2028.45l1.36-.34a2.72,2.72,0,0,1,.92,0l1.92,0.35c0.28,0.05.34,0.14,0.14,0.19l-1.32.34a2.51,2.51,0,0,1-.89,0l-2-.35C913.09,2028.58,913,2028.5,913.22,2028.45Z" transform="translate(-791.51 -1914.31)"/><path class="cls-9" d="M915.84,2027.8l1.39-.34a2.73,2.73,0,0,1,.92,0l1.87,0.34c0.27,0.05.32,0.14,0.11,0.19l-1.35.34a2.5,2.5,0,0,1-.88,0L916,2028C915.7,2027.94,915.63,2027.85,915.84,2027.8Z" transform="translate(-791.51 -1914.31)"/><path class="cls-9" d="M918.55,2027.16l1.47-.35a2.78,2.78,0,0,1,.93,0l1.82,0.33c0.27,0.05.3,0.14,0.07,0.19l-1.43.35a2.51,2.51,0,0,1-.88,0l-1.86-.34C918.38,2027.29,918.33,2027.21,918.55,2027.16Z" transform="translate(-791.51 -1914.31)"/><path class="cls-9" d="M921.43,2026.48l1.6-.37a2.88,2.88,0,0,1,1,0l1.77,0.33c0.26,0,.27.14,0,0.2l-1.56.37a2.57,2.57,0,0,1-.9,0l-1.81-.33C921.23,2026.62,921.19,2026.54,921.43,2026.48Z" transform="translate(-791.51 -1914.31)"/><path class="cls-9" d="M924.57,2025.76l1.77-.4a3.07,3.07,0,0,1,1,0l1.73,0.32c0.25,0,.23.14,0,0.21l-1.74.41a2.68,2.68,0,0,1-.94,0l-1.76-.33C924.32,2025.91,924.31,2025.82,924.57,2025.76Z" transform="translate(-791.51 -1914.31)"/><path class="cls-9" d="M894.62,2035l2.4-.64a2.89,2.89,0,0,1,1.17-.05l2,0.45c0.29,0.07.25,0.2-.12,0.3l-2.45.67a3,3,0,0,1-1.23.06l-1.9-.48C894.15,2035.27,894.24,2035.13,894.62,2035Z" transform="translate(-791.51 -1914.31)"/><path class="cls-9" d="M899.08,2033.83l2.1-.57a2.79,2.79,0,0,1,1.1,0l2,0.42c0.3,0.06.3,0.19,0,.27l-2.13.59a2.85,2.85,0,0,1-1.16,0l-2-.44C898.71,2034,898.75,2033.92,899.08,2033.83Z" transform="translate(-791.51 -1914.31)"/><path class="cls-9" d="M903,2032.77l1.84-.5a2.69,2.69,0,0,1,1,0l2,0.4c0.3,0.06.33,0.17,0.06,0.25l-1.86.51a2.75,2.75,0,0,1-1.09,0l-2-.42C902.69,2033,902.7,2032.85,903,2032.77Z" transform="translate(-791.51 -1914.31)"/><path class="cls-9" d="M906.43,2031.84l1.64-.44a2.61,2.61,0,0,1,1,0l2,0.39c0.3,0.06.36,0.16,0.12,0.23l-1.64.45a2.67,2.67,0,0,1-1,0l-2-.4C906.2,2032,906.17,2031.91,906.43,2031.84Z" transform="translate(-791.51 -1914.31)"/><path class="cls-9" d="M909.49,2031l1.48-.4a2.54,2.54,0,0,1,.94,0l2,0.38c0.3,0.06.38,0.16,0.16,0.22l-1.47.41a2.6,2.6,0,0,1-1,0l-2-.39C909.31,2031.17,909.26,2031.07,909.49,2031Z" transform="translate(-791.51 -1914.31)"/><path class="cls-9" d="M912.29,2030.26l1.38-.37a2.49,2.49,0,0,1,.9,0l2,0.38c0.3,0.06.39,0.15,0.18,0.21l-1.36.37a2.55,2.55,0,0,1-.94,0l-2-.38C912.14,2030.41,912.08,2030.32,912.29,2030.26Z" transform="translate(-791.51 -1914.31)"/><path class="cls-9" d="M914.91,2029.56l1.32-.35a2.46,2.46,0,0,1,.88,0l2,0.38c0.3,0.06.39,0.15,0.19,0.2l-1.3.35a2.51,2.51,0,0,1-.92,0l-2-.38C914.77,2029.7,914.7,2029.62,914.91,2029.56Z" transform="translate(-791.51 -1914.31)"/><path class="cls-9" d="M917.44,2028.9l1.32-.34a2.44,2.44,0,0,1,.88,0l1.92,0.38c0.29,0.06.38,0.15,0.18,0.2l-1.29.34a2.5,2.5,0,0,1-.9,0l-1.95-.38C917.31,2029,917.24,2029,917.44,2028.9Z" transform="translate(-791.51 -1914.31)"/><path class="cls-9" d="M920,2028.25l1.36-.34a2.46,2.46,0,0,1,.88,0l1.88,0.38c0.29,0.06.36,0.15,0.15,0.21l-1.34.34a2.5,2.5,0,0,1-.9,0l-1.91-.38C919.84,2028.38,919.78,2028.3,920,2028.25Z" transform="translate(-791.51 -1914.31)"/><path class="cls-9" d="M922.65,2027.58l1.46-.36a2.51,2.51,0,0,1,.9,0l1.85,0.38c0.29,0.06.34,0.16,0.12,0.21l-1.43.36a2.52,2.52,0,0,1-.92,0l-1.88-.38C922.47,2027.72,922.43,2027.64,922.65,2027.58Z" transform="translate(-791.51 -1914.31)"/><path class="cls-9" d="M925.51,2026.89l1.6-.38a2.62,2.62,0,0,1,.94,0l1.82,0.37c0.28,0.06.31,0.16,0.06,0.22l-1.58.39a2.59,2.59,0,0,1-.95,0l-1.84-.37C925.29,2027,925.27,2026.95,925.51,2026.89Z" transform="translate(-791.51 -1914.31)"/><path class="cls-9" d="M900.56,2035.21l2.28-.63a2.8,2.8,0,0,1,1.16,0l2.13,0.49c0.33,0.08.33,0.22,0,.32l-2.34.65a3,3,0,0,1-1.27,0l-2.07-.51C900.14,2035.45,900.2,2035.31,900.56,2035.21Z" transform="translate(-791.51 -1914.31)"/><path class="cls-9" d="M904.8,2034l2-.55a2.71,2.71,0,0,1,1.09,0l2.19,0.48c0.34,0.08.39,0.21,0.09,0.29l-2,.56a2.93,2.93,0,0,1-1.2,0l-2.15-.49C904.47,2034.25,904.49,2034.12,904.8,2034Z" transform="translate(-791.51 -1914.31)"/><path class="cls-9" d="M908.5,2033l1.74-.48a2.63,2.63,0,0,1,1,0l2.23,0.47c0.35,0.07.43,0.2,0.17,0.27l-1.77.49a2.87,2.87,0,0,1-1.14,0l-2.2-.47C908.24,2033.21,908.22,2033.09,908.5,2033Z" transform="translate(-791.51 -1914.31)"/><path class="cls-9" d="M911.74,2032.11l1.55-.43a2.57,2.57,0,0,1,1,0l2.25,0.46c0.35,0.07.46,0.19,0.23,0.25l-1.56.43a2.84,2.84,0,0,1-1.09,0l-2.23-.47C911.55,2032.29,911.5,2032.18,911.74,2032.11Z" transform="translate(-791.51 -1914.31)"/><path class="cls-9" d="M914.64,2031.31l1.41-.39a2.53,2.53,0,0,1,1,0l2.26,0.46c0.35,0.07.48,0.18,0.27,0.24l-1.41.39a2.83,2.83,0,0,1-1.06,0l-2.25-.46C914.5,2031.47,914.42,2031.37,914.64,2031.31Z" transform="translate(-791.51 -1914.31)"/><path class="cls-9" d="M917.3,2030.58l1.32-.36a2.51,2.51,0,0,1,.94,0l2.26,0.47c0.36,0.08.5,0.18,0.3,0.24l-1.32.35a2.84,2.84,0,0,1-1,0l-2.26-.46C917.18,2030.73,917.09,2030.64,917.3,2030.58Z" transform="translate(-791.51 -1914.31)"/><path class="cls-9" d="M919.81,2029.9l1.29-.34a2.5,2.5,0,0,1,.93,0l2.26,0.47c0.36,0.08.5,0.18,0.3,0.23l-1.28.34a2.86,2.86,0,0,1-1,0l-2.26-.47C919.71,2030,919.61,2030,919.81,2029.9Z" transform="translate(-791.51 -1914.31)"/><path class="cls-9" d="M922.28,2029.25l1.3-.34a2.51,2.51,0,0,1,.93,0l2.25,0.48c0.36,0.08.5,0.19,0.3,0.24l-1.3.33a2.88,2.88,0,0,1-1,0l-2.26-.48C922.18,2029.39,922.09,2029.3,922.28,2029.25Z" transform="translate(-791.51 -1914.31)"/><path class="cls-9" d="M924.82,2028.6l1.38-.35a2.55,2.55,0,0,1,1,0l2.24,0.49c0.36,0.08.49,0.19,0.27,0.24l-1.37.34a2.91,2.91,0,0,1-1-.05l-2.25-.48C924.69,2028.74,924.61,2028.65,924.82,2028.6Z" transform="translate(-791.51 -1914.31)"/><path class="cls-9" d="M927.51,2027.92l1.5-.37a2.63,2.63,0,0,1,1,0l2.24,0.49c0.36,0.08.47,0.2,0.23,0.25l-1.5.37a3,3,0,0,1-1.07,0l-2.24-.49C927.35,2028.07,927.28,2028,927.51,2027.92Z" transform="translate(-791.51 -1914.31)"/><path class="cls-9" d="M930.47,2027.19l3.12-.75a2.9,2.9,0,0,1,1.08,0l2.22,0.49c0.37,0.08.44,0.21,0.16,0.28l-3.12.75a3.11,3.11,0,0,1-1.13,0l-2.21-.49C930.26,2027.36,930.22,2027.25,930.47,2027.19Z" transform="translate(-791.51 -1914.31)"/><path class="cls-9" d="M899.22,2037.57l2.74-.76a3,3,0,0,1,1.33,0l2.41,0.63c0.38,0.1.36,0.28-.05,0.39l-2.85.78a3.36,3.36,0,0,1-1.5,0L899,2038C898.68,2037.86,898.79,2037.69,899.22,2037.57Z" transform="translate(-791.51 -1914.31)"/><path class="cls-9" d="M904.3,2036.17l2.36-.65a3,3,0,0,1,1.26,0l2.53,0.62c0.4,0.1.45,0.26,0.09,0.36l-2.46.67a3.32,3.32,0,0,1-1.42,0l-2.43-.63C903.89,2036.43,903.93,2036.27,904.3,2036.17Z" transform="translate(-791.51 -1914.31)"/><path class="cls-9" d="M908.69,2035l2-.57a2.9,2.9,0,0,1,1.2,0l2.62,0.61c0.41,0.1.52,0.25,0.2,0.33l-2.12.57a3.31,3.31,0,0,1-1.36,0l-2.55-.61C908.37,2035.18,908.36,2035,908.69,2035Z" transform="translate(-791.51 -1914.31)"/><path class="cls-9" d="M912.48,2033.9l1.78-.49a2.88,2.88,0,0,1,1.15,0l2.7,0.6c0.43,0.1.57,0.24,0.3,0.31l-1.84.49a3.33,3.33,0,0,1-1.31,0l-2.64-.61C912.26,2034.11,912.2,2034,912.48,2033.9Z" transform="translate(-791.51 -1914.31)"/><path class="cls-9" d="M915.8,2033l1.57-.43a2.88,2.88,0,0,1,1.11,0l2.76,0.61c0.44,0.1.62,0.23,0.38,0.3l-1.62.43a3.39,3.39,0,0,1-1.27-.06l-2.71-.61C915.64,2033.18,915.55,2033.05,915.8,2033Z" transform="translate(-791.51 -1914.31)"/><path class="cls-9" d="M918.74,2032.18l1.42-.39a2.9,2.9,0,0,1,1.08,0l2.81,0.62c0.45,0.1.66,0.23,0.44,0.29l-1.46.38a3.49,3.49,0,0,1-1.24-.07l-2.77-.61C918.64,2032.35,918.52,2032.24,918.74,2032.18Z" transform="translate(-791.51 -1914.31)"/><path class="cls-9" d="M921.42,2031.45l1.32-.35a2.94,2.94,0,0,1,1.07.06l2.86,0.63c0.46,0.1.68,0.23,0.48,0.28l-1.36.34a3.6,3.6,0,0,1-1.22-.09l-2.82-.62C921.35,2031.62,921.21,2031.51,921.42,2031.45Z" transform="translate(-791.51 -1914.31)"/><path class="cls-9" d="M923.94,2030.78l1.28-.34a3,3,0,0,1,1.07.06l2.89,0.64c0.46,0.1.7,0.23,0.5,0.28l-1.31.32a3.71,3.71,0,0,1-1.22-.1l-2.86-.63C923.89,2030.95,923.74,2030.84,923.94,2030.78Z" transform="translate(-791.51 -1914.31)"/><path class="cls-9" d="M926.4,2030.14l1.3-.33a3,3,0,0,1,1.08.07l2.92,0.66c0.47,0.11.71,0.24,0.5,0.29l-1.32.32a3.81,3.81,0,0,1-1.23-.11l-2.9-.64C926.36,2030.3,926.2,2030.19,926.4,2030.14Z" transform="translate(-791.51 -1914.31)"/><path class="cls-9" d="M928.92,2029.5l1.37-.34a3.08,3.08,0,0,1,1.11.07l3,0.67c0.48,0.11.71,0.25,0.49,0.3l-1.4.33a3.89,3.89,0,0,1-1.26-.11l-2.93-.66C928.86,2029.67,928.72,2029.56,928.92,2029.5Z" transform="translate(-791.51 -1914.31)"/><path class="cls-9" d="M931.61,2028.84l2.77-.67a3.27,3.27,0,0,1,1.2.06l3,0.68c0.5,0.11.71,0.26,0.45,0.32l-2.82.66a4,4,0,0,1-1.32-.11l-2.93-.67C931.52,2029,931.38,2028.89,931.61,2028.84Z" transform="translate(-791.51 -1914.31)"/><path class="cls-9" d="M936.08,2027.76l1.7-.4a3.2,3.2,0,0,1,1.19,0l3.13,0.71c0.47,0.11.65,0.25,0.38,0.32l-1.73.4a3.9,3.9,0,0,1-1.33-.09l-3.1-.71C935.93,2027.93,935.83,2027.82,936.08,2027.76Z" transform="translate(-791.51 -1914.31)"/><path class="cls-10" d="M909.11,2024.12s-2.48,2,.88,2.89,3.56,0.5,3.56.5-4,3.6-4,4.95,2.49,1.06,3.38.68,4.59-.66,7.75-0.44,10.76-3.5,12.24-4.18,41.16,1.57,47.5,6.42l12.89-3.17s-1.94-10.37-3-10.66-41,1-52.26.83-13.21,1.77-16.41-.4S909.11,2024.12,909.11,2024.12Z" transform="translate(-791.51 -1914.31)"/><path class="cls-11" d="M1041.84,2105.77a16.28,16.28,0,0,1,6.77,10.22c1.23,6.79,2.52,28.51,2.52,28.51h-6.4s-0.29-21.44-1.59-27.63-4.39-7.47-4.39-7.47S1036,2103.66,1041.84,2105.77Z" transform="translate(-791.51 -1914.31)"/><path class="cls-2" d="M1048.6,2136.51c-0.9-8.75-4.39-23.22-3.31-24.2s2.39,0.59,2.39.59a16.59,16.59,0,0,0-5.85-7.13c-5.83-2.11-3.1,3.64-3.1,3.64s3.1,1.28,4.39,7.47,1.59,27.63,1.59,27.63h4.65C1049.23,2142.67,1049,2140.09,1048.6,2136.51Z" transform="translate(-791.51 -1914.31)"/><path class="cls-11" d="M1005.83,2105.77a16.28,16.28,0,0,1,6.77,10.22c1.23,6.79,2.52,28.51,2.52,28.51h-6.4s-0.29-21.44-1.59-27.63-4.39-7.47-4.39-7.47S1000,2103.66,1005.83,2105.77Z" transform="translate(-791.51 -1914.31)"/><path class="cls-2" d="M1007.11,2106.75a1.08,1.08,0,0,0-.27.06,25.6,25.6,0,0,0-3.82,1.94s0.11,0.39.3,1c1,0.7,2.86,2.61,3.8,7.12,0.12,0.55.22,1.23,0.32,2h0a47.37,47.37,0,0,1,3.06,7.5c0.76,3,1,18.11,1,18.11h3.64s-1.3-21.72-2.52-28.51A16.09,16.09,0,0,0,1007.11,2106.75Z" transform="translate(-791.51 -1914.31)"/><path class="cls-11" d="M1004,2105.77a16.28,16.28,0,0,0-6.77,10.22c-1.23,6.79-2.52,28.51-2.52,28.51h6.4s0.29-21.44,1.59-27.63,4.39-7.47,4.39-7.47S1009.79,2103.66,1004,2105.77Z" transform="translate(-791.51 -1914.31)"/><path class="cls-2" d="M1004.48,2111.95a21.43,21.43,0,0,0-3.41-1.12,34.43,34.43,0,0,0-3,3.08s-1.22,7.87-1.45,11.32-1.16,19.08-1.17,19.27H1001s0.29-21.44,1.59-27.63A15.07,15.07,0,0,1,1004.48,2111.95Z" transform="translate(-791.51 -1914.31)"/><path class="cls-12" d="M1005.18,2098.6s30.32,5.13,36.66,7.17,8.93-1.62,12.67-33.64,2.88-48.73,2.88-48.73-0.94-12.1-17.75-15.27-37.82.1-40.28,4.37,2.79,31.64.19,42.68S991.85,2090.26,1005.18,2098.6Z" transform="translate(-791.51 -1914.31)"/><path class="cls-2" d="M1005.18,2012.14s22.62,2.48,28,4,10.62-1.17,11.45,23.8-5.26,54.91-7.06,55.72-21.2-27.49-23.42-43S997.68,2012.76,1005.18,2012.14Z" transform="translate(-791.51 -1914.31)"/><path class="cls-12" d="M974.57,2111.57s25.36,3.84,44.8,2.35,22-6.28,22.47-8.14-11.11-9.87-29.6-9.32-41.4,2.11-45.22,7S969.09,2111.8,974.57,2111.57Z" transform="translate(-791.51 -1914.31)"/><path class="cls-2" d="M975.22,2106.89s23.34,3.54,41.24,2.16,20.28-5.78,20.68-7.49-10.22-9.08-27.24-8.57-38.11,1.94-41.62,6.43S970.18,2107.1,975.22,2106.89Z" transform="translate(-791.51 -1914.31)"/><path class="cls-13" d="M912.88,2025.41a1.48,1.48,0,0,0,1.79.18c1-.6.72-1.11,0.72-1.11s-1-2.26-1.56-2.51-2.14,1.16-2.13,1.42A14.31,14.31,0,0,0,912.88,2025.41Z" transform="translate(-791.51 -1914.31)"/><path class="cls-10" d="M912.88,2025.41a1.48,1.48,0,0,0,1.79.18c1-.6.72-1.11,0.72-1.11s-1-2.26-1.56-2.51-2.14,1.16-2.13,1.42A14.31,14.31,0,0,0,912.88,2025.41Z" transform="translate(-791.51 -1914.31)"/><path class="cls-13" d="M915,2024.92a1.48,1.48,0,0,0,1.79.18c1-.6.72-1.11,0.72-1.11s-1-2.26-1.56-2.51-2.14,1.16-2.13,1.42A14.31,14.31,0,0,0,915,2024.92Z" transform="translate(-791.51 -1914.31)"/><path class="cls-10" d="M915,2024.92a1.48,1.48,0,0,0,1.79.18c1-.6.72-1.11,0.72-1.11s-1-2.26-1.56-2.51-2.14,1.16-2.13,1.42A14.31,14.31,0,0,0,915,2024.92Z" transform="translate(-791.51 -1914.31)"/><path class="cls-14" d="M959,2025.11l11.59,1.33s4.18-9.94.73-12.21c-1.15-.75-4.48-1.46-8.46-2.08v0.11c-7-.12-28.51,8.39-28.51,8.39-1-2.45-10.44-6.27-10.44-6.27-3.6,3.74-16.91,2.74-15.62,3.46s0.79,7.41.79,7.41a3.51,3.51,0,0,0,2.81.8c1.8-.22,1.15-2.74,1.15-2.74,0.86,1,3.74,1.58,3.74,1.58a13.64,13.64,0,0,1-5,3.17c-2.52.65-4.46,6.34,0,4.18s7.06,0,10.23-.86,9.65-5,9.65-5C938.5,2024.44,953.85,2024.89,959,2025.11Z" transform="translate(-791.51 -1914.31)"/><path class="cls-2" d="M971.32,2014.22c-1.15-.75-4.48-1.46-8.46-2.08v0.11a28.71,28.71,0,0,0-5.79.85h0s-2.71,6.13-3.79,9.29c0,0-18.53,2-21.66,3.93,6.9-1.9,22.25-1.45,27.38-1.23l11.59,1.33S974.78,2016.49,971.32,2014.22Z" transform="translate(-791.51 -1914.31)"/><path class="cls-15" d="M1039.09,2078.88l0-.25-49.32,3.77a10,10,0,0,1-1.45,2.49s-21,2.16-37.81,16c0,0-13.18,28.73-12.1,38H950s5.6-19.78,14.67-26.26c0,0,29.92-7.56,36.62-5.19,0,0,8.72-.22,14.6,37.06h19.88s3-21.17,1.3-32,1.94-32.62,1.94-32.62S1039.07,2079.55,1039.09,2078.88Z" transform="translate(-791.51 -1914.31)"/><path class="cls-2" d="M1005.18,2090.62s-1.94,5.38-1.94,7.25l-6-1.73s3.38,0.43,4.14-.14,2.59-5.77,2.59-5.77Z" transform="translate(-791.51 -1914.31)"/><path class="cls-2" d="M1016.91,2144.51h19.38s3-21.17,1.3-32,1.94-32.62,1.94-32.62,0-.37,0-1l0-.25-49.32,3.77a10,10,0,0,1-1.45,2.49s18.13,7.08,25.19,7.8,15.41,22.47,14.26,30.53S1016.91,2144.51,1016.91,2144.51Z" transform="translate(-791.51 -1914.31)"/><path class="cls-16" d="M1011,2014.24s-8.54-3.2-11.61-3a6.69,6.69,0,0,0-1.21.76l-9.51,13.18s0.54,2.11,1.23,5.56h0.35s-0.05.3-.19,0.83c1.64,8.32,4,23.33,2.59,36.07h0.19s-0.55,10-3.32,14.84c6.57,0.87,38.65,4.6,50-3.82C1039.54,2078.62,1042.79,2031.09,1011,2014.24Z" transform="translate(-791.51 -1914.31)"/><path class="cls-17" d="M989,2026.43l0.69,5.73s-2.52,13.85-16,19.46c0,0-2.7,5.78.65,9.85,0,0,6.45-.57,8.46-1.76s11.2-16.31,9.79-27.55l2-4.64-1.42-4.1Z" transform="translate(-791.51 -1914.31)"/><path class="cls-2" d="M992.35,2072.59s29-3.7,32.09-5.54,4.21-10.35,2.48-13.65-33.82,5.55-33.82,5.55S993,2069.13,992.35,2072.59Z" transform="translate(-791.51 -1914.31)"/><path class="cls-14" d="M987.68,1973.86c-12,.43-31.52,1.83-30.45,8.83,0,0,3,9.51,3,12.1s-2.59,2.38-3,4.32-0.22,3.67,3,4.1v4.32s8.13-2.11,11.29,0,1.66,6.72,1.66,6.72-8.59,3.27-12.89,1.08h-1.85s0,4.75,0,6,15.25,6.91,26,7.92l13.25-9.07,1.44-22.61S999.64,1973.43,987.68,1973.86Z" transform="translate(-791.51 -1914.31)"/><path class="cls-7" d="M960.85,1986.56s-1.22,4-.41,6.15a4.63,4.63,0,0,0,2.93,2.93c0.63,0.25,4.61-1.26,5.14-2s2.34-3.47,2-4.36-3.36-3.45-4.54-3.63A6.08,6.08,0,0,0,960.85,1986.56Z" transform="translate(-791.51 -1914.31)"/><path class="cls-15" d="M1000.85,1998.61c0.37-.43,1.21-2.46,2.18-11.77,1.3-12.53,0-19.88-5.4-22.25s-30.46-4.54-41.48,2.59c-10.32,6.68-1.5,17.9.72,16.11,0.12-.17.24-0.36,0.36-0.55,0,0,14.32-4.66,22.38-2.79s2.88,10.37,3.31,12.24l2.3,0.29s-0.14-1.44.58-1.58,8.21-1.44,6.91,8.79c0,0,5.64.67,7.93-1A1,1,0,0,1,1000.85,1998.61Z" transform="translate(-791.51 -1914.31)"/><path class="cls-17" d="M964.71,2063.23H942.46l2.3,6.7H966.6S965.21,2065.31,964.71,2063.23Z" transform="translate(-791.51 -1914.31)"/><polygon class="cls-2" points="152.1 152.27 174.11 152.27 175.97 155.63 150.95 155.63 152.1 152.27"/><path class="cls-14" d="M1005.17,2041s6.53-5.1,17.33-1.54c0,0,8.32,13.72,5.94,19.88a82.74,82.74,0,0,1-21.82,4.39s-1.19-1.12-5.4-1.33-17.39-.79-17.39-0.79,1.3,8.53.54,9-13.72,2.48-16.31,1-3.35-8.36-3.35-8.36H960.2s3.27-3.94,4.05-4.05c0,0,12-5.36,16.12-4.55,11.56,2.27,28.73-3.78,28.73-3.78Z" transform="translate(-791.51 -1914.31)"/><polygon class="cls-2" points="192.32 147.34 191.28 141.94 194.3 147.13 192.32 147.34"/><path class="cls-18" d="M962.33,1989.44s-0.49,2.43.76,2.43,1.08-1.62.81-2.05-1-.22-0.74-0.7,1.33,0.11,1.55.54,0.22,2.43-.59,2.86a2,2,0,0,1-2.43-.54c-0.38-.65-0.43-2.16,0-2.54S962.4,1988.94,962.33,1989.44Z" transform="translate(-791.51 -1914.31)"/><path class="cls-18" d="M970.06,1987.92c-1-.92-2.27-2.7-4.32-2.86a7.88,7.88,0,0,0-3.51.49s-1.78.32-2,1.57a21.94,21.94,0,0,0,.19,5.6c0.27,0.78.11,1.91,1.19,2.4s1.62,1.3,2.65,1.19,2.86-.07,3.46-1,2-1.15,2.32-2.4S971,1988.84,970.06,1987.92ZM968,1994c-1.13.38-4.16,1.89-5.51,1.08s-1.89-4.7-1.73-6.75a3,3,0,0,1,2.39-2.48,9.39,9.39,0,0,1,2.9.38c1.19,0.43,3.67,2.16,3.78,3.56S969.09,1993.65,968,1994Z" transform="translate(-791.51 -1914.31)"/><path class="cls-2" d="M916.76,2024.9s3.55-1.49,5-1.49C921.77,2023.41,918.18,2022.82,916.76,2024.9Z" transform="translate(-791.51 -1914.31)"/><path class="cls-2" d="M913,2023.31a9.1,9.1,0,0,1-2.68-3.54A32.74,32.74,0,0,1,913,2023.31Z" transform="translate(-791.51 -1914.31)"/><polygon class="cls-19" points="202.34 199.13 144.32 199.13 125.09 230.21 200.84 208.63 202.34 199.13"/><polygon class="cls-2" points="121.5 103.1 123.22 104.21 122.36 103.01 121.5 103.1"/><path class="cls-19" d="M993.85,2113.43l-75,31.08H988.7S1002.33,2121.94,993.85,2113.43Z" transform="translate(-791.51 -1914.31)"/><polygon class="cls-2" points="189.47 208.46 180.73 212.09 169.94 230.21 183.35 230.21 189.47 208.46"/><path class="cls-20" d="M916.6,2144.51h12l67.22-27.93s1.29-1.56-2-3.15S916.6,2144.51,916.6,2144.51Z" transform="translate(-791.51 -1914.31)"/><path class="cls-17" d="M983.83,2061.65s15.52-.3,18.56,0,7.36,1.68,4.77,11.72-24.81,71.14-24.81,71.14H971.7l25.49-66.58s3-8.62-1.48-8.4c-7.34.36-11,.4-11,0.4Z" transform="translate(-791.51 -1914.31)"/><path class="cls-2" d="M1001.37,2076.13c2.41-7.19,1-8.66-1.78-9.56s-15.26,0-15.26,0l0.17,1.53,0.18,1.87s3.74,0,11.08-.41c4.43-.22,1.48,8.4,1.48,8.4l-25.49,66.58h4.33C982.14,2128.25,999.39,2082,1001.37,2076.13Z" transform="translate(-791.51 -1914.31)"/><polygon class="cls-2" points="173.2 148.92 173.2 145.4 171.33 148.92 173.2 148.92"/><path class="cls-2" d="M1009.11,2050.85s6.95-1.8,9-1.08a27.75,27.75,0,0,0-9.47-.17Z" transform="translate(-791.51 -1914.31)"/><path class="cls-2" d="M1022.51,2039.5c-10.8-3.56-17.33,1.54-17.33,1.54l1,2.43s11.59-3.51,18.78.53C1023.63,2041.36,1022.51,2039.5,1022.51,2039.5Z" transform="translate(-791.51 -1914.31)"/><path class="cls-2" d="M1024.93,2044l6,2-14.33-21.82s-4.75-6.41-8.57-7.92c0,0,3.6,2.09,8.07,9a41.81,41.81,0,0,1,5.62,12s-14.27-2-16.5,3.81c0,0,6.21-4.89,17.33-1.54Z" transform="translate(-791.51 -1914.31)"/><path class="cls-2" d="M1001.33,2018.22s-5,4.25-1.19,21.68C1000.14,2039.9,994.09,2021.54,1001.33,2018.22Z" transform="translate(-791.51 -1914.31)"/><path class="cls-21" d="M978.67,2085.39s-1.31-5.35,0-6.77,6.64-.41,7.57,1,1.22,6.55,1.87,7.71a2.41,2.41,0,0,1-.24,2.39S978.44,2088.6,978.67,2085.39Z" transform="translate(-791.51 -1914.31)"/><path class="cls-2" d="M988.12,2087.36c-0.65-1.15-.94-6.27-1.87-7.71s-6.27-2.45-7.57-1a2,2,0,0,0-.42.87,10.61,10.61,0,0,1,4,2.09c1.3,1.35-.5,2.54-1.44,2.45s-1.66,1.18-1.66,1.18c0.69,0,1.4,1.37,2.29,3a29.09,29.09,0,0,0,6.4,1.57A2.41,2.41,0,0,0,988.12,2087.36Z" transform="translate(-791.51 -1914.31)"/><path class="cls-21" d="M961.24,2083.59s-1.31-5.35,0-6.77,6.64-.41,7.57,1,1.22,6.55,1.87,7.71a2.41,2.41,0,0,1-.24,2.39S961,2086.8,961.24,2083.59Z" transform="translate(-791.51 -1914.31)"/><path class="cls-2" d="M970.69,2085.56c-0.65-1.15-.94-6.27-1.87-7.71s-6.27-2.45-7.57-1a1.56,1.56,0,0,0-.25.39h0.15c2.42-.27,2.81,6.33,2.81,6.33,1.52,0.6,2.38,4.85,6.16,3.54a4.42,4.42,0,0,0,.8-0.37A1.88,1.88,0,0,0,970.69,2085.56Z" transform="translate(-791.51 -1914.31)"/><path class="cls-22" d="M981.4,2117.23s2.1-10.29,1.38-13.6a16.17,16.17,0,0,1-.62-4s4.94-3,5.37-5.55,0.58-3.82.58-3.82-1-1.86-.86-2.58-6.34-2.88-8.07-2.45-0.86,1.73-.86,2.45-4.9,2.45-6.63,5-0.55,16-5.1,16c-2.51-1.15-3.25-9.22-2.82-10.08s3.31-2,4-2.86,0.86-3.63,1.58-4.49,1.58-3.6.72-4.18-7.1-4.42-8-4.15a1.45,1.45,0,0,0-.83,1.51,6.71,6.71,0,0,0-1.51,1.42c-1,1.15-5.19,2.66-6.52,3.1s-2.84,6.79-2.84,6.79-14.26,17-7.92,37.62Z" transform="translate(-791.51 -1914.31)"/><path class="cls-2" d="M987.54,2094.05c0.43-2.52.58-3.82,0.58-3.82s-1-1.86-.86-2.58c0-.22-0.55-0.59-1.44-1a6,6,0,0,0-1.29.68c-2.88,2-3.31.58-4.75,1.58s-0.18,2.25-1.67,4.87a30.64,30.64,0,0,0-2.93,6.6c-0.14.92-.86,1.28-0.72,2s0.29,3.85.29,4.9-6,3.85-9.55.79a2.82,2.82,0,0,1-.86-3.57c-0.65-2.58-.79-5.47-0.54-6,0.43-.86,3.31-2,4-2.86l0.09-.12c0.62-2.9,1.57-6.95.75-9.46-1.13-.69-2.69-1.6-4-2.28a9,9,0,0,0-1,.15s-4.47,7.66-5.61,7.66-4.76,2.73-4.89,4.82-0.25,7.55-.51,10,2.93,10.52,4.18,10.92c1,0.32,7.4,3.88,12.12,5l12.51-5.18s2.1-10.29,1.38-13.6a16.17,16.17,0,0,1-.62-4S987.11,2096.57,987.54,2094.05Z" transform="translate(-791.51 -1914.31)"/><path class="cls-23" d="M952.76,2112.49s5.12-1,6.59-1.26,4.57,0.28,6.44.34,11.7,2.94,12.3,4.81l0.59,1.87L954,2128.56Z" transform="translate(-791.51 -1914.31)"/><path class="cls-2" d="M965.79,2111.57c-1.87-.06-5-0.59-6.44-0.34-0.75.13-2.44,0.45-3.92,0.74a1.74,1.74,0,0,0,.11,1.12c1.4,3.38,3.17,1.49,3.17,1.49s-0.15-1.78,1.42-1.67c0,0,6,2.18,4.11,4s-2.93,3.64-4.57,4.55a16.39,16.39,0,0,1-3,1.32,6.42,6.42,0,0,1-2.11-.72,2.3,2.3,0,0,0-1-.37l0.55,6.89,24.63-10.31-0.59-1.87C977.49,2114.51,967.66,2111.63,965.79,2111.57Z" transform="translate(-791.51 -1914.31)"/><path class="cls-14" d="M956.36,2118.33a3.84,3.84,0,0,1-2.72,2.84l-0.38-4.91Z" transform="translate(-791.51 -1914.31)"/><path class="cls-24" d="M955.65,2099a8.21,8.21,0,0,1-1.16,1.3c-0.29.14-1-.36-1.37,0.36a6.72,6.72,0,0,0-.51,1.71l-1,1.12,1.76,13.95s3.67-4.9,3.82-5.55a15,15,0,0,0-.72-3.46l2.27-4.64-0.46-2.56S956.66,2098.8,955.65,2099Z" transform="translate(-791.51 -1914.31)"/><path class="cls-2" d="M956.93,2110.21c-0.22-.91-0.5-1.85-0.5-1.85l2.27-4.64-0.46-2.56s-0.2-.3-0.5-0.68a3.1,3.1,0,0,0-2.51.41,11.46,11.46,0,0,0-2,2.52c-0.1.61-.66,3.06-0.66,3.06l-0.53.84,0.44,3.49,2.53,0.34Z" transform="translate(-791.51 -1914.31)"/><path class="cls-25" d="M955.89,2099.49l8.88-17.79a7.63,7.63,0,0,1,8.48,3l-8.38,19.76s-1.57,3.12-6.2,1C956,2104.29,954.14,2103.06,955.89,2099.49Z" transform="translate(-791.51 -1914.31)"/><path class="cls-2" d="M968.65,2081.58l0.16,0.22s-2.79,15.47-4.34,16.81c-0.6.52-.58-1-1.32-1.25a6.45,6.45,0,0,0-3,0,1.24,1.24,0,0,0,.34,1.58c0.85,0.51,1.66.78,1.69,1.54s-4.83,3.15-6.85.69c-0.48,2.32,1.14,3.34,3.38,4.35,4.62,2.08,6.2-1,6.2-1l8.38-19.76A7.66,7.66,0,0,0,968.65,2081.58Z" transform="translate(-791.51 -1914.31)"/><path class="cls-2" d="M955.75,2099.79s2.34,0.56,3.16-1.18a22.29,22.29,0,0,0,1.19-3.72c0.18-.4-1.86-0.28-1.86-0.28Z" transform="translate(-791.51 -1914.31)"/><path class="cls-26" d="M956.08,2103.56l-1,1.72s3.3,2.48,5.51,2.44l0.9-2S959.07,2102.83,956.08,2103.56Z" transform="translate(-791.51 -1914.31)"/><path class="cls-27" d="M955,2105.28s3.62,0.46,5.51,2.44A10.17,10.17,0,0,1,955,2105.28Z" transform="translate(-791.51 -1914.31)"/><path class="cls-28" d="M956.61,2109.12a0.62,0.62,0,0,1-.18-0.74,1.47,1.47,0,0,0,.11-1.1,2.38,2.38,0,0,1,0-1.46c0.22-.3,2.39.65,2.73,1.22s-0.89,1-1,.93a1.9,1.9,0,0,0-.85.62A0.6,0.6,0,0,1,956.61,2109.12Z" transform="translate(-791.51 -1914.31)"/><path class="cls-2" d="M956.08,2103.56l-0.55.9s2.14,0,2.4.47-0.9.89-.9,0.89,0.69,1.47.26,1.66-0.14,1.74-.85,1.41h0a0.8,0.8,0,0,0,.19.25,0.6,0.6,0,0,0,.81-0.54,1.9,1.9,0,0,1,.85-0.62,1.52,1.52,0,0,0,1-.46,4.48,4.48,0,0,0,1.32.21l0.9-2S959.07,2102.82,956.08,2103.56Z" transform="translate(-791.51 -1914.31)"/><path class="cls-14" d="M956.35,2098.6s1.47,0.27,1.89-.26,1-3.48,1.37-3.74-1.53-.83-2.83.28-1.5,4-.9,4.6Z" transform="translate(-791.51 -1914.31)"/><path class="cls-2" d="M958.49,2097.84a3.13,3.13,0,0,0-1.72-.45,3.6,3.6,0,0,1,1.8.22Z" transform="translate(-791.51 -1914.31)"/><path class="cls-2" d="M958.84,2096.76a5.44,5.44,0,0,0-2.07-.51,5.74,5.74,0,0,1,2.15.25Z" transform="translate(-791.51 -1914.31)"/><path class="cls-2" d="M959.16,2095.62a3.72,3.72,0,0,0-2.39-.33,3.62,3.62,0,0,1,2.46.11Z" transform="translate(-791.51 -1914.31)"/><path class="cls-2" d="M955.87,2098.07a1.35,1.35,0,0,0,.48.53l-0.13.23A1.14,1.14,0,0,1,955.87,2098.07Z" transform="translate(-791.51 -1914.31)"/><path class="cls-14" d="M959.35,2111.23a5.51,5.51,0,0,0-1.86-1.46h0a0.89,0.89,0,0,0-.39-0.58c-0.18-.05-0.33.27-0.48,0.22a0.84,0.84,0,0,1-.17-0.51,1.12,1.12,0,0,0-.7-0.33,3.09,3.09,0,0,0-.91.43h0c0-.12.08-0.69-0.79-0.69a2.18,2.18,0,0,0-1.44.59h0l-0.29,0a5.44,5.44,0,0,0-3.69-1.55,4.74,4.74,0,0,0-4.09,6c1.08,3.51,3.8,5.17,5.39,4.41,0,0,.77,2.59,2.32,2.7s2.48-1.37,1.66-2c0,0,3,.11,4.1-0.68S961.26,2113.61,959.35,2111.23Z" transform="translate(-791.51 -1914.31)"/><path class="cls-20" d="M954.49,2128.17s-4.78-57.34-16.18-73-47.12-9.17-47.12-9.17v98.49H916.6Z" transform="translate(-791.51 -1914.31)"/><path class="cls-20" d="M891.18,2046s-29.14,3.65-39.81,26.11-15,50.51-14.37,72.38h54.18l19.88-3.58S910.9,2054.11,891.18,2046Z" transform="translate(-791.51 -1914.31)"/><path class="cls-19" d="M954.49,2128.17s-4.78-57.34-16.18-73-47.12-9.17-47.12-9.17v4.82s56.38-11.79,61.46,73c0,0.58-.27,1-1.18-0.08h0c-7.09-16.51-26.21-63.17-62.28-61.17l-2.68,11.26s37.69-7,63.08,50.63c0.11,0.28,1.23,3.31-1.31,2.05h0c-10.32-9.23-18.43-30.32-60.6-32.34l-1.17,12s39.33-.46,61.77,20.9c0.08,0.09,1.5,1.83-.23,2-11.38-1.91-45.31-7-56.86-1.72l13.32,5.29s31.75-1.78,43.62-2.27h0c-0.15.58-39.19,14-39.19,14h7.63l30.85-13.31-0.07,0s2.45-.68,3.42.86a2.05,2.05,0,0,0,3.53-.22A18.06,18.06,0,0,0,954.49,2128.17Z" transform="translate(-791.51 -1914.31)"/><path class="cls-19" d="M918.84,2125.63s-49.24-1.94-81.41,2c0,0-6.06,3.22-.49,8.47,0,0,56.73-2.73,82.77-4.25Z" transform="translate(-791.51 -1914.31)"/><path class="cls-19" d="M887.67,2094.22s-23.64-1.38-45.65,4.72c0,0-7,3.15-2.61,12.62,0,0,5.93-4.23,42.26-5.07,35.91-.83,13.67-7.16,11.5-7.56S887.67,2094.22,887.67,2094.22Z" transform="translate(-791.51 -1914.31)"/><path class="cls-19" d="M889.18,2062.62s-23.65,1.36-36.66,7.31c0,0-8.38,4-5.07,11.46,0,0,20.56-7,39.06-7.51C886.5,2073.88,899.6,2066.12,889.18,2062.62Z" transform="translate(-791.51 -1914.31)"/><path class="cls-19" d="M891.18,2050.85s-6.6-.13-31.39,9.79c0,0-3.19-7.85,31.39-14.61l4.85,2.86Z" transform="translate(-791.51 -1914.31)"/><path class="cls-29" d="M954,2131a1.1,1.1,0,0,1-1,1.28A1.42,1.42,0,1,1,954,2131Z" transform="translate(-791.51 -1914.31)"/><ellipse class="cls-30" cx="161.71" cy="216.64" rx="0.83" ry="1.28"/><path class="cls-2" d="M972.24,2126.4s4.19-2.26,2.82-6.53l7.19-3-2.4,6.35Z" transform="translate(-791.51 -1914.31)"/><path class="cls-14" d="M964.83,2101.93s-1.2.89-2,0,0.58-.6.79-1a2.17,2.17,0,0,0-2.39-2.64c-2.36.29-.77-3.91,2.39-3.4s3.6,2.58,3.81,3.41S966.83,2101.93,964.83,2101.93Z" transform="translate(-791.51 -1914.31)"/><path class="cls-24" d="M978.09,2110.11c-1.06-2.3-3.58-6.77-3.66-7.67s-3-3.35-4.75-4a1.67,1.67,0,0,0-1.46.14h0l-0.77-.24c-2.45.25-3,3.21-3,3.21l1.55,1.66a3.11,3.11,0,0,0,.7,2.23c1.58,1.73,1.94,6.48,2,8.21s-6.11,6-7.38,6-7.1,2.47-5.59,8.15l22.06-9.13S979.15,2112.42,978.09,2110.11Z" transform="translate(-791.51 -1914.31)"/><path class="cls-2" d="M962.74,2097a25.55,25.55,0,0,1,2.43-.95S964.22,2095.38,962.74,2097Z" transform="translate(-791.51 -1914.31)"/><path class="cls-2" d="M960.15,2097.09a5.69,5.69,0,0,1,2.31-.23l-2.25,0S960.19,2096.84,960.15,2097.09Z" transform="translate(-791.51 -1914.31)"/><path class="cls-2" d="M960.45,2096.38a9,9,0,0,1,2.2-.12,4.75,4.75,0,0,0-2.08-.05Z" transform="translate(-791.51 -1914.31)"/><path class="cls-2" d="M961.14,2095.59a5.25,5.25,0,0,1,2-.09,4.25,4.25,0,0,0-1.84,0Z" transform="translate(-791.51 -1914.31)"/><path class="cls-2" d="M978.09,2110.11c-1.06-2.3-3.58-6.77-3.66-7.67s-3-3.35-4.75-4a1.67,1.67,0,0,0-1.46.14h0l-0.77-.24a2.88,2.88,0,0,0-1.87,1l0.15,0.18,1.76,0.76a1.16,1.16,0,0,1,1.41-.76c1,0.33,3.48,3.65,4.37,6.09s1.83,3,1.18,7-9.71,10-11.69,10.51-6.11-.31-6.11-0.31h-0.06a5.86,5.86,0,0,0-.79,5.09l22.06-9.13S979.15,2112.42,978.09,2110.11Z" transform="translate(-791.51 -1914.31)"/><path class="cls-2" d="M954.81,2109.05a1.36,1.36,0,0,0,.42.92,3.28,3.28,0,0,1-.21-1.11l-0.19.11Z" transform="translate(-791.51 -1914.31)"/><path class="cls-2" d="M956.36,2118.33s-2.09.16-2.45,0.14l0.12,0.12c0.46,0.61-.39,1.6-0.39,1.6l0.05,0.59c0.75-.89.79-1.48,0.64-1.84A8.54,8.54,0,0,0,956.36,2118.33Z" transform="translate(-791.51 -1914.31)"/><path class="cls-18" d="M952.59,2110.87s2,0.9,1.57,1.94-0.18,0-.36-0.4a2.66,2.66,0,0,0-.76-1l-0.4-.13Z" transform="translate(-791.51 -1914.31)"/><path class="cls-2" d="M998.61,1989.29a6.82,6.82,0,0,1-1.6.13c-2.81-.22-4.29,10.3-4.29,10.3-1.91,6.19-7.92,1.91-7.92,1.91,0.22,2.16,5.19,3.78,5.19,3.78s-1.38,11.35-6.86,17h0a3.34,3.34,0,0,1-.78.74,9.52,9.52,0,0,1-4.21,2.2h0a51.5,51.5,0,0,1-5.23,1.72,73.29,73.29,0,0,0,11.64,2.24l13.25-9.07,1.44-22.61A57.91,57.91,0,0,0,998.61,1989.29Z" transform="translate(-791.51 -1914.31)"/><path class="cls-2" d="M1041.85,2102.32s7.77-69.15,4.6-78.21,7.49-6.45,8.64-2.57-1.43,52-6.62,77.94C1048.17,2100.9,1046.76,2105.19,1041.85,2102.32Z" transform="translate(-791.51 -1914.31)"/><path class="cls-7" d="M960.54,2013.17l-0.23,2.17c4.3,2.19,12.89-1.08,12.89-1.08a10.35,10.35,0,0,0,.28-1.34Z" transform="translate(-791.51 -1914.31)"/><path class="cls-2" d="M973.49,2012.93l-13,.24-0.08.83,12.84-.06s-11.72-.18-11.56-0.39S973.49,2012.93,973.49,2012.93Z" transform="translate(-791.51 -1914.31)"/><path class="cls-31" d="M963,2011.09s7.73-1.3,10.54.27l-0.27,2.58-8-.21C964.87,2013.71,959.34,2012.2,963,2011.09Z" transform="translate(-791.51 -1914.31)"/><path class="cls-2" d="M964.25,2011s5.08,0.49,5.17,1.25-1.17,1.54-1.17,1.54l5,0.13,0.27-2.58A14.3,14.3,0,0,0,964.25,2011Z" transform="translate(-791.51 -1914.31)"/><path class="cls-7" d="M972,2010.77h1.51a4.5,4.5,0,0,0-1.94-3.23c-3.17-2.11-10.7-.14-10.7-0.14l0.84,3.69Z" transform="translate(-791.51 -1914.31)"/><path class="cls-2" d="M973.24,2009.75a4.26,4.26,0,0,0-1.69-2.2c-3.17-2.11-10.7-.14-10.7-0.14l0.09,0.38h0s7.11-.47,8.23.24,0.73,1.15,0,1.36a19.19,19.19,0,0,1-7.67,1l0.17,0.74,10.29-.32h1.51c0-.07,0-0.14,0-0.21A7.27,7.27,0,0,0,973.24,2009.75Z" transform="translate(-791.51 -1914.31)"/><polygon class="cls-32" points="66.24 109.63 63.36 107.63 63.36 49.85 66.24 49.27 66.24 109.63"/><path class="cls-33" d="M974.5,1988.15s-0.61,1.67-.93,2.52-0.34,1.57,1,1.45S974.5,1989.67,974.5,1988.15Z" transform="translate(-791.51 -1914.31)"/><path class="cls-34" d="M974.56,1988.79h0l0,0.07c-0.18.35-.9,1.84-0.26,2.42s0.85-.35.85-0.38C975,1990.29,974.71,1989.51,974.56,1988.79Z" transform="translate(-791.51 -1914.31)"/><path class="cls-33" d="M982.07,2006.6s-0.61,1.67-.93,2.52-0.34,1.57,1,1.45S982.07,2008.12,982.07,2006.6Z" transform="translate(-791.51 -1914.31)"/><path class="cls-34" d="M982.13,2007.24h0l0,0.07c-0.18.35-.9,1.84-0.26,2.42s0.85-.35.85-0.38C982.57,2008.74,982.28,2008,982.13,2007.24Z" transform="translate(-791.51 -1914.31)"/><path class="cls-33" d="M981.17,1992.71s-0.61,1.67-.93,2.52-0.34,1.57,1,1.45S981.17,1994.23,981.17,1992.71Z" transform="translate(-791.51 -1914.31)"/><path class="cls-34" d="M981.23,1993.35h0l0,0.07c-0.18.35-.9,1.84-0.26,2.42s0.85-.35.85-0.38C981.67,1994.85,981.38,1994.07,981.23,1993.35Z" transform="translate(-791.51 -1914.31)"/><path class="cls-33" d="M972.19,1997.61s-0.61,1.67-.93,2.52-0.34,1.57,1,1.45S972.19,1999.12,972.19,1997.61Z" transform="translate(-791.51 -1914.31)"/><path class="cls-34" d="M972.26,1998.24h0l0,0.07c-0.18.35-.9,1.84-0.26,2.42s0.85-.35.85-0.38C972.7,1999.74,972.4,1999,972.26,1998.24Z" transform="translate(-791.51 -1914.31)"/><path class="cls-33" d="M980,1981.68s-0.61,1.67-.93,2.52-0.34,1.57,1,1.45S980,1983.19,980,1981.68Z" transform="translate(-791.51 -1914.31)"/><path class="cls-34" d="M980,1982.32h0l0,0.07c-0.18.35-.9,1.84-0.26,2.42s0.85-.35.85-0.38C980.48,1983.82,980.19,1983,980,1982.32Z" transform="translate(-791.51 -1914.31)"/><path class="cls-33" d="M967.13,1980.32s-0.61,1.67-.93,2.52-0.34,1.57,1,1.45S967.13,1981.84,967.13,1980.32Z" transform="translate(-791.51 -1914.31)"/><path class="cls-34" d="M967.19,1981h0l0,0.07c-0.18.35-.9,1.84-0.26,2.42s0.85-.35.85-0.38C967.63,1982.46,967.34,1981.68,967.19,1981Z" transform="translate(-791.51 -1914.31)"/><path class="cls-2" d="M960.26,2003.22a17,17,0,0,0,3.12-.46,4.65,4.65,0,0,1-3.12,1v-0.58Z" transform="translate(-791.51 -1914.31)"/><path class="cls-2" d="M916.6,2045s7.94,8.1,0,8.92c0,0-6.34,11.48-7.3,13s1.59,6.59-3.85,9.05c0,0-4.54,12.78-3.49,19.45,0,0,3.18,8.26-.89,12,0,0,.65,11.79,2.46,17.92,0,0,2.47,5.48,1,7.47l4.47,11.79h19.66s18-12.47,18.76-13.26,5.37-18.76,5.37-18.76-3.91-33.14-9.58-47.29C943.17,2065.2,938.88,2046.23,916.6,2045Z" transform="translate(-791.51 -1914.31)"/><polygon class="cls-10" points="75.49 56.83 145.43 54.08 145.43 51.58 75.49 54.2 75.49 56.83"/><polygon class="cls-10" points="75.49 59.74 75.49 78.39 98.83 75.67 98.83 58.66 75.49 59.74"/><polygon class="cls-10" points="75.49 79.97 75.49 99.83 98.83 95.9 98.83 77.58 75.49 79.97"/><polygon class="cls-35" points="100.99 58.66 100.99 95.01 145.43 86.65 145.43 56.2 100.99 58.66"/></svg>