<svg id="Camada_1" data-name="Camada 1" xmlns="http://www.w3.org/2000/svg" viewBox="0 0 312.46 231.33"><defs><style>.cls-1{fill:#ffe7a3;}.cls-2{fill:#efc9aa;}.cls-3,.cls-8{opacity:0.2;}.cls-4{fill:#282829;}.cls-5{fill:#0f0c13;}.cls-6{fill:none;stroke:#0f0c13;stroke-miterlimit:10;}.cls-7{fill:#1c191b;}.cls-8{fill:#000100;}.cls-9{fill:#393337;}.cls-10{fill:#fff;}.cls-11{fill:#5c8eb6;}.cls-12{fill:#a6afac;}.cls-13{fill:#4279bd;}.cls-14{fill:#aacc83;}.cls-15{fill:#e9492a;}.cls-16{fill:#fab51d;}.cls-17{fill:#67b32e;}.cls-18{fill:#a1a0a0;}.cls-19{fill:#b5864c;}.cls-20{fill:#9f703f;}</style></defs><title>06 HQ</title><rect class="cls-1" x="63.41" y="0.07" width="185.7" height="230.7"/><polygon class="cls-2" points="12.47 206.57 62.04 130.07 249.58 130.07 299.98 206.57 12.47 206.57"/><polygon class="cls-2" points="12.47 0.05 12.47 231.32 63.41 231.32 63.41 0.07 12.47 0.05"/><path class="cls-3" d="M1378.25,2015.91s-158.66-33.65-185.7-50l-50.93-34.38v189.31l50.93-76.5h185.7v-28.41Z" transform="translate(-1129.13 -1914.24)"/><polygon class="cls-2" points="300.05 0.04 300.05 231.32 249.11 230.77 249.11 0.05 300.05 0.04"/><path class="cls-3" d="M1378.25,2044.31l50.87,76.5V2016.55s-44.62,9.27-50.87-.64v28.41Z" transform="translate(-1129.13 -1914.24)"/><path class="cls-3" d="M1358.71,2102l0-.16c0-.06,0-0.12,0-0.18s0.07-.31.09-0.48,0-.18,0-0.27,0-.3.05-0.46,0-.22,0-0.34,0-.3,0-0.46,0-.26,0-0.39,0-.31,0-0.47,0-.3,0-0.45,0-.32,0-0.48,0-.33,0-0.49,0-.32-0.05-0.49,0-.35-0.07-0.53,0-.33-0.07-0.5-0.06-.38-0.1-0.58-0.06-.34-0.09-0.51-0.08-.41-0.12-0.61l-0.11-.52-0.15-.65-0.12-.52-0.17-.68-0.14-.53-0.2-.71-0.15-.53-0.22-.74-0.16-.53-0.25-.77-0.18-.54-0.27-.79-0.19-.53-0.3-.82-0.19-.51-0.33-.85-0.2-.5-0.36-.87-0.21-.49-0.38-.89-0.21-.47-0.42-.91-0.21-.44-0.45-.94-0.2-.41-0.48-1-0.19-.37-0.52-1-0.18-.32-0.57-1-0.13-.23-0.65-1.1-0.07-.12c-0.69-1.15-1.42-2.27-2.17-3.36l3.17-4.46s0.22-21.23,0-25.16,1.31-8.53-7.22-9.19-109-9.63-113.57-10.07-4.6,1.09-4.6,1.09a4.82,4.82,0,0,0-4.76,0c-2.79,1.37-29.7,22.21-29.7,22.21a22.87,22.87,0,0,0-.66,5.36c-7.08,5.57-12.85,10.38-14.54,12.69-4.81,6.56.44,28.45,2,31.07s21,2.19,57.77,6.35c19,2.15,38.42,6.23,53,9.64,0.26,1.4.55,2.76,0.88,4.06,0.16,0.65.26,1,.26,1h0c0.13,0.46.26,0.91,0.4,1.35,0,0,0,0,0,0v0l0.05,0.17a22,22,0,0,0,2.31,5.17H1304a34.91,34.91,0,0,0,4.67-6.9,25.34,25.34,0,0,0,4.06.8c2.19-.22,3.06-3.06,9.19-10.28,1.31-1.54,3.38-4.23,5.82-7.49a23.17,23.17,0,0,1,5.33-1.38h0a16.07,16.07,0,0,1,11.16,4.59c3.12,2.77,6.55,4.72,9.69,4.67a6.59,6.59,0,0,0,4.09-1.22,2.86,2.86,0,0,0,1-1.57Z" transform="translate(-1129.13 -1914.24)"/><path class="cls-4" d="M1358.87,2035.88c-0.22-3.94,1.31-8.53-7.22-9.19s-109-9.63-113.57-10.07-4.6,1.09-4.6,1.09a4.82,4.82,0,0,0-4.76,0c-2.79,1.37-29.7,22.21-29.7,22.21a22.87,22.87,0,0,0-.66,5.36c-7.08,5.57-12.85,10.38-14.54,12.69-4.81,6.56.44,28.45,2,31.07s21,2.19,57.77,6.35,75.05,15.54,77.24,15.32,3.06-3.06,9.19-10.28,28.88-39.39,28.88-39.39S1359.09,2039.82,1358.87,2035.88Z" transform="translate(-1129.13 -1914.24)"/><path class="cls-5" d="M1187.21,2055.69s-4,3.06-4.16,6.78a26.92,26.92,0,0,1,8.64-1.75c5.47-.33,125.16,16.3,125.82,16.52s2.52-2.74,3-3.06-2.19,4.16-2,16.3,1.42,19.58,2.63,19,36.65-48.36,36.65-48.36,0.63-29.16,0-31-1.86,5.36-3.61,6.46-3.39-.66-3.39-0.66l-28.45,36.43s-60.17-5.58-78.77-8.21-52.08-6.56-55.91-8.53" transform="translate(-1129.13 -1914.24)"/><path class="cls-6" d="M1306.85,2080s3.77,0.25,3.94,3.61,0.57,16.9.74,19-0.33,3.94-2.87,3.36-3.77-2.63-4.1-12.23S1303.32,2080.3,1306.85,2080Z" transform="translate(-1129.13 -1914.24)"/><path class="cls-7" d="M1281.57,2099.67s-9.88-3-11.17-12.39,9.12-8.45,9.12-8.45,10,0,11.73,12.14C1291.26,2091,1293.23,2103,1281.57,2099.67Z" transform="translate(-1129.13 -1914.24)"/><path class="cls-8" d="M1282.44,2099.72s-9-2.77-10.19-11.3,8.32-7.71,8.32-7.71,9.13,0,10.7,11.08a11.17,11.17,0,0,1,.11,1.37,13.09,13.09,0,0,0-.12-2.19c-1.72-12.17-11.73-12.14-11.73-12.14s-10.42-.9-9.12,8.45,11.17,12.39,11.17,12.39a13,13,0,0,0,3.94.56A12.64,12.64,0,0,1,1282.44,2099.72Z" transform="translate(-1129.13 -1914.24)"/><path class="cls-9" d="M1281.88,2096.52s-7.21-2.22-8.15-9,6.66-6.17,6.66-6.17,7.31,0,8.56,8.86C1288.94,2090.17,1290.38,2098.91,1281.88,2096.52Z" transform="translate(-1129.13 -1914.24)"/><path class="cls-10" d="M1288.85,2090a10.52,10.52,0,0,0-2.28-5.5,9.11,9.11,0,0,1,1.5,4.05s1.12,6.81-5.5,4.94c0,0-5.61-1.72-6.35-7-0.57-4.12,2.86-4.74,4.43-4.81-1,0-7-.09-6.13,5.82,0.89,6.43,7.68,8.51,7.68,8.51C1290.21,2098.25,1288.85,2090,1288.85,2090Z" transform="translate(-1129.13 -1914.24)"/><path class="cls-9" d="M1254.1,2094.17a3.55,3.55,0,0,1-2.39-2.65c-0.28-2,2-1.81,2-1.81a2.68,2.68,0,0,1,2.51,2.6S1256.59,2094.87,1254.1,2094.17Z" transform="translate(-1129.13 -1914.24)"/><path class="cls-5" d="M1256.17,2092.31a2.68,2.68,0,0,0-2.51-2.6s-2.23-.19-2,1.81a3.55,3.55,0,0,0,2.39,2.65C1256.59,2094.87,1256.17,2092.31,1256.17,2092.31Zm-1.92,1.19a2.9,2.9,0,0,1-2-2.17c-0.23-1.63,1.59-1.48,1.59-1.48a2.19,2.19,0,0,1,2.05,2.12S1256.29,2094.08,1254.25,2093.5Z" transform="translate(-1129.13 -1914.24)"/><path class="cls-11" d="M1193.32,2067.26s-0.78-1.57-3.77-1.56c-2.28,0-3.87,1.93-3.87,4.88s1.74,4.47,3.38,4.47c0.88,0,2.75-.08,3.45-1.53,0,0,57.09,7.3,59.59,7.77,0,0,3.83.61,4.38-2.49s-2.56-4.7-5-5.17C1246.18,2072.64,1203.06,2067.91,1193.32,2067.26Z" transform="translate(-1129.13 -1914.24)"/><path class="cls-10" d="M1190.71,2067.83l60.72,7s3.61,0.44,3.39,3.06-3.61,2.41-3.61,2.41l-61.38-7.55a3.17,3.17,0,0,1-2.84-3C1186.93,2067,1190.71,2067.83,1190.71,2067.83Z" transform="translate(-1129.13 -1914.24)"/><path class="cls-9" d="M1199.6,2082.85l4.57,0.19s2.74-.19,2.82,2.35-2.71,2.22-2.71,2.22l-5.83-.33a2.22,2.22,0,0,1-1.56-2C1196.81,2083.59,1197.79,2082.85,1199.6,2082.85Z" transform="translate(-1129.13 -1914.24)"/><path class="cls-5" d="M1204.17,2083l-4.57-.19c-1.81,0-2.79.74-2.71,2.39a2.22,2.22,0,0,0,1.56,2l5.83,0.33s2.79,0.33,2.71-2.22S1204.17,2083,1204.17,2083Zm0.06,4.29-5.38-.3a2.05,2.05,0,0,1-1.44-1.89c-0.08-1.52.83-2.2,2.5-2.2l4.22,0.18s2.53-.18,2.6,2.17S1204.23,2087.31,1204.23,2087.31Z" transform="translate(-1129.13 -1914.24)"/><path class="cls-9" d="M1212.07,2083.5l13.92,1s2.74-.19,2.82,2.35-2.71,2.22-2.71,2.22l-15.18-1.15a2.22,2.22,0,0,1-1.56-2C1209.28,2084.24,1210.27,2083.5,1212.07,2083.5Z" transform="translate(-1129.13 -1914.24)"/><path class="cls-5" d="M1212.07,2083.59l13.92,1s2.72-.19,2.82,2.33c0,0,0,0,0-.06-0.08-2.54-2.82-2.35-2.82-2.35l-13.92-1c-1.81,0-2.79.74-2.71,2.39h0C1209.32,2084.31,1210.3,2083.59,1212.07,2083.59Z" transform="translate(-1129.13 -1914.24)"/><path class="cls-5" d="M1226.57,2088.65l-15.18-1.15a2.22,2.22,0,0,1-1.56-2,2.32,2.32,0,0,1,.36-1.49,2,2,0,0,0-.83,1.93,2.22,2.22,0,0,0,1.56,2l15.18,1.15a2.78,2.78,0,0,0,2.33-.82A3.23,3.23,0,0,1,1226.57,2088.65Z" transform="translate(-1129.13 -1914.24)"/><path class="cls-9" d="M1233.13,2085.6l13.9,1.26s2.74-.14,2.78,2.4-2.75,2.17-2.75,2.17L1231.9,2090a2.22,2.22,0,0,1-1.52-2.07C1230.33,2086.29,1231.32,2085.57,1233.13,2085.6Z" transform="translate(-1129.13 -1914.24)"/><path class="cls-5" d="M1247.47,2091.22l-15.16-1.41a2.22,2.22,0,0,1-1.52-2.07,2,2,0,0,1,.86-1.91,2,2,0,0,0-1.27,2.12,2.22,2.22,0,0,0,1.52,2.07l15.16,1.41a3.19,3.19,0,0,0,1.92-.38A3.5,3.5,0,0,1,1247.47,2091.22Z" transform="translate(-1129.13 -1914.24)"/><path class="cls-8" d="M1286.85,2081.76a12,12,0,0,0-7.32-3s-10.42-.9-9.12,8.45c1.08,7.8,8.12,11.2,10.44,12.12C1270.91,2082.35,1286.81,2081.76,1286.85,2081.76Z" transform="translate(-1129.13 -1914.24)"/><path class="cls-10" d="M1199.58,2044.77l33.56-26.59s-2.79-1-4.51.41-28.15,21.58-28.15,21.58A13,13,0,0,0,1199.58,2044.77Z" transform="translate(-1129.13 -1914.24)"/><rect class="cls-5" x="1193.62" y="2035.17" width="47.47" height="0.66" transform="translate(-2148.5 -667.6) rotate(-39.69)"/><rect class="cls-5" x="1195.35" y="2035.59" width="47.47" height="0.66" transform="translate(-2148.37 -666.4) rotate(-39.69)"/><rect class="cls-5" x="1197.34" y="2035.88" width="47.47" height="0.66" transform="translate(-2148.1 -665.06) rotate(-39.69)"/><rect class="cls-5" x="1199.07" y="2036.3" width="47.47" height="0.66" transform="translate(-2147.97 -663.86) rotate(-39.69)"/><polygon class="cls-5" points="186.94 149.08 186.51 148.58 215.28 117.07 215.7 117.58 186.94 149.08"/><polygon class="cls-5" points="188.66 149.5 188.24 149 217.01 117.49 217.43 117.99 188.66 149.5"/><polygon class="cls-5" points="190.66 149.79 190.24 149.29 219 117.78 219.42 118.29 190.66 149.79"/><polygon class="cls-5" points="192.38 150.21 191.96 149.71 220.73 118.2 221.15 118.71 192.38 150.21"/><path class="cls-4" d="M1322.61,2059.88a23.42,23.42,0,0,1-8.53,1.81c-3.94-.16-11-2.61-15.43,0s-4.92,11.48-4.43,16.73,0.49,39.06,10,41.52,15.75-20,18.38-21.5,15.26-7,18.54-6.89a16.07,16.07,0,0,1,11.16,4.59c4.43,3.94,9.52,6.24,13.46,3.45s-1.44-22.58-11.16-35.61-15.59-12-18.22-12.14S1328.84,2059.06,1322.61,2059.88Z" transform="translate(-1129.13 -1914.24)"/><path class="cls-12" d="M1365.3,2097.41c-1.14-1.87-14.42-10.4-17.71-10.8s-13.87,1.74-18.79,4.4-8.14,9.12-10.78,14-13.48,12.44-13.48,12.44c-0.46.34-.37,1.31,0.05,2.52,9.5,2.39,15.72-20,18.34-21.51s15.26-7,18.54-6.89a16.07,16.07,0,0,1,11.16,4.59c4.43,3.94,9.52,6.24,13.46,3.45a2.86,2.86,0,0,0,1-1.57A3,3,0,0,1,1365.3,2097.41Z" transform="translate(-1129.13 -1914.24)"/><path class="cls-5" d="M1298.81,2064s-4.27,2.28-3.77,6,7.22,34.72,6.89,39c0,0-4.29-1.68-4.2,1.13,0,0-2.24-7.51-3.12-24.1C1294.61,2086,1291.75,2062.67,1298.81,2064Z" transform="translate(-1129.13 -1914.24)"/><path class="cls-5" d="M1365.77,2099.6a2,2,0,0,0,.34-0.31l0,0c3.23-3.74-2.11-22.67-11.51-35.29-9.72-13-15.59-12-18.22-12.14s-7.55,7.22-13.79,8a23.42,23.42,0,0,1-8.53,1.81c-0.39,0-.82-0.06-1.27-0.11a3.11,3.11,0,0,1-1.3.55s-5.75-.75-9.56.77a10,10,0,0,0-6,7c-0.55,2.25,6.35,26.48,7.33,33s-0.33,6.67-.33,6.67-5.24.61-4.84,1.83v0c0.16,0.51,2.29,7.12,6,8.46l0.06,0a5.69,5.69,0,0,0,2,.15c5.14-1,14.5-21.55,16.25-23.51s8.86-6.13,14.66-7.66,11.16-2,15,.33,13.33,8.71,12.43,11A6.71,6.71,0,0,0,1365.77,2099.6Zm-2.19-4.21s-10.07-7.68-13-8.38-7.33-2.24-15.32.66-10.61,3.86-12.14,6.28-7.77,14.56-10.39,15.66-6.78-.44-7.11-8.32-3.28-18.17-4.6-21,2.41-15,9.74-14.6,9.08,6.46,14.11,5.25,3.72-9.74,11.38-8.53,19.69,6.78,24.51,16.74S1365.66,2092,1363.58,2095.39Z" transform="translate(-1129.13 -1914.24)"/><path class="cls-13" d="M1339.58,2064.38a1.75,1.75,0,0,0,1.54-2.19,2.33,2.33,0,0,0-2.36-1.89,1.72,1.72,0,0,0-1.67,2.18C1337.29,2064.36,1338.7,2064.42,1339.58,2064.38Z" transform="translate(-1129.13 -1914.24)"/><path class="cls-14" d="M1346.63,2067.66a1.75,1.75,0,0,0,1.54-2.19,2.33,2.33,0,0,0-2.36-1.89,1.72,1.72,0,0,0-1.67,2.18C1344.35,2067.64,1345.76,2067.7,1346.63,2067.66Z" transform="translate(-1129.13 -1914.24)"/><path class="cls-15" d="M1348.68,2061.91a1.75,1.75,0,0,0,1.54-2.19,2.33,2.33,0,0,0-2.36-1.89,1.72,1.72,0,0,0-1.67,2.18C1346.4,2061.9,1347.81,2062,1348.68,2061.91Z" transform="translate(-1129.13 -1914.24)"/><path class="cls-16" d="M1341.63,2057.83a1.75,1.75,0,0,0,1.54-2.19,2.33,2.33,0,0,0-2.36-1.89,1.72,1.72,0,0,0-1.67,2.18C1339.34,2057.81,1340.75,2057.88,1341.63,2057.83Z" transform="translate(-1129.13 -1914.24)"/><path class="cls-12" d="M1326.45,2070.69a3,3,0,0,0,2.63-3.73,4,4,0,0,0-4-3.22c-0.82,0-3.22.51-2.86,3.72S1324.95,2070.76,1326.45,2070.69Z" transform="translate(-1129.13 -1914.24)"/><path class="cls-5" d="M1342.5,2083.49s6.45-1,4.21-9.32c-1.7-6.33-7-6.36-8.46-6.13s-4.46,2.31-3.89,9.2C1335,2084.57,1339.81,2084.09,1342.5,2083.49Z" transform="translate(-1129.13 -1914.24)"/><path class="cls-7" d="M1342.42,2082.79s6.13-.92,4-8.87c-1.61-6-6.64-6.05-8.05-5.84s-4.25,2.2-3.7,8.76C1335.25,2083.82,1339.85,2083.36,1342.42,2082.79Z" transform="translate(-1129.13 -1914.24)"/><path class="cls-5" d="M1345,2077.34a2.29,2.29,0,0,1-.89,1,1.94,1.94,0,0,0,1.2-.49c0.19-.39.92,2.28-0.06,3.46a13,13,0,0,0,1.61-2.65c0.31-1,.23-3.75-0.56-4.73S1345.43,2076.94,1345,2077.34Z" transform="translate(-1129.13 -1914.24)"/><path class="cls-5" d="M1334.31,2074.83s2.43-1.22,3.13.44,1-4.84,3.37-5.1,1.06-1.79,1.06-1.79S1335.35,2065.47,1334.31,2074.83Z" transform="translate(-1129.13 -1914.24)"/><path class="cls-12" d="M1342.52,2078.61a3.63,3.63,0,0,0,3.19-4.53c-0.6-3.45-3.91-3.91-4.9-3.91s-3.91.62-3.47,4.51S1340.7,2078.71,1342.52,2078.61Z" transform="translate(-1129.13 -1914.24)"/><path class="cls-8" d="M1339.69,2072.46l-2.38,1.81s0.26,2.63,1.63,3.58a4.43,4.43,0,0,0,2.85.77c0.08,0-1.72-2.2-1.12-3.68S1339.69,2072.46,1339.69,2072.46Z" transform="translate(-1129.13 -1914.24)"/><path class="cls-12" d="M1343,2077.59a4,4,0,0,0,3.5-5c-0.65-3.78-4.28-4.28-5.37-4.28s-4.28.68-3.8,4.95S1341,2077.69,1343,2077.59Z" transform="translate(-1129.13 -1914.24)"/><path class="cls-8" d="M1338.13,2074s2.29,4,6,2.13,1.46-5.58.31-6.29a6,6,0,0,0-3.83-.77c-1.64.33,3.88,0.77,3,3.39S1338.95,2073.72,1338.13,2074Z" transform="translate(-1129.13 -1914.24)"/><path class="cls-5" d="M1334.73,2077.39s2.7,0.43,2.76-.75c0,0,.91,2.47,4.31,2.22,0,0-2.39.78-2.24,1.93a3,3,0,0,0,1.83,2.29c0.49,0-3.26.82-4.72-.73S1334.78,2077.94,1334.73,2077.39Z" transform="translate(-1129.13 -1914.24)"/><path class="cls-5" d="M1300.35,2074.33s2,6.19,9.89,2.59c6-2.73,5.1-7.94,4.63-9.37s-3-4-9.72-2.29C1298,2067.08,1299.31,2071.77,1300.35,2074.33Z" transform="translate(-1129.13 -1914.24)"/><path class="cls-7" d="M1301,2074.12s1.93,5.89,9.41,2.46c5.67-2.6,4.86-7.56,4.41-8.91s-2.88-3.82-9.25-2.18C1298.81,2067.23,1300,2071.69,1301,2074.12Z" transform="translate(-1129.13 -1914.24)"/><path class="cls-5" d="M1304.65,2067.38s-1.92.22-1.67,3.17,2,3.5,2,3.5a2.13,2.13,0,0,1-.59-1.59c-0.11-1.26,1,.82,2,1.26,0,0-1-2.17-.61-3.55S1306.17,2066.61,1304.65,2067.38Z" transform="translate(-1129.13 -1914.24)"/><path class="cls-5" d="M1306.83,2075.77a2.29,2.29,0,0,1-1.11-.71,1.94,1.94,0,0,0,.68,1.1c0.42,0.12-2.09,1.29-3.42.52a13,13,0,0,0,2.88,1.14c1,0.14,3.73-.4,4.57-1.35S1307.29,2076.11,1306.83,2075.77Z" transform="translate(-1129.13 -1914.24)"/><path class="cls-5" d="M1307.51,2064.79s1.61,2.2.09,3.16,4.94,0.17,5.59,2.47,1.94,0.74,1.94.74S1316.92,2064.26,1307.51,2064.79Z" transform="translate(-1129.13 -1914.24)"/><path class="cls-12" d="M1310.73,2073.83a3.63,3.63,0,0,0,2.53-4.93c-1.07-3.33-4.41-3.33-5.39-3.19s-3.78,1.16-2.81,4.95S1308.94,2074.18,1310.73,2073.83Z" transform="translate(-1129.13 -1914.24)"/><path class="cls-8" d="M1307.07,2068.13l-2.1,2.12s0.62,2.57,2.11,3.32a4.43,4.43,0,0,0,2.93.37c0.08,0-2-1.94-1.62-3.49S1307.07,2068.13,1307.07,2068.13Z" transform="translate(-1129.13 -1914.24)"/><path class="cls-12" d="M1311.08,2072.75a4,4,0,0,0,2.78-5.41c-1.17-3.65-4.84-3.65-5.91-3.5s-4.15,1.27-3.08,5.43S1309.12,2073.12,1311.08,2072.75Z" transform="translate(-1129.13 -1914.24)"/><path class="cls-8" d="M1305.74,2069.87s2.82,3.69,6.22,1.28,0.67-5.73-.57-6.27a6,6,0,0,0-3.9-.23c-1.58.55,4,.22,3.4,2.95S1306.51,2069.48,1305.74,2069.87Z" transform="translate(-1129.13 -1914.24)"/><path class="cls-5" d="M1318.22,2073.76s6.13-1.62,9.19,2.13,4.58,11.4,0,13.81-9.25,2.13-12.53-3.56S1313.46,2074,1318.22,2073.76Z" transform="translate(-1129.13 -1914.24)"/><path class="cls-7" d="M1318.73,2073.73s5.69-1.5,8.53,2,4.24,10.58,0,12.81-8.58,2-11.62-3.3S1314.31,2073.94,1318.73,2073.73Z" transform="translate(-1129.13 -1914.24)"/><path class="cls-5" d="M1315.62,2081.16a7.27,7.27,0,0,0,2.33,4.62c2.07,1.61,6,1.49,7.7.55s3.31-2.3,2.83-5.66-4.18-6.78-7.43-6.67S1314.88,2075.89,1315.62,2081.16Z" transform="translate(-1129.13 -1914.24)"/><path class="cls-12" d="M1323.59,2086.58a5.41,5.41,0,0,0,4.76-6.76c-0.89-5.14-5.83-5.83-7.3-5.83s-5.83.93-5.17,6.73S1320.88,2086.72,1323.59,2086.58Z" transform="translate(-1129.13 -1914.24)"/><path class="cls-8" d="M1316.85,2077.61c-0.08.17-.74,2.32,0.66,5.69s6.35,2.75,8.14,1.46,2.61-5.16.56-8.11-4.08-1.64-4.17-.65,1.38,3.53-.92,3.69-2.54-1.81-3-2.71S1317.42,2076.43,1316.85,2077.61Z" transform="translate(-1129.13 -1914.24)"/><path class="cls-5" d="M1314.1,2078.13s1.11,8.37,6.28,9.35a5.19,5.19,0,0,0,1.64,3s-4.92-.41-7.46-6.15A13.16,13.16,0,0,1,1314.1,2078.13Z" transform="translate(-1129.13 -1914.24)"/><path class="cls-5" d="M1328.21,2078.63a6.43,6.43,0,0,1-.8,6.8,2.92,2.92,0,0,1-1.19,3.58s3.44-.78,3.75-3.24S1329.38,2078.93,1328.21,2078.63Z" transform="translate(-1129.13 -1914.24)"/><path class="cls-5" d="M1312.83,2075.05s1.82-3.33.57-3.69l1.73-.19s-0.58,3.06-2.47,3.88" transform="translate(-1129.13 -1914.24)"/><path class="cls-17" d="M1328.16,2066a3.19,3.19,0,0,0-.7-0.14,2.47,2.47,0,0,0-.48,0,3.29,3.29,0,0,0-.54,0,4.48,4.48,0,0,0-.54.09,5.2,5.2,0,0,0-.8-0.82,3.38,3.38,0,0,0-.83-0.52l0.56,0.78c0.15,0.21.32,0.47,0.49,0.73h0a5.48,5.48,0,0,0-1.86,1.11,3.38,3.38,0,0,0-.64.75l0.85-.44,0.86-.41c0.32-.13.65-0.29,1-0.39l0.14,0c0.08,0.14.16,0.28,0.23,0.42a9.91,9.91,0,0,1,.46,1c0.13,0.32.25,0.62,0.34,0.89s0.16,0.49.21,0.66,0.09,0.26.09,0.26,0-.1,0-0.27a3.19,3.19,0,0,0,0-.72,2.48,2.48,0,0,0,0-.48,3.29,3.29,0,0,0-.11-0.53,3.9,3.9,0,0,0-.18-0.55,5.42,5.42,0,0,0-.25-0.54c-0.06-.11-0.12-0.21-0.19-0.31l0.26-.07c0.33-.08.65-0.16,0.93-0.2l0.68-.11,0.27,0Z" transform="translate(-1129.13 -1914.24)"/><path class="cls-18" d="M1218.84,2031.39l-3.67-2.43-4.18-2.81-5.4-3.66-6.37-4.34c-1.12-.78-2.27-1.6-3.42-2.46l-3.59-2.54c-2.42-1.77-5-3.44-7.71-5.05s-5.54-3.07-8.35-4.57c-1.41-.74-2.87-1.39-4.29-2.09l-4.24-2.1c-2.85-1.3-5.61-2.68-8.33-3.87s-5.36-2.36-7.87-3.41l-7.12-2.88c-2.24-.8-4.3-1.53-6.11-2.21l-1.32-.49-1.25-.37-2.21-.67c-2.66-.82-4.19-1.33-4.19-1.33l0-.2s1.58,0.25,4.34.75c0.69,0.12,1.46.27,2.29,0.43l1.3,0.26,1.37,0.37c1.89,0.5,4,1.11,6.34,1.77s4.73,1.67,7.32,2.64c1.31,0.44,2.58,1.07,3.91,1.64s2.68,1.18,4,1.82c2.71,1.3,5.46,2.75,8.27,4.19s5.54,3.13,8.26,4.81l4.07,2.53q2.05,1.22,4.06,2.47c2.68,1.64,5.38,3.16,8,4.67s5.11,3,7.42,4.45,4.41,3,6.37,4.41,3.69,2.75,5.21,4,2.85,2.29,3.9,3.21c2.13,1.82,3.28,2.94,3.28,2.94Z" transform="translate(-1129.13 -1914.24)"/><path class="cls-18" d="M1222.15,2026.78l-0.22-.34-0.67-.89-2.59-3.5c-2.24-3-5.38-7.35-9.08-12.61-1.83-2.64-3.84-5.49-5.89-8.55s-4.11-6.36-6.29-9.74-4.44-6.87-6.85-10.33-4.94-6.93-7.49-10.38l-3.83-5.16-3.75-5.15-7.23-10.06c-2.34-3.27-4.59-6.43-6.68-9.47l-5.89-8.54-8.74-12.84c-2.11-3.1-3.36-4.84-3.36-4.84l0.15-.13s1.47,1.58,3.85,4.49c1.2,1.45,2.6,3.25,4.22,5.3s3.4,4.41,5.34,7,4,5.38,6.15,8.38,4.4,6.17,6.67,9.48l7,10.24,3.54,5.3,3.5,5.39c2.35,3.59,4.68,7.19,7.09,10.66s4.82,6.85,7.23,10.07,4.73,6.34,6.84,9.36,4.05,5.91,5.84,8.59c3.55,5.36,6.43,9.89,8.38,13.1l2.23,3.75,0.57,1,0.17,0.35Z" transform="translate(-1129.13 -1914.24)"/><path class="cls-18" d="M1238.43,2019s-0.72-1.5-1.88-4.16l-0.86-2.26c-0.3-.83-0.67-1.72-0.95-2.69l-1-3.09c-0.31-1.1-.6-2.26-0.91-3.47s-0.56-2.49-.84-3.81-0.52-2.69-.72-4.11l-0.3-2.16-0.2-2.22c-0.15-1.5-.27-3-0.34-4.59s-0.16-3.14-.24-4.74l-0.25-4.85c-0.16-3.26-.34-6.58-0.48-9.9l-0.14-5c0-1.66,0-3.31,0-4.94,0.08-3.27.26-6.49,0.47-9.61a163.34,163.34,0,0,1,2.12-16.91c0.44-2.46.88-4.7,1.34-6.68s0.84-3.7,1.22-5.11c0.74-2.82,1.26-4.4,1.26-4.4l0.19,0-0.67,4.51-0.72,5.17-0.85,6.71c-0.31,2.46-.6,5.13-0.92,7.95l-0.91,8.88c-0.31,3.08-.56,6.27-0.77,9.51s-0.41,6.54-.57,9.85-0.19,6.62,0,9.87c0.08,1.63.16,3.24,0.35,4.83s0.36,3.15.6,4.68,0.46,3,.73,4.5,0.51,2.9.78,4.29l0.35,2.06,0.39,2c0.25,1.31.46,2.58,0.75,3.78s0.49,2.37.74,3.46l0.75,3.11c0.47,2,1,3.62,1.32,5l1,3.23,0.32,1.15Z" transform="translate(-1129.13 -1914.24)"/><path class="cls-18" d="M1230.89,2023.41l-0.69-1.11-1.86-3.25c-1.57-2.8-3.71-6.85-6.11-11.79-1.2-2.47-2.46-5.17-3.74-8s-2.46-6-3.74-9.17-2.59-6.48-4-9.8-3-6.64-4.42-10l-2.24-5-2.09-5-2-5-1.84-4.9c-1.24-3.21-2.27-6.37-3.21-9.38s-1.73-5.89-2.46-8.55-1.25-5.13-1.68-7.33l-0.62-3.07c-0.19-.95-0.27-1.84-0.38-2.64-0.4-3.2-.59-5-0.59-5l0.2,0s0.45,1.78,1.18,4.89c0.2,0.77.35,1.64,0.61,2.57l0.86,3c0.62,2.13,1.25,4.55,2.14,7.15s1.68,5.44,2.73,8.4c0.51,1.48,1,3,1.54,4.57s1.11,3.14,1.65,4.76l1.7,4.93,1.83,5,3.7,10.26c1.23,3.44,2.56,6.85,4,10.17s2.91,6.52,4.41,9.61,3,6,4.35,8.88,2.54,5.56,3.69,8c2.24,5,4.07,9.19,5.33,12.14l2,4.62Z" transform="translate(-1129.13 -1914.24)"/><path class="cls-18" d="M1183.28,2070.28a21.89,21.89,0,0,1-3-.33c-0.93-.19-2.08-0.38-3.36-0.76s-2.71-.82-4.26-1.36a42.54,42.54,0,0,1-9.87-5.17c-1.72-1.1-3.4-2.35-5.2-3.49-0.91-.55-1.77-1.2-2.67-1.79l-2.73-1.77c-1.76-1.27-3.54-2.52-5.2-3.88l-4.69-4.2c-1.43-1.46-2.79-2.89-4-4.28s-2.27-2.84-3.28-4.12a38.82,38.82,0,0,1-2.56-3.64c-0.7-1.13-1.32-2.1-1.8-2.92-1-1.63-1.49-2.58-1.49-2.58l0.17-.11s0.74,0.8,2,2.23c0.63,0.71,1.34,1.6,2.18,2.6s1.83,2.1,2.91,3.29l1.66,1.87c0.58,0.64,1.13,1.35,1.79,2,1.29,1.31,2.61,2.72,3.95,4.21l4.4,4.34c1.56,1.41,3.13,2.87,4.7,4.34a61.82,61.82,0,0,0,5.07,3.93,39.37,39.37,0,0,0,5.4,3.06c0.91,0.43,1.79.89,2.67,1.27s1.76,0.75,2.59,1.14,1.65,0.74,2.43,1.1,1.53,0.73,2.28,1c1.47,0.62,2.82,1.2,4,1.67s2.28,0.86,3.16,1.21,1.58,0.56,2.06.71,0.74,0.24.74,0.24Z" transform="translate(-1129.13 -1914.24)"/><path class="cls-18" d="M1186.06,2085.9l-2.15,2.21c-1.37,1.41-3.32,3.4-5.62,5.82l-3.72,3.9c-1.32,1.39-2.8,2.77-4.22,4.31a48.6,48.6,0,0,0-4.19,4.92c-0.65.89-1.28,1.8-1.89,2.73s-1.18,1.89-1.73,2.87-1.1,1.94-1.61,2.93-1,2-1.55,2.92c-1,1.93-2,3.87-2.79,5.77-0.43.94-.8,1.89-1.21,2.81s-0.73,1.83-1.1,2.71-0.65,1.76-1,2.59-0.6,1.65-.86,2.44c-0.57,1.56-.95,3-1.37,4.33l-0.9,3.4c-0.43,1.9-.71,3-0.71,3l-0.2,0s0-1.12.12-3.11c0.08-1,.24-2.18.42-3.55s0.49-2.91.92-4.55a52.26,52.26,0,0,1,1.59-5.27,51.65,51.65,0,0,1,2.39-5.65c0.95-1.9,2-3.85,3.13-5.76a61.08,61.08,0,0,1,3.78-5.59c1.33-1.83,2.74-3.58,4-5.37s2.61-3.53,3.85-5.25,2.48-3.35,3.76-4.81,2.58-2.75,3.81-3.92a64.13,64.13,0,0,1,6.27-5.26,29.39,29.39,0,0,1,2.59-1.73Z" transform="translate(-1129.13 -1914.24)"/><path class="cls-18" d="M1184.74,2080.61l-2.82,1-3.21,1.2c-1.22.51-2.63,1-4.12,1.63s-3.12,1.28-4.84,2-3.54,1.42-5.44,2.17a46.74,46.74,0,0,0-5.59,2.85c-0.91.56-1.81,1.15-2.71,1.75s-1.72,1.32-2.59,2l-2.53,2c-0.8.72-1.6,1.43-2.41,2.12s-1.64,1.33-2.37,2.08l-2.19,2.16c-0.36.35-.71,0.71-1.07,1a11.2,11.2,0,0,0-1,1c-0.64.73-1.29,1.42-1.93,2.09l-1.86,2-1.6,1.94c-1,1.25-2,2.35-2.85,3.39s-1.44,2-2,2.76c-1.15,1.52-1.85,2.38-1.85,2.38l-0.17-.1s0.47-1,1.34-2.7c0.43-.86,1-1.88,1.64-3.07s1.58-2.38,2.51-3.75l1.5-2.11,1.81-2.09a38,38,0,0,1,4.15-4.28l2.35-2.1c0.78-.73,1.67-1.33,2.52-2s1.74-1.31,2.63-2l2.8-1.74c1.83-1.21,3.79-2.21,5.61-3.35,0.47-.27.9-0.58,1.37-0.84s0.93-.52,1.38-0.8c0.91-.53,1.79-1.1,2.66-1.65l2.65-1.49,1.29-.72c0.43-.22.87-0.41,1.3-0.61,0.86-.38,1.71-0.76,2.53-1.09s1.65-.6,2.42-0.88c1.55-.56,3-0.95,4.31-1.31s2.44-.58,3.39-0.74,1.7-.28,2.21-0.33l0.79-.07Z" transform="translate(-1129.13 -1914.24)"/><path class="cls-18" d="M1183.2,2074.93a23.33,23.33,0,0,1-2.3.56c-0.73.15-1.63,0.32-2.66,0.46s-2.2.27-3.47,0.41-2.66.21-4.13,0.2-3-.11-4.62-0.25-3.24-.24-4.92-0.28-3.38,0-5.09,0-3.42,0-5.11-.06-3.33-.31-4.94-0.45-3.13-.49-4.58-0.8-2.79-.75-4-1.1-2.33-.87-3.3-1.26a17.8,17.8,0,0,1-2.45-1.19c-1.32-.73-2.05-1.17-2.05-1.17l0.08-.18s0.84,0.2,2.27.61c0.72,0.19,1.55.5,2.57,0.69l3.34,0.78c1.24,0.23,2.58.48,4,.79s2.92,0.48,4.46.79l4.81,0.74c1.65,0.17,3.31.52,5,.73a43.15,43.15,0,0,0,5,.45c0.83,0,1.66,0,2.48,0s1.63-.12,2.42-0.19c1.59-.12,3.11-0.35,4.56-0.42s2.82-.12,4.09-0.15,2.43,0,3.47,0,1.94,0,2.68,0c1.49,0,2.35.09,2.35,0.09Z" transform="translate(-1129.13 -1914.24)"/><path class="cls-18" d="M1358.16,2032.25l15-6.32,7.24-3.09c1.29-.54,2.61-1.09,4-1.64s2.75-1.13,4.14-1.74c2.81-1.19,5.67-2.53,8.49-4.07,1.42-.74,2.8-1.58,4.2-2.4s2.74-1.74,4.12-2.61c2.69-1.83,5.37-3.67,7.94-5.55,1.28-1,2.57-1.86,3.79-2.84l1.83-1.43,1.76-1.47c2.33-1.93,4.49-3.9,6.5-5.81,1-.93,1.92-1.93,2.84-2.85s1.73-1.88,2.53-2.78,1.52-1.8,2.2-2.67l1-1.26,0.87-1.24c0.55-.81,1.12-1.54,1.54-2.28l1.2-2a14.56,14.56,0,0,0,.9-1.66l0.63-1.26,0.54-1,0.19,0.07-0.37,1.12-0.47,1.34a14.83,14.83,0,0,1-.7,1.79c-0.29.66-.63,1.38-1,2.17s-0.87,1.58-1.36,2.47l-0.78,1.35-0.92,1.37c-0.64.93-1.29,1.93-2.08,2.89a61.62,61.62,0,0,1-5.29,6c-1,1-2,2-3.17,3l-1.69,1.49c-0.57.5-1.19,1-1.79,1.44l-1.83,1.44-1.91,1.4c-1.27,1-2.6,1.85-3.94,2.75s-2.74,1.73-4.12,2.61-2.84,1.63-4.26,2.44l-8.6,4.61-4.21,2.26-4.1,2.24c-2.7,1.45-5.33,2.84-7.88,4s-5,2.17-7.31,3.06c-4.58,1.76-8.48,3-11.23,3.8-1.38.38-2.46,0.68-3.21,0.87l-1.15.27Z" transform="translate(-1129.13 -1914.24)"/><path class="cls-18" d="M1356.68,2041.07l0.93-.25,2.65-.62c2.28-.51,5.56-1.14,9.52-1.74,2-.28,4.13-0.6,6.41-0.82s4.71-.33,7.2-0.47,5.08-.28,7.69-0.53,5.26-.59,7.91-0.9,5.31-.64,7.93-0.84,5.21-.34,7.72-0.46,4.94-.13,7.24-0.07l3.36,0.13,3.13,0.22c2,0.19,3.84.41,5.46,0.69s3,0.53,4.16.86,2,0.56,2.62.77l0.91,0.32-0.05.19-0.95-.14c-0.61-.1-1.51-0.25-2.67-0.36s-2.55-.25-4.16-0.35-3.43-.16-5.41-0.2-4.14,0-6.41,0l-7.17.06c-2.49,0-5.06.07-7.68,0.15l-7.94.17c-2.66.07-5.33,0.17-7.94,0.42s-5.17.57-7.64,1-4.85.83-7.11,1.15-4.42.54-6.4,0.77c-4,.42-7.29.72-9.62,0.89l-2.71.18-1,0Z" transform="translate(-1129.13 -1914.24)"/><path class="cls-18" d="M1356.7,2047.65l1-.06,2.76-.08c2.38,0,5.78,0,9.85.22,2,0.12,4.24.26,6.56,0.52s4.75,0.66,7.27,1,5.12,0.81,7.77,1.13l4,0.45,4.05,0.4,4.05,0.42,4,0.54c2.65,0.4,5.25.86,7.76,1.34s4.92,1,7.18,1.67,4.39,1.28,6.32,1.95,3.69,1.38,5.21,2.05,2.84,1.31,3.87,1.92,1.84,1.09,2.38,1.43l0.82,0.54-0.1.17-0.9-.38c-0.59-.25-1.42-0.65-2.54-1s-2.44-.91-4-1.43-3.33-1-5.28-1.56-4.06-1.08-6.31-1.63l-7.09-1.66c-2.46-.57-5-1.1-7.63-1.63l-7.91-1.61c-2.66-.52-5.33-1-8-1.33s-5.26-.55-7.8-0.66-5-.2-7.31-0.37-4.51-.39-6.53-0.57c-4-.4-7.41-0.77-9.76-1.07l-2.74-.36-1-.14v-0.2Z" transform="translate(-1129.13 -1914.24)"/><path class="cls-18" d="M1358.22,2052.34l1,0.22,2.86,0.71c1.23,0.31,2.72.72,4.41,1.23s3.59,1.11,5.66,1.79,4.29,1.47,6.61,2.37,4.72,2,7.2,3.1,5,2.25,7.69,3.34l4,1.6q2,0.76,4.05,1.57c2.72,1,5.4,2.15,8,3.32s5.14,2.42,7.58,3.65,4.74,2.54,6.86,3.88,4.09,2.69,5.83,4a44.11,44.11,0,0,1,4.52,4,28.16,28.16,0,0,1,3,3.54l0.9,1.47a8.32,8.32,0,0,1,.54,1.15l0.4,1-0.18.08-0.55-.88a9.17,9.17,0,0,0-.68-1l-1.06-1.28a33.69,33.69,0,0,0-3.26-3.08c-1.34-1.1-2.91-2.28-4.69-3.47s-3.76-2.42-5.87-3.69l-3.29-1.9-3.47-1.94c-2.36-1.3-4.83-2.6-7.37-3.89l-7.69-3.9c-2.59-1.29-5.2-2.54-7.84-3.61s-5.26-2.06-7.84-2.9-5.08-1.63-7.42-2.46-4.53-1.67-6.57-2.42c-4.05-1.54-7.42-2.86-9.77-3.82l-2.72-1.12-1-.41Z" transform="translate(-1129.13 -1914.24)"/><path class="cls-18" d="M1373.68,2026.69a15.49,15.49,0,0,0-.67,1.49c-0.21.5-.38,1-0.54,1.52-0.09.25-.14,0.52-0.21,0.77a6.46,6.46,0,0,0-.17.78,6.26,6.26,0,0,0-.12.78,6.4,6.4,0,0,0-.06.78v0.78l0.07,0.78a5.1,5.1,0,0,0,.14.77,4,4,0,0,0,.2.75l0.26,0.74,0.35,0.71a3.63,3.63,0,0,0,.4.69c0.15,0.22.29,0.45,0.43,0.69l0.09,0.16-0.12.07h0a8.4,8.4,0,0,0-1.63,2.06,10.25,10.25,0,0,0-.55,1.18,7.84,7.84,0,0,0-.33,1.24,4,4,0,0,0-.08.64,4.17,4.17,0,0,0,0,.64v0.64l0.09,0.64a8.83,8.83,0,0,0,.29,1.25c0.05,0.21.15,0.4,0.22,0.61l0.22,0.61,0.15,0.4-0.34.25a7.69,7.69,0,0,0-.76.65,6.41,6.41,0,0,0-.68.77c-0.11.13-.2,0.28-0.3,0.42a4.31,4.31,0,0,0-.26.44,3.14,3.14,0,0,0-.21.46,2.32,2.32,0,0,0-.15.48,2.38,2.38,0,0,0-.1.5c0,0.17-.05.34-0.05,0.51v0.52a3.71,3.71,0,0,0,.08.52,6.91,6.91,0,0,0,.29,1,3.9,3.9,0,0,0,.22.5l0.24,0.5-0.08.06-0.35-.44a4.13,4.13,0,0,1-.33-0.46l-0.28-.5a2.65,2.65,0,0,1-.22-0.54,4.29,4.29,0,0,1-.17-0.56l-0.1-.59a4.63,4.63,0,0,1,0-.6,3,3,0,0,1,.06-0.6,2.94,2.94,0,0,1,.13-0.59,3.89,3.89,0,0,1,.2-0.57,5.17,5.17,0,0,1,.25-0.54,5.91,5.91,0,0,1,.31-0.52,7.45,7.45,0,0,1,.75-0.93,5.69,5.69,0,0,1,.91-0.8l-0.19.65-0.24-.67a5.22,5.22,0,0,1-.22-0.68,9.86,9.86,0,0,1-.26-1.41l-0.06-.72,0-.72a4.29,4.29,0,0,1,.08-0.71,4.65,4.65,0,0,1,.14-0.7,8.62,8.62,0,0,1,.46-1.35,8.87,8.87,0,0,1,.71-1.23,7.74,7.74,0,0,1,2-2h0l0,0.22a9.53,9.53,0,0,1-1.13-1.26l-0.47-.72c-0.14-.25-0.24-0.52-0.36-0.79a3.54,3.54,0,0,1-.28-0.82,6,6,0,0,1-.19-0.85l-0.09-.86v-0.86a7.27,7.27,0,0,1,.1-0.86,5.68,5.68,0,0,1,.17-0.84,9.73,9.73,0,0,1,.54-1.61,10.6,10.6,0,0,1,.78-1.5,9.17,9.17,0,0,1,1-1.34Z" transform="translate(-1129.13 -1914.24)"/><path class="cls-18" d="M1390.63,2019.14c-0.35.75-.69,1.48-1,2.23s-0.56,1.49-.79,2.24c-0.12.37-.21,0.75-0.31,1.13s-0.16.76-.24,1.13a6.87,6.87,0,0,0-.17,1.13c0,0.38-.1.76-0.09,1.14l0,1.14c0,0.38,0,.75,0,1.14s0.1,0.75.14,1.14c0,0.19,0,.39.08,0.58l0.17,0.56a11.28,11.28,0,0,0,.36,1.12l0.54,1.06a5.48,5.48,0,0,0,.68,1c0.25,0.31.51,0.61,0.76,0.92L1391,2037l-0.2.22a7.61,7.61,0,0,0-1,1.37,12.88,12.88,0,0,0-.71,1.54,12.42,12.42,0,0,0-.5,1.61c-0.14.54-.25,1.09-0.35,1.64s-0.18,1.1-.22,1.65a14.41,14.41,0,0,0-.08,1.66c0,0.55.05,1.11,0.07,1.66,0,0.28.07,0.55,0.09,0.83l0.08,0.83,0.07,0.72-0.65.38a5,5,0,0,0-.52.34l-0.55.42a7.76,7.76,0,0,0-1,1c-0.14.19-.31,0.36-0.43,0.56a5.32,5.32,0,0,0-.38.59c-0.11.21-.24,0.41-0.33,0.63l-0.29.66a10.59,10.59,0,0,0-.39,1.41,7,7,0,0,0-.13.74l-0.08.75c-0.06.51,0,1,0,1.55s0.09,1,.11,1.58l-0.19.05c-0.21-.5-0.41-1-0.59-1.52a11.87,11.87,0,0,1-.37-1.62l-0.09-.84a8.24,8.24,0,0,1,0-.85,4.68,4.68,0,0,1,.06-0.86c0-.28.08-0.57,0.14-0.86l0.23-.85c0.08-.28.21-0.55,0.32-0.82a7.11,7.11,0,0,1,.4-0.79,5.74,5.74,0,0,1,.48-0.75,9.8,9.8,0,0,1,1.18-1.34,7.61,7.61,0,0,1,.69-0.58,6.63,6.63,0,0,1,.82-0.52l-0.58,1.09c-0.05-.61-0.13-1.22-0.14-1.83s0-1.23.05-1.84a16.15,16.15,0,0,1,.22-1.83,15.86,15.86,0,0,1,.41-1.8,14.59,14.59,0,0,1,.66-1.72,14.42,14.42,0,0,1,.86-1.62,13.71,13.71,0,0,1,1-1.5,14.31,14.31,0,0,1,1.19-1.39v0.44c-0.26-.32-0.51-0.66-0.78-1a6.93,6.93,0,0,1-.76-1l-0.72-1a12.31,12.31,0,0,1-.62-1.11l-0.3-.57c-0.09-.2-0.15-0.4-0.23-0.6a10.81,10.81,0,0,1-.41-1.24c-0.09-.43-0.15-0.86-0.22-1.29a10.45,10.45,0,0,1,0-1.31,6.67,6.67,0,0,1,.13-1.3,8.16,8.16,0,0,1,.26-1.27,9.36,9.36,0,0,1,.39-1.23,10,10,0,0,1,.49-1.18,14,14,0,0,1,1.28-2.19,10.88,10.88,0,0,1,1.66-1.89Z" transform="translate(-1129.13 -1914.24)"/><path class="cls-18" d="M1414.64,2005.09a53.5,53.5,0,0,0-3.47,7.53,35.92,35.92,0,0,0-1.19,3.91c-0.16.66-.29,1.32-0.4,2s-0.19,1.33-.28,2-0.11,1.34-.14,2a15.82,15.82,0,0,0,0,2,18.94,18.94,0,0,0,.27,2,15.13,15.13,0,0,0,.55,2,14.13,14.13,0,0,0,.83,1.88,14.85,14.85,0,0,0,1.13,1.72,13.54,13.54,0,0,0,1.34,1.57,19.16,19.16,0,0,0,1.52,1.39l0.4,0.36-0.48.33a11.73,11.73,0,0,0-1.82,1.6c-0.27.3-.54,0.62-0.78,0.94s-0.49.65-.69,1-0.43.68-.59,1-0.36.71-.49,1.09-0.28.74-.4,1.12l-0.28,1.15c-0.09.38-.11,0.78-0.17,1.17a5.89,5.89,0,0,0-.07,1.18c0,0.4,0,.79,0,1.19l0.15,1.19a6.66,6.66,0,0,0,.23,1.17l0.26,1.17c0.1,0.39.25,0.77,0.38,1.15s0.27,0.76.38,1.15l0.21,0.71-0.46.45c-0.48.46-1,1-1.46,1.55s-0.93,1.1-1.38,1.67-0.88,1.15-1.28,1.75c-0.2.3-.42,0.59-0.6,0.9l-0.57.92-0.52.95c-0.19.31-.33,0.64-0.49,1a19.93,19.93,0,0,0-.83,2c-0.1.35-.2,0.69-0.31,1a8.79,8.79,0,0,0-.26,1.06,6.86,6.86,0,0,0-.18,1.08l-0.13,1.1h-0.2l-0.12-1.13a7.24,7.24,0,0,1,0-1.14,9.46,9.46,0,0,1,.07-1.15c0-.38.11-0.76,0.17-1.14a21.1,21.1,0,0,1,.6-2.23c0.13-.36.23-0.74,0.38-1.09l0.44-1.07c0.34-.69.67-1.39,1.06-2s0.79-1.31,1.23-1.95,0.89-1.25,1.38-1.85,1-1.17,1.54-1.76l-0.25,1.16c-0.15-.42-0.29-0.84-0.43-1.26s-0.3-.84-0.41-1.27l-0.28-1.31a8,8,0,0,1-.2-1.33l-0.1-1.35c0-.45,0-0.91,0-1.36a7.2,7.2,0,0,1,.14-1.35c0.09-.45.13-0.9,0.26-1.34l0.4-1.3c0.17-.42.36-0.83,0.54-1.25a13.36,13.36,0,0,1,.67-1.18,10.69,10.69,0,0,1,.78-1.09c0.26-.36.59-0.67,0.88-1s0.64-.62,1-0.91a12.91,12.91,0,0,1,2.18-1.53l-0.07.69c-0.48-.53-1-1-1.46-1.56s-0.93-1.08-1.33-1.66-0.8-1.18-1.19-1.77-0.72-1.23-1-1.9a21.53,21.53,0,0,1-.83-2,19.21,19.21,0,0,1-.56-2.1,17.08,17.08,0,0,1-.32-2.16,16.24,16.24,0,0,1,0-2.19,20,20,0,0,1,.73-4.28,26.08,26.08,0,0,1,1.48-4,26.85,26.85,0,0,1,4.71-7.08Z" transform="translate(-1129.13 -1914.24)"/><path class="cls-18" d="M1211.23,2025.83a7.3,7.3,0,0,1,.29-2.54,8.22,8.22,0,0,1,.46-1.22,9,9,0,0,1,.66-1.15,7.16,7.16,0,0,1,.89-1,5.71,5.71,0,0,1,1.09-.85,5,5,0,0,1,1.29-.53,6.38,6.38,0,0,1,1.35-.2l-0.53.69a2.9,2.9,0,0,1,.21-0.91,5,5,0,0,1,.37-0.74,6.66,6.66,0,0,1,1-1.23,6.55,6.55,0,0,1,.55-0.53,5.4,5.4,0,0,1,.58-0.48c0.39-.32.81-0.6,1.24-0.88,0.21-.15.43-0.26,0.65-0.4s0.44-.27.67-0.38a15.22,15.22,0,0,1,1.39-.63c0.47-.17,1-0.34,1.45-0.47l1.47-.36-0.82.8c0-.31.11-0.55,0.17-0.81s0.14-.51.23-0.76a7.61,7.61,0,0,1,.67-1.46,5,5,0,0,1,.45-0.68,4.28,4.28,0,0,1,.54-0.64,3.9,3.9,0,0,1,.62-0.57,4.07,4.07,0,0,1,.71-0.48,4.24,4.24,0,0,1,.77-0.38c0.27-.08.54-0.18,0.82-0.24s0.56-.07.83-0.09a4.76,4.76,0,0,1,.82,0,2.83,2.83,0,0,1,.78.15l0.74,0.24a4.82,4.82,0,0,1,.68.34l0.65,0.38-0.07.19-0.73-.06c-0.24,0-.47-0.07-0.7-0.06l-0.68,0a2.85,2.85,0,0,0-.65.07,3.47,3.47,0,0,0-.62.13l-0.58.2c-0.18.09-.35,0.2-0.52,0.29a2.82,2.82,0,0,0-.48.34,2.48,2.48,0,0,0-.43.4,2.78,2.78,0,0,0-.39.45,7,7,0,0,0-.67,1,10.65,10.65,0,0,0-.56,1.15c-0.09.19-.16,0.4-0.24,0.6s-0.14.42-.18,0.58l-0.2.72-0.62.08-1.4.18c-0.47.06-.92,0.17-1.39,0.23s-0.92.18-1.39,0.26c-0.23,0-.45.12-0.68,0.18a5.51,5.51,0,0,0-.68.21,6.63,6.63,0,0,0-1.26.62,4.55,4.55,0,0,0-.56.42,3.08,3.08,0,0,0-.49.49,3,3,0,0,0-.39.56,3,3,0,0,0-.39,1.24,1.71,1.71,0,0,0,0,.54l0.16,0.34-0.69.35a9.25,9.25,0,0,0-1,.45c-0.15.1-.32,0.16-0.47,0.25s-0.29.2-.44,0.29a4.48,4.48,0,0,0-.42.31,3.51,3.51,0,0,0-.42.32,8.51,8.51,0,0,0-.77.76,9.59,9.59,0,0,0-.7.87,10.71,10.71,0,0,0-.65,1c-0.41.66-.8,1.36-1.18,2.1Z" transform="translate(-1129.13 -1914.24)"/><path class="cls-18" d="M1196.83,2016a8.69,8.69,0,0,1,0-2.24,11.46,11.46,0,0,1,.54-2.2l0.43-1.06,0.55-1c0.21-.32.42-0.65,0.65-1s0.5-.59.76-0.88a5.6,5.6,0,0,1,.84-0.8,7.32,7.32,0,0,1,.92-0.71l1-.59c0.35-.17.71-0.29,1.07-0.44a6.09,6.09,0,0,1,1.09-.34l1.1-.27a9.76,9.76,0,0,1,1.11-.16l1.1-.17-0.27.23c0.13-.3.25-0.58,0.39-0.86s0.29-.54.44-0.81c0.3-.54.65-1.05,1-1.56,0.19-.25.39-0.49,0.57-0.74s0.42-.47.63-0.71,0.46-.43.69-0.65a6.55,6.55,0,0,1,.75-0.6,5.24,5.24,0,0,1,.81-0.53,7.88,7.88,0,0,1,.87-0.45l0.92-.35a8.3,8.3,0,0,1,1-.24,5.47,5.47,0,0,1,1-.15l1-.07a6.88,6.88,0,0,1,1,0l1,0.06-1.06.55a15.68,15.68,0,0,1,1-1.77,18.55,18.55,0,0,1,1.17-1.63c0.42-.52.88-1,1.35-1.51,0.24-.24.51-0.46,0.76-0.69a9.82,9.82,0,0,1,.81-0.64,5.9,5.9,0,0,1,.86-0.57,8.71,8.71,0,0,1,.91-0.5l1-.4,1-.25a6,6,0,0,1,1-.09,3.66,3.66,0,0,1,.52,0l0.52,0.09a3.82,3.82,0,0,1,1,.24c0.32,0.12.62,0.26,0.92,0.39l-0.07.19c-0.33,0-.64,0-0.95-0.08a3.32,3.32,0,0,0-.92,0,3.49,3.49,0,0,0-.88.16,5.46,5.46,0,0,0-.84.27l-0.8.36-0.75.48a7.33,7.33,0,0,0-.71.54,7.23,7.23,0,0,0-.67.59,16,16,0,0,0-1.25,1.3c-0.4.46-.78,0.93-1.14,1.42s-0.73,1-1.06,1.5-0.69,1-1,1.53l-0.36.63-0.7-.09-0.83-.1a5.49,5.49,0,0,0-.83-0.08h-0.83a4.74,4.74,0,0,0-.82.07,6.64,6.64,0,0,0-.82.12l-0.81.19c-0.27.06-.52,0.18-0.79,0.27a4.25,4.25,0,0,0-.78.33,5.57,5.57,0,0,0-.75.4c-0.23.16-.49,0.3-0.71,0.48a9,9,0,0,0-1.29,1.17,9.43,9.43,0,0,0-1,1.43,6.65,6.65,0,0,0-.4.78,5.9,5.9,0,0,0-.31.8l0,0.16-0.23.06-1,.29a9,9,0,0,0-1,.35l-0.95.44a5.66,5.66,0,0,0-.9.51c-0.29.18-.59,0.35-0.87,0.54l-0.81.6a6.72,6.72,0,0,0-.78.63,7.54,7.54,0,0,0-.74.67c-0.23.24-.49,0.46-0.69,0.73s-0.43.52-.64,0.78c-0.39.55-.76,1.12-1.11,1.72l-0.48.92-0.42,1a18.71,18.71,0,0,0-.7,2h-0.2Z" transform="translate(-1129.13 -1914.24)"/><path class="cls-18" d="M1178.42,2004.61a14.69,14.69,0,0,1,.32-3.52c0.1-.59.29-1.15,0.43-1.73s0.41-1.12.61-1.68,0.51-1.08.78-1.62,0.63-1,1-1.54,0.76-.95,1.14-1.42a10.36,10.36,0,0,1,1.29-1.29c0.23-.2.45-0.41,0.69-0.6s0.5-.35.76-0.51a9.93,9.93,0,0,1,1.58-.91l1.67-.7c0.57-.2,1.16-0.32,1.73-0.47l0.86-.22c0.29-.06.59-0.08,0.88-0.11,0.59-.06,1.17-0.14,1.75-0.22s1.17,0,1.75-.08,1.17,0,1.75-.08l-0.3.24c0.09-.39.2-0.75,0.31-1.12s0.22-.74.36-1.1a21.92,21.92,0,0,1,.86-2.15,10.4,10.4,0,0,1,.53-1,10.92,10.92,0,0,1,.6-1c0.23-.32.42-0.67,0.68-1s0.51-.62.78-0.92l0.9-.82a9.76,9.76,0,0,1,1-.71,5.75,5.75,0,0,1,1.1-.58,5.26,5.26,0,0,1,1.17-.43c0.41-.1.81-0.21,1.22-0.29l1.25-.09a5.28,5.28,0,0,1,1.24,0l1.23,0.13-0.91.26c0.38-.36.72-0.65,1.09-0.95s0.75-.57,1.13-0.83,0.78-.52,1.17-0.77,0.82-.45,1.22-0.68,0.84-.4,1.26-0.61,0.86-.36,1.3-0.53a11.78,11.78,0,0,1,1.34-.43,13,13,0,0,1,1.36-.35c0.46-.09.92-0.18,1.38-0.24l1.4-.11a9.91,9.91,0,0,1,1.4,0,8.2,8.2,0,0,1,1.39.13l1.37,0.23c0.45,0.13.89,0.27,1.33,0.41a6.92,6.92,0,0,1,1.27.51c0.42,0.19.82,0.4,1.22,0.6l-0.08.18-1.3-.31a6.49,6.49,0,0,0-1.29-.25c-0.44-.05-0.87-0.1-1.3-0.17l-1.3,0a7.3,7.3,0,0,0-1.29.06c-0.43.05-.85,0.05-1.28,0.15l-1.26.23-1.23.34a11.37,11.37,0,0,0-1.21.41,10.18,10.18,0,0,0-1.19.48c-0.39.17-.79,0.33-1.17,0.53s-0.77.37-1.13,0.6c-0.74.43-1.48,0.87-2.18,1.35-0.36.24-.7,0.49-1,0.75s-0.69.52-1,.77l-0.39.34-0.52-.08-1-.15a4,4,0,0,0-1-.08l-1,0-1,.19a4.14,4.14,0,0,0-1,.3,4.31,4.31,0,0,0-.93.41c-0.29.18-.61,0.32-0.89,0.52l-0.84.63-0.79.72c-0.27.24-.48,0.53-0.73,0.8a8.38,8.38,0,0,0-.67.86,9.52,9.52,0,0,0-.6.92c-0.2.31-.38,0.63-0.55,1a9.19,9.19,0,0,0-.48,1,13,13,0,0,0-.72,2.1l-0.06.23h-0.25c-0.57,0-1.14.05-1.71,0.09a10.82,10.82,0,0,0-1.7.17c-0.56.12-1.11,0.25-1.66,0.39-0.27.08-.55,0.12-0.81,0.22l-0.78.32c-0.51.22-1,.4-1.54,0.65l-1.43.84a10.83,10.83,0,0,0-1.35.94c-0.22.17-.44,0.31-0.67,0.47s-0.4.37-.6,0.55a12.57,12.57,0,0,0-1.18,1.12c-0.35.42-.75,0.8-1.07,1.24s-0.66.88-1,1.34l-0.85,1.43c-0.25.5-.52,1-0.75,1.5s-0.48,1-.65,1.56-0.4,1.06-.57,1.61-0.33,1.09-.47,1.66Z" transform="translate(-1129.13 -1914.24)"/><path class="cls-18" d="M1158.07,1993.72a22.29,22.29,0,0,1,.37-5.07c0.2-.83.35-1.67,0.61-2.49s0.49-1.64.84-2.42a21.64,21.64,0,0,1,1.07-2.34,20.81,20.81,0,0,1,1.27-2.24c0.49-.71.95-1.44,1.47-2.12s1.12-1.31,1.68-2,1.25-1.18,1.87-1.77c0.32-.29.63-0.58,1-0.85l1.06-.74c0.71-.48,1.39-1,2.12-1.44l2.24-1.22c0.37-.2.74-0.42,1.12-0.6l1.16-.51c0.77-.34,1.55-0.68,2.31-1s1.58-.57,2.37-0.88l2.37-.89-0.17.12a30.65,30.65,0,0,1,3.29-3.61c0.59-.56,1.22-1.09,1.87-1.59,0.33-.24.65-0.51,1-0.73l1-.68c0.36-.21.73-0.4,1.1-0.6a11,11,0,0,1,1.14-.52,8.51,8.51,0,0,1,1.19-.44c0.41-.12.81-0.26,1.22-0.36l1.27-.22a9.11,9.11,0,0,1,1.29-.08,6.34,6.34,0,0,1,1.29,0l1.29,0.14-0.8.19a19.73,19.73,0,0,1,1.77-1.21c0.59-.38,1.21-0.7,1.82-1s1.25-.61,1.89-0.88,1.29-.53,2-0.74,1.32-.44,2-0.6l2-.45,2.06-.3c0.69-.08,1.39-0.08,2.08-0.13a16.31,16.31,0,0,1,2.08,0,18.29,18.29,0,0,1,2.07.16l2,0.3c0.68,0.12,1.34.33,2,.49a15.24,15.24,0,0,1,2,.59c0.64,0.24,1.28.47,1.92,0.73a17.19,17.19,0,0,1,1.84.88c0.61,0.31,1.2.63,1.8,0.95l-0.09.18-1.91-.64a16.72,16.72,0,0,0-1.91-.6c-0.65-.15-1.29-0.32-1.93-0.49a14.53,14.53,0,0,0-1.95-.37c-0.65-.09-1.3-0.23-2-0.27l-2-.13a16.92,16.92,0,0,0-2,0,14.87,14.87,0,0,0-2,.1c-0.65.08-1.3,0.11-1.94,0.22l-1.92.34-1.89.48c-0.63.17-1.23,0.4-1.86,0.58s-1.21.46-1.82,0.68-1.19.53-1.78,0.79-1.16.57-1.72,0.9a18.31,18.31,0,0,0-1.6,1l-0.36.25-0.44-.06-1.09-.16a5,5,0,0,0-1.1-.07,7.48,7.48,0,0,0-1.11,0l-1.11.14c-0.37.06-.73,0.17-1.1,0.25a7.31,7.31,0,0,0-1.08.33,9.69,9.69,0,0,0-1.07.41l-1,.48-1,.55c-0.34.18-.66,0.4-1,0.6a20.14,20.14,0,0,0-1.92,1.36c-0.62.48-1.22,1-1.79,1.54a17.78,17.78,0,0,0-1.63,1.71l-0.07.08-0.1,0-2.36.81c-0.78.28-1.58,0.53-2.33,0.88s-1.49.74-2.22,1.12l-1.1.58c-0.35.21-.69,0.46-1,0.69l-2,1.4c-0.66.49-1.26,1.06-1.89,1.58l-0.93.79-0.86.87c-0.56.59-1.17,1.14-1.71,1.74s-1,1.25-1.58,1.85-1,1.31-1.43,2a8.82,8.82,0,0,0-.66,1l-0.63,1c-0.45.68-.76,1.44-1.14,2.16s-0.66,1.49-1,2.24-0.56,1.54-.84,2.32-0.49,1.58-.66,2.39-0.34,1.62-.46,2.45h-0.2Z" transform="translate(-1129.13 -1914.24)"/><path class="cls-18" d="M1173.48,2066.27a10.65,10.65,0,0,0-.49,2.22,9.25,9.25,0,0,0-.07,1.07c0,0.35,0,.71,0,1.06s0.08,0.7.15,1,0.11,0.7.17,1.06,0.14,0.72.2,1.1,0.19,0.73.31,1.1l0.11,0.36-0.13.09a1,1,0,0,0-.2.35,2.37,2.37,0,0,0-.12.47,3,3,0,0,0,0,1,4.17,4.17,0,0,0,.3,1,6.23,6.23,0,0,0,.51.91c0.19,0.29.41,0.56,0.61,0.84s0.43,0.54.67,0.8c0.44,0.53.89,1.06,1.36,1.57l0.18,0.2,0,0.65c0,0.07,0,.28,0,0.43a4.84,4.84,0,0,0,0,.51,10.4,10.4,0,0,0,.17,1c0.08,0.35.16,0.7,0.27,1a4.32,4.32,0,0,0,.17.52c0.06,0.17.11,0.35,0.19,0.52,0.15,0.34.3,0.69,0.47,1s0.37,0.68.55,1,0.42,0.68.62,1,0.45,0.68.67,1.06l-0.13.15a12.79,12.79,0,0,1-1.12-.63,12.59,12.59,0,0,1-1-.79,8.82,8.82,0,0,1-.91-0.94,7.69,7.69,0,0,1-.79-1.07c-0.13-.18-0.23-0.39-0.34-0.58a5.06,5.06,0,0,1-.29-0.61,7,7,0,0,1-.43-1.31,6.36,6.36,0,0,1-.17-1.39,6.79,6.79,0,0,1,0-.72,4.87,4.87,0,0,1,.12-0.79l0.2,0.85-0.64-.93c-0.21-.31-0.39-0.65-0.58-1a12,12,0,0,1-.84-2.12c-0.1-.37-0.21-0.73-0.28-1.11a10.57,10.57,0,0,1-.2-1.12c0-.19,0-0.38-0.05-0.57s0-.39,0-0.58,0-.39,0-0.6a2.55,2.55,0,0,1,.18-0.65l0,0.45c-0.23-.34-0.48-0.67-0.72-1a9,9,0,0,1-.6-1.12l-0.22-.6a4.42,4.42,0,0,1-.15-0.63,7.44,7.44,0,0,1-.1-1.29,6.75,6.75,0,0,1,.15-1.3,5.69,5.69,0,0,1,.39-1.23,5.51,5.51,0,0,1,.65-1.11,3.94,3.94,0,0,1,.91-0.89Z" transform="translate(-1129.13 -1914.24)"/><path class="cls-18" d="M1161.2,2059.6a6.94,6.94,0,0,0-.61.76c-0.18.27-.36,0.53-0.51,0.82s-0.29.56-.43,0.85-0.23.59-.36,0.87a14.56,14.56,0,0,0-.52,1.8c-0.09.3-.11,0.62-0.17,0.92a9.32,9.32,0,0,0-.12.93c0,0.31-.07.62-0.08,0.94s0,0.63,0,.94a7.78,7.78,0,0,0,0,.95c0,0.32,0,.64,0,1,0,0.64.05,1.28,0.07,1.93l0.18,1.95,0,0.23-0.07.11a4.53,4.53,0,0,0-.41.8,7.27,7.27,0,0,0-.28.9,6.06,6.06,0,0,0-.14.94,5,5,0,0,0,0,1,7.43,7.43,0,0,0,.32,1.88,4.85,4.85,0,0,0,.33.9,6.83,6.83,0,0,0,.4.86l0.47,0.82,0.56,0.77c0.34,0.52.81,1,1.2,1.46,0.2,0.24.44,0.45,0.65,0.68l0.66,0.68,1.43,1.25,0.4,0.35-0.09.63a7,7,0,0,0-.07.88c0,0.31,0,.63,0,0.94s0,0.63.1,0.93a7.52,7.52,0,0,0,.19.92,8.59,8.59,0,0,0,.26.9,5.92,5.92,0,0,0,.35.87c0.15,0.28.26,0.57,0.43,0.84l0.5,0.81,0.6,0.75a6,6,0,0,0,.66.71,7.31,7.31,0,0,0,.72.68l0.78,0.63a8.53,8.53,0,0,0,.83.58l0.85,0.58c0.6,0.34,1.22.66,1.82,1l-0.06.19c-0.7-.13-1.39-0.31-2.09-0.49-0.34-.12-0.68-0.25-1-0.38a6.74,6.74,0,0,1-1-.43l-1-.53a6.5,6.5,0,0,1-.92-0.63,7.45,7.45,0,0,1-.88-0.71l-0.8-.81-0.7-.91a7.79,7.79,0,0,1-.6-1,7.88,7.88,0,0,1-.49-1.05,6.56,6.56,0,0,1-.37-1.1,9.62,9.62,0,0,1-.23-1.14,11.27,11.27,0,0,1-.1-1.15c0-.39,0-0.77.05-1.16a8.3,8.3,0,0,1,.19-1.2l0.31,1-1.45-1.46-0.66-.8c-0.21-.27-0.44-0.52-0.64-0.81l-0.56-.88a5.72,5.72,0,0,1-.5-0.91l-0.45-.93-0.36-1a7.72,7.72,0,0,1-.29-1,15.67,15.67,0,0,1-.36-2,8.74,8.74,0,0,1-.07-1c0-.34,0-0.68,0-1a10.1,10.1,0,0,1,.1-1,8.1,8.1,0,0,1,.19-1,6.33,6.33,0,0,1,.31-1l0,0.34-0.58-2c-0.16-.66-0.3-1.34-0.4-2a15.47,15.47,0,0,1-.11-2.07,14.08,14.08,0,0,1,.2-2.08,5.75,5.75,0,0,1,.21-1c0.1-.34.16-0.68,0.29-1a11.42,11.42,0,0,1,.87-1.92c0.19-.3.37-0.6,0.59-0.88a6.6,6.6,0,0,1,.68-0.8,5.72,5.72,0,0,1,1.66-1.24Z" transform="translate(-1129.13 -1914.24)"/><path class="cls-18" d="M1156.22,2122.69a9.74,9.74,0,0,1-2.89-1.43,11.76,11.76,0,0,1-1.29-1c-0.41-.35-0.78-0.75-1.18-1.13l-1.05-1.24c-0.32-.43-0.64-0.88-0.94-1.33s-0.55-.93-0.83-1.4a11.3,11.3,0,0,1-.73-1.45c-0.21-.5-0.46-1-0.65-1.49l-0.55-1.52c-0.34-1-.57-2.08-0.81-3.12s-0.31-2.12-.43-3.18l-0.19-3.19,0.23,0.39a5.42,5.42,0,0,1-1.19-1.53,11,11,0,0,1-.78-1.64l-0.32-.84-0.26-.86c-0.19-.57-0.28-1.15-0.43-1.73s-0.2-1.17-.32-1.75-0.17-1.17-.23-1.76-0.16-1.18-.19-1.77l-0.12-1.77,0-1.77c0-.59,0-1.19,0-1.78,0.07-1.18.07-2.37,0.22-3.54s0.25-2.35.44-3.52l0.57-3.5,0.06,0.6c-0.23-.56-0.4-1.06-0.57-1.59s-0.3-1.05-.43-1.59a26.08,26.08,0,0,1-.56-3.22l-0.12-1.63c0-.54,0-1.09,0-1.64s0.06-1.09.09-1.64a13.93,13.93,0,0,1,.19-1.63,13.72,13.72,0,0,1,.29-1.61l0.4-1.58c0.17-.52.37-1,0.55-1.54a11,11,0,0,1,.65-1.49c0.24-.48.45-1,0.73-1.45s0.57-.91.87-1.36a10.38,10.38,0,0,1,1-1.28l1-1.22,0.16,0.12-0.77,1.38a9.9,9.9,0,0,0-.72,1.38c-0.21.48-.42,1-0.64,1.42s-0.35,1-.52,1.45a10.16,10.16,0,0,0-.44,1.47l-0.36,1.49-0.24,1.51c-0.1.5-.1,1-0.15,1.52a12.53,12.53,0,0,0-.08,1.52c0,0.51,0,1,0,1.52s0,1,.08,1.52l0.17,1.51c0.16,1,.31,2,0.54,3q0.17,0.74.38,1.47c0.13,0.48.29,1,.44,1.41l0.12,0.32-0.06.28-0.7,3.4c-0.24,1.13-.37,2.28-0.58,3.42s-0.31,2.29-.49,3.43c-0.1.57-.13,1.15-0.19,1.72l-0.16,1.73-0.05,1.73c0,0.58,0,1.16,0,1.73s0,1.16.13,1.73a16.88,16.88,0,0,0,.27,1.71,12.56,12.56,0,0,0,.43,1.67l0.27,0.82,0.34,0.78a7,7,0,0,0,.39.75,4.69,4.69,0,0,0,.45.71,4.78,4.78,0,0,0,1.08,1.12l0.18,0.12,0,0.26,0.54,3.07,0.36,1.51,0.35,1.5c0.15,0.49.29,1,.42,1.48a14.49,14.49,0,0,0,.44,1.47l0.48,1.46c0.16,0.49.38,0.94,0.57,1.42a14.81,14.81,0,0,0,.62,1.39c0.23,0.45.43,0.92,0.69,1.36l0.77,1.31,0.87,1.25c0.32,0.39.62,0.81,1,1.19s0.68,0.76,1.06,1.11a12.2,12.2,0,0,0,1.16,1,10.81,10.81,0,0,0,1.29.85Z" transform="translate(-1129.13 -1914.24)"/><path class="cls-18" d="M1133.23,1984a51.58,51.58,0,0,1,1-6.8,61.22,61.22,0,0,1,1.87-6.64c0.37-1.09.79-2.17,1.22-3.24s0.9-2.13,1.41-3.16,1-2.07,1.62-3.07,1.19-2,1.83-3,1.33-1.9,2.09-2.79q0.54-.68,1.14-1.32c0.39-.43.77-0.87,1.2-1.27l1.26-1.21,1.32-1.14c0.43-.39.91-0.72,1.37-1.07s0.92-.71,1.42-1l1.46-.94,1.52-.84c0.5-.29,1-0.52,1.55-0.78s1-.52,1.57-0.71l1.6-.65c0.54-.2,1.09-0.36,1.64-0.54,1.08-.39,2.22-0.6,3.33-0.9l-0.23.18a16.22,16.22,0,0,1,1-1.85c0.36-.6.79-1.15,1.2-1.72s0.86-1.11,1.37-1.59a17.05,17.05,0,0,1,1.51-1.47,23.77,23.77,0,0,1,3.4-2.5,17,17,0,0,1,1.86-1c0.65-.29,1.29-0.59,1.95-0.86l2-.63a15.73,15.73,0,0,1,2.07-.47,16.69,16.69,0,0,1,2.1-.34l2.12-.16a15.78,15.78,0,0,1,2.12,0l2.12,0.07c0.7,0.06,1.4.17,2.09,0.26l2.09,0.28-0.94.31a18.91,18.91,0,0,1,2.11-1.88A25.27,25.27,0,0,1,1197,1928c0.8-.45,1.57-1,2.41-1.33l1.24-.6c0.42-.19.85-0.33,1.28-0.5l1.28-.49,1.32-.38,1.32-.37c0.44-.12.9-0.18,1.34-0.27a21.64,21.64,0,0,1,2.7-.41c0.91-.07,1.81-0.16,2.72-0.2l2.72,0.06a22,22,0,0,1,2.7.26,20.9,20.9,0,0,1,2.67.42l2.62,0.63a20.91,20.91,0,0,1,2.57.79q1.27,0.43,2.53.89c0.82,0.34,1.62.74,2.43,1.11l2.41,1.14-0.08.18-2.51-.86c-0.84-.28-1.66-0.6-2.5-0.85s-1.71-.43-2.55-0.65a20.09,20.09,0,0,0-2.55-.58l-2.58-.42-0.64-.1-0.65,0-1.3-.09a20.63,20.63,0,0,0-2.59-.12l-2.59.06c-0.86.07-1.71,0.2-2.56,0.29a22.78,22.78,0,0,0-2.53.47c-0.42.09-.84,0.16-1.25,0.28l-1.23.38-1.23.38-1.19.48a24,24,0,0,0-2.33,1c-0.78.34-1.5,0.81-2.24,1.23s-1.43.92-2.1,1.44a17.33,17.33,0,0,0-1.89,1.59l-0.41.39-0.53-.08-2-.31c-0.66-.1-1.33-0.22-2-0.3l-2-.11a14.54,14.54,0,0,0-2,0l-2,.09a15.2,15.2,0,0,0-2,.23,14.33,14.33,0,0,0-2,.35l-1.93.51-1.88.69a15.73,15.73,0,0,0-1.82.84,13.55,13.55,0,0,0-1.74,1,13.88,13.88,0,0,0-1.64,1.17,16.14,16.14,0,0,0-1.53,1.32c-0.51.44-.93,1-1.4,1.46s-0.85,1.05-1.22,1.62a12.14,12.14,0,0,0-1,1.73l-0.07.15-0.15,0-1.65.4-0.82.2-0.8.27c-0.53.19-1.07,0.35-1.6,0.55l-1.55.67c-0.52.21-1,.5-1.51,0.76a14.72,14.72,0,0,0-1.46.84l-1.41.92-1.35,1c-0.46.33-.87,0.71-1.3,1.07s-0.86.72-1.25,1.13l-1.19,1.18-1.13,1.24c-0.38.4-.71,0.86-1.08,1.28s-0.71.86-1,1.31c-0.68.88-1.32,1.8-2,2.71s-1.23,1.87-1.79,2.84-1.11,1.95-1.63,2.94-1,2-1.48,3-0.9,2.06-1.33,3.11c-0.84,2.09-1.6,4.22-2.27,6.39s-1.28,4.35-1.78,6.58Z" transform="translate(-1129.13 -1914.24)"/><rect class="cls-19" x="0.08" y="0.05" width="12.39" height="231.26"/><rect class="cls-19" x="12.47" y="206.57" width="287.51" height="12.39"/><rect class="cls-19" x="299.98" y="0.05" width="12.39" height="231.26"/><rect class="cls-3" x="12.47" y="218.96" width="287.51" height="12.36"/><path class="cls-20" d="M1429.11,1914.3s0.33,1.21.83,3.34,1.19,5.18,1.91,8.87,1.56,8,2.33,12.61,1.58,9.57,2.35,14.51,1.42,9.91,2,14.55,1.12,9,1.59,12.72,0.75,6.84,1,9l0.35,3.42-0.54-3.4-1.36-9-1.89-12.67c-0.66-4.64-1.41-9.58-2.17-14.53s-1.47-9.89-2.21-14.52-1.4-9-2-12.65-1.14-6.78-1.54-8.93Z" transform="translate(-1129.13 -1914.24)"/><path class="cls-20" d="M1429.18,1959.5l0.71,14.67,0.78,15c0.29,5.5.64,11.36,1.07,17.21s0.84,11.71,1.4,17.18,1.14,10.57,1.95,14.89a52.64,52.64,0,0,0,1.36,5.82,14.9,14.9,0,0,0,.92,2.3,3,3,0,0,0,1.35,1.47,1.46,1.46,0,0,0,1.46-.47,6.31,6.31,0,0,0,.8-1l0.55-.9-0.5.93a6.42,6.42,0,0,1-.76,1,1.59,1.59,0,0,1-1.6.56,3.22,3.22,0,0,1-1.53-1.52,15.23,15.23,0,0,1-1-2.31,44.41,44.41,0,0,1-1.56-5.83c-0.89-4.33-1.66-9.43-2.26-14.91s-1.1-11.34-1.53-17.2-0.69-11.74-.93-17.24-0.36-10.65-.48-15.05-0.12-8.08-.15-10.65S1429.18,1959.5,1429.18,1959.5Z" transform="translate(-1129.13 -1914.24)"/><path class="cls-20" d="M1429.11,1940.5l0.11,3.28c0.06,2.09.21,5.06,0.37,8.64s0.43,7.74.73,12.19,0.7,9.2,1.24,13.94c0.24,2.37.53,4.73,0.83,7.05s0.67,4.6,1.06,6.79,0.8,4.31,1.26,6.3,0.94,3.86,1.47,5.56c0.27,0.85.52,1.66,0.81,2.42s0.53,1.49.84,2.15a25,25,0,0,0,1.69,3.34l0.77,1.16c0.23,0.33.48,0.57,0.65,0.79l0.56,0.65-0.6-.62c-0.19-.21-0.45-0.44-0.7-0.76l-0.83-1.12a25.25,25.25,0,0,1-1.87-3.29c-0.34-.65-0.63-1.37-0.95-2.13s-0.6-1.57-.9-2.42c-0.59-1.7-1.13-3.57-1.65-5.56s-1-4.11-1.4-6.31-0.79-4.49-1.13-6.82-0.64-4.7-.9-7.08c-0.49-4.75-.85-9.52-1.11-14s-0.35-8.65-.42-12.23,0-6.56,0-8.65S1429.11,1940.5,1429.11,1940.5Z" transform="translate(-1129.13 -1914.24)"/><path class="cls-20" d="M1429.18,2069.72l0.62,12.21c0.19,3.66.48,7.93,0.78,12.5s0.69,9.44,1.18,14.3,1,9.72,1.67,14.24a115.33,115.33,0,0,0,2.37,12.26,27.76,27.76,0,0,0,3.23,8.15,6.32,6.32,0,0,0,1.69,1.76,4.49,4.49,0,0,0,.77.41,4.53,4.53,0,0,1-.8-0.36,6.12,6.12,0,0,1-1.82-1.7,26.53,26.53,0,0,1-3.61-8.11,100.25,100.25,0,0,1-2.69-12.28c-0.72-4.54-1.32-9.4-1.81-14.28s-0.79-9.76-1-14.34-0.37-8.86-.48-12.53-0.09-6.73-.1-8.87S1429.18,2069.72,1429.18,2069.72Z" transform="translate(-1129.13 -1914.24)"/><path class="cls-20" d="M1433,2099.5a35.8,35.8,0,0,0,1.59,3.36,19.27,19.27,0,0,0,1,1.68,4.69,4.69,0,0,0,1.52,1.58,0.64,0.64,0,0,0,.87-0.27,3.65,3.65,0,0,0,.48-1.16,17.59,17.59,0,0,0,.41-2.83,30.27,30.27,0,0,0,.08-3.14c0-1.09,0-2.23-.16-3.37s-0.2-2.32-.4-3.53-0.33-2.43-.56-3.68c-0.4-2.5-.92-5.06-1.46-7.67l-1.7-7.89c-1.12-5.3-2.22-10.6-3.09-15.61-0.48-2.5-.79-4.94-1.13-7.24s-0.59-4.5-.74-6.53l-0.26-2.91c-0.07-.92-0.09-1.8-0.14-2.63-0.08-1.65-.16-3.09-0.14-4.27,0-2.37,0-3.72,0-3.72l0.19,3.72c0,1.18.17,2.61,0.32,4.26s0.34,3.49.58,5.5,0.58,4.18.9,6.48,0.79,4.7,1.26,7.19c0.91,5,2.05,10.27,3.21,15.56l1.64,7.92c0.52,2.62,1,5.2,1.4,7.71,0.22,1.25.38,2.5,0.51,3.72s0.23,2.42.31,3.6,0.06,2.3.07,3.4a30.87,30.87,0,0,1-.17,3.19,16.74,16.74,0,0,1-.51,2.91,4,4,0,0,1-.61,1.29,1.29,1.29,0,0,1-.62.45,1.1,1.1,0,0,1-.74-0.1,3,3,0,0,1-.95-0.84,8.51,8.51,0,0,1-.65-0.93,19.37,19.37,0,0,1-.94-1.74c-0.52-1.07-.85-1.94-1.08-2.53Z" transform="translate(-1129.13 -1914.24)"/><path class="cls-20" d="M1141.61,2145.56s-0.33-1.21-.83-3.34-1.19-5.18-1.91-8.87-1.56-8-2.33-12.61-1.58-9.57-2.35-14.51-1.42-9.9-2-14.55-1.12-9-1.59-12.72-0.75-6.84-1-9l-0.35-3.42,0.54,3.4,1.36,9,1.89,12.67c0.67,4.64,1.41,9.58,2.17,14.53s1.47,9.89,2.21,14.52,1.4,9,2,12.65,1.14,6.78,1.54,8.93Z" transform="translate(-1129.13 -1914.24)"/><path class="cls-20" d="M1141.54,2100.36l-0.71-14.67-0.78-15c-0.29-5.5-.64-11.36-1.07-17.21s-0.84-11.71-1.4-17.18-1.14-10.57-1.95-14.89a52.87,52.87,0,0,0-1.36-5.82,14.94,14.94,0,0,0-.92-2.3,3,3,0,0,0-1.35-1.47,1.46,1.46,0,0,0-1.46.47,6.36,6.36,0,0,0-.8,1l-0.55.9,0.5-.93a6.39,6.39,0,0,1,.76-1,1.59,1.59,0,0,1,1.6-.56,3.23,3.23,0,0,1,1.53,1.52,15.19,15.19,0,0,1,1,2.32,44.33,44.33,0,0,1,1.56,5.83c0.89,4.33,1.66,9.43,2.26,14.91s1.1,11.34,1.53,17.2,0.69,11.74.93,17.24,0.36,10.65.48,15.05,0.12,8.08.15,10.65S1141.54,2100.36,1141.54,2100.36Z" transform="translate(-1129.13 -1914.24)"/><path class="cls-20" d="M1129.22,2045.11l0.6,0.62c0.19,0.21.45,0.43,0.7,0.75l0.84,1.13a25.23,25.23,0,0,1,1.87,3.29c0.34,0.65.63,1.37,0.95,2.13s0.6,1.57.9,2.42c0.59,1.7,1.13,3.57,1.65,5.56s1,4.11,1.4,6.31,0.79,4.49,1.13,6.82,0.64,4.7.91,7.08c0.49,4.75.85,9.52,1.11,14s0.35,8.65.42,12.23,0,6.56,0,8.65-0.08,3.28-.08,3.28l-0.11-3.28c-0.06-2.09-.21-5.06-0.37-8.64s-0.43-7.74-.73-12.19-0.7-9.2-1.24-13.94c-0.24-2.37-.53-4.73-0.83-7.05s-0.67-4.6-1.06-6.79-0.8-4.31-1.26-6.3-0.94-3.86-1.48-5.56c-0.27-.85-0.52-1.66-0.81-2.42s-0.53-1.49-.84-2.15a25,25,0,0,0-1.69-3.33l-0.76-1.15c-0.23-.33-0.48-0.58-0.65-0.8Z" transform="translate(-1129.13 -1914.24)"/><path class="cls-20" d="M1141.54,1990.13l-0.62-12.21c-0.19-3.66-.48-7.93-0.78-12.5s-0.69-9.44-1.18-14.3-1-9.72-1.67-14.24a115.2,115.2,0,0,0-2.37-12.26,27.76,27.76,0,0,0-3.23-8.15,6.34,6.34,0,0,0-1.69-1.77,4.58,4.58,0,0,0-.77-0.41,4.63,4.63,0,0,1,.8.36,6.13,6.13,0,0,1,1.82,1.7,26.54,26.54,0,0,1,3.61,8.11,100.35,100.35,0,0,1,2.69,12.28c0.72,4.54,1.32,9.4,1.81,14.28s0.79,9.76,1,14.34,0.37,8.86.48,12.53,0.09,6.73.1,8.87S1141.54,1990.13,1141.54,1990.13Z" transform="translate(-1129.13 -1914.24)"/><path class="cls-20" d="M1137.72,1960.36a35.67,35.67,0,0,0-1.59-3.36,19.14,19.14,0,0,0-1-1.68,4.7,4.7,0,0,0-1.52-1.58,0.64,0.64,0,0,0-.87.27,3.64,3.64,0,0,0-.48,1.16,17.64,17.64,0,0,0-.41,2.83,30.4,30.4,0,0,0-.08,3.13c0,1.09,0,2.23.16,3.37s0.2,2.32.4,3.53,0.33,2.43.56,3.68c0.4,2.5.92,5.06,1.46,7.67l1.7,7.89c1.12,5.3,2.22,10.6,3.09,15.61,0.48,2.5.79,4.94,1.13,7.24s0.59,4.5.74,6.53l0.26,2.91c0.07,0.92.09,1.8,0.14,2.63,0.08,1.65.16,3.09,0.14,4.27,0,2.37,0,3.72,0,3.72l-0.19-3.72c0-1.18-.17-2.61-0.32-4.25s-0.34-3.49-.58-5.5-0.58-4.18-.9-6.48-0.79-4.71-1.27-7.19c-0.91-5-2.05-10.27-3.21-15.56l-1.64-7.92c-0.52-2.62-1-5.2-1.4-7.71-0.22-1.25-.38-2.5-0.51-3.72s-0.23-2.42-.31-3.6-0.06-2.3-.07-3.4a31,31,0,0,1,.17-3.19,16.63,16.63,0,0,1,.51-2.91,4,4,0,0,1,.61-1.29,1.29,1.29,0,0,1,.62-0.45,1.09,1.09,0,0,1,.74.1,3,3,0,0,1,.95.84,8.5,8.5,0,0,1,.65.93,19.39,19.39,0,0,1,.94,1.74c0.52,1.07.85,1.94,1.08,2.53Z" transform="translate(-1129.13 -1914.24)"/><path class="cls-20" d="M1141.61,2124.91l5,0.64c3.2,0.41,7.77.94,13.26,1.58s11.9,1.29,18.77,2,14.21,1.26,21.56,1.68,14.7,0.75,21.6.71a126.19,126.19,0,0,0,18.77-1.22,40.86,40.86,0,0,0,7.27-1.79,11.83,11.83,0,0,0,4.85-3,4.88,4.88,0,0,0,1.34-3.35,4.56,4.56,0,0,0-.07-1l0-.34,0.05,0.33a4.64,4.64,0,0,1,.11,1,4.92,4.92,0,0,1-1.25,3.48,12.09,12.09,0,0,1-4.86,3.2,37.64,37.64,0,0,1-7.31,2,118,118,0,0,1-18.86,1.53c-6.92.08-14.3-.15-21.67-0.58s-14.71-1.11-21.59-1.82-13.28-1.53-18.76-2.26-10-1.45-13.22-1.94Z" transform="translate(-1129.13 -1914.24)"/><path class="cls-20" d="M1163,2120.67l3.72,0.75c2.37,0.48,5.76,1.09,9.84,1.81s8.85,1.46,14,2.19,10.59,1.38,16.08,1.81a158,158,0,0,0,16.15.66,77,77,0,0,0,14-1.3,37.72,37.72,0,0,0,5.4-1.51,20.94,20.94,0,0,0,3.89-1.89c0.52-.3.94-0.65,1.32-0.91s0.67-.55.91-0.77l0.7-.7-0.67.74a13.93,13.93,0,0,1-2.16,1.8,27,27,0,0,1-9.28,3.78,71.9,71.9,0,0,1-14.1,1.62,158.1,158.1,0,0,1-16.25-.53c-5.51-.48-11-1.18-16.13-1.95s-9.88-1.69-13.94-2.5-7.42-1.62-9.78-2.17S1163,2120.67,1163,2120.67Z" transform="translate(-1129.13 -1914.24)"/><path class="cls-20" d="M1256,2133.2l3.92-.88c2.5-.54,6.07-1.32,10.38-2.17l7-1.34c2.47-.45,5.07-1,7.78-1.41,5.4-.93,11.18-1.88,17-2.74,2.89-.43,5.8-0.79,8.65-1.18s5.67-.68,8.4-1,5.37-.53,7.87-0.77,4.88-.36,7.07-0.53,4.2-.2,6-0.28,3.34-.09,4.62-0.09h4l-4,.18c-1.28,0-2.83.11-4.6,0.26s-3.78.26-6,.47-4.54.41-7,.69l-7.84.91c-2.72.35-5.53,0.67-8.37,1.08s-5.74.79-8.63,1.24c-5.78.81-11.56,1.72-17,2.61s-10.45,1.7-14.77,2.45Z" transform="translate(-1129.13 -1914.24)"/><path class="cls-20" d="M1278.57,2133.2l4-.84c2.57-.5,6.25-1.25,10.68-2s9.6-1.7,15.15-2.57,11.49-1.74,17.43-2.56,11.9-1.5,17.5-2.09c2.79-.31,5.5-0.58,8.07-0.8s5-.46,7.24-0.62c4.48-.36,8.23-0.56,10.85-0.69l4.12-.2-4.1.39-4.71.43-6.1.63c-2.24.21-4.65,0.5-7.21,0.78l-8,.93c-5.58.64-11.52,1.41-17.46,2.22s-11.88,1.6-17.43,2.42-10.75,1.56-15.19,2.27Z" transform="translate(-1129.13 -1914.24)"/><path class="cls-20" d="M1322,2133.2s1.67-.43,4.62-1.11,7.16-1.63,12.24-2.62,11-2.1,17.44-3.06,13.27-1.84,20.15-2.48,13.81-.93,20.3-0.85a89.62,89.62,0,0,1,17.64,1.78,37.79,37.79,0,0,1,6.78,2.11,21.7,21.7,0,0,1,4.75,2.71,13.7,13.7,0,0,1,2.49,2.48l0.69,1-0.74-1a14.37,14.37,0,0,0-2.56-2.36,21.38,21.38,0,0,0-4.77-2.52,41.65,41.65,0,0,0-6.75-1.91,94.74,94.74,0,0,0-17.54-1.46c-6.45,0-13.34.34-20.2,1s-13.72,1.42-20.12,2.34-12.37,1.85-17.46,2.75-9.34,1.67-12.31,2.25Z" transform="translate(-1129.13 -1914.24)"/><path class="cls-20" d="M1338.13,2133.2s1.13-.33,3.12-0.83,4.85-1.21,8.31-1.93,7.5-1.52,11.86-2.18,9-1.26,13.74-1.66c2.35-.18,4.71-0.3,7-0.37s4.61-.07,6.82,0c1.11,0,2.19.07,3.26,0.19s2.1,0.19,3.11.33,2,0.28,2.92.46,1.84,0.38,2.71.58a27.57,27.57,0,0,1,4.59,1.53,14.73,14.73,0,0,1,1.81.89l0.79,0.42,0.67,0.47c0.42,0.3.81,0.55,1.12,0.81l0.74,0.7,0.61,0.58-0.65-.54-0.78-.65c-0.32-.23-0.72-0.46-1.15-0.74l-0.68-.43-0.8-.38a14.41,14.41,0,0,0-1.83-.79,32.34,32.34,0,0,0-4.58-1.33c-0.86-.18-1.75-0.38-2.68-0.5s-1.9-.29-2.9-0.37-2-.19-3.08-0.24-2.13-.11-3.23-0.14c-2.19-.07-4.46,0-6.76,0s-4.64.24-7,.43c-4.67.35-9.34,0.9-13.69,1.52s-8.42,1.25-11.88,1.88-6.36,1.15-8.37,1.57Z" transform="translate(-1129.13 -1914.24)"/></svg>