<svg id="Camada_1" data-name="Camada 1" xmlns="http://www.w3.org/2000/svg" viewBox="0 0 310.97 212.76"><defs><style>.cls-1{fill:#23879a;}.cls-2{fill:#2d3036;}.cls-3{fill:#fff;}.cls-4{fill:#000100;opacity:0.2;}</style></defs><title>07 HQ</title><rect class="cls-1" width="310.97" height="212.76"/><rect class="cls-2" x="9.36" y="26.22" width="292.25" height="157.88"/><rect class="cls-3" x="21.32" y="33.93" width="268.32" height="142.44"/><path class="cls-1" d="M599.92,2332.85h-6.78c-5.62,0-6,5.43-6,5.43l-0.1,37.59,5.91-.1v-15.69h6.49v15.6h5.81v-37.2C605.25,2333,599.92,2332.85,599.92,2332.85Zm-0.42,7.56v14.4h-6.59v-14.76a1.81,1.81,0,0,1,1.58-2h3.07C599.6,2338.09,599.5,2340.41,599.5,2340.41Z" transform="translate(-466.64 -2242.15)"/><path class="cls-1" d="M685.95,2332.85h-6.78c-5.62,0-6,5.43-6,5.43l-0.1,37.59,5.91-.1v-15.69h6.49v15.6h5.81v-37.2C691.28,2333,685.95,2332.85,685.95,2332.85Zm-0.42,7.56v14.4h-6.59v-14.76a1.81,1.81,0,0,1,1.58-2h3.07C685.63,2338.09,685.53,2340.41,685.53,2340.41Z" transform="translate(-466.64 -2242.15)"/><path class="cls-1" d="M718.5,2332.85h-6.78c-5.62,0-6,5.43-6,5.43l-0.1,37.59,5.91-.1v-15.69H718v15.6h5.81v-37.2C723.83,2333,718.5,2332.85,718.5,2332.85Zm-0.42,7.56v14.4h-6.59v-14.76a1.81,1.81,0,0,1,1.58-2h3.07C718.18,2338.09,718.08,2340.41,718.08,2340.41Z" transform="translate(-466.64 -2242.15)"/><path class="cls-1" d="M616.2,2369.88v-22.22h0v-14.89h-5.79l-0.08,43h0.5v0l13.37,0v-5.87h-8Z" transform="translate(-466.64 -2242.15)"/><path class="cls-1" d="M640.13,2333s-0.11,33.88-.11,35.72a1.81,1.81,0,0,1-1.58,2h-3.31c-2,0-1.94-2.32-1.94-2.32l0.06-35.26h-5.81v37.2c0,5.52,5.33,5.62,5.33,5.62h6.78c5.62,0,6-5.42,6-5.42l0.1-37.59Z" transform="translate(-466.64 -2242.15)"/><path class="cls-1" d="M669.38,2354.62h-9.31v5.93h3.51l0,9a1.81,1.81,0,0,1-1.41,1.07h-3.31c-2,0-1.94-2.32-1.94-2.32l0.06-23.06h-0.19c0-2.86,0-4.94,0-5.39a1.81,1.81,0,0,1,1.58-2h3.31c2,0,1.94,2.33,1.94,2.33V2345h5.76v-6.75c0-5.52-5.33-5.62-5.33-5.62h-6.78c-5.62,0-6,5.42-6,5.42l0,7.17h-0.08v25.09h0c0.06,5.42,5.32,5.52,5.32,5.52h6.78c5.62,0,6-5.42,6-5.42v-0.29h0.1v-9.62h0v-5.89h0v0Z" transform="translate(-466.64 -2242.15)"/><path class="cls-1" d="M734.52,2375.77v-5.89h0v-22.22h0v-14.89h-5.79l-0.08,43h0.5v0h5.42Z" transform="translate(-466.64 -2242.15)"/><polygon class="cls-1" points="261.81 87.99 265.81 87.99 269.94 81.02 264.26 81.02 261.81 87.99"/><path class="cls-1" d="M491.24,2373.58a18.75,18.75,0,0,0,13.51,10.1s1.76,1.21,5.93-2.09,19.44-3.41,30.31-2.09a11.86,11.86,0,0,0,5.49-2.09s16.36-8.46,22.4-10.87a3.26,3.26,0,0,0,2.2-3.73c-0.55-2.86-8.46-2.3-20.76,2.09,0,0,.88,4-1.54,5.82,0,0-2.85,3.51-16,1.1l-0.11-1s-0.44-.66,9.12,0c0,0,6.26.55,6.59-3.51,0,0,1.43-4-7.69-4.17,0,0-9.34-.33-15.93-2.53,0,0-4.83-1.43-10,2.53S492.45,2373.14,491.24,2373.58Z" transform="translate(-466.64 -2242.15)"/><path class="cls-1" d="M563.18,2355.76a2.56,2.56,0,0,1-2.44,2.67H528.28a2.56,2.56,0,0,1-2.44-2.67v-32.11a2.56,2.56,0,0,1,2.44-2.67h32.46a2.56,2.56,0,0,1,2.44,2.67v32.11Z" transform="translate(-466.64 -2242.15)"/><path class="cls-3" d="M547.36,2340h0l-12,0,3.14-3a0.93,0.93,0,0,0-1.28-1.36l-4.86,4.57a1.1,1.1,0,0,0,0,1.47l4.61,4.61a0.94,0.94,0,0,0,1.32,0,0.94,0.94,0,0,0,0-1.32l-3.15-3.15,12.21,0A0.93,0.93,0,0,0,547.36,2340Z" transform="translate(-466.64 -2242.15)"/><path class="cls-3" d="M541.61,2338.9h0l12,0-3.14,3a0.93,0.93,0,0,0,1.28,1.36l4.86-4.57a1.11,1.11,0,0,0,0-1.47l-4.61-4.61a0.94,0.94,0,0,0-1.32,0,0.93,0.93,0,0,0,0,1.32l3.15,3.15-12.21,0A0.93,0.93,0,0,0,541.61,2338.9Z" transform="translate(-466.64 -2242.15)"/><path class="cls-2" d="M608.82,2426.24s-6.53,23.64-6.79,28.67h40.33s-2.15-16.84-7-28.67h-26.5Z" transform="translate(-466.64 -2242.15)"/><path class="cls-4" d="M640.17,2442.6a100.54,100.54,0,0,0-4.85-16.36h-26.5s-6.53,23.64-6.79,28.67h10.72l2.82-9.16Z" transform="translate(-466.64 -2242.15)"/></svg>