<svg xmlns="http://www.w3.org/2000/svg" xmlns:xlink="http://www.w3.org/1999/xlink" viewBox="0 0 310.97 213.13"><defs><style>.cls-1{isolation:isolate;}.cls-2{fill:url(#Gradiente_sem_nome_25);}.cls-24,.cls-3,.cls-5{fill:#000100;}.cls-10,.cls-11,.cls-12,.cls-13,.cls-15,.cls-16,.cls-17,.cls-19,.cls-20,.cls-21,.cls-22,.cls-24,.cls-25,.cls-3{fill-rule:evenodd;}.cls-23,.cls-3,.cls-5{opacity:0.2;}.cls-4{fill:#1e505a;}.cls-20,.cls-6{fill:#1b2120;}.cls-12,.cls-7{fill:#ae6d44;}.cls-8{fill:#985d2c;}.cls-9{fill:#f08020;opacity:0.5;}.cls-10{fill:#c75f16;}.cls-11{fill:#d09a66;}.cls-13{fill:#cecccc;}.cls-14,.cls-16{fill:#2d3036;}.cls-15{fill:#5789a9;}.cls-17{fill:#fbc887;}.cls-18{fill:#fff;}.cls-19{fill:#d17f43;}.cls-21{fill:#bfbebe;}.cls-22{fill:#f8ec5c;}.cls-25,.cls-26{fill:none;stroke:#f8ec5c;stroke-miterlimit:10;}.cls-25{mix-blend-mode:multiply;}</style><radialGradient id="Gradiente_sem_nome_25" cx="152.82" cy="73.05" r="133.22" gradientUnits="userSpaceOnUse"><stop offset="0" stop-color="#fffce1"/><stop offset="1" stop-color="#ffe7a3"/></radialGradient></defs><title>08 HQ</title><g class="cls-1"><g id="Camada_1" data-name="Camada 1"><polygon class="cls-2" points="310.97 0 237.42 20.73 0 0 0 212.76 310.97 212.76 310.97 0"/><path class="cls-3" d="M1053.06,2388c0-.09,0-0.13,0-0.13V2388Z" transform="translate(-791.45 -2242.15)"/><path class="cls-3" d="M1051.6,2402.46a29.87,29.87,0,0,0,.83-4.14,67,67,0,0,0,.63-10.29c0,0.19,0,.58,0,1.1,0-2.73,0-5.35-.08-7.5h0v0c-0.11-3.09-.27-5.2-0.27-5.27a25.82,25.82,0,0,1,4,1.23s-10.26-34.41-19.21-36.29a17.4,17.4,0,0,0-6.26-2.39s-3.77-1.38-9.23-3h0l-1.21-.58a40.08,40.08,0,0,0,1.33-12.42c-0.05-1.47-.18-3-0.39-4.7,0-.07,2.16.54,4.67-2.09,2.22-2.34,1.53-9.18-1.17-11.43h0c8.52-32.79-9.63-37.15-15.84-39s-31.19-1.23-36.33,0-5.55,1.64-7.19,4.73-2.06,14.8,4.73,17.26a8.68,8.68,0,0,0,1.24.32l1.56,13.87s-0.82,33.35,3.42,36.88a19.12,19.12,0,0,0,2.41,2.69l0,0-0.43.73a32.77,32.77,0,0,1-3.46,4.95s-8.57,12.82-14.87,14.19c0,0,2.18,1.45,5.26,3.19h0l-8.63,10.16c-3.79-.1-16.2,2.75-21,3.88V2303.6H831.71v73.69l48.48,4.14a74.84,74.84,0,0,0-1.83,10.14l-86.69,13.35v4.29l6.52,1.18h0v44.52H820.5v-40.47l147,26.68,103.32-31.39v-5.39ZM904.72,2388l-1.92-.19L891,2389.63l-0.73-4.73-0.41-2.65,5.19,0.44,13.77,1.82A30.37,30.37,0,0,0,904.72,2388Zm53.19,4.34-0.53.84-22.2-2.19a21.3,21.3,0,0,0,1.62-1.87c0.21-.27.32-0.42,0.32-0.42h0a26.78,26.78,0,0,0,2.51-4.09h0l19.55,1.66-2.57.8C955.79,2388.58,957.91,2392.34,957.91,2392.34Zm23.78-21.93h0Zm2.3,11.76c-6.72.06-14,.73-14,0.73l-0.35.11c6.91-4.84,12-12.47,12.07-12.59a41.09,41.09,0,0,1,1.75,5.38c0.1,0.5.19,1,.27,1.52a3.6,3.6,0,1,0,.1.75A22.55,22.55,0,0,1,984,2382.17Z" transform="translate(-791.45 -2242.15)"/><path class="cls-4" d="M1008.08,2413.19s3.69-55.93-1.55-72,45.83-20.56,69.65-7.61,4.83,105.77,0,107.11-63.74,3.22-70.19-6.36S1008.08,2421.49,1008.08,2413.19Z" transform="translate(-791.45 -2242.15)"/><path class="cls-5" d="M1012,2340.71s7.11,64.75-1.73,84.23,56,17.16,58.38,9.11,4.12-83.2-3.26-91.37S1024.59,2325,1012,2340.71Z" transform="translate(-791.45 -2242.15)"/><path class="cls-5" d="M1070.69,2342.67s5.44,81.43,0,91.63c0,0,2,3.77,5.49,1.07s10.07-46.58,7.32-70.23S1083.13,2336.6,1070.69,2342.67Z" transform="translate(-791.45 -2242.15)"/><path class="cls-4" d="M1037.68,2454.91s17-5.91,21.82-11.24,1.65-11.35-5.84-12.09-56.45-9.86-82.39,6.74c0,0-9.27,5.84-4.61,16.6h71Z" transform="translate(-791.45 -2242.15)"/><path class="cls-5" d="M991,2431.57s-24,2.86-23.84,15.48,46.75,7.62,54.55,5.12,32.79-12.8,32.79-15.82S1033.57,2424.42,991,2431.57Z" transform="translate(-791.45 -2242.15)"/><path class="cls-6" d="M960,2454.91s-4.25-32.87,37.38-41.72l54.87,2.66s7.75,22,1.75,39.06h-28.92a13.09,13.09,0,0,0-.87-11.66c-3.6-5.72-39-8.43-41.09,11.66H960Z" transform="translate(-791.45 -2242.15)"/><path class="cls-5" d="M1053.94,2454.91c6-17.09-1.75-39.06-1.75-39.06l-54.87-2.66a60.65,60.65,0,0,0-18.71,7c9.91,8.52,22,19,22,19l0.65,0.39c10.09-1.62,21,.57,22.88,3.6a13.09,13.09,0,0,1,.87,11.66h28.92Z" transform="translate(-791.45 -2242.15)"/><polygon class="cls-7" points="268.06 171.55 268.06 212.76 289.56 212.76 289.56 175.45 268.06 171.55"/><polygon class="cls-8" points="279.9 173.7 279.9 212.76 289.56 212.76 289.56 175.45 279.9 173.7"/><polygon class="cls-7" points="125.59 159.13 125.59 212.76 147.1 212.76 147.1 163.03 125.59 159.13"/><polygon class="cls-8" points="137.44 161.28 137.44 212.76 147.1 212.76 147.1 163.03 137.44 161.28"/><path class="cls-9" d="M1014.23,2402.21s-2.44-8.22-2.73-8.22-19.19-5.75-32.89,0c0,0-7.67,10.14-8.49,14,0,0,8.22,6.3,15.62,5.75C985.73,2413.72,1009.84,2411.53,1014.23,2402.21Z" transform="translate(-791.45 -2242.15)"/><path class="cls-10" d="M1072.39,2386.39s-10.26-34.41-19.21-36.29a17.4,17.4,0,0,0-6.26-2.39s-43.35-15.82-49.12-3.07C994.23,2352.48,991,2356,991,2356s-8.57,12.82-14.87,14.19c0,0,14.25,9.45,21.24,9.09,2.25,4.2,4.11,16.12-.6,16.94,0,0-22.83,17.8-4.61,18.76s71.93-12,71.93-12a122.52,122.52,0,0,0,1.29-18.38A30.2,30.2,0,0,1,1072.39,2386.39Z" transform="translate(-791.45 -2242.15)"/><path class="cls-3" d="M1037.68,2344.72a19.21,19.21,0,0,0-1.12,3.16c-0.27,1.31-11.18,9-15.62,9.88l1.78,3.76-5.31,4.25,2,27.87-2,3.09-4.93-1.55s1.33-17.91,1.2-19.42,0.55-24.49.55-24.49l19.18-8.6Z" transform="translate(-791.45 -2242.15)"/><polygon class="cls-11" points="295.07 176.42 295.07 171.04 15.9 171.6 15.9 175.89 191.75 207.81 295.07 176.42"/><polygon class="cls-12" points="295.07 171.04 127.04 154.49 15.9 171.6 191.12 202.61 295.07 171.04"/><path class="cls-13" d="M917.83,2400.68s-1.84,3.18-.74,5.58c0.47,1,.34,2.6,16.78,0s15.72-6.85,15.72-6.85a14.68,14.68,0,0,0-16.14-4.85A99.55,99.55,0,0,0,917.83,2400.68Z" transform="translate(-791.45 -2242.15)"/><path class="cls-3" d="M945.74,2395.56c-1.3-1.77-3-3.59-3.78-3.63a29.62,29.62,0,0,0-10.71,2.67c-4.77,2.12-9.36,7.89-9.56,8a40.15,40.15,0,0,0-1.89,3.59,20.48,20.48,0,0,0,4.08-.68c1.78-.55,8.08-7.19,11.17-7.95s6.59-.45,5,1.21a52.28,52.28,0,0,1-9.12,5.29c-5.41,2.26-6.09,3.39-6.09,3.39s13.15-1.13,19.35-3.7,8.62-6.22,8.62-6.22S949.4,2395,945.74,2395.56Z" transform="translate(-791.45 -2242.15)"/><path class="cls-14" d="M920,2407.1a2.24,2.24,0,0,1-2.18-1.21h0c-0.07-1,2.52-3.41,5.11-5.31s6.24-4.13,8.85-4.75,5,0,5.79.88a0.76,0.76,0,0,1,.23.77,1.58,1.58,0,0,1-1.35.7c-1.81.26-6,2.9-9.61,5.23-3.06,1.95-5.69,3.63-6.56,3.69H920Zm-2.14-1.23a2.2,2.2,0,0,0,2.14,1.18h0.27c0.86-.06,3.62-1.82,6.54-3.68,3.66-2.33,7.81-5,9.62-5.23a1.54,1.54,0,0,0,1.32-.68,0.73,0.73,0,0,0-.22-0.73c-0.8-.9-3.08-1.51-5.75-0.87s-6.27,2.86-8.83,4.75C919.82,2402.89,917.78,2405,917.83,2405.88Z" transform="translate(-791.45 -2242.15)"/><path class="cls-3" d="M994.36,2351.21s4.37,4.33,5.06,5.19-3,1.41-3.55,9.91-6.5,10.45-6.5,10.45l8,2.48s1.94,4.68,2.13,7.66-1.6-15-.09-22.64,2.2-7.29,2.2-7.29,4.32,1.25,7.28,1.88l3.1-5.2-16.54-6.38-0.43,2.79Z" transform="translate(-791.45 -2242.15)"/><path class="cls-3" d="M1052.25,2350.1s-15.82-2.64-14.59,34.8l8-.29v11.57l-14.18,3.22-4.32-3.22s6.17-2.28,6.17-8.92S1034.57,2349.57,1052.25,2350.1Z" transform="translate(-791.45 -2242.15)"/><path class="cls-15" d="M1009.94,2356.52a42,42,0,0,0-1.85,4.47l2.26,3.17-1,14.62-3.31,16.06,11.71,0.6-2.26-30.94,3.54-2.92-2.63-5.51S1011.62,2357.39,1009.94,2356.52Z" transform="translate(-791.45 -2242.15)"/><path class="cls-3" d="M1017.41,2358.26a12.74,12.74,0,0,1-8.51.59l1-2.33,6.57-.33Z" transform="translate(-791.45 -2242.15)"/><polyline class="cls-16" points="129.54 166.44 129.54 169.8 210.51 182.97 248.26 176.1 248.26 170"/><polygon class="cls-13" points="129.24 166.4 206.53 177.56 248.26 170 166.7 162.73 129.24 166.4"/><path class="cls-5" d="M973.44,2410.59s1.79,4.14,4.54,5.39,19.4,1.73,25.77-1,7.5-5.18,7.5-5.18,31.55,10.55,41,9.9,13.14-4.72,13.14-4.72-2-15.74-13.14-15.6-25.07,6.85-25.07,6.85l-19.1-1.37S968.4,2406.24,973.44,2410.59Z" transform="translate(-791.45 -2242.15)"/><path class="cls-17" d="M981.39,2373.33s12.22,5.24,16,5.91c0,0-9,13.65-19.45,16.12l-22.61-1.92s-5.25,11.2-12.83,9.78c0,0,1.19-6,0-6.22,0,0-9.11-4-17.26,6.34,0,0-6,4.74-7.77,2.11,0,0-.08-4,0.83-6.06,0,0,9.89-14.86,31.67-11.57,0,0,18.13-4.46,22.85-4.33Z" transform="translate(-791.45 -2242.15)"/><path class="cls-3" d="M939.06,2393.17s3.55,0.95,3.84,4.48A24.69,24.69,0,0,0,939.06,2393.17Z" transform="translate(-791.45 -2242.15)"/><path class="cls-3" d="M977.93,2395.36c10.41-2.47,19.45-16.12,19.45-16.12a55.81,55.81,0,0,1-7.72-2.55l-0.29.07S984.77,2383,979,2386c-8.91,4.64-24,3.77-24,3.77s0.91,2.44.27,3.65Z" transform="translate(-791.45 -2242.15)"/><path class="cls-17" d="M1039.61,2312.83c-0.44-.1,1.39-12.64,1-12.67,1.24-5.63,3.14-5.33.92-11,0,0-.75-3.73-12.54-4.83s-26.58-5.62-34.53-2.06-7.37,11-7.37,11l2,17.4s-0.82,33.35,3.42,36.88c0,0,14.58,21.14,42.68,0,0,0,3.9-7.3,2.21-20.6,0-.08,2.16.55,4.67-2.09S1043.35,2313.65,1039.61,2312.83Z" transform="translate(-791.45 -2242.15)"/><path class="cls-5" d="M1042.08,2324.91s-5.45,2.46-6.68-6.16a14.79,14.79,0,0,1,4.32-13.22s1-18.18-15.45-21.79h0c-1.53-.22-3.08-0.47-4.64-0.73-14.93-1.46-29.5,5-30.25,4.59s-1.85,9.08-1.85,9.08A55.69,55.69,0,0,0,1004,2299c8.63-.2,22-2.55,24.46,1s2.47,13.94,2.47,13.94,5,3.17,4.11,19.71c-0.79,14.89-8.84,19.5-10.44,20.28a55,55,0,0,0,10.65-6.39s3.9-7.3,2.21-20.6C1037.4,2326.92,1039.56,2327.55,1042.08,2324.91Z" transform="translate(-791.45 -2242.15)"/><path class="cls-17" d="M970.11,2408l3.48-6.79s-2.11-3.76-1.29-5.26l13.36-4.18s17.88-1.64,23.43,0,32.26,5,36.58,4.45v-11.57s17.66-2.16,22.7.53c0,0,1.93,25.38-3,29.86,0,0-30.61.72-56.09-12.4,0,0-3.08,7.11-8.84,9.76S979.43,2417,970.11,2408Z" transform="translate(-791.45 -2242.15)"/><path class="cls-18" d="M993.72,2306.49s-2.22,0-1.63,3.07,1,5.34,1.63,6.2,6.21,0.62,7.65-1.22,2-4.4.54-6.45S993.72,2306.49,993.72,2306.49Z" transform="translate(-791.45 -2242.15)"/><path class="cls-19" d="M1003.19,2308.84c-1.12-2.36.14-2.59-2.37-2.74s-4.17-1.25-5.72-.47-2.89.24-3.48,3.4,0.4,4.33.69,6.1A3.12,3.12,0,0,0,995,2318c0.42,0.06,8.33-.77,8.45-2.75S1004.32,2311.21,1003.19,2308.84Zm-4.4,6.68c-2.35,1.21-3.94.1-4.05-.14a7,7,0,0,1-1.83-2.54,15.23,15.23,0,0,1,.14-4.05s0.46-.48.84-0.92,1.59-1.15,2.24-.71,2.93,0.1,4.63.68,1.15,1.84,1.53,3.69S1001.15,2314.31,998.79,2315.52Z" transform="translate(-791.45 -2242.15)"/><path class="cls-19" d="M996.78,2309.12s-0.49-1.3-1.21-.79-0.59,3.18.57,5.06,3.19,1.64,3.78.8,1-2.95.3-3.47-0.48-.49-0.71.54-0.56,2-1.68,1.93-1.21-1-1.54-2.37S996.31,2308.73,996.78,2309.12Z" transform="translate(-791.45 -2242.15)"/><path class="cls-18" d="M1016.76,2305.31c-0.16-.16-4.35,1.35-5,3.81s0.48,5.06.58,5.61,1.71,2.08,4.44,1,5.95-1.61,5.95-3.22-1.17-6.46-2.43-7.25S1016.76,2305.31,1016.76,2305.31Z" transform="translate(-791.45 -2242.15)"/><path class="cls-19" d="M1021.11,2305c-2.2-1.63-3.8-.79-5.16-0.36a10.06,10.06,0,0,0-4,3.27,7.18,7.18,0,0,0-.86,4.61c0.19,2.52,0,3.35,1.26,3.71a11.88,11.88,0,0,0,5.33.53c3.15-.35,5.84-2.35,5.77-3.85S1023.32,2306.6,1021.11,2305Zm0.52,7.56a6.65,6.65,0,0,1-2.78,2c-1.63.56-5.94-.18-5.94-0.18-0.88-1.12,0-5.08.87-6.49a5,5,0,0,1,5.93-1.61C1021.91,2307.41,1022,2312.2,1021.64,2312.52Z" transform="translate(-791.45 -2242.15)"/><path class="cls-19" d="M1015.93,2307s-1.82.54-1.85,1.93,0.58,5.17,2.64,5,3.51-3,3.55-4.35-0.23-3.73-1.27-3,0.42,2.87-.64,4.3-1.06,2.3-2.09,1.51-1.32-3.33-.8-3.79S1017,2307.14,1015.93,2307Z" transform="translate(-791.45 -2242.15)"/><path class="cls-19" d="M997.89,2339.15s-0.1,3,8.93,4c14.56,1.67,18-6.51,17.31-8.26s-1.93-.44-3.4.55-1.2,5.46-14.2,5.72C1001.92,2341.25,1000.56,2338.42,997.89,2339.15Z" transform="translate(-791.45 -2242.15)"/><path class="cls-19" d="M1002.62,2321.26a3.74,3.74,0,0,0-1.34,3.8c0.62,2.36,8.77,1.34,10.24,0s-0.38,2.67-6.85,3-5.55-5.24-4.52-6.27S1002.83,2318.59,1002.62,2321.26Z" transform="translate(-791.45 -2242.15)"/><path class="cls-20" d="M1040.92,2313.5s-3.05-2.2-5.11.5h-4.11s0.21-14.94-4.11-17.2-34.52,2.16-41.31-.31-6.37-14.18-4.73-17.26,2.06-3.49,7.19-4.73,30.12-1.85,36.33,0S1049.43,2280.71,1040.92,2313.5Z" transform="translate(-791.45 -2242.15)"/><path class="cls-3" d="M973.6,2401.17s5.69-5,9.6-6l-10.44,4.25Z" transform="translate(-791.45 -2242.15)"/><polygon class="cls-3" points="217.85 160.44 219.8 156.57 218.82 160.94 217.85 160.44"/><path class="cls-3" d="M1045.67,2387.23s19.17-.31,23,3.22l-0.27-5.32s-5.37-3.32-22.7-.53v2.62Z" transform="translate(-791.45 -2242.15)"/><path class="cls-3" d="M1021.71,2407.86s32.94,5.85,40.2,3.11,6.84-14.25,6.84-14.25,0.39,13.93-3.36,18.27C1065.39,2415,1043,2415,1021.71,2407.86Z" transform="translate(-791.45 -2242.15)"/><path class="cls-16" d="M896.31,2389v32.71l33.7,6.18s8.63-1.77,9-3.23-14.39-11.25-30.41-13.34l-3.27-21.12Z" transform="translate(-791.45 -2242.15)"/><path class="cls-16" d="M866.72,2416.48s3.29-6.85,17.26-6.3l9,0s1.29-16.24,3.29-21.16l4.73,8.52-4.73,24.19Z" transform="translate(-791.45 -2242.15)"/><path class="cls-3" d="M939.05,2424.65c0.14-.49-1.46-1.93-4.25-3.71,2.12,2.88-4.8,1.43-4.8,1.43-3.49-2.26-25.69-9.45-25.69-9.45L901,2397.5l4.88-3.77h0l-0.55-3.55-9.06-1.2v32.71l33.7,6.18S938.64,2426.1,939.05,2424.65Z" transform="translate(-791.45 -2242.15)"/><polygon class="cls-16" points="119.25 149.38 155.14 154.13 160.35 152.47 160.35 70.28 119.25 70.28 119.25 149.38"/><polygon class="cls-3" points="155.14 154.13 155.14 70.28 160.35 70.28 160.35 152.47 155.14 154.13"/><path class="cls-16" d="M910.7,2391.53l-63.3-5.4v-73.69h64.67s17,26.85,17.81,28.5S910.7,2391.53,910.7,2391.53Z" transform="translate(-791.45 -2242.15)"/><path class="cls-3" d="M917.4,2405.46s7.42-8.88,12-9.86c0,0-6,1.89-12,8.81v1.06Z" transform="translate(-791.45 -2242.15)"/><path class="cls-3" d="M917.56,2402.35s5-6.38,9.37-8.26c0,0-3.22.55-9.27,7.54Z" transform="translate(-791.45 -2242.15)"/><polygon class="cls-21" points="177.36 69.98 177.6 68.73 176.5 68.17 169.91 67.01 166.66 72.85 166.41 74.06 167.53 74.67 167.17 75.67 168.23 76.15 167.91 77.22 169.03 77.82 173.95 75.48 178.86 73.14 179.1 71.89 178.07 71.47 178.37 70.34 177.36 69.98"/><path class="cls-22" d="M965.56,2286.18a13.67,13.67,0,1,0-18.63,18c0.13,0.06,7.9,3.92,11.18,10.81l4.92-2.34,4.92-2.34c-3.28-6.9-1.37-15.36-1.34-15.49A13.6,13.6,0,0,0,965.56,2286.18Z" transform="translate(-791.45 -2242.15)"/><g class="cls-23"><path class="cls-24" d="M969.81,2312.49l-1-.36,0.24-1.25-1.1-.57a18.34,18.34,0,0,1-1.23-3.49c0.15,2-.91,4.92-10.65,0-13.45-6.77-13.69-23.11-13.69-23.11h0a13.66,13.66,0,0,0,4.55,20.45c0.13,0.06,7.9,3.92,11.18,10.81l-0.26,1.21,1.12,0.6-0.36,1,1.06,0.48-0.33,1.07,1.12,0.6,4.92-2.34,4.92-2.34,0.24-1.25-1-.42Z" transform="translate(-791.45 -2242.15)"/><polygon class="cls-24" points="174.97 63.3 174.97 63.3 174.97 63.3 174.97 63.3"/></g><path class="cls-25" d="M960.21,2314a67,67,0,0,1-11-16.08" transform="translate(-791.45 -2242.15)"/><path class="cls-25" d="M966,2311.31s-4.93-13.43-7.81-17.06" transform="translate(-791.45 -2242.15)"/><polyline class="cls-25" points="158.53 55.77 162.7 59.09 161.61 54.54 164.69 58.06 163.6 53.4 167.5 56.48 165.92 52.1"/><line class="cls-26" x1="121.4" y1="43.47" x2="139.8" y2="46.21"/><line class="cls-26" x1="124.22" y1="57.74" x2="142.4" y2="53.79"/><line class="cls-26" x1="145.24" y1="59.09" x2="130.6" y2="67.01"/><line class="cls-26" x1="145.51" y1="38.79" x2="128.93" y2="27.17"/><line class="cls-26" x1="157.74" y1="31.96" x2="157.74" y2="20.73"/><line class="cls-26" x1="167.5" y1="32.98" x2="179.76" y2="19.22"/><line class="cls-26" x1="174.98" y1="38.79" x2="193.87" y2="28.54"/><line class="cls-26" x1="181.82" y1="49.63" x2="191.68" y2="46.76"/><line class="cls-26" x1="183.87" y1="56.48" x2="203.05" y2="55.59"/><polygon class="cls-7" points="22.05 177.01 22.05 212.76 43.55 212.76 43.55 180.91 22.05 177.01"/><polygon class="cls-8" points="33.89 179.16 33.89 212.76 43.55 212.76 43.55 180.91 33.89 179.16"/><polygon class="cls-7" points="179.82 205.65 179.82 212.76 201.33 212.76 201.33 204.9 191.67 207.81 179.82 205.65"/><polygon class="cls-8" points="191.67 207.8 191.67 212.76 201.33 212.76 201.33 204.9 191.67 207.8"/></g></g></svg>