<svg id="Camada_1" data-name="Camada 1" xmlns="http://www.w3.org/2000/svg" viewBox="0 0 310.97 212.76"><defs><style>.cls-1{fill:#e9f3e7;}.cls-2{fill:#a5d9f7;}.cls-3,.cls-8{opacity:0.2;}.cls-4{fill:#282829;}.cls-5{fill:#0f0c13;}.cls-27,.cls-6{fill:none;stroke-miterlimit:10;}.cls-6{stroke:#0f0c13;}.cls-7{fill:#1c191b;}.cls-8{fill:#000100;}.cls-9{fill:#393337;}.cls-10{fill:#fff;}.cls-11{fill:#5c8eb6;}.cls-12{fill:#a6afac;}.cls-13{fill:#4279bd;}.cls-14{fill:#aacc83;}.cls-15{fill:#e9492a;}.cls-16{fill:#fab51d;}.cls-17{fill:#67b32e;}.cls-18{fill:#39465c;}.cls-19{fill:#2d3036;}.cls-20{fill:#cecccc;}.cls-21{fill:#ab9b9b;}.cls-22{fill:#fbc887;}.cls-23{fill:#f4e600;}.cls-24{fill:#d51116;}.cls-25{fill:#dff1f6;}.cls-26{fill:#23879a;}.cls-27{stroke:#23879a;}</style></defs><title>09 HQ</title><polygon class="cls-1" points="310.97 0 0 0 45.18 130.56 0 212.76 310.97 212.76 260.55 129.26 310.97 0"/><polygon class="cls-2" points="0 212.76 45.18 130.56 260.55 130.56 310.97 212.76 0 212.76"/><polygon class="cls-3" points="59.17 129.91 250.53 129.91 274.75 71.58 235.09 71.58 249.03 14.12 246.81 11.37 81.17 11.37 79.27 14.12 88.26 71.58 44.48 71.58 59.17 129.91"/><path class="cls-3" d="M1192.42,2380.84h5.6l10.09,37.65H1216v-5.27l-7.68-32.39h15q0,0.37,0,.74a80,80,0,0,0,.28,8.07h0a15.38,15.38,0,0,0-.57,2.67s6.82,16.23,12.34,21.18a52.72,52.72,0,0,0,9.67,6.92q0.63,0.52,1.32,1c1.09,1.4,3.57,5.07,2.5,8.7h60.72s2.9-6.26,6.94-8.38h0c0.65-.31,1.28-0.61,1.88-0.92h0s0.42-.2,1.13-0.6a39.52,39.52,0,0,0,9.35-6.74h0c5.52-5,18.19-13.94,18.19-13.94a14.18,14.18,0,0,0-2-5.89h0l0.93-9.46-0.29-3.36H1368l-7.68,32.39v5.27h7.93l5.54-37.65h3.53l4.06-8.78H1190.14Zm117.27,5.2v-0.12c0.08-.52.38-2.63,0.63-5.08h18.33l-0.18.73-3.31,3.5-9.77,5.24h0a47.39,47.39,0,0,0-6.3-.66S1309.36,2388.3,1309.69,2386Zm-56.6-5.2c0.08,0.4.15,0.79,0.24,1.17-2-.43-3.77-0.83-5-1.17h4.8Z" transform="translate(-1130.97 -2242.15)"/><path class="cls-4" d="M1316.27,2307.37c0-.46.15-1-0.84-1.06s-12.6-1.11-13.14-1.16-0.53.13-.53,0.13a0.56,0.56,0,0,0-.55,0c-0.32.16-3.44,2.57-3.44,2.57a2.65,2.65,0,0,0-.08.62,12.49,12.49,0,0,0-1.68,1.47c-0.56.76,0.05,3.29,0.23,3.59s2.43,0.25,6.68.73a87.59,87.59,0,0,1,8.93,1.77c0.25,0,.35-0.35,1.06-1.19s3.34-4.56,3.34-4.56S1316.29,2307.83,1316.27,2307.37Z" transform="translate(-1130.97 -2242.15)"/><path class="cls-5" d="M1296.41,2309.66a1.24,1.24,0,0,0-.48.78,3.11,3.11,0,0,1,1-.2c0.63,0,14.48,1.89,14.55,1.91a1.31,1.31,0,0,0,.34-0.35,5.57,5.57,0,0,0-.23,1.89c0,1.4.16,2.27,0.3,2.2s4.24-5.59,4.24-5.59,0.07-3.37,0-3.58-0.22.62-.42,0.75a0.33,0.33,0,0,1-.39-0.08l-3.29,4.21s-7-.65-9.11-0.95-6-.76-6.47-1" transform="translate(-1130.97 -2242.15)"/><path class="cls-6" d="M1310.25,2312.47a0.48,0.48,0,0,1,.46.42c0,0.39.07,2,.09,2.19s0,0.46-.33.39-0.44-.3-0.47-1.41S1309.84,2312.51,1310.25,2312.47Z" transform="translate(-1130.97 -2242.15)"/><path class="cls-7" d="M1307.32,2314.75a1.92,1.92,0,0,1-1.29-1.43,0.89,0.89,0,0,1,1.06-1,1.45,1.45,0,0,1,1.36,1.4A0.82,0.82,0,0,1,1307.32,2314.75Z" transform="translate(-1130.97 -2242.15)"/><path class="cls-8" d="M1307.42,2314.76a1.75,1.75,0,0,1-1.18-1.31,0.81,0.81,0,0,1,1-.89,1.32,1.32,0,0,1,1.24,1.28,1.29,1.29,0,0,1,0,.16,1.51,1.51,0,0,0,0-.25,1.45,1.45,0,0,0-1.36-1.4,0.89,0.89,0,0,0-1.06,1,1.92,1.92,0,0,0,1.29,1.43,1.5,1.5,0,0,0,.46.06A1.46,1.46,0,0,1,1307.42,2314.76Z" transform="translate(-1130.97 -2242.15)"/><path class="cls-9" d="M1307.36,2314.39a1.4,1.4,0,0,1-.94-1,0.65,0.65,0,0,1,.77-0.71,1.06,1.06,0,0,1,1,1A0.6,0.6,0,0,1,1307.36,2314.39Z" transform="translate(-1130.97 -2242.15)"/><path class="cls-10" d="M1308.17,2313.64a1.22,1.22,0,0,0-.26-0.64,1.05,1.05,0,0,1,.17.47,0.47,0.47,0,0,1-.64.57,1.09,1.09,0,0,1-.73-0.81,0.47,0.47,0,0,1,.51-0.56,0.6,0.6,0,0,0-.71.67,1.32,1.32,0,0,0,.89,1A0.56,0.56,0,0,0,1308.17,2313.64Z" transform="translate(-1130.97 -2242.15)"/><path class="cls-9" d="M1304.15,2314.12a0.41,0.41,0,0,1-.28-0.31,0.19,0.19,0,0,1,.23-0.21,0.31,0.31,0,0,1,.29.3A0.18,0.18,0,0,1,1304.15,2314.12Z" transform="translate(-1130.97 -2242.15)"/><path class="cls-5" d="M1304.39,2313.9a0.31,0.31,0,0,0-.29-0.3,0.19,0.19,0,0,0-.23.21,0.41,0.41,0,0,0,.28.31A0.18,0.18,0,0,0,1304.39,2313.9Zm-0.22.14a0.34,0.34,0,0,1-.23-0.25,0.16,0.16,0,0,1,.18-0.17,0.25,0.25,0,0,1,.24.25A0.14,0.14,0,0,1,1304.16,2314Z" transform="translate(-1130.97 -2242.15)"/><path class="cls-11" d="M1297.12,2311a0.46,0.46,0,0,0-.44-0.18,0.49,0.49,0,0,0-.45.56,0.45,0.45,0,0,0,.39.52,0.42,0.42,0,0,0,.4-0.18s6.6,0.84,6.89.9a0.43,0.43,0,0,0,.51-0.29,0.59,0.59,0,0,0-.58-0.6C1303.23,2311.63,1298.24,2311.08,1297.12,2311Z" transform="translate(-1130.97 -2242.15)"/><path class="cls-10" d="M1296.81,2311.07l7,0.81a0.41,0.41,0,0,1,.39.35,0.38,0.38,0,0,1-.42.28l-7.1-.87a0.37,0.37,0,0,1-.33-0.35C1296.38,2311,1296.81,2311.07,1296.81,2311.07Z" transform="translate(-1130.97 -2242.15)"/><path class="cls-9" d="M1297.84,2312.81l0.53,0a0.29,0.29,0,0,1,.33.27,0.26,0.26,0,0,1-.31.26l-0.67,0A0.27,0.27,0,0,1,1297.84,2312.81Z" transform="translate(-1130.97 -2242.15)"/><path class="cls-5" d="M1298.37,2312.83l-0.53,0a0.27,0.27,0,0,0-.13.51l0.67,0a0.26,0.26,0,0,0,.31-0.26A0.29,0.29,0,0,0,1298.37,2312.83Zm0,0.5-0.62,0a0.25,0.25,0,0,1,.12-0.47l0.49,0a0.27,0.27,0,0,1,.3.25A0.24,0.24,0,0,1,1298.38,2313.32Z" transform="translate(-1130.97 -2242.15)"/><path class="cls-9" d="M1299.29,2312.88l1.61,0.12a0.29,0.29,0,0,1,.33.27,0.26,0.26,0,0,1-.31.26l-1.76-.13A0.27,0.27,0,0,1,1299.29,2312.88Z" transform="translate(-1130.97 -2242.15)"/><path class="cls-5" d="M1299.29,2312.89l1.61,0.12a0.29,0.29,0,0,1,.33.27h0a0.29,0.29,0,0,0-.33-0.27l-1.61-.12a0.26,0.26,0,0,0-.31.28h0A0.26,0.26,0,0,1,1299.29,2312.89Z" transform="translate(-1130.97 -2242.15)"/><path class="cls-5" d="M1301,2313.48l-1.76-.13a0.26,0.26,0,0,1-.18-0.24,0.27,0.27,0,0,1,0-.17,0.23,0.23,0,0,0-.1.22,0.26,0.26,0,0,0,.18.24l1.76,0.13a0.32,0.32,0,0,0,.27-0.09A0.37,0.37,0,0,1,1301,2313.48Z" transform="translate(-1130.97 -2242.15)"/><path class="cls-9" d="M1301.72,2313.12l1.61,0.15a0.29,0.29,0,0,1,.32.28,0.26,0.26,0,0,1-.32.25l-1.75-.16A0.27,0.27,0,0,1,1301.72,2313.12Z" transform="translate(-1130.97 -2242.15)"/><path class="cls-5" d="M1303.38,2313.77l-1.75-.16a0.26,0.26,0,0,1-.18-0.24,0.23,0.23,0,0,1,.1-0.22,0.23,0.23,0,0,0-.15.24,0.26,0.26,0,0,0,.18.24l1.75,0.16a0.37,0.37,0,0,0,.22,0A0.41,0.41,0,0,1,1303.38,2313.77Z" transform="translate(-1130.97 -2242.15)"/><path class="cls-8" d="M1307.93,2312.68a1.38,1.38,0,0,0-.85-0.35,0.89,0.89,0,0,0-1.06,1,1.87,1.87,0,0,0,1.21,1.4C1306.09,2312.75,1307.93,2312.68,1307.93,2312.68Z" transform="translate(-1130.97 -2242.15)"/><path class="cls-10" d="M1297.84,2308.4l3.88-3.08a0.61,0.61,0,0,0-.52,0l-3.26,2.5A1.5,1.5,0,0,0,1297.84,2308.4Z" transform="translate(-1130.97 -2242.15)"/><rect class="cls-5" x="1297.15" y="2307.29" width="5.49" height="0.08" transform="translate(-2304.91 -880.14) rotate(-39.69)"/><rect class="cls-5" x="1297.35" y="2307.34" width="5.49" height="0.08" transform="translate(-2304.89 -880) rotate(-39.69)"/><rect class="cls-5" x="1297.58" y="2307.37" width="5.49" height="0.08" transform="translate(-2304.86 -879.84) rotate(-39.69)"/><rect class="cls-5" x="1297.78" y="2307.42" width="5.49" height="0.08" transform="translate(-2304.85 -879.7) rotate(-39.69)"/><polygon class="cls-5" points="180.35 68.4 180.3 68.34 183.63 64.69 183.68 64.75 180.35 68.4"/><polygon class="cls-5" points="180.55 68.45 180.5 68.39 183.83 64.74 183.88 64.8 180.55 68.45"/><polygon class="cls-5" points="180.78 68.48 180.73 68.42 184.06 64.78 184.1 64.83 180.78 68.48"/><polygon class="cls-5" points="180.98 68.53 180.93 68.47 184.26 64.83 184.31 64.88 180.98 68.53"/><path class="cls-4" d="M1312.07,2310.15a2.71,2.71,0,0,1-1,.21,3.36,3.36,0,0,0-1.78,0,2.24,2.24,0,0,0-.51,1.94c0.06,0.61.06,4.52,1.16,4.8s1.82-2.32,2.13-2.49a8.61,8.61,0,0,1,2.15-.8,1.86,1.86,0,0,1,1.29.53,1.29,1.29,0,0,0,1.56.4c0.46-.32-0.17-2.61-1.29-4.12s-1.8-1.39-2.11-1.4S1312.79,2310.06,1312.07,2310.15Z" transform="translate(-1130.97 -2242.15)"/><path class="cls-12" d="M1317,2314.49a7.05,7.05,0,0,0-2-1.25,5.5,5.5,0,0,0-2.17.51,3.9,3.9,0,0,0-1.25,1.62,7,7,0,0,1-1.56,1.44,0.29,0.29,0,0,0,0,.29c1.1,0.28,1.82-2.32,2.12-2.49a8.61,8.61,0,0,1,2.15-.8,1.86,1.86,0,0,1,1.29.53,1.29,1.29,0,0,0,1.56.4,0.33,0.33,0,0,0,.11-0.18A0.34,0.34,0,0,1,1317,2314.49Z" transform="translate(-1130.97 -2242.15)"/><path class="cls-5" d="M1309.32,2310.62a0.79,0.79,0,0,0-.44.69c0.06,0.43.84,4,.8,4.51,0,0-.5-0.19-0.49.13a13.41,13.41,0,0,1-.36-2.79S1308.5,2310.47,1309.32,2310.62Z" transform="translate(-1130.97 -2242.15)"/><path class="cls-5" d="M1317.06,2314.74l0,0h0c0.37-.43-0.24-2.62-1.33-4.08s-1.8-1.39-2.11-1.4-0.87.84-1.59,0.93a2.71,2.71,0,0,1-1,.21h-0.15a0.36,0.36,0,0,1-.15.06,2.68,2.68,0,0,0-1.11.09,1.16,1.16,0,0,0-.69.81c-0.06.26,0.73,3.06,0.85,3.82s0,0.77,0,.77a0.83,0.83,0,0,0-.56.21h0a1.7,1.7,0,0,0,.7,1h0a0.66,0.66,0,0,0,.23,0c0.59-.11,1.68-2.49,1.88-2.72a4.6,4.6,0,0,1,1.7-.89,2.3,2.3,0,0,1,1.73,0c0.44,0.27,1.54,1,1.44,1.28Zm-0.25-.49a9,9,0,0,0-1.51-1,3.89,3.89,0,0,0-3.18.8,8.31,8.31,0,0,1-1.2,1.81c-0.3.13-.78-0.05-0.82-1a8.45,8.45,0,0,0-.53-2.42c-0.15-.32.28-1.74,1.13-1.69s1.05,0.75,1.63.61,0.43-1.13,1.32-1a4,4,0,0,1,2.83,1.94C1317,2313.54,1317.05,2313.86,1316.81,2314.26Z" transform="translate(-1130.97 -2242.15)"/><path class="cls-13" d="M1314,2310.67a0.2,0.2,0,0,0,.18-0.25,0.27,0.27,0,0,0-.27-0.22,0.2,0.2,0,0,0-.19.25A0.24,0.24,0,0,0,1314,2310.67Z" transform="translate(-1130.97 -2242.15)"/><path class="cls-14" d="M1314.85,2311a0.2,0.2,0,0,0,.18-0.25,0.27,0.27,0,0,0-.27-0.22,0.2,0.2,0,0,0-.19.25A0.24,0.24,0,0,0,1314.85,2311Z" transform="translate(-1130.97 -2242.15)"/><path class="cls-15" d="M1315.09,2310.38a0.2,0.2,0,0,0,.18-0.25,0.27,0.27,0,0,0-.27-0.22,0.2,0.2,0,0,0-.19.25A0.24,0.24,0,0,0,1315.09,2310.38Z" transform="translate(-1130.97 -2242.15)"/><path class="cls-16" d="M1314.27,2309.91a0.2,0.2,0,0,0,.18-0.25,0.27,0.27,0,0,0-.27-0.22,0.2,0.2,0,0,0-.19.25A0.24,0.24,0,0,0,1314.27,2309.91Z" transform="translate(-1130.97 -2242.15)"/><path class="cls-12" d="M1312.52,2311.4a0.35,0.35,0,0,0,.3-0.43,0.46,0.46,0,0,0-.47-0.37,0.34,0.34,0,0,0-.33.43A0.4,0.4,0,0,0,1312.52,2311.4Z" transform="translate(-1130.97 -2242.15)"/><path class="cls-5" d="M1314.37,2312.88s0.75-.11.49-1.08a0.87,0.87,0,0,0-1-.71c-0.17,0-.52.27-0.45,1.06A0.69,0.69,0,0,0,1314.37,2312.88Z" transform="translate(-1130.97 -2242.15)"/><path class="cls-7" d="M1314.36,2312.8s0.71-.11.46-1a0.83,0.83,0,0,0-.93-0.68c-0.16,0-.49.25-0.43,1A0.65,0.65,0,0,0,1314.36,2312.8Z" transform="translate(-1130.97 -2242.15)"/><path class="cls-5" d="M1314.66,2312.17a0.27,0.27,0,0,1-.1.11,0.22,0.22,0,0,0,.14-0.06,0.39,0.39,0,0,1,0,.4,1.51,1.51,0,0,0,.19-0.31,0.83,0.83,0,0,0-.06-0.55C1314.72,2311.66,1314.71,2312.12,1314.66,2312.17Z" transform="translate(-1130.97 -2242.15)"/><path class="cls-5" d="M1313.42,2311.88s0.28-.14.36,0.05,0.12-.56.39-0.59,0.12-.21.12-0.21S1313.55,2310.8,1313.42,2311.88Z" transform="translate(-1130.97 -2242.15)"/><path class="cls-12" d="M1314.37,2312.32a0.42,0.42,0,0,0,.37-0.52,0.56,0.56,0,0,0-.57-0.45,0.41,0.41,0,0,0-.4.52A0.49,0.49,0,0,0,1314.37,2312.32Z" transform="translate(-1130.97 -2242.15)"/><path class="cls-8" d="M1314,2311.61l-0.27.21a0.67,0.67,0,0,0,.19.41,0.51,0.51,0,0,0,.33.09,0.6,0.6,0,0,1-.13-0.43A0.25,0.25,0,0,0,1314,2311.61Z" transform="translate(-1130.97 -2242.15)"/><path class="cls-12" d="M1314.43,2312.2a0.46,0.46,0,0,0,.4-0.57,0.61,0.61,0,0,0-.62-0.5,0.45,0.45,0,0,0-.44.57A0.53,0.53,0,0,0,1314.43,2312.2Z" transform="translate(-1130.97 -2242.15)"/><path class="cls-8" d="M1313.87,2311.78a0.53,0.53,0,0,0,.69.25,0.42,0.42,0,0,0,0-.73,0.7,0.7,0,0,0-.44-0.09c-0.19,0,.45.09,0.34,0.39S1314,2311.75,1313.87,2311.78Z" transform="translate(-1130.97 -2242.15)"/><path class="cls-5" d="M1313.47,2312.17s0.31,0,.32-0.09a0.46,0.46,0,0,0,.5.26,0.36,0.36,0,0,0-.26.22,0.35,0.35,0,0,0,.21.27,0.66,0.66,0,0,1-.55-0.08A1.13,1.13,0,0,1,1313.47,2312.17Z" transform="translate(-1130.97 -2242.15)"/><path class="cls-5" d="M1309.5,2311.82s0.24,0.72,1.14.3a0.87,0.87,0,0,0,.54-1.08c-0.05-.16-0.35-0.46-1.12-0.27A0.69,0.69,0,0,0,1309.5,2311.82Z" transform="translate(-1130.97 -2242.15)"/><path class="cls-7" d="M1309.57,2311.8s0.22,0.68,1.09.28a0.83,0.83,0,0,0,.51-1c-0.05-.16-0.33-0.44-1.07-0.25A0.65,0.65,0,0,0,1309.57,2311.8Z" transform="translate(-1130.97 -2242.15)"/><path class="cls-5" d="M1310,2311s-0.22,0-.19.37a0.42,0.42,0,0,0,.23.41,0.25,0.25,0,0,1-.07-0.18c0-.15.12,0.09,0.23,0.15a0.76,0.76,0,0,1-.07-0.41C1310.17,2311.18,1310.17,2310.93,1310,2311Z" transform="translate(-1130.97 -2242.15)"/><path class="cls-5" d="M1310.25,2312a0.27,0.27,0,0,1-.13-0.08,0.22,0.22,0,0,0,.08.13,0.39,0.39,0,0,1-.4.06,1.51,1.51,0,0,0,.33.13,0.83,0.83,0,0,0,.53-0.16C1310.76,2312,1310.3,2312,1310.25,2312Z" transform="translate(-1130.97 -2242.15)"/><path class="cls-5" d="M1310.33,2310.72s0.19,0.25,0,.37,0.57,0,.65.29,0.22,0.09.22,0.09S1311.41,2310.66,1310.33,2310.72Z" transform="translate(-1130.97 -2242.15)"/><path class="cls-12" d="M1310.7,2311.76a0.42,0.42,0,0,0,.29-0.57,0.56,0.56,0,0,0-.62-0.37,0.41,0.41,0,0,0-.32.57A0.49,0.49,0,0,0,1310.7,2311.76Z" transform="translate(-1130.97 -2242.15)"/><path class="cls-8" d="M1310.27,2311.1l-0.24.25a0.67,0.67,0,0,0,.24.38,0.51,0.51,0,0,0,.34,0,0.6,0.6,0,0,1-.19-0.4A0.25,0.25,0,0,0,1310.27,2311.1Z" transform="translate(-1130.97 -2242.15)"/><path class="cls-12" d="M1310.74,2311.64a0.46,0.46,0,0,0,.32-0.63,0.61,0.61,0,0,0-.68-0.4,0.45,0.45,0,0,0-.36.63A0.53,0.53,0,0,0,1310.74,2311.64Z" transform="translate(-1130.97 -2242.15)"/><path class="cls-8" d="M1310.12,2311.3a0.53,0.53,0,0,0,.72.15,0.42,0.42,0,0,0-.07-0.73,0.7,0.7,0,0,0-.45,0c-0.18.06,0.46,0,.39,0.34S1310.21,2311.26,1310.12,2311.3Z" transform="translate(-1130.97 -2242.15)"/><path class="cls-5" d="M1311.56,2311.75a1.13,1.13,0,0,1,1.06.25c0.35,0.43.53,1.32,0,1.6a1,1,0,0,1-1.45-.41C1310.8,2312.53,1311,2311.78,1311.56,2311.75Z" transform="translate(-1130.97 -2242.15)"/><path class="cls-7" d="M1311.62,2311.75a1,1,0,0,1,1,1.71,0.91,0.91,0,0,1-1.34-.38C1310.91,2312.47,1311.11,2311.78,1311.62,2311.75Z" transform="translate(-1130.97 -2242.15)"/><path class="cls-5" d="M1311.26,2312.61a0.84,0.84,0,0,0,.27.53,1,1,0,0,0,.89.06,0.57,0.57,0,0,0,.33-0.65,1,1,0,0,0-.86-0.77A0.63,0.63,0,0,0,1311.26,2312.61Z" transform="translate(-1130.97 -2242.15)"/><path class="cls-12" d="M1312.19,2313.24a0.63,0.63,0,0,0,.55-0.78,0.83,0.83,0,0,0-.84-0.67,0.62,0.62,0,0,0-.6.78A0.73,0.73,0,0,0,1312.19,2313.24Z" transform="translate(-1130.97 -2242.15)"/><path class="cls-8" d="M1311.41,2312.2a1,1,0,0,0,.08.66,0.67,0.67,0,0,0,.94.17,0.72,0.72,0,0,0,.06-0.94c-0.24-.34-0.47-0.19-0.48-0.08s0.16,0.41-.11.43a0.34,0.34,0,0,1-.34-0.31C1311.51,2312,1311.47,2312.06,1311.41,2312.2Z" transform="translate(-1130.97 -2242.15)"/><path class="cls-5" d="M1311.09,2312.26a1.32,1.32,0,0,0,.73,1.08,0.6,0.6,0,0,0,.19.34,1.13,1.13,0,0,1-.86-0.71A1.52,1.52,0,0,1,1311.09,2312.26Z" transform="translate(-1130.97 -2242.15)"/><path class="cls-5" d="M1312.72,2312.32a0.74,0.74,0,0,1-.09.79,0.34,0.34,0,0,1-.14.41,0.57,0.57,0,0,0,.43-0.37A1.08,1.08,0,0,0,1312.72,2312.32Z" transform="translate(-1130.97 -2242.15)"/><path class="cls-5" d="M1310.94,2311.9s0.21-.39.07-0.43l0.2,0a0.68,0.68,0,0,1-.29.45" transform="translate(-1130.97 -2242.15)"/><path class="cls-17" d="M1312.71,2310.85l-0.08,0h-0.18l-0.09-.09a0.39,0.39,0,0,0-.1-0.06l0.06,0.09,0.06,0.08h0a0.63,0.63,0,0,0-.22.13,0.39,0.39,0,0,0-.07.09l0.1-.05,0.1,0,0.12,0h0l0,0,0.05,0.11,0,0.1,0,0.08v0a0.37,0.37,0,0,0,0-.08,0.29,0.29,0,0,0,0-.06,0.38,0.38,0,0,0,0-.06l0-.06,0-.06,0,0h0l0.11,0h0.08Z" transform="translate(-1130.97 -2242.15)"/><path class="cls-11" d="M1247.29,2445.61s4.34,4.69,3,9.3H1311s2.9-6.26,6.94-8.38Z" transform="translate(-1130.97 -2242.15)"/><polygon class="cls-10" points="131.16 53.84 109.37 53.84 108.58 49.24 130.81 49.24 131.16 53.84"/><polygon class="cls-18" points="75.57 96.35 238.13 96.35 260.55 155.85 53.21 155.85 75.57 96.35"/><polygon class="cls-19" points="53.21 155.85 55.93 163.46 259.24 163.46 260.55 155.85 53.21 155.85"/><ellipse class="cls-19" cx="160.74" cy="106.87" rx="31.43" ry="7.2"/><ellipse class="cls-8" cx="160.74" cy="104.73" rx="28.05" ry="7.07"/><path class="cls-20" d="M1339.94,2360.49a6.75,6.75,0,0,0-7,1.81c-3.16,3.31-9.2,18.69.17,23.27s16.59-5,16.59-5S1351.86,2361,1339.94,2360.49Z" transform="translate(-1130.97 -2242.15)"/><path class="cls-21" d="M1330.22,2369.69s1.41-3.2,2-1.58-0.34,5.24-1.71,5.53S1329.57,2370.91,1330.22,2369.69Z" transform="translate(-1130.97 -2242.15)"/><path class="cls-21" d="M1334.27,2362.16a28.57,28.57,0,0,1,.49,6.61c-0.29,2.48,5.27,1.14,5.38-1.16s-0.29-7.18-.6-7.25S1335.25,2359.42,1334.27,2362.16Z" transform="translate(-1130.97 -2242.15)"/><polygon class="cls-20" points="96.89 114.07 185.75 114.07 196.21 141.83 86.46 141.83 96.89 114.07"/><polygon class="cls-19" points="86.46 141.83 87.73 145.38 195.6 145.38 196.21 141.83 86.46 141.83"/><path class="cls-22" d="M1274.52,2356.08c-0.32-1.15-2.52-2.13-2.52-2.13a38.29,38.29,0,0,1-4.66.88c-6.18.48-13.26,3.18-13.33,6-0.08,3.55-4.3,11.51-4.3,11.51-9.48,8.16-24.69,27.34-24.69,27.34-0.65,3.66,0,14.78,0,14.78,18.12-1.3,20.2-10.82,20.2-10.82l-1.17-6.45s10.77-21.29,14.68-20.9,7.4-6.08,10.14-6.69a59.89,59.89,0,0,0,6.36-2s1.86-3.71-1-4.28a16.27,16.27,0,0,0-5.38.18c-0.12,0-.17.05-0.09,0a3.72,3.72,0,0,0,.77-1.47,1.61,1.61,0,0,0,1.76-1.24,2.78,2.78,0,0,0,.06-0.78s0.56,2.27,2.24,2c2-.87,1.62-1.1,1.62-1.1A17,17,0,0,0,1274.52,2356.08Z" transform="translate(-1130.97 -2242.15)"/><path class="cls-8" d="M1244.53,2399.8s-7.52.1-12.5,2.25c0,0-4.56-4,.46-11.45l-7.46,9a98.85,98.85,0,0,0,0,14.78s9.05-1.34,14.33-4.17a10.4,10.4,0,0,0,5.68-7.65Z" transform="translate(-1130.97 -2242.15)"/><path class="cls-11" d="M1310.45,2414.42s10.26,0.26,13.08,3.39,8.81,13.82,9.6,15.9-11.57,18.25-49.84,20.85-46.09-21.63-46.09-21.63,8.73-14.34,13.1-16.42,32-3.91,32-3.91Z" transform="translate(-1130.97 -2242.15)"/><path class="cls-8" d="M1247.82,2405s6.75,17.1,4.23,32.87a12.17,12.17,0,0,0,2.69-8.68s0.12,9.92,3.77,25.55H1308s4.52-19.68,4.41-26.13a16.82,16.82,0,0,0,3.11,6.65s-5.33-14,1.3-20.19c0,0-14.68-1.71-16.83-1.12S1252.91,2407.21,1247.82,2405Z" transform="translate(-1130.97 -2242.15)"/><path class="cls-23" d="M1254.43,2387.53s-3,1.31-4.12,3.76c0,0,.2.59,0.68,1.76s-0.2.88-.68,2.15a0.91,0.91,0,0,1,1.17.68c0.29,1-1.17,2.64-1.17,4.3,0,0,2.07-.78,2.06,0a4,4,0,0,0-.4,3.42s1.7-2.05,2.46-1.56C1254.43,2402,1259.14,2388.08,1254.43,2387.53Z" transform="translate(-1130.97 -2242.15)"/><path class="cls-23" d="M1311.37,2387.53s3,1.31,4.12,3.76c0,0-.2.59-0.68,1.76s0.2,0.88.68,2.15a0.91,0.91,0,0,0-1.17.68c-0.29,1,1.17,2.64,1.17,4.3,0,0-2.07-.78-2.06,0a4,4,0,0,1,.4,3.42s-1.7-2.05-2.46-1.56C1311.37,2402,1306.66,2388.08,1311.37,2387.53Z" transform="translate(-1130.97 -2242.15)"/><path class="cls-8" d="M1315.5,2395.2c-0.49-1.27-1.17-1-.68-2.15a1.28,1.28,0,0,0-1-.14,2.43,2.43,0,0,1,.39,1.9c-0.54-.1-0.78.76-0.78,0.76a3.46,3.46,0,0,1-.54,2.17c-0.1-1.86-.53-9.67-0.53-9.67a9.14,9.14,0,0,0-1-.54,1.9,1.9,0,0,0-1.43.91c-0.2.69-.35,1.23-0.35,1.28s0,2.26-.09,4.6a50.39,50.39,0,0,0,1.87,7.71c0.76-.49,2.46,1.56,2.46,1.56a4,4,0,0,0-.4-3.42c0-.78,2.06,0,2.06,0,0-1.66-1.47-3.32-1.17-4.3A0.91,0.91,0,0,1,1315.5,2395.2Z" transform="translate(-1130.97 -2242.15)"/><path class="cls-8" d="M1250.31,2395.2c0.49-1.27,1.17-1,.68-2.15a1.28,1.28,0,0,1,1-.14,2.43,2.43,0,0,0-.39,1.9c0.54-.1.78,0.76,0.78,0.76a3.46,3.46,0,0,0,.54,2.17c0.1-1.86.53-9.67,0.53-9.67a9.14,9.14,0,0,1,1-.54,1.9,1.9,0,0,1,1.43.91c0.2,0.69.35,1.23,0.35,1.28s0,2.26.09,4.6a50.39,50.39,0,0,1-1.87,7.71c-0.76-.49-2.46,1.56-2.46,1.56a4,4,0,0,1,.4-3.42c0-.78-2.06,0-2.06,0,0-1.66,1.47-3.32,1.17-4.3A0.91,0.91,0,0,0,1250.31,2395.2Z" transform="translate(-1130.97 -2242.15)"/><path class="cls-24" d="M1289.86,2364.9s-6.13-5.86-12,.2c0,0-18.64,2.07-22.81,19.41s2.09,29.92,2.09,29.92-5.47,24.87,6.84,27.75,38.9-.83,38.9-0.83,10.43-1.24,7.56-26.91C1310.45,2414.42,1320.62,2367.24,1289.86,2364.9Z" transform="translate(-1130.97 -2242.15)"/><path class="cls-22" d="M1326.56,2409.85l3.31-3.5,5-19.68s-5.95-3.29-5.83-6.32,0.88-9,.29-10.36c0,0,4.79-2.37,5.47,5.18,0,0,4.69-2.86,6.26-13.78,0.43-3,7.53,2.05,8.7,7.23,0.89,3.91,0,11.83,0,11.83l-4.18,6.62,1.87,21.92-0.93,9.46Z" transform="translate(-1130.97 -2242.15)"/><path class="cls-8" d="M1326.56,2409.85l3.31-3.5s7.82-.07,12.19,3.06,4.13-14.6,4.13-14.6l1.21,14.17-0.93,9.46Z" transform="translate(-1130.97 -2242.15)"/><path class="cls-8" d="M1277.87,2365.09s1.08,4.3,10.85,1.66c0,0-9.68,1.56-5-4.59C1283.73,2362.16,1279.92,2362.45,1277.87,2365.09Z" transform="translate(-1130.97 -2242.15)"/><path class="cls-11" d="M1316.79,2415.09l9.77-5.24s20.11-.38,21.95,14.48c0,0-12.67,9-18.19,13.94a50.12,50.12,0,0,1-10.49,7.35S1311.08,2415.23,1316.79,2415.09Z" transform="translate(-1130.97 -2242.15)"/><path class="cls-11" d="M1252.26,2412.6l-5.85-10s-20.11-.38-21.95,14.48c0,0,6.82,16.23,12.34,21.18a50.12,50.12,0,0,0,10.49,7.35S1260.86,2430,1252.26,2412.6Z" transform="translate(-1130.97 -2242.15)"/><path class="cls-8" d="M1312,2400.22a30.85,30.85,0,0,1-22.36,9.16c-7.38-.22-15.29-0.1-21.31.88-15.25,2.48-9.62-34-9.62-34a24.06,24.06,0,0,0-3.67,8.25c-4.17,17.34,2.09,29.92,2.09,29.92s0.65,0.39.78,4.43-1.17,19.42,8.34,22.81,17.58,0.93,27.23.73c0,0-25.8-3.19-23.45-14.66s6.65-12.2,14.47-14.35c6.43-1.77,26.23-.31,26.56-2.55A84.06,84.06,0,0,0,1312,2400.22Z" transform="translate(-1130.97 -2242.15)"/><path class="cls-8" d="M1334.76,2375.16s0.07,2.31,1.43,3.29l-0.5-4.08Z" transform="translate(-1130.97 -2242.15)"/><path class="cls-8" d="M1344.47,2361.48s0.5,0.83,0,6.13c0,0.34-1.11,5.2-1.11,5.2a32.54,32.54,0,0,0,2-10.65Z" transform="translate(-1130.97 -2242.15)"/><path class="cls-8" d="M1347.15,2363.9c0.25,0.3.07,6.72-.46,9.75,0,0,1.14-8,1.11-8.94Z" transform="translate(-1130.97 -2242.15)"/><path class="cls-8" d="M1349.71,2368.61s-0.15,6.21-.78,6.89a17.62,17.62,0,0,0,1.07-4.9Z" transform="translate(-1130.97 -2242.15)"/><path class="cls-8" d="M1268.78,2363.53l-5.12.78S1263.34,2363.33,1268.78,2363.53Z" transform="translate(-1130.97 -2242.15)"/><path class="cls-8" d="M1272,2354a44.9,44.9,0,0,1-4.66.88s-1.69,1.37-1.69,2.93c0,0,1-2.33,2-2.7C1267.61,2355.06,1271.42,2354.6,1272,2354Z" transform="translate(-1130.97 -2242.15)"/><path class="cls-8" d="M1263.66,2355.35s-2,1.2-2.08,1.92c0,0,2.71-1.74,3.08-2.11Z" transform="translate(-1130.97 -2242.15)"/><path class="cls-8" d="M1273,2359.68h0a2.2,2.2,0,0,0,1-.89,5.35,5.35,0,0,1-4.15.68,8.25,8.25,0,0,1-1,4.06,6.92,6.92,0,0,0,.77-1.47,1.76,1.76,0,0,0,1.82-2h0c0.57,1.82,1.71,2.16,2.24,2a13.68,13.68,0,0,0,1.39-.7A1.48,1.48,0,0,1,1273,2359.68Z" transform="translate(-1130.97 -2242.15)"/><polygon class="cls-19" points="216.27 106.33 105.65 106.33 95.1 38.89 227.06 38.89 216.27 106.33"/><polygon class="cls-25" points="211.78 102.16 110.15 102.16 99.59 43.06 222.56 43.06 211.78 102.16"/><polygon class="cls-8" points="137.81 99.68 115.04 99.68 106 46.11 133.69 46.11 137.81 99.68"/><polygon class="cls-10" points="132.06 62.76 110.92 62.76 110.14 58.17 131.63 58.17 132.06 62.76"/><polygon class="cls-10" points="132.88 71.69 112.51 71.69 111.72 67.1 132.43 67.1 132.88 71.69"/><polygon class="cls-10" points="133.9 82.12 114.27 82.12 113.48 77.52 133.47 77.52 133.9 82.12"/><polygon class="cls-10" points="134.86 91.96 116.03 91.96 115.25 87.36 134.41 87.36 134.86 91.96"/><polygon class="cls-8" points="160 61.56 139.79 61.56 138.73 46.11 160 46.11 160 61.56"/><polygon class="cls-8" points="160 80.33 141.06 80.33 139.99 64.89 160 64.89 160 80.33"/><polygon class="cls-8" points="160 99.68 142.41 99.68 141.34 84.23 160 84.23 160 99.68"/><polygon class="cls-8" points="185.94 61.56 165.67 61.56 165.67 46.11 186.98 46.11 185.94 61.56"/><polygon class="cls-26" points="186.69 82.12 163.36 82.12 163.36 63.1 187.99 63.1 186.69 82.12"/><polygon class="cls-8" points="183.26 99.68 165.67 99.68 165.67 84.23 184.34 84.23 183.26 99.68"/><polygon class="cls-8" points="213.5 61.56 192.17 61.56 193.17 46.11 215.49 46.11 213.5 61.56"/><polygon class="cls-8" points="210.53 80.33 190.96 80.33 192.06 64.89 212.72 64.89 210.53 80.33"/><polygon class="cls-8" points="207.31 99.68 189.72 99.68 190.71 84.23 209.87 84.23 207.31 99.68"/><polygon class="cls-19" points="95.1 38.89 97 36.14 224.83 36.14 227.06 38.89 95.1 38.89"/><polygon class="cls-18" points="61.53 163.46 78.53 201.12 86.46 201.12 74 163.46 61.53 163.46"/><polyline class="cls-19" points="86.46 201.12 86.46 195.85 78.78 163.46 74 163.46"/><polygon class="cls-18" points="255.71 163.46 238.71 201.12 230.78 201.12 243.25 163.46 255.71 163.46"/><polyline class="cls-19" points="230.78 201.12 230.78 195.85 238.46 163.46 243.25 163.46"/><line class="cls-27" x1="160" y1="61.56" x2="138.33" y2="39.88"/><line class="cls-27" x1="192.17" y1="61.56" x2="211.53" y2="42.2"/><line class="cls-27" x1="190.71" y1="84.23" x2="210.28" y2="103.81"/><line class="cls-27" x1="160" y1="84.23" x2="145.1" y2="99.13"/><line class="cls-27" x1="165.67" y1="84.23" x2="161.08" y2="94.02"/><line class="cls-27" x1="184.34" y1="84.23" x2="188.79" y2="94.02"/><line class="cls-27" x1="175.44" y1="84.23" x2="175.44" y2="104.73"/><line class="cls-27" x1="192.17" y1="72.9" x2="227.06" y2="72.9"/><line class="cls-27" x1="159.61" y1="72.22" x2="127.71" y2="72.22"/><line class="cls-27" x1="175.67" y1="58.17" x2="175.67" y2="33.18"/></svg>