<svg id="Camada_1" data-name="Camada 1" xmlns="http://www.w3.org/2000/svg" viewBox="0 0 222.65 143.52"><defs><style>.cls-1{fill:#fac399;}.cls-2,.cls-4{fill:#000100;}.cls-2,.cls-3{opacity:0.2;}.cls-5{fill:#636363;}.cls-6{fill:#343434;}.cls-7{fill:#fff;}.cls-8{fill:#23879a;}</style></defs><title>mão com acessando</title><path class="cls-1" d="M1307.38,1489.52l-10.66-25.05s0-21.52-2.93-30.3,3.35-14.63,2.3-25.49c0,0,6.06-4.16,14.73,1.39,5,3.18,35.41-24,35.41-24s8.57-5,9.4-5.43,15.67,2.93-4.18,22.15c0,0,6.37-2.3,10.29-.63s7.05,7.94,8.73,9.61c0,0-4,9-13.16,6.48v3.34l2.93-1.46s9.4,5.22,12.33,5.85,6.48,9.82,2.93,13.37c0,0,6.89,5.64,5.64,11.49s-2.28,11.07-11.79,7.1a10.06,10.06,0,0,1-4.08,1.25s-3.76,11.91-4,13.16-1.67,17.11-1.67,17.11h-52.23Z" transform="translate(-1290.11 -1346)"/><path class="cls-2" d="M1376.39,1459.14a5.9,5.9,0,0,1-2.16-4c-0.39-4.32.78-4.32,0.78-4.32s-5.93-12.38-15.48-8.59-24.9,4.1-28.92,7.74-3.45,19.28-3.45,19.28,11.8,4.75,14.1,7.57,0.84-5.54,4.81-7.1,13.28,0.66,15.25,2.63c0.21-1.25,4-13.16,4-13.16a10.06,10.06,0,0,0,4.08-1.25C1372.55,1459.25,1374.78,1459.54,1376.39,1459.14Z" transform="translate(-1290.11 -1346)"/><g class="cls-3"><path class="cls-4" d="M1351.75,1402.44c5.56-5.42,8.35-9.57,9.48-12.72,0.32-1.44.52-2.7,0.62-3.55,0-.18,0-0.35,0-0.51-0.53,4.17-4.7,8.06-6.79,7.74s-4.71-9.81-4.71-9.81h0l-4,2.31s-0.94.84-2.52,2.2C1342.41,1392.18,1345.78,1402.65,1351.75,1402.44Z" transform="translate(-1290.11 -1346)"/><path class="cls-4" d="M1353.75,1402c-0.61.15-1.12,0.29-1.5,0.41A6,6,0,0,0,1353.75,1402Z" transform="translate(-1290.11 -1346)"/></g><path class="cls-2" d="M1359.09,1413.75c-0.52-1.78,1.15-5.79,0-6.12s-3.19-4.69-3.19-4.69-4.54,14.16.94,17.4a3.33,3.33,0,0,0,.52.25v-2.32a10.19,10.19,0,0,0,8.53-1.15,14.67,14.67,0,0,0,3.51-3.44l0.27-.4h0C1366.14,1417.47,1359.62,1415.53,1359.09,1413.75Z" transform="translate(-1290.11 -1346)"/><path class="cls-2" d="M1369.5,1435.85c-2.08-2.39-2-11.85-2-11.85h0c-2.67-1.3-5.45-2.8-6.59-3.42h0s-6.69,11.8-6.16,12.33S1371.58,1438.24,1369.5,1435.85Z" transform="translate(-1290.11 -1346)"/><path class="cls-5" d="M1332.45,1346l-36,5.15s-7.92,1.85-6,10,29.41,100.12,29.41,100.12,3,10,11.62,7.7c7.29-2,35.18-11.6,35.18-11.6s5-.73,1.57-12.43c-2.15-7.3-26.32-86.88-26.32-86.88S1338.3,1347.46,1332.45,1346Z" transform="translate(-1290.11 -1346)"/><path class="cls-6" d="M1334.33,1346l-37,5.85s-5,.42-3.13,8.57,29.88,100.92,29.88,100.92,1.88,8.15,9.19,6.27,33.85-11.7,33.85-11.7,4-.63,1.25-10.24c-2.07-7.32-27.37-93-27.37-93A8.79,8.79,0,0,0,1334.33,1346Z" transform="translate(-1290.11 -1346)"/><polygon class="cls-7" points="8.23 21.88 33.86 108.49 75.14 95.47 51.03 13.9 8.23 21.88"/><polygon class="cls-8" points="31.95 102.05 73.47 89.73 75.14 95.47 33.7 107.95 31.95 102.05"/><polygon class="cls-8" points="8.07 21.35 51.03 13.9 52.7 19.53 9.84 27.32 8.07 21.35"/><path class="cls-1" d="M1314.69,1446.64c-0.56-4.46-2.23-8.07-4.19-10l0,0,0,0v0.06s4-7.11,0-20.53-14.41-7.4-14.41-7.4c12.48,0,7.2,15.81,7.31,24,0,0.27,7.28,1.58,5.32,2.76l-0.59.26a21.92,21.92,0,0,1,4.14,10.07c0.8,6,6.28,11.29,6.28,11.29C1317.28,1455.57,1315.25,1451.1,1314.69,1446.64Z" transform="translate(-1290.11 -1346)"/><path class="cls-2" d="M1314.69,1446.64c-0.56-4.46-2.23-8.07-4.19-10l0,0,0,0v0.06s4-7.11,0-20.53-14.41-7.4-14.41-7.4c12.48,0,14.56,13.58,14.68,21.8,0,0.27-.08,3.81-2,5l-0.59.26a21.92,21.92,0,0,1,4.14,10.07c0.8,6,6.28,11.29,6.28,11.29C1317.28,1455.57,1315.25,1451.1,1314.69,1446.64Z" transform="translate(-1290.11 -1346)"/><path class="cls-1" d="M1482.83,1444.84c-10.9-10.44-29.92-16.52-31.8-16.07-5.15,1.25-35.63,11.32-35.63,11.32-27,2.65-57.07-12.4-57.07-12.4-17.17,17.15,39.1,31.34,39.1,31.34-0.42,2.51,1.46,6.89,1.46,6.89-7.94-1.88-11.07,3.38-11.07,3.38-7.31,9.23,16.71,20.21,16.71,20.21h108.23C1503.44,1475.63,1500.38,1461.65,1482.83,1444.84Zm-69.9,26.5s-1.25-5,0-5.43a37.1,37.1,0,0,1,15.74,13.65S1416.2,1474.62,1412.93,1471.34Z" transform="translate(-1290.11 -1346)"/><path class="cls-2" d="M1428.78,1479.56l1.35,0.71s-1-.66-1.28-3.1a8.39,8.39,0,0,1,.52-3.13,3.7,3.7,0,0,1-2.56-.39c-1.38-.68-5.77-2.66-5.77-2.66h0A37.44,37.44,0,0,1,1428.78,1479.56Z" transform="translate(-1290.11 -1346)"/><g class="cls-3"><path class="cls-4" d="M1396.93,1458.62l-0.07,0Z" transform="translate(-1290.11 -1346)"/><path class="cls-4" d="M1398.39,1465.52c-0.38-.09-0.74-0.16-1.09-0.22A5,5,0,0,0,1398.39,1465.52Z" transform="translate(-1290.11 -1346)"/><path class="cls-4" d="M1412.93,1465.94c-2.72-2.72-15.5-6.87-15.5-6.87-0.42,2.51,1.46,6.89,1.46,6.89,4.18,0.37,14,5.41,14,5.41S1411.68,1466.35,1412.93,1465.94Z" transform="translate(-1290.11 -1346)"/></g><path class="cls-8" d="M1318.06,1411.75l-1.7.52a1.53,1.53,0,0,0-1.09,1.82l2.87,9.42,1.47-.48-1.21-3.93,1.63-.5,1.2,3.91,1.46-.45-2.87-9.32A1.41,1.41,0,0,0,1318.06,1411.75Zm0.48,1.92,1.11,3.61-1.65.51-1.14-3.7a0.47,0.47,0,0,1,.24-0.62l0.77-.24A0.55,0.55,0,0,1,1318.54,1413.67Z" transform="translate(-1290.11 -1346)"/><path class="cls-8" d="M1339.6,1405.12l-1.7.52a1.53,1.53,0,0,0-1.09,1.82l2.87,9.42,1.47-.48-1.21-3.93,1.63-.5,1.2,3.91,1.46-.45-2.87-9.32A1.41,1.41,0,0,0,1339.6,1405.12Zm0.48,1.92,1.11,3.61-1.65.51-1.14-3.7a0.47,0.47,0,0,1,.24-0.62l0.77-.24A0.55,0.55,0,0,1,1340.08,1407Z" transform="translate(-1290.11 -1346)"/><path class="cls-8" d="M1347.75,1402.61l-1.7.52A1.53,1.53,0,0,0,1345,1405l2.87,9.42,1.47-.48-1.21-3.93,1.63-.5,1.2,3.91,1.46-.45-2.87-9.32A1.41,1.41,0,0,0,1347.75,1402.61Zm0.48,1.92,1.11,3.61-1.65.51-1.14-3.7a0.47,0.47,0,0,1,.24-0.62l0.77-.24A0.55,0.55,0,0,1,1348.23,1404.54Z" transform="translate(-1290.11 -1346)"/><path class="cls-8" d="M1325,1419.76l-1.17-3.8-0.54-1.77h0l-1.15-3.73-1.45.45,3.29,10.77,0.12,0h0l3.35-1-0.45-1.47Z" transform="translate(-1290.11 -1346)"/><path class="cls-8" d="M1328.13,1408.67l2.72,9a0.47,0.47,0,0,1-.24.62l-0.83.26a0.55,0.55,0,0,1-.66-0.43l-2.7-8.84-1.46.45,2.87,9.32a1.41,1.41,0,0,0,1.77,1l1.7-.52a1.53,1.53,0,0,0,1.09-1.82l-2.87-9.42Z" transform="translate(-1290.11 -1346)"/><path class="cls-8" d="M1337.13,1411.84l-2.33.71,0.46,1.49,0.88-.27,0.69,2.26a0.47,0.47,0,0,1-.27.38l-0.83.26a0.55,0.55,0,0,1-.66-0.43l-1.76-5.78h0l-0.41-1.35a0.47,0.47,0,0,1,.24-0.62l0.83-.25a0.55,0.55,0,0,1,.66.43l0.37,1.2,1.44-.44-0.52-1.69a1.41,1.41,0,0,0-1.77-1l-1.7.52a1.53,1.53,0,0,0-1.09,1.82l0.55,1.8h0l1.93,6.26h0v0h0a1.41,1.41,0,0,0,1.76,1l1.7-.52a1.53,1.53,0,0,0,1.09-1.82l0-.07h0l-0.74-2.41h0l-0.45-1.47h0Z" transform="translate(-1290.11 -1346)"/><path class="cls-8" d="M1355.07,1412.12l-0.45-1.48h0l-1.17-3.8-0.54-1.77h0l-1.15-3.73-1.45.45,3.29,10.77,0.12,0h0Z" transform="translate(-1290.11 -1346)"/><polygon class="cls-8" points="59.92 55.17 60.92 54.86 61.42 52.79 60 53.23 59.92 55.17"/><path class="cls-8" d="M1318.59,1403.86a4.91,4.91,0,0,0,4.16,1.49s0.53,0.17,1.32-1,4.61-2.35,7.43-2.86a3.11,3.11,0,0,0,1.21-.95s3.45-3.38,4.77-4.45a0.85,0.85,0,0,0,.26-1.1c-0.36-.67-2.3.07-5,2.12a1.66,1.66,0,0,1,.06,1.58s-0.44,1.1-3.93,1.51l-0.1-.24s-0.16-.13,2.28-0.7c0,0,1.61-.34,1.38-1.39,0,0,.05-1.1-2.25-0.45a18,18,0,0,1-4.18.59,3.11,3.11,0,0,0-2.31,1.4C1322.68,1400.83,1318.86,1403.66,1318.59,1403.86Z" transform="translate(-1290.11 -1346)"/><path class="cls-8" d="M1335.23,1393.86a0.67,0.67,0,0,1-.41.86l-8.13,2.5a0.67,0.67,0,0,1-.82-0.48l-2.47-8a0.67,0.67,0,0,1,.41-0.86l8.13-2.5a0.67,0.67,0,0,1,.82.48Z" transform="translate(-1290.11 -1346)"/><path class="cls-7" d="M1330.05,1391.12h0l-3,.93,0.56-1a0.24,0.24,0,0,0-.43-0.24l-0.86,1.52a0.29,0.29,0,0,0,.11.37l1.51,0.8a0.25,0.25,0,0,0,.33-0.1,0.25,0.25,0,0,0-.1-0.33l-1-.55,3.05-.95A0.24,0.24,0,0,0,1330.05,1391.12Z" transform="translate(-1290.11 -1346)"/><path class="cls-7" d="M1328.53,1391.3h0l3-.93-0.56,1a0.24,0.24,0,0,0,.43.24l0.86-1.52a0.29,0.29,0,0,0-.11-0.37l-1.51-.8a0.25,0.25,0,0,0-.33.1,0.24,0.24,0,0,0,.1.33l1,0.55-3.05.95A0.24,0.24,0,0,0,1328.53,1391.3Z" transform="translate(-1290.11 -1346)"/></svg>