<svg xmlns="http://www.w3.org/2000/svg" viewBox="0 0 127.78 127.78"><defs><style>.cls-1{isolation:isolate;}.cls-2{fill:#30b6b2;}.cls-3{mix-blend-mode:soft-light;}.cls-11,.cls-4{fill:#fff;}.cls-5{fill:#fddeba;}.cls-15,.cls-6{fill:#6dc3c2;}.cls-10,.cls-7{fill:#195567;}.cls-8{fill:#23879a;}.cls-9{opacity:0.2;}.cls-10,.cls-11,.cls-14,.cls-15{fill-rule:evenodd;}.cls-12{fill:#e6e6e6;}.cls-13,.cls-14{fill:#007f6d;}</style></defs><title>COMPARTILHE</title><g class="cls-1"><g id="Camada_1" data-name="Camada 1"><path class="cls-2" d="M1648.58,702.64a44.85,44.85,0,1,0,44.85,44.85A44.91,44.91,0,0,0,1648.58,702.64Z" transform="translate(-1584.98 -683.6)"/><path class="cls-2" d="M1648.87,811.38a63.89,63.89,0,1,1,63.89-63.89A64,64,0,0,1,1648.87,811.38Zm0-101A37.14,37.14,0,1,0,1686,747.49,37.19,37.19,0,0,0,1648.87,710.35Z" transform="translate(-1584.98 -683.6)"/><g class="cls-3"><path class="cls-4" d="M1648.87,811.38a63.89,63.89,0,1,1,63.89-63.89A64,64,0,0,1,1648.87,811.38Zm0-101A37.14,37.14,0,1,0,1686,747.49,37.19,37.19,0,0,0,1648.87,710.35Z" transform="translate(-1584.98 -683.6)"/></g><path class="cls-5" d="M1656.34,802.62l-0.71-3s-4.3-.56-5.72-2.93l-7.34-27.49a2.18,2.18,0,0,1,1.57-3c1.09-.27,2.09-0.11,2.44,1.29l3.83,14.37,1-.65-4-16.27s-0.48-2.34,1.34-2.79a2.09,2.09,0,0,1,2.49,1.18l4.37,15.51,1.26-.1-4.42-17.08a1.79,1.79,0,0,1,1.52-2.28,2.08,2.08,0,0,1,2.58,1.56l4.3,17,1.24-.31-3.58-15.22s-0.29-2.08,1.53-2.53a2,2,0,0,1,2.47,1.08l8.51,38Z" transform="translate(-1584.98 -683.6)"/><circle class="cls-6" cx="1656.46" cy="778.88" r="11.66" transform="translate(-1451.44 1110.78) rotate(-58.88)"/><path class="cls-4" d="M1667.55,785.57a12.94,12.94,0,1,1-4.39-17.77A13,13,0,0,1,1667.55,785.57Zm-20.27-12.24A10.73,10.73,0,1,0,1662,769.7,10.75,10.75,0,0,0,1647.28,773.34Z" transform="translate(-1584.98 -683.6)"/><path class="cls-7" d="M1668.8,786.33a14.41,14.41,0,1,1-4.89-19.78A14.42,14.42,0,0,1,1668.8,786.33Zm-22.56-13.62a11.94,11.94,0,1,0,16.4-4.05A12,12,0,0,0,1646.24,772.71Z" transform="translate(-1584.98 -683.6)"/><circle class="cls-4" cx="1650.9" cy="788.05" r="1.17" transform="translate(-1461.91 1110.55) rotate(-58.88)"/><circle class="cls-4" cx="1661.97" cy="769.71" r="1.17" transform="translate(-1441.05 1110.88) rotate(-58.87)"/><circle class="cls-4" cx="1647.28" cy="773.34" r="1.17" transform="translate(-1451.26 1100.05) rotate(-58.87)"/><circle class="cls-4" cx="1665.68" cy="784.45" r="1.17" transform="translate(-1451.7 1121.44) rotate(-58.88)"/><circle class="cls-4" cx="1656.45" cy="778.86" r="1.17" transform="translate(-1451.37 1110.84) rotate(-58.88)"/><rect class="cls-4" x="1648.02" y="780.53" width="8.95" height="0.28" transform="translate(-1759.89 69.47) rotate(-24.42)"/><rect class="cls-4" x="1656.28" y="773.84" width="0.28" height="5.11" transform="translate(-1600.87 -648.76) rotate(-1.2)"/><path class="cls-5" d="M1663.67,801.52s-2.56-5.36-1.16-9.25a10.93,10.93,0,0,1,3.88-5.43l-1.76-8.71a4.21,4.21,0,0,1,3.14-4.78l4.25,18.78s0.7,2.08-1.32,5l0.53,2.5Z" transform="translate(-1584.98 -683.6)"/><rect class="cls-4" x="1654.57" y="800.83" width="18.59" height="1.95" transform="translate(-1728.73 -261.08) rotate(-13.88)"/><circle class="cls-4" cx="1656.22" cy="807.95" r="0.93" transform="translate(-1730.43 -262.73) rotate(-13.88)"/><path class="cls-7" d="M1675,800.05L1653,805.5l1.38,5.59a63.46,63.46,0,0,0,21.95-5.93Z" transform="translate(-1584.98 -683.6)"/><path class="cls-5" d="M1603.36,707l2.77,1.31s3.13-3,5.87-2.63l26,11.5a2.18,2.18,0,0,1,1.33,3.08c-0.47,1-1.22,1.7-2.53,1.09l-13.6-6-0.14,1.21,15.15,7.11s2.13,1.1,1.34,2.79a2.09,2.09,0,0,1-2.47,1.2l-14.83-6.32-0.71,1,16.08,7.26a1.79,1.79,0,0,1,.82,2.62,2.08,2.08,0,0,1-2.83,1l-15.94-7.3-0.54,1.16,14.11,6.75s1.8,1.07,1,2.77a2,2,0,0,1-2.39,1.24l-35-17.19Z" transform="translate(-1584.98 -683.6)"/><path class="cls-8" d="M1602.75,740c2.72,1.39,6.56,3.15,8.73,4.13a8.4,8.4,0,0,0,12.62-7.8l7.07-11.47h0a8.4,8.4,0,0,0,1.31-14.77c-1.85-1.5-5.16-4.15-7.63-6-3.61-2.64-6.07-4.34-9-1.46s-3.21,5.4.77,11.6c1,1.5,1.88,2.78,2.71,3.85l-6.55,10.63c-1.33-.26-2.88-0.51-4.66-0.69-7.32-.76-9.47.59-10.71,4.53S1598.77,738,1602.75,740Z" transform="translate(-1584.98 -683.6)"/><g class="cls-9"><path d="M1633.33,710.43q-0.3-.24-0.63-0.45A1.28,1.28,0,0,0,1633.33,710.43Z" transform="translate(-1584.98 -683.6)"/><path d="M1624.93,706.27c2.24,1.65,1.56,2.75,1.56,2.75,2.05-1,6.2,1,6.2,1-1.85-1.5-5.16-4.15-7.63-6-3.61-2.64-6.07-4.34-9-1.46a7.37,7.37,0,0,0-2,2.78h0C1616.72,700.71,1622.69,704.62,1624.93,706.27Z" transform="translate(-1584.98 -683.6)"/><path d="M1603.31,732.1a7.26,7.26,0,0,1,5.09,3.14,11.23,11.23,0,0,1,2.31-3.75h0s3.54-3.25,7.89-1.6l0.06,0a11.77,11.77,0,0,0,1.34.66,8.49,8.49,0,0,0-.86-0.46c-2.11-1.35-2.68-3.52-1-6.25,1.55-2.52,4.56-1.27,5.57-.74q0.29,0.22.62,0.42l-0.28-.23h0l-0.55-.42-0.56-.42c-3.26-3.14-2-7.64-2-7.64-1.57,1-4.67-1.89-4.92-1.78q0.33,0.56.72,1.15c1,1.5,1.88,2.78,2.71,3.85l-0.76,1.23,0,0-4.41,7.16v0.06l-1.37,2.22c-0.82-.16-1.72-0.32-2.7-0.45l0-.07q-0.89-.12-1.87-0.23c-7.32-.76-9.47.59-10.71,4.53a5.64,5.64,0,0,0-.3,2.13C1597.52,733.13,1599.91,731.73,1603.31,732.1Z" transform="translate(-1584.98 -683.6)"/></g><g class="cls-9"><path d="M1617.94,740.56a1.45,1.45,0,0,1-.14-2.41,1.18,1.18,0,0,1,1.76-.21,1.52,1.52,0,0,1,.73,2A1.85,1.85,0,0,1,1617.94,740.56Z" transform="translate(-1584.98 -683.6)"/></g><circle class="cls-4" cx="1619.05" cy="739.05" r="1.54" transform="translate(-1444.42 1046.19) rotate(-58.36)"/><g class="cls-9"><path d="M1612.83,737.22a1.45,1.45,0,0,1-.14-2.41,1.18,1.18,0,0,1,1.76-.21,1.52,1.52,0,0,1,.73,2A1.85,1.85,0,0,1,1612.83,737.22Z" transform="translate(-1584.98 -683.6)"/></g><circle class="cls-4" cx="1613.94" cy="735.71" r="1.54" transform="translate(-1444.01 1040.25) rotate(-58.36)"/><g class="cls-9"><path d="M1613.74,742a1.45,1.45,0,0,1-.14-2.41,1.18,1.18,0,0,1,1.76-.21,1.52,1.52,0,0,1,.73,2A1.85,1.85,0,0,1,1613.74,742Z" transform="translate(-1584.98 -683.6)"/></g><circle class="cls-4" cx="1614.85" cy="740.52" r="1.54" transform="translate(-1447.67 1043.32) rotate(-58.36)"/><g class="cls-9"><path d="M1617.06,736.34a1.45,1.45,0,0,1-.14-2.41,1.18,1.18,0,0,1,1.76-.21,1.52,1.52,0,0,1,.73,2A1.85,1.85,0,0,1,1617.06,736.34Z" transform="translate(-1584.98 -683.6)"/></g><circle class="cls-4" cx="1618.16" cy="734.83" r="1.54" transform="translate(-1441.25 1043.43) rotate(-58.36)"/><g class="cls-9"><path d="M1631.27,719.57v-0.13a3.5,3.5,0,0,0,.86-1.63l-1.62-1-1.18.25-0.07,0-0.29.12,0.41,1.56,1.6,1Z" transform="translate(-1584.98 -683.6)"/></g><path class="cls-4" d="M1632.42,717.7l-1.62-1-1.54.33,0.41,1.56,1.6,1A3.07,3.07,0,0,0,1632.42,717.7Z" transform="translate(-1584.98 -683.6)"/><g class="cls-9"><path d="M1625.27,715.88l0.12-.06a3.5,3.5,0,0,1,1.07-1.5l1.62,1,0.31,1.16,0.07,0,0,0.32-1.58.34-1.6-1Z" transform="translate(-1584.98 -683.6)"/></g><path class="cls-4" d="M1626.43,714l1.62,1,0.4,1.53-1.58.34-1.6-1A3.07,3.07,0,0,1,1626.43,714Z" transform="translate(-1584.98 -683.6)"/><g class="cls-9"><path d="M1627.67,720.57l0.32,0,0.67-3.16-1.88.44-1,1.6A3.07,3.07,0,0,0,1627.67,720.57Z" transform="translate(-1584.98 -683.6)"/></g><path class="cls-4" d="M1628,720.54l1-1.62-0.33-1.54-1.56.41-1,1.6A3.07,3.07,0,0,0,1628,720.54Z" transform="translate(-1584.98 -683.6)"/><g class="cls-9"><path d="M1629.8,713.39l0.06,0.12a3.5,3.5,0,0,1,1.5,1.07l-1,1.62-1.16.31,0,0.07-0.32,0L1628.5,715l1-1.6Z" transform="translate(-1584.98 -683.6)"/></g><path class="cls-4" d="M1631.67,714.54l-1,1.62-1.53.4-0.34-1.58,1-1.6A3.07,3.07,0,0,1,1631.67,714.54Z" transform="translate(-1584.98 -683.6)"/><path class="cls-5" d="M1599.63,713.42s5.78,1.37,7.94,4.89a10.93,10.93,0,0,1,1.8,6.42l7.89,4.09a4.21,4.21,0,0,1,1.76,5.44l-17.3-8.46s-2.06-.76-3.11-4.19l-2.28-1.16Z" transform="translate(-1584.98 -683.6)"/><rect class="cls-4" x="1589.99" y="712.42" width="18.59" height="1.95" transform="translate(-1306.42 1179.72) rotate(-65.09)"/><path class="cls-7" d="M1603,703.12a63.93,63.93,0,0,0-12.52,18.58l3.2,1.49Z" transform="translate(-1584.98 -683.6)"/><path class="cls-5" d="M1594.31,769.57a18.31,18.31,0,0,0-4.08,3.2,63.77,63.77,0,0,0,7.37,12.77c1.79-.22,14.08-1.72,15.1-2.22s3.36-6.46,3.36-6.46S1596.67,768.57,1594.31,769.57Z" transform="translate(-1584.98 -683.6)"/><path class="cls-8" d="M1611.18,783.59l-9-15.94a3.21,3.21,0,0,1,1.22-4.37l31.7-17.9a3.21,3.21,0,0,1,4.37,1.22l9,15.94a3.21,3.21,0,0,1-1.22,4.37l-9.48,5.36-22.21,12.54A3.21,3.21,0,0,1,1611.18,783.59Z" transform="translate(-1584.98 -683.6)"/><rect class="cls-4" x="1609.18" y="754.53" width="32.92" height="20.85" transform="translate(-1751.01 214.58) rotate(-29.45)"/><circle class="cls-4" cx="1609.26" cy="774.2" r="1.66" transform="translate(-1757.68 207.72) rotate(-29.45)"/><path class="cls-4" d="M1643,758.68l-3-5.33a0.34,0.34,0,0,1,.13-0.47h0a0.34,0.34,0,0,1,.47.13l1,1.83,2,3.5a0.34,0.34,0,0,1-.13.47h0A0.34,0.34,0,0,1,1643,758.68Z" transform="translate(-1584.98 -683.6)"/><path class="cls-5" d="M1593.79,769.85s5.41-3.08,9.58-1.91,5.35,2.79,5.35,2.79l8.07-2s3,0.18,4.47,4.06l-17,5.12s-2.12.89-5.37-1l-2.57.74Z" transform="translate(-1584.98 -683.6)"/><path class="cls-5" d="M1709.29,743.26c-0.95-.77-7.27-0.35-7.27-0.35s0.58,21.08,2.47,22.81a19,19,0,0,0,4.79,2.43,63.7,63.7,0,0,0,3.42-19.95A46.69,46.69,0,0,0,1709.29,743.26Z" transform="translate(-1584.98 -683.6)"/><polygon class="cls-10" points="120.75 62.19 120 49.93 80.67 51.84 82.42 77.82 121.15 74.65 120.75 62.19"/><path class="cls-11" d="M1705.38,758.42l-1.16-24.36-38.56,2.14h0l-0.29.22h0.07l-0.51.32h0.12l-1,.63,0.25,0-0.42.26h-0.14l-0.41.26-0.05.31,2.51,0,1.62,24Z" transform="translate(-1584.98 -683.6)"/><polygon class="cls-10" points="117.53 64.67 116.78 52.4 77.45 54.31 79.2 80.29 117.93 77.12 117.53 64.67"/><path class="cls-12" d="M1663.88,737.6s10-.55,10.5-0.59-10.27.44-10.27,0.44Z" transform="translate(-1584.98 -683.6)"/><path class="cls-12" d="M1703.21,735.6l0.35,4.08-0.15-4.61,0.46-.63L1703,735l-16.56.85,15.94-.62c0.17,0,0,.13,0,0.13h0l-22.85,1.27,22.63-1.15s0.12,0.07.06,0.13,0,0,0,0l-0.41.28h0.1l0.18,3.43,0-3.1a0.83,0.83,0,0,1,.19-0.54h0c0.08,0,.22,0,0.26.21l0.7,8.28-0.33-8.29C1703,735.74,1703.05,735.39,1703.21,735.6Z" transform="translate(-1584.98 -683.6)"/><polygon class="cls-12" points="80.08 53.14 94.96 52.21 79.72 53.36 80.08 53.14"/><path class="cls-12" d="M1681.21,735.8l16.5-.89S1685.23,735.2,1681.21,735.8Z" transform="translate(-1584.98 -683.6)"/><path class="cls-5" d="M1705,766.08s-5.06-3.63-5.75-7.9,0.29-6,.29-6l-5.24-6.47s-1.11-2.84,1.82-5.76l11.77,13.32s1.69,1.55,1.35,5.3l1.75,2Z" transform="translate(-1584.98 -683.6)"/><path class="cls-5" d="M1664.15,685.5c-3,3.07-7.35,7.49-7.69,8.19-0.53,1.1,1.33,7.16,1.33,7.16s20.38-5.4,21.63-7.64a7.14,7.14,0,0,0,.54-1.48A63.41,63.41,0,0,0,1664.15,685.5Z" transform="translate(-1584.98 -683.6)"/><rect class="cls-13" x="1643.9" y="706.4" width="38.97" height="21.43" transform="translate(-1158.41 1356.91) rotate(-70.26)"/><rect class="cls-6" x="1645.34" y="707.86" width="36.09" height="18.52" transform="translate(-1158.43 1356.9) rotate(-70.26)"/><circle class="cls-13" cx="1661.47" cy="698.37" r="2.49" transform="translate(-1141.87 1342.85) rotate(-70.27)"/><circle class="cls-13" cx="1676.87" cy="703.9" r="2.49" transform="translate(-1137.21 1360.7) rotate(-70.25)"/><circle class="cls-13" cx="1649.99" cy="730.36" r="2.49" transform="translate(-1179.8 1353.03) rotate(-70.26)"/><circle class="cls-13" cx="1663.39" cy="717.12" r="5.92" transform="translate(-1158.41 1356.92) rotate(-70.26)"/><circle class="cls-13" cx="1665.39" cy="735.89" r="2.49" transform="translate(-1174.79 1371.2) rotate(-70.26)"/><rect class="cls-13" x="1639.92" y="703.71" width="38.97" height="21.43" transform="translate(-1445.25 1007.87) rotate(-56.03)"/><rect class="cls-6" x="1641.36" y="705.17" width="36.09" height="18.52" transform="translate(-1445.25 1007.88) rotate(-56.03)"/><circle class="cls-13" cx="1662.15" cy="695.79" r="2.49" transform="translate(-1428.58 1001.93) rotate(-56.03)"/><circle class="cls-13" cx="1675.96" cy="703.97" r="2.49" transform="matrix(0.56, -0.83, 0.83, 0.56, -1429.27, 1016.99)"/><circle class="cls-13" cx="1643.16" cy="723.98" r="2.49" transform="translate(-1460.34 998.62) rotate(-56.03)"/><circle class="cls-6" cx="1659.4" cy="714.43" r="5.92" transform="translate(-1433.07 1026.57) rotate(-56.74)"/><path class="cls-13" d="M1659.39,723.38a8.95,8.95,0,0,1-7.46-13.85h0A8.94,8.94,0,1,1,1659.39,723.38ZM1657,712.84a2.9,2.9,0,1,0,4-.83,2.89,2.89,0,0,0-4,.83h0Z" transform="translate(-1584.98 -683.6)"/><circle class="cls-13" cx="1656.73" cy="733.12" r="2.49" transform="translate(-1461.93 1013.91) rotate(-56.03)"/><path class="cls-5" d="M1679.65,692.67s-2.37,5.76-6.37,7.4-5.93,1.1-5.93,1.1l-5.09,6.58s-2.5,1.73-6-.45l10.26-14.51s1.12-2,4.84-2.53l1.57-2.17Z" transform="translate(-1584.98 -683.6)"/><path class="cls-14" d="M1655.11,711.64a5.12,5.12,0,1,0,7.08-1.5A5.12,5.12,0,0,0,1655.11,711.64Zm6.62,2.62a1.67,1.67,0,0,1-.07,1l0.38,0.26-0.49.72-0.33-.23a2.3,2.3,0,0,1-.53.5,2.61,2.61,0,0,1-.88.36l-0.5-1.06a2.2,2.2,0,0,0,.75-0.22,1.42,1.42,0,0,0,.26-0.18,1.18,1.18,0,0,0,.21-0.25,0.63,0.63,0,0,0,.11-0.44,0.47,0.47,0,0,0-.07-0.2l-0.35-.24a0.42,0.42,0,0,0-.19,0,1.74,1.74,0,0,0-.58.4l-0.09.07a2.24,2.24,0,0,1-.94.54,1.18,1.18,0,0,1-.89-0.21,1.47,1.47,0,0,1-.68-1,1.73,1.73,0,0,1,.11-1l-0.45-.3,0.49-.72,0.41,0.27a2.37,2.37,0,0,1,.34-0.31,2.7,2.7,0,0,1,.55-0.31l0.58,0.89a1.83,1.83,0,0,0-.5.24l-0.1.08a1.2,1.2,0,0,0-.24.27,0.62,0.62,0,0,0-.12.39,0.36,0.36,0,0,0,.17.29,0.42,0.42,0,0,0,.14.06,0.35,0.35,0,0,0,.18,0,1.41,1.41,0,0,0,.47-0.32l0,0,0.15-.13a2.16,2.16,0,0,1,.87-0.52,1.2,1.2,0,0,1,.52,0,1.6,1.6,0,0,1,.53.23A1.66,1.66,0,0,1,1661.74,714.26Z" transform="translate(-1584.98 -683.6)"/><path class="cls-15" d="M1657,712.16l0.41,0.27-0.09.11-0.24.37a2.28,2.28,0,0,0-.12.27l-0.45-.3Z" transform="translate(-1584.98 -683.6)"/><path class="cls-15" d="M1661.67,715.29l0.38,0.26-0.49.72-0.33-.23,0.11-.15,0.23-.38A1.92,1.92,0,0,0,1661.67,715.29Z" transform="translate(-1584.98 -683.6)"/></g></g></svg>