<svg xmlns="http://www.w3.org/2000/svg" viewBox="0 0 127.45 146.5"><defs><style>.cls-1{isolation:isolate;}.cls-2{fill:#e4e5e5;}.cls-10,.cls-2,.cls-6,.cls-7{mix-blend-mode:multiply;}.cls-3{fill:#ffd71c;}.cls-4{fill:#ffe64f;}.cls-5{fill:#f9bf2e;}.cls-6{opacity:0.3;}.cls-7{fill:#798189;opacity:0;}.cls-10,.cls-8{fill:#edb1ae;}.cls-18,.cls-9{fill:#f9d8d4;}.cls-9{opacity:0.2;}.cls-10{opacity:0.1;}.cls-11{fill:#e8a9a7;}.cls-12{fill:#f9dcdc;}.cls-13{fill:#c09190;}.cls-14{fill:#1a1916;}.cls-15{fill:#b7ce32;}.cls-16{fill:#99b527;}.cls-17{fill:#fdeeee;}.cls-19{fill:#c54e53;}</style></defs><title>ECONOMIZE</title><g class="cls-1"><g id="Camada_1" data-name="Camada 1"><ellipse class="cls-2" cx="63.73" cy="141.23" rx="63.73" ry="5.28"/><g id="Design"><circle class="cls-3" cx="29.15" cy="37.52" r="5.15"/><circle class="cls-4" cx="29.15" cy="37.52" r="3.8"/><path class="cls-5" d="M524.65,1008.79a3.64,3.64,0,0,1-.84-0.19,3,3,0,0,1-.74-0.39l0.53-.78a3.14,3.14,0,0,0,.55.32,2.31,2.31,0,0,0,.54.16v-0.71a4.46,4.46,0,0,1-.62-0.19,1.62,1.62,0,0,1-.45-0.26,1,1,0,0,1-.27-0.35,1.14,1.14,0,0,1-.09-0.48h0a1.19,1.19,0,0,1,.09-0.48,1.08,1.08,0,0,1,.27-0.38,1.39,1.39,0,0,1,.44-0.26,2.07,2.07,0,0,1,.6-0.12v-0.33h0.61v0.35a2.7,2.7,0,0,1,.67.16,2.73,2.73,0,0,1,.57.3l-0.48.79a2.16,2.16,0,0,0-.38-0.22,2.38,2.38,0,0,0-.4-0.14v0.68a4,4,0,0,1,.61.19,1.65,1.65,0,0,1,.44.26,1,1,0,0,1,.26.36,1.2,1.2,0,0,1,.09.48h0a1.14,1.14,0,0,1-.1.48,1.11,1.11,0,0,1-.28.37,1.39,1.39,0,0,1-.44.25,2.24,2.24,0,0,1-.57.12v0.58h-0.61v-0.59Zm0-3.25a0.54,0.54,0,0,0-.31.1,0.25,0.25,0,0,0-.09.2h0a0.25,0.25,0,0,0,.08.19,0.82,0.82,0,0,0,.32.14v-0.63Zm0.55,2.4q0.39,0,.39-0.3h0a0.25,0.25,0,0,0-.08-0.19,0.8,0.8,0,0,0-.31-0.14v0.65Z" transform="translate(-495.77 -969.3)"/><circle class="cls-3" cx="94.19" cy="42.57" r="5.15"/><circle class="cls-4" cx="94.19" cy="42.57" r="3.8"/><path class="cls-5" d="M589.69,1013.83a3.63,3.63,0,0,1-.84-0.19,3,3,0,0,1-.74-0.39l0.53-.78a3.15,3.15,0,0,0,.55.32,2.3,2.3,0,0,0,.54.16v-0.71a4.46,4.46,0,0,1-.62-0.19,1.63,1.63,0,0,1-.45-0.26,1,1,0,0,1-.27-0.35,1.14,1.14,0,0,1-.09-0.48h0a1.18,1.18,0,0,1,.09-0.48,1.08,1.08,0,0,1,.27-0.38,1.39,1.39,0,0,1,.44-0.26,2.08,2.08,0,0,1,.6-0.12v-0.33h0.61v0.35a2.7,2.7,0,0,1,.67.16,2.73,2.73,0,0,1,.57.3l-0.48.79a2.15,2.15,0,0,0-.38-0.22,2.37,2.37,0,0,0-.4-0.14v0.68a4,4,0,0,1,.61.19,1.64,1.64,0,0,1,.44.26,1,1,0,0,1,.26.36,1.2,1.2,0,0,1,.09.48h0a1.14,1.14,0,0,1-.1.48,1.12,1.12,0,0,1-.28.37,1.39,1.39,0,0,1-.44.25,2.25,2.25,0,0,1-.57.12v0.58h-0.61v-0.59Zm0-3.25a0.54,0.54,0,0,0-.31.1,0.25,0.25,0,0,0-.09.2h0a0.25,0.25,0,0,0,.08.19,0.82,0.82,0,0,0,.32.14v-0.63Zm0.55,2.4q0.39,0,.39-0.3h0a0.25,0.25,0,0,0-.08-0.19,0.8,0.8,0,0,0-.31-0.14V1013Z" transform="translate(-495.77 -969.3)"/><g class="cls-6"><path class="cls-7" d="M601.84,1107.4c0,2.78-18.1,7.3-41.17,7.3s-42.35-4.51-42.35-7.3,18.7-5,41.76-5S601.84,1104.62,601.84,1107.4Z" transform="translate(-495.77 -969.3)"/></g><circle class="cls-8" cx="530.28" cy="1029.97" r="11.93" transform="translate(-1103.47 -156.23) rotate(-51.97)"/><circle class="cls-8" cx="588.88" cy="1029.97" r="11.93" transform="translate(-1005.31 -387.79) rotate(-38.03)"/><path class="cls-9" d="M583.68,1022.64c3.37-2.82,8.74-2.07,12.67-.93-3.51-1.53-10.94-4.17-14.82-1.14A11.93,11.93,0,0,0,578,1035,15.43,15.43,0,0,1,583.68,1022.64Z" transform="translate(-495.77 -969.3)"/><path class="cls-9" d="M534.93,1022.64c-3.37-2.82-8.74-2.07-12.67-.93,3.51-1.53,10.94-4.17,14.82-1.14a11.93,11.93,0,0,1,3.48,14.41A15.43,15.43,0,0,0,534.93,1022.64Z" transform="translate(-495.77 -969.3)"/><circle class="cls-10" cx="88.89" cy="66.19" r="9.51"/><circle class="cls-10" cx="38.84" cy="66.19" r="9.51"/><path class="cls-11" d="M570.28,1097c0,5.83,3,10.55,10.5,10.55,7.18,0,10.27-2.65,9.06-10.55-0.89-5.76,1.66-10.55-9.06-10.55A10.52,10.52,0,0,0,570.28,1097Z" transform="translate(-495.77 -969.3)"/><path class="cls-11" d="M550,1097c0,5.83-3,10.55-10.5,10.55-7.18,0-10.27-2.65-9.06-10.55,0.89-5.76-1.66-10.55,9.06-10.55A10.52,10.52,0,0,1,550,1097Z" transform="translate(-495.77 -969.3)"/><path class="cls-9" d="M536.32,1097c0.77-5-1-9.25,5.43-10.3a10.46,10.46,0,0,0-2.26-.25c-10.72,0-8.17,4.79-9.06,10.55-1.22,7.9,1.88,10.55,9.06,10.55a15,15,0,0,0,2.68-.23C537.3,1106.51,535.31,1103.58,536.32,1097Z" transform="translate(-495.77 -969.3)"/><path class="cls-9" d="M584,1097c-0.77-5,1-9.25-5.43-10.3a10.46,10.46,0,0,1,2.26-.25c10.72,0,8.17,4.79,9.06,10.55,1.21,7.9-1.88,10.55-9.06,10.55a15,15,0,0,1-2.68-.23C583,1106.51,585,1103.58,584,1097Z" transform="translate(-495.77 -969.3)"/><path class="cls-11" d="M529.23,1088.44" transform="translate(-495.77 -969.3)"/><path class="cls-8" d="M562.67,1019.21v7.61a2.5,2.5,0,0,1-5,0v-7.59a41.54,41.54,0,1,0,44.16,41.45C601.83,1038.51,583.67,1020.4,562.67,1019.21Z" transform="translate(-495.77 -969.3)"/><path class="cls-8" d="M562.67,1019.21v7.6a2.5,2.5,0,0,1-5,0v-7.58a41.48,41.48,0,1,0,44.16,41.39C601.83,1038.48,583.67,1020.4,562.67,1019.21Z" transform="translate(-495.77 -969.3)"/><circle class="cls-9" cx="64.36" cy="85.08" r="35.13"/><path class="cls-12" d="M560.17,1030.41a2.59,2.59,0,0,0,2.5-2.76v-8.44c-1,0-1.48-.07-2.29-0.07a23.5,23.5,0,0,0-2.71.1v8.41A2.59,2.59,0,0,0,560.17,1030.41Z" transform="translate(-495.77 -969.3)"/><path class="cls-13" d="M560.17,1029.31a2.5,2.5,0,0,0,2.5-2.49v-7.61c-1,0-1.53-.06-2.3-0.06s-1.7,0-2.7.09v7.59A2.5,2.5,0,0,0,560.17,1029.31Z" transform="translate(-495.77 -969.3)"/><circle class="cls-14" cx="50.41" cy="78.34" r="2.65"/><circle class="cls-14" cx="78.58" cy="78.34" r="2.65"/><path class="cls-15" d="M563.39,980.85c-9.11-2.81-15.61,7.65-24.72,4.84l-2.16-11.06c9.11,2.81,15.61-7.65,24.72-4.84Z" transform="translate(-495.77 -969.3)"/><path class="cls-16" d="M561.3,978.83c-7.63-1-13.56,6.64-21.19,5.62l-1.53-7.81c7.63,1,13.56-6.64,21.19-5.62Z" transform="translate(-495.77 -969.3)"/><path class="cls-15" d="M552.73,976.42a4.37,4.37,0,0,1-2.33,4.48,2.36,2.36,0,0,1-3.54-1.72,4.35,4.35,0,0,1,2.33-4.46A2.35,2.35,0,0,1,552.73,976.42Z" transform="translate(-495.77 -969.3)"/><path class="cls-16" d="M549.95,979.55a2.88,2.88,0,0,1-.72.17,2,2,0,0,1-.67,0l0.3-.87a2,2,0,0,0,.5.06,1.75,1.75,0,0,0,.47-0.07l-0.12-.6a3.28,3.28,0,0,1-.53.08,1.05,1.05,0,0,1-.41,0,0.59,0.59,0,0,1-.28-0.19,0.87,0.87,0,0,1-.15-0.37h0a1.2,1.2,0,0,1,0-.44,1.34,1.34,0,0,1,.16-0.43,1.75,1.75,0,0,1,.31-0.4,2.31,2.31,0,0,1,.46-0.34l-0.06-.29,0.5-.24,0.06,0.3a2.15,2.15,0,0,1,.57-0.13,1.8,1.8,0,0,1,.51,0l-0.26.86a1.38,1.38,0,0,0-.35,0,1.75,1.75,0,0,0-.35,0l0.11,0.58a3,3,0,0,1,.53-0.08,1.06,1.06,0,0,1,.4,0,0.57,0.57,0,0,1,.27.2,0.9,0.9,0,0,1,.15.37h0a1.17,1.17,0,0,1,0,.45,1.39,1.39,0,0,1-.17.43,1.75,1.75,0,0,1-.31.39,2.5,2.5,0,0,1-.44.33l0.1,0.49L550,980Zm-0.51-2.8a0.63,0.63,0,0,0-.23.21,0.29,0.29,0,0,0,0,.2h0a0.17,0.17,0,0,0,.1.13,0.57,0.57,0,0,0,.28,0Zm0.85,1.84a0.42,0.42,0,0,0,.27-0.41h0a0.17,0.17,0,0,0-.1-0.13,0.56,0.56,0,0,0-.28,0Z" transform="translate(-495.77 -969.3)"/><path class="cls-15" d="M550.5,1017.78c-4.57-4.42-11.59-.16-16.16-4.57l2-7.23c4.57,4.42,11.59.16,16.16,4.57Z" transform="translate(-495.77 -969.3)"/><path class="cls-16" d="M549.87,1015.95c-4.23-2.91-10.07-.14-14.3-3l1.44-5.1c4.23,2.91,10.07.14,14.3,3Z" transform="translate(-495.77 -969.3)"/><path class="cls-15" d="M545.49,1011.93a2.91,2.91,0,0,1-2.74,2,1.57,1.57,0,0,1-1.59-2.09,2.9,2.9,0,0,1,2.73-2A1.57,1.57,0,0,1,545.49,1011.93Z" transform="translate(-495.77 -969.3)"/><path class="cls-16" d="M542.89,1013a1.92,1.92,0,0,1-.48-0.12,1.32,1.32,0,0,1-.39-0.23l0.44-.43a1.36,1.36,0,0,0,.28.18,1.16,1.16,0,0,0,.3.1l0.11-.4a2.19,2.19,0,0,1-.34-0.11,0.7,0.7,0,0,1-.23-0.15,0.39,0.39,0,0,1-.11-0.2,0.58,0.58,0,0,1,0-.27h0a0.8,0.8,0,0,1,.13-0.27,0.89,0.89,0,0,1,.22-0.21,1.17,1.17,0,0,1,.31-0.14,1.56,1.56,0,0,1,.38-0.06l0.05-.19H544l-0.06.2a1.43,1.43,0,0,1,.38.09,1.2,1.2,0,0,1,.3.17l-0.41.44a0.92,0.92,0,0,0-.2-0.13l-0.22-.08-0.11.38a2,2,0,0,1,.34.11,0.71,0.71,0,0,1,.22.15,0.38,0.38,0,0,1,.1.2,0.6,0.6,0,0,1,0,.27h0a0.78,0.78,0,0,1-.14.27,0.93,0.93,0,0,1-.23.21,1.17,1.17,0,0,1-.3.14,1.67,1.67,0,0,1-.36.06l-0.09.32H542.8Zm0.54-1.82a0.42,0.42,0,0,0-.2.05,0.19,0.19,0,0,0-.09.11h0a0.11,0.11,0,0,0,0,.11,0.38,0.38,0,0,0,.17.08Zm-0.05,1.35a0.28,0.28,0,0,0,.28-0.16h0a0.11,0.11,0,0,0,0-.11,0.37,0.37,0,0,0-.17-0.08Z" transform="translate(-495.77 -969.3)"/><path class="cls-15" d="M581.72,1012.21c-4.53-8.39-16.5-5.48-21-13.87l6.2-9.41c4.53,8.39,16.5,5.48,21,13.87Z" transform="translate(-495.77 -969.3)"/><path class="cls-16" d="M581.65,1009.32c-4.73-6.08-14.33-4.76-19.06-10.84l4.38-6.64c4.73,6.08,14.33,4.76,19.06,10.84Z" transform="translate(-495.77 -969.3)"/><path class="cls-15" d="M577.22,1001.59a4.37,4.37,0,0,1-4.8,1.56,2.36,2.36,0,0,1-1.33-3.71,4.35,4.35,0,0,1,4.79-1.55A2.35,2.35,0,0,1,577.22,1001.59Z" transform="translate(-495.77 -969.3)"/><path class="cls-16" d="M573,1001.87a2.84,2.84,0,0,1-.63-0.38,2,2,0,0,1-.45-0.5l0.83-.41a2,2,0,0,0,.32.39,1.74,1.74,0,0,0,.39.28l0.34-.51a3.38,3.38,0,0,1-.44-0.31,1.06,1.06,0,0,1-.26-0.32,0.59,0.59,0,0,1-.06-0.33,0.86,0.86,0,0,1,.15-0.37h0a1.19,1.19,0,0,1,.31-0.32,1.36,1.36,0,0,1,.42-0.2,1.76,1.76,0,0,1,.5-0.06,2.35,2.35,0,0,1,.57.08l0.16-.24,0.52,0.17-0.17.26a2.17,2.17,0,0,1,.5.31,1.81,1.81,0,0,1,.34.38l-0.79.43a1.39,1.39,0,0,0-.23-0.27,1.73,1.73,0,0,0-.28-0.21l-0.33.5a2.91,2.91,0,0,1,.43.32,1.05,1.05,0,0,1,.25.31,0.57,0.57,0,0,1,.06.34,0.91,0.91,0,0,1-.15.37h0a1.16,1.16,0,0,1-.32.32,1.39,1.39,0,0,1-.42.19,1.74,1.74,0,0,1-.5.06,2.52,2.52,0,0,1-.54-0.07l-0.28.42-0.52-.17Zm1.6-2.36a0.63,0.63,0,0,0-.31,0,0.29,0.29,0,0,0-.17.12h0a0.16,0.16,0,0,0,0,.16,0.57,0.57,0,0,0,.21.19Zm-0.69,1.91a0.42,0.42,0,0,0,.48-0.11h0a0.17,0.17,0,0,0,0-.16,0.54,0.54,0,0,0-.2-0.19Z" transform="translate(-495.77 -969.3)"/><circle class="cls-3" cx="54.51" cy="25.81" r="9.08"/><circle class="cls-4" cx="54.51" cy="25.81" r="6.69"/><path class="cls-5" d="M549.84,998.56a6.4,6.4,0,0,1-1.49-.34,5.29,5.29,0,0,1-1.31-.68l0.93-1.38a5.54,5.54,0,0,0,1,.56,4,4,0,0,0,1,.29v-1.24a7.8,7.8,0,0,1-1.09-.33A2.87,2.87,0,0,1,548,995a1.74,1.74,0,0,1-.48-0.62,2,2,0,0,1-.16-0.84v0a2.08,2.08,0,0,1,.17-0.84A1.9,1.9,0,0,1,548,992a2.44,2.44,0,0,1,.78-0.46,3.67,3.67,0,0,1,1.05-.22v-0.59h1.08v0.62a4.69,4.69,0,0,1,2.19.81l-0.85,1.39a3.76,3.76,0,0,0-.68-0.38,4.2,4.2,0,0,0-.71-0.24v1.2a7,7,0,0,1,1.08.34,2.89,2.89,0,0,1,.77.46,1.69,1.69,0,0,1,.47.63,2.13,2.13,0,0,1,.16.84v0a2,2,0,0,1-.18.85,2,2,0,0,1-.5.66,2.45,2.45,0,0,1-.77.44,4,4,0,0,1-1,.22v1h-1.08v-1Zm0.07-5.73a1,1,0,0,0-.54.17,0.44,0.44,0,0,0-.16.35v0a0.44,0.44,0,0,0,.14.34,1.45,1.45,0,0,0,.57.24v-1.12Zm1,4.24q0.69-.07.69-0.53v0a0.45,0.45,0,0,0-.14-0.34,1.42,1.42,0,0,0-.55-0.25v1.14Z" transform="translate(-495.77 -969.3)"/><circle class="cls-3" cx="74.77" cy="8.54" r="6.09"/><circle class="cls-4" cx="74.77" cy="8.54" r="4.49"/><path class="cls-5" d="M570.23,980.15a4.28,4.28,0,0,1-1-.23,3.57,3.57,0,0,1-.88-0.46l0.63-.92a3.66,3.66,0,0,0,.65.38,2.72,2.72,0,0,0,.64.19v-0.83a5.27,5.27,0,0,1-.73-0.22,1.93,1.93,0,0,1-.53-0.3,1.16,1.16,0,0,1-.32-0.41,1.35,1.35,0,0,1-.11-0.56h0a1.4,1.4,0,0,1,.11-0.56,1.29,1.29,0,0,1,.32-0.45,1.64,1.64,0,0,1,.52-0.31,2.45,2.45,0,0,1,.71-0.15v-0.4H571v0.42a3.15,3.15,0,0,1,1.47.54l-0.57.93a2.55,2.55,0,0,0-.45-0.26,2.85,2.85,0,0,0-.48-0.16v0.81a4.75,4.75,0,0,1,.73.23,2,2,0,0,1,.52.31,1.14,1.14,0,0,1,.31.42,1.42,1.42,0,0,1,.1.56h0a1.29,1.29,0,0,1-.45,1,1.65,1.65,0,0,1-.52.3,2.67,2.67,0,0,1-.67.15v0.68h-0.72v-0.7Zm0-3.84a0.63,0.63,0,0,0-.36.11,0.3,0.3,0,0,0-.11.23h0a0.29,0.29,0,0,0,.09.23,1,1,0,0,0,.38.16v-0.75Zm0.65,2.84c0.31,0,.47-0.15.47-0.35h0a0.3,0.3,0,0,0-.1-0.23,1,1,0,0,0-.37-0.17v0.76Z" transform="translate(-495.77 -969.3)"/><path class="cls-3" d="M560.67,1019.16a1.5,1.5,0,0,1-1.5,1.5h0a1.5,1.5,0,0,1-1.5-1.5v-9a1.5,1.5,0,0,1,1.5-1.5h0a1.5,1.5,0,0,1,1.5,1.5v9Z" transform="translate(-495.77 -969.3)"/><rect class="cls-4" x="61.89" y="39.36" width="3" height="11" rx="1.26" ry="1.26"/><ellipse class="cls-17" cx="64.3" cy="97.04" rx="16.12" ry="12.33"/><ellipse class="cls-18" cx="64.3" cy="97.32" rx="16.12" ry="12.33"/><circle class="cls-19" cx="57.73" cy="96.79" r="3.54"/><circle class="cls-19" cx="71.03" cy="96.79" r="3.54"/></g></g></g></svg>