<svg xmlns="http://www.w3.org/2000/svg" xmlns:xlink="http://www.w3.org/1999/xlink" viewBox="0 0 138.2 127.7"><defs><style>.cls-1,.cls-20,.cls-21,.cls-25{fill:none;}.cls-2{isolation:isolate;}.cls-3{fill:#23879a;}.cls-4{opacity:0.1;}.cls-5{fill:#000100;}.cls-6{fill:#e5a505;}.cls-7{fill:#eeb529;}.cls-8{clip-path:url(#clip-path);}.cls-9{clip-path:url(#clip-path-2);}.cls-10{clip-path:url(#clip-path-3);}.cls-11{fill:#e5bf34;}.cls-12{fill:#f0d473;}.cls-13{clip-path:url(#clip-path-4);}.cls-14{clip-path:url(#clip-path-5);}.cls-15{clip-path:url(#clip-path-6);}.cls-16{clip-path:url(#clip-path-7);}.cls-17{fill:#e4e5e5;mix-blend-mode:multiply;}.cls-18{fill:#d8cfc6;}.cls-19{fill:#798325;}.cls-20,.cls-25{stroke:#e4c6a2;}.cls-20,.cls-21,.cls-25{stroke-linecap:round;stroke-miterlimit:10;}.cls-20{stroke-width:14.11px;}.cls-21{stroke:#fddeba;stroke-width:14.75px;}.cls-22{fill:#bf9161;opacity:0.2;}.cls-23{fill:#fddeba;}.cls-24{fill:#f5d2ad;}.cls-25{stroke-width:10.9px;}.cls-26{fill:#5e4b4d;}</style><clipPath id="clip-path" transform="translate(-896.15 -683.64)"><polygon class="cls-1" points="995.31 781.74 984.02 769.59 998.48 768.26 1009.77 780.41 995.31 781.74"/></clipPath><clipPath id="clip-path-2" transform="translate(-896.15 -683.64)"><polygon class="cls-1" points="995.65 779.71 984.36 767.55 998.82 766.23 1010.11 778.38 995.65 779.71"/></clipPath><clipPath id="clip-path-3" transform="translate(-896.15 -683.64)"><polygon class="cls-1" points="990.31 778.74 979.02 766.59 993.48 765.26 1004.77 777.41 990.31 778.74"/></clipPath><clipPath id="clip-path-4" transform="translate(-896.15 -683.64)"><polygon class="cls-1" points="990.65 776.71 979.36 764.55 993.82 763.23 1005.11 775.38 990.65 776.71"/></clipPath><clipPath id="clip-path-5" transform="translate(-896.15 -683.64)"><polygon class="cls-1" points="986.82 755.71 993.46 737.48 1009.05 740.46 1002.41 758.69 986.82 755.71"/></clipPath><clipPath id="clip-path-6" transform="translate(-896.15 -683.64)"><polygon class="cls-1" points="981.82 752.71 988.46 734.48 1004.05 737.46 997.41 755.69 981.82 752.71"/></clipPath><clipPath id="clip-path-7" transform="translate(-896.15 -683.64)"><circle class="cls-1" cx="960" cy="747.49" r="63.85"/></clipPath></defs><title>EMPREENDA</title><g class="cls-2"><g id="Camada_1" data-name="Camada 1"><circle class="cls-3" cx="63.85" cy="63.85" r="63.85"/><g class="cls-4"><circle class="cls-5" cx="75.47" cy="82.63" r="9.92"/><circle class="cls-5" cx="75.47" cy="82.63" r="7.87"/><path class="cls-5" d="M970.79,772.64v-1.48a6.29,6.29,0,0,1-2.65-.67l0.47-1.83a5.51,5.51,0,0,0,2.59.69c0.89,0,1.5-.34,1.5-1s-0.5-1-1.66-1.36c-1.67-.56-2.81-1.34-2.81-2.86a2.89,2.89,0,0,1,2.64-2.78V759.9h1.53v1.37a5.63,5.63,0,0,1,2.27.52l-0.45,1.77A5.18,5.18,0,0,0,972,763c-1,0-1.34.44-1.34,0.87s0.55,0.84,1.87,1.34c1.86,0.66,2.61,1.51,2.61,2.92a3,3,0,0,1-2.78,2.89v1.59h-1.53Z" transform="translate(-896.15 -683.64)"/></g><circle class="cls-6" cx="70.47" cy="79.63" r="9.92"/><circle class="cls-7" cx="70.47" cy="79.63" r="7.87"/><path class="cls-6" d="M965.79,769.64v-1.48a6.29,6.29,0,0,1-2.65-.67l0.47-1.83a5.51,5.51,0,0,0,2.59.69c0.89,0,1.5-.34,1.5-1s-0.5-1-1.66-1.36c-1.67-.56-2.81-1.34-2.81-2.86a2.89,2.89,0,0,1,2.64-2.78V756.9h1.53v1.37a5.63,5.63,0,0,1,2.27.52l-0.45,1.77A5.18,5.18,0,0,0,967,760c-1,0-1.34.44-1.34,0.87s0.55,0.84,1.87,1.34c1.86,0.66,2.61,1.51,2.61,2.92a3,3,0,0,1-2.78,2.89v1.59h-1.53Z" transform="translate(-896.15 -683.64)"/><g class="cls-4"><g class="cls-8"><path class="cls-5" d="M991.25,768.92c-4,.37-4.7,3.38-1.59,6.74s8.88,5.78,12.87,5.41,4.7-3.38,1.59-6.74-8.88-5.78-12.87-5.41" transform="translate(-896.15 -683.64)"/><path class="cls-5" d="M998.34,776.91c0.65-.06.9-0.31,0.54-0.69a3.3,3.3,0,0,0-2-.72,6,6,0,0,1-3.68-1.56c-0.78-.84-0.69-1.57.34-1.88l-0.84-.91,1.12-.1,0.78,0.84a7,7,0,0,1,1.94.16l0.67,1.11a6.57,6.57,0,0,0-1.94-.17c-0.74.07-.73,0.36-0.48,0.63a4,4,0,0,0,2.13.7,5.68,5.68,0,0,1,3.56,1.61c0.79,0.85.75,1.64-.38,2l0.91,1-1.12.1-0.84-.91a8,8,0,0,1-2.32-.24l-0.7-1.15a7.05,7.05,0,0,0,2.28.25" transform="translate(-896.15 -683.64)"/><path class="cls-5" d="M993.84,771l-1.12.1,0.84,0.91c-1,.31-1.13,1-0.34,1.88a6,6,0,0,0,3.68,1.56,3.3,3.3,0,0,1,2,.72c0.35,0.38.1,0.63-.54,0.69a7.05,7.05,0,0,1-2.28-.25l0.7,1.15a8,8,0,0,0,2.32.24l0.84,0.91,1.12-.1-0.91-1c1.13-.31,1.17-1.1.38-2a5.68,5.68,0,0,0-3.56-1.61,4,4,0,0,1-2.13-.7c-0.25-.27-0.26-0.56.48-0.63a6.57,6.57,0,0,1,1.94.17L996.57,772a7,7,0,0,0-1.94-.16l-0.78-.84" transform="translate(-896.15 -683.64)"/></g><g class="cls-9"><path class="cls-5" d="M1001.72,777.79c-3.17.29-7.75-1.63-10.22-4.3s-1.91-5.06,1.26-5.35,7.74,1.63,10.22,4.3,1.91,5.06-1.26,5.35m-10.12-10.9c-4,.37-4.7,3.38-1.59,6.74s8.88,5.78,12.87,5.41,4.7-3.38,1.59-6.74-8.88-5.78-12.87-5.41" transform="translate(-896.15 -683.64)"/><path class="cls-5" d="M998.68,774.88c0.65-.06.9-0.31,0.54-0.69a3.3,3.3,0,0,0-2-.72,6,6,0,0,1-3.68-1.56c-0.78-.84-0.69-1.57.34-1.88l-0.84-.91,1.12-.1,0.78,0.84a7,7,0,0,1,1.94.16l0.67,1.11a6.56,6.56,0,0,0-1.94-.17c-0.74.07-.73,0.36-0.48,0.63a4,4,0,0,0,2.13.7,5.67,5.67,0,0,1,3.56,1.61c0.79,0.85.75,1.64-.38,2l0.91,1-1.11.1-0.84-.91a8,8,0,0,1-2.32-.24l-0.7-1.15a7.07,7.07,0,0,0,2.28.25m-5.92-6.74c-3.17.29-3.74,2.69-1.26,5.35s7,4.59,10.22,4.3,3.73-2.69,1.26-5.35-7-4.59-10.22-4.3" transform="translate(-896.15 -683.64)"/><path class="cls-5" d="M994.18,769l-1.12.1,0.84,0.91c-1,.31-1.12,1-0.34,1.88a6,6,0,0,0,3.68,1.56,3.3,3.3,0,0,1,2,.72c0.35,0.38.11,0.63-.54,0.69a7.07,7.07,0,0,1-2.28-.25l0.7,1.15a8,8,0,0,0,2.32.24l0.84,0.91,1.11-.1-0.91-1c1.13-.31,1.17-1.1.38-2a5.67,5.67,0,0,0-3.56-1.61,4,4,0,0,1-2.13-.7c-0.25-.27-0.26-0.56.48-0.63a6.56,6.56,0,0,1,1.94.17L996.91,770a7,7,0,0,0-1.94-.16l-0.78-.84" transform="translate(-896.15 -683.64)"/></g></g><g class="cls-2"><g class="cls-10"><path class="cls-11" d="M986.25,765.92c-4,.37-4.7,3.38-1.59,6.74s8.88,5.78,12.87,5.41,4.7-3.38,1.59-6.74-8.88-5.78-12.87-5.41" transform="translate(-896.15 -683.64)"/><path class="cls-12" d="M993.34,773.91c0.65-.06.9-0.31,0.54-0.69a3.3,3.3,0,0,0-2-.72,6,6,0,0,1-3.68-1.56c-0.78-.84-0.69-1.57.34-1.88l-0.84-.91,1.12-.1,0.78,0.84a7,7,0,0,1,1.94.16l0.67,1.11a6.57,6.57,0,0,0-1.94-.17c-0.74.07-.73,0.36-0.48,0.63a4,4,0,0,0,2.13.7,5.68,5.68,0,0,1,3.56,1.61c0.79,0.85.75,1.64-.38,2l0.91,1-1.12.1-0.84-.91a8,8,0,0,1-2.32-.24l-0.7-1.15a7.05,7.05,0,0,0,2.28.25" transform="translate(-896.15 -683.64)"/><path class="cls-11" d="M988.84,768l-1.12.1,0.84,0.91c-1,.31-1.13,1-0.34,1.88a6,6,0,0,0,3.68,1.56,3.3,3.3,0,0,1,2,.72c0.35,0.38.1,0.63-.54,0.69a7.05,7.05,0,0,1-2.28-.25l0.7,1.15a8,8,0,0,0,2.32.24l0.84,0.91,1.12-.1-0.91-1c1.13-.31,1.17-1.1.38-2a5.68,5.68,0,0,0-3.56-1.61,4,4,0,0,1-2.13-.7c-0.25-.27-0.26-0.56.48-0.63a6.57,6.57,0,0,1,1.94.17L991.57,769a7,7,0,0,0-1.94-.16l-0.78-.84" transform="translate(-896.15 -683.64)"/></g></g><g class="cls-2"><g class="cls-13"><path class="cls-6" d="M996.72,774.79c-3.17.29-7.75-1.63-10.22-4.3s-1.91-5.06,1.26-5.35,7.74,1.63,10.22,4.3,1.91,5.06-1.26,5.35m-10.12-10.9c-4,.37-4.7,3.38-1.59,6.74s8.88,5.78,12.87,5.41,4.7-3.38,1.59-6.74-8.88-5.78-12.87-5.41" transform="translate(-896.15 -683.64)"/><path class="cls-7" d="M993.68,771.88c0.65-.06.9-0.31,0.54-0.69a3.3,3.3,0,0,0-2-.72,6,6,0,0,1-3.68-1.56c-0.78-.84-0.69-1.57.34-1.88l-0.84-.91,1.12-.1,0.78,0.84a7,7,0,0,1,1.94.16l0.67,1.11a6.56,6.56,0,0,0-1.94-.17c-0.74.07-.73,0.36-0.48,0.63a4,4,0,0,0,2.13.7,5.67,5.67,0,0,1,3.56,1.61c0.79,0.85.75,1.64-.38,2l0.91,1-1.11.1-0.84-.91a8,8,0,0,1-2.32-.24l-0.7-1.15a7.07,7.07,0,0,0,2.28.25m-5.92-6.74c-3.17.29-3.74,2.69-1.26,5.35s7,4.59,10.22,4.3,3.73-2.69,1.26-5.35-7-4.59-10.22-4.3" transform="translate(-896.15 -683.64)"/><path class="cls-6" d="M989.18,766l-1.12.1,0.84,0.91c-1,.31-1.12,1-0.34,1.88a6,6,0,0,0,3.68,1.56,3.3,3.3,0,0,1,2,.72c0.35,0.38.11,0.63-.54,0.69a7.07,7.07,0,0,1-2.28-.25l0.7,1.15a8,8,0,0,0,2.32.24l0.84,0.91,1.11-.1-0.91-1c1.13-.31,1.17-1.1.38-2a5.67,5.67,0,0,0-3.56-1.61,4,4,0,0,1-2.13-.7c-0.25-.27-0.26-0.56.48-0.63a6.56,6.56,0,0,1,1.94.17L991.91,767a7,7,0,0,0-1.94-.16l-0.78-.84" transform="translate(-896.15 -683.64)"/></g></g><g class="cls-4"><g class="cls-14"><path class="cls-5" d="M995.3,755.32c-3.42-.65-5-4.42-3.56-8.42s5.41-6.71,8.82-6.05,5,4.42,3.56,8.42-5.4,6.71-8.82,6.05m6-16.35c-4.3-.82-9.28,2.59-11.11,7.63s0.17,9.78,4.48,10.6,9.28-2.59,11.11-7.62-0.17-9.78-4.48-10.6" transform="translate(-896.15 -683.64)"/><path class="cls-5" d="M996.57,750.85a1.22,1.22,0,0,0,1.5-.67c0.2-.54-0.07-1-0.85-1.49-1.12-.77-1.76-1.66-1.26-3.05a3.24,3.24,0,0,1,3-2.16l0.5-1.36,1.21,0.23-0.46,1.26a3.4,3.4,0,0,1,1.61.81l-0.94,1.55a3.15,3.15,0,0,0-1.59-.82,1.06,1.06,0,0,0-1.35.6c-0.17.47,0.15,0.86,1,1.51a2.35,2.35,0,0,1,1.07,3.08,3.35,3.35,0,0,1-3.15,2.24L996.35,754l-1.2-.23,0.5-1.36a3.8,3.8,0,0,1-1.86-1l1-1.61a3.36,3.36,0,0,0,1.81,1m4-10c-3.42-.65-7.37,2.06-8.82,6.05s0.14,7.77,3.56,8.42,7.37-2.06,8.82-6.05-0.14-7.77-3.56-8.42" transform="translate(-896.15 -683.64)"/><path class="cls-5" d="M1000.68,742.34l-1.21-.23-0.5,1.36a3.24,3.24,0,0,0-3,2.16c-0.51,1.39.13,2.28,1.26,3.05,0.78,0.53,1,1,.85,1.49a1.22,1.22,0,0,1-1.5.67,3.36,3.36,0,0,1-1.81-1l-1,1.61a3.8,3.8,0,0,0,1.86,1l-0.5,1.36,1.2,0.23,0.53-1.46a3.35,3.35,0,0,0,3.15-2.24,2.35,2.35,0,0,0-1.07-3.08c-0.87-.66-1.2-1-1-1.51a1.06,1.06,0,0,1,1.35-.6,3.15,3.15,0,0,1,1.59.82l0.94-1.55a3.4,3.4,0,0,0-1.61-.81l0.46-1.26" transform="translate(-896.15 -683.64)"/></g></g><g class="cls-2"><g class="cls-15"><path class="cls-6" d="M990.3,752.32c-3.42-.65-5-4.42-3.56-8.42s5.41-6.71,8.82-6.05,5,4.42,3.56,8.42-5.4,6.71-8.82,6.05m6-16.35c-4.3-.82-9.28,2.59-11.11,7.63s0.17,9.78,4.48,10.6,9.28-2.59,11.11-7.62-0.17-9.78-4.48-10.6" transform="translate(-896.15 -683.64)"/><path class="cls-7" d="M991.57,747.85a1.22,1.22,0,0,0,1.5-.67c0.2-.54-0.07-1-0.85-1.49-1.12-.77-1.76-1.66-1.26-3.05a3.24,3.24,0,0,1,3-2.16l0.5-1.36,1.21,0.23-0.46,1.26a3.4,3.4,0,0,1,1.61.81L995.88,743a3.15,3.15,0,0,0-1.59-.82,1.06,1.06,0,0,0-1.35.6c-0.17.47,0.15,0.86,1,1.51a2.35,2.35,0,0,1,1.07,3.08,3.35,3.35,0,0,1-3.15,2.24L991.35,751l-1.2-.23,0.5-1.36a3.8,3.8,0,0,1-1.86-1l1-1.61a3.36,3.36,0,0,0,1.81,1m4-10c-3.42-.65-7.37,2.06-8.82,6.05s0.14,7.77,3.56,8.42,7.37-2.06,8.82-6.05-0.14-7.77-3.56-8.42" transform="translate(-896.15 -683.64)"/><path class="cls-6" d="M995.68,739.34l-1.21-.23-0.5,1.36a3.24,3.24,0,0,0-3,2.16c-0.51,1.39.13,2.28,1.26,3.05,0.78,0.53,1,1,.85,1.49a1.22,1.22,0,0,1-1.5.67,3.36,3.36,0,0,1-1.81-1l-1,1.61a3.8,3.8,0,0,0,1.86,1l-0.5,1.36,1.2,0.23,0.53-1.46a3.35,3.35,0,0,0,3.15-2.24,2.35,2.35,0,0,0-1.07-3.08c-0.87-.66-1.2-1-1-1.51a1.06,1.06,0,0,1,1.35-.6,3.15,3.15,0,0,1,1.59.82l0.94-1.55a3.4,3.4,0,0,0-1.61-.81l0.46-1.26" transform="translate(-896.15 -683.64)"/></g></g><g class="cls-16"><path class="cls-17" d="M995.41,792l-1.31.53a4.51,4.51,0,0,0-5.85-6l-2.58,1.05a4.5,4.5,0,0,0-6.17-3.53l-2.67,1.09a3.48,3.48,0,0,0-4.8-3.37l-11.8,4.82-0.35-.22c-2.4-1.62-5.3-3.57-7.86-5.31a22.22,22.22,0,0,0-14.56-3.82l-11.06,1a3.24,3.24,0,0,0-3.22-2.93h-2.26v1a3.25,3.25,0,0,0-3.25-3.25h-13l7.09,30.3h5.93a3.25,3.25,0,0,0,3.25-3.25V801h2.26a3.25,3.25,0,0,0,3.13-2.42l9.62,2.88a26.18,26.18,0,0,0,4.21.87l33.52,7.14a8.44,8.44,0,0,0,5-.44L999,800.73A4.72,4.72,0,1,0,995.41,792Z" transform="translate(-896.15 -683.64)"/><path class="cls-17" d="M924.88,768.8a2.33,2.33,0,0,0,3.09,1.13l51.74-24a2.33,2.33,0,0,0,1.13-3.09l-10.06-21.66a2.32,2.32,0,0,0-3.09-1.13l-51.74,24a2.32,2.32,0,0,0-1.13,3.09Z" transform="translate(-896.15 -683.64)"/><path class="cls-18" d="M962.19,717.25a2.32,2.32,0,0,1,3.09,1.13L975.34,740a2.33,2.33,0,0,1-1.13,3.09l-51.74,24a2.33,2.33,0,0,1-3.09-1.13l-10.06-21.66a2.32,2.32,0,0,1,1.13-3.09Z" transform="translate(-896.15 -683.64)"/><path class="cls-19" d="M960.91,724.75l6.74,14.52-43.89,20.39L917,745.14l43.9-20.39m0.47-3.62a2.34,2.34,0,0,0-1,.22l-45.66,21.21a2.33,2.33,0,0,0-1.13,3.09l7.56,16.28a2.32,2.32,0,0,0,3.09,1.13l45.66-21.21a2.32,2.32,0,0,0,1.13-3.09l-7.56-16.28a2.33,2.33,0,0,0-2.11-1.35h0Z" transform="translate(-896.15 -683.64)"/><path class="cls-19" d="M957.5,737.5a1.69,1.69,0,0,1-.82,2.25l-25.47,11.83a1.69,1.69,0,0,1-2.25-.82l-1.79-3.86a1.69,1.69,0,0,1,.82-2.25l25.47-11.83a1.69,1.69,0,0,1,2.25.82Z" transform="translate(-896.15 -683.64)"/><ellipse class="cls-19" cx="942.33" cy="742.2" rx="4.89" ry="7.03" transform="translate(-1121.13 -217.57) rotate(-24.92)"/><path class="cls-18" d="M939.37,735.83c2.45-1.14,5.76.79,7.39,4.31s1,7.29-1.47,8.43-5.76-.79-7.39-4.31-1-7.29,1.47-8.43m-0.69-1.5c-3.32,1.54-4.32,6.21-2.27,10.62s6.26,6.66,9.58,5.11,4.32-6.21,2.27-10.62-6.26-6.66-9.58-5.11h0Z" transform="translate(-896.15 -683.64)"/><polyline class="cls-20" points="85.31 102.31 63.88 111.06 31.05 104.61"/><polyline class="cls-20" points="76.56 99.84 55.13 108.58 22.29 102.14"/><polyline class="cls-20" points="68.69 96.6 47.27 105.35 14.43 98.91"/><path class="cls-21" d="M988.7,791.58l-20.36,8.31a3.75,3.75,0,0,1-2.2.2l-36.9-7.86" transform="translate(-896.15 -683.64)"/><path class="cls-22" d="M974.51,790.06a5.46,5.46,0,0,0-4.27-2.16l-7.75.09a19.56,19.56,0,0,1-11.16-3.33l-7.84-5.31A22.55,22.55,0,0,0,929,775.51a70,70,0,0,0,3.8,11.25c1.23,2.54,2.65,5,3.67,7.64s5.63,2.77,8.82,2.49a43.78,43.78,0,0,1,8,0l17.1,1.67a5.34,5.34,0,0,0,4-1.87A3.55,3.55,0,0,0,974.51,790.06Z" transform="translate(-896.15 -683.64)"/><path class="cls-23" d="M976.67,790.24c0-2.9-3-5.38-5.92-5.38l-8,.09a20,20,0,0,1-11.29-3.33c-2.4-1.62-5.34-3.57-7.9-5.31a22.36,22.36,0,0,0-14.61-3.82l-11.28,1V793.8l9.73,2.9a25.75,25.75,0,0,0,11.5.71l7.83-1.29a22.86,22.86,0,0,1,3.47-.31l20.72-.25c2.87,0,5.75-2.38,5.75-5.25v-0.06Z" transform="translate(-896.15 -683.64)"/><path class="cls-24" d="M968.64,793.88a2,2,0,0,1-2-2v-3.07a2,2,0,0,1,2-2h4.58a3.56,3.56,0,0,1,0,7.11h-4.58Z" transform="translate(-896.15 -683.64)"/><path class="cls-17" d="M1010.37,701.7a3.25,3.25,0,0,0-3.25,3.25v-0.87h-2.26a3.24,3.24,0,0,0-3.1,2.3l-9.44-2.76a26.21,26.21,0,0,0-4.6-.9l-33.36-7.1a8.43,8.43,0,0,0-5,.44l-20.36,8.31a4.72,4.72,0,1,0,3.57,8.74l1.31-.53a4.51,4.51,0,0,0,5.85,6l2.58-1.05a4.51,4.51,0,0,0,6.17,3.53l2.67-1.09a3.49,3.49,0,0,0,4.8,3.37l11.83-4.83,0.38,0.23L976,724a22.79,22.79,0,0,0,14.77,3.82l10.83-.95a3.24,3.24,0,0,0,3.22,2.89h2.26v-1.05a3.25,3.25,0,0,0,3.25,3.25h24V701.7h-24Z" transform="translate(-896.15 -683.64)"/><polyline class="cls-20" points="37.42 25.96 58.85 17.21 91.69 23.66"/><polyline class="cls-20" points="46.18 28.43 67.61 19.68 100.44 26.13"/><polyline class="cls-25" points="54.04 31.66 75.47 22.92 108.31 29.36"/><path class="cls-21" d="M926.34,704l20.36-8.31a3.75,3.75,0,0,1,2.2-.2l36.9,7.86" transform="translate(-896.15 -683.64)"/><path class="cls-24" d="M997.11,702.57a3.25,3.25,0,0,1,3.25-3.25h2.26V725h-2.26a3.25,3.25,0,0,1-3.25-3.25v-19.2Z" transform="translate(-896.15 -683.64)"/><path class="cls-26" d="M912.42,795.37a3.25,3.25,0,0,1-3.25,3.25h-5.93l-7.09-30.3h13a3.25,3.25,0,0,1,3.25,3.25v23.79Z" transform="translate(-896.15 -683.64)"/><path class="cls-24" d="M917.93,793a3.25,3.25,0,0,1-3.25,3.25h-2.26V770.54h2.26a3.25,3.25,0,0,1,3.25,3.25V793Z" transform="translate(-896.15 -683.64)"/><path class="cls-26" d="M1002.62,700.18a3.25,3.25,0,0,1,3.25-3.25h24v30.3h-24a3.25,3.25,0,0,1-3.25-3.25V700.18Z" transform="translate(-896.15 -683.64)"/><path class="cls-22" d="M940.53,705.5a5.46,5.46,0,0,0,4.27,2.16l7.75-.09a19.56,19.56,0,0,1,11.16,3.33l7.84,5.31A22.55,22.55,0,0,0,986,720a70,70,0,0,0-3.8-11.25c-1.23-2.54-2.65-5-3.67-7.64s-5.63-2.77-8.82-2.49a43.78,43.78,0,0,1-8,0L944.64,697a5.34,5.34,0,0,0-4,1.87A3.55,3.55,0,0,0,940.53,705.5Z" transform="translate(-896.15 -683.64)"/><path class="cls-23" d="M938.67,705.31c0,2.9,2.87,5.38,5.77,5.38l7.93-.09a19.85,19.85,0,0,1,11.25,3.33c2.4,1.62,5.32,3.57,7.88,5.31a22.74,22.74,0,0,0,14.75,3.82l11.42-1V701.76l-9.88-2.9a26.08,26.08,0,0,0-11.57-.71l-7.86,1.29a23.13,23.13,0,0,1-3.49.31l-20.58.25c-2.87,0-5.62,2.38-5.62,5.25v0.07Z" transform="translate(-896.15 -683.64)"/><path class="cls-24" d="M946.4,701.67a2,2,0,0,1,2,2v3.07a2,2,0,0,1-2,2h-4.58a3.55,3.55,0,1,1,0-7.11h4.58Z" transform="translate(-896.15 -683.64)"/></g></g></g></svg>