<svg id="Camada_1" data-name="Camada 1" xmlns="http://www.w3.org/2000/svg" xmlns:xlink="http://www.w3.org/1999/xlink" viewBox="0 0 166.36 150.15"><defs><style>.cls-1,.cls-40{fill:none;}.cls-2{fill:#d0e09a;}.cls-3{clip-path:url(#clip-path);}.cls-4{fill:#a04d97;}.cls-5{fill:#9aabd8;}.cls-6{fill:#e0b179;}.cls-7{fill:#cea16e;}.cls-8{fill:#d1b388;}.cls-9{fill:#896f49;}.cls-10{fill:#fff;}.cls-11{fill:#dedede;}.cls-12{fill:#d6edf3;}.cls-13{fill:#1e2749;}.cls-14{fill:#33457f;}.cls-15{fill:#f7c684;}.cls-16,.cls-27{fill:#90552f;}.cls-17{fill:#2a7130;}.cls-18{fill:#d5d6da;}.cls-19{fill:#7d394a;}.cls-20{fill:#705f2f;}.cls-21{opacity:0.2;}.cls-22{fill:#609a87;}.cls-23{fill:#515050;}.cls-24{fill:#bebdbd;}.cls-25{fill:#a0a09f;}.cls-26{fill:#c59b60;}.cls-27{opacity:0.5;}.cls-28{fill:#77270f;}.cls-29{fill:#48190d;}.cls-30{fill:#ead4b5;}.cls-31{fill:#cfcdcc;}.cls-32{fill:#efd8b9;}.cls-33{fill:#ddc3a4;}.cls-34{fill:#a5a3a3;}.cls-35{fill:#66b8c4;}.cls-36{fill:#636161;}.cls-37{fill:#e3f2ef;}.cls-38{fill:#a3a1a1;}.cls-39{fill:#4d4987;}.cls-40{stroke:#1d1d1b;stroke-miterlimit:10;stroke-width:0.4px;}.cls-41{fill:#753c1c;}</style><clipPath id="clip-path" transform="translate(-874.61 -967.55)"><polygon class="cls-1" points="998.34 978.69 998.34 1032.49 1040.97 1032.49 1040.97 1106.57 914.64 1106.57 914.64 1086.56 874.61 1086.56 874.61 978.69 998.34 978.69"/></clipPath></defs><title>OTIMIZAÇÃO DE ESPAÇO</title><polygon class="cls-2" points="123.73 11.13 123.73 64.94 166.35 64.94 166.35 139.02 40.03 139.02 40.03 119 0 119 0 11.13 123.73 11.13"/><g class="cls-3"><path class="cls-4" d="M905,1106.67H881.7V978.59H905v128.08Zm-23.07-.2h22.87V978.79H881.9v127.69Z" transform="translate(-874.61 -967.55)"/><path class="cls-4" d="M916.5,1106.67H893.23V978.59H916.5v128.08Zm-23.07-.2H916.3V978.79H893.43v127.69Z" transform="translate(-874.61 -967.55)"/><path class="cls-4" d="M939.57,1106.67H916.3V978.59h23.27v128.08Zm-23.07-.2h22.87V978.79H916.5v127.69Z" transform="translate(-874.61 -967.55)"/><path class="cls-4" d="M951.11,1106.67H927.84V978.59h23.27v128.08Zm-23.07-.2h22.87V978.79H928v127.69Z" transform="translate(-874.61 -967.55)"/><path class="cls-4" d="M974.17,1106.67H950.91V978.59h23.27v128.08Zm-23.07-.2H974V978.79H951.11v127.69Z" transform="translate(-874.61 -967.55)"/><path class="cls-4" d="M985.71,1106.67H962.44V978.59h23.27v128.08Zm-23.07-.2h22.87V978.79H962.64v127.69Z" transform="translate(-874.61 -967.55)"/><path class="cls-4" d="M1008.78,1106.67H985.51V978.59h23.27v128.08Zm-23.07-.2h22.87V978.79H985.71v127.69Z" transform="translate(-874.61 -967.55)"/><path class="cls-4" d="M1020.31,1106.67H997V978.59h23.27v128.08Zm-23.07-.2h22.87V978.79H997.25v127.69Z" transform="translate(-874.61 -967.55)"/><path class="cls-4" d="M1031.85,1106.67h-23.27V978.59h23.27v128.08Zm-23.07-.2h22.87V978.79h-22.87v127.69Z" transform="translate(-874.61 -967.55)"/><path class="cls-4" d="M1038.87,990.82H874.68V967.55h164.18v23.27Zm-164-.2h163.79V967.75H874.88v22.87Z" transform="translate(-874.61 -967.55)"/><path class="cls-4" d="M1038.87,1002.36H874.68V979.09h164.18v23.27Zm-164-.2h163.79V979.29H874.88v22.87Z" transform="translate(-874.61 -967.55)"/><path class="cls-4" d="M1038.87,1025.43H874.68v-23.27h164.18v23.27Zm-164-.2h163.79v-22.87H874.88v22.87Z" transform="translate(-874.61 -967.55)"/><path class="cls-4" d="M1038.87,1037H874.68v-23.27h164.18V1037Zm-164-.2h163.79v-22.87H874.88v22.87Z" transform="translate(-874.61 -967.55)"/><path class="cls-4" d="M1038.87,1060H874.68v-23.27h164.18V1060Zm-164-.2h163.79V1037H874.88v22.87Z" transform="translate(-874.61 -967.55)"/><path class="cls-4" d="M1038.87,1071.57H874.68V1048.3h164.18v23.27Zm-164-.2h163.79V1048.5H874.88v22.87Z" transform="translate(-874.61 -967.55)"/><path class="cls-4" d="M1038.87,1094.64H874.68v-23.27h164.18v23.27Zm-164-.2h163.79v-22.87H874.88v22.87Z" transform="translate(-874.61 -967.55)"/><path class="cls-4" d="M1038.87,1106.17H874.68V1082.9h164.18v23.27Zm-164-.2h163.79V1083.1H874.88V1106Z" transform="translate(-874.61 -967.55)"/><path class="cls-4" d="M1038.87,1117.71H874.68v-23.27h164.18v23.27Zm-164-.2h163.79v-22.87H874.88v22.87Z" transform="translate(-874.61 -967.55)"/></g><polygon class="cls-5" points="124.12 72.22 114.53 72.22 114.76 68.84 162.46 68.84 158.86 74.97 127.84 71.97 124.12 72.22"/><polygon class="cls-5" points="43.93 135.12 45.8 134.04 79.38 134.04 79.38 135.12 43.93 135.12"/><polygon class="cls-5" points="3.9 115.11 9.06 112.92 40.12 112.92 40.12 115.11 3.9 115.11"/><polygon class="cls-5" points="157.9 78.26 157.9 133.43 162.46 135.12 162.46 68.96 157.9 78.26"/><polygon class="cls-5" points="120.74 94.79 120.74 133.56 123.01 135.25 123.01 87.92 120.74 94.79"/><polygon class="cls-5" points="9.06 20.44 119.83 20.44 119.83 15.03 3.9 15.03 9.06 20.44"/><polygon class="cls-5" points="9.06 112.92 9.06 20.44 3.84 15.03 3.84 115.4 9.06 112.92"/><polygon class="cls-5" points="45.8 134.04 45.8 90.92 43.92 87.98 43.92 135.11 45.8 134.04"/><polygon class="cls-5" points="85.06 134.1 85.06 90.97 83.18 88.04 83.18 135.17 85.06 134.1"/><polygon class="cls-5" points="83.18 47.94 83.92 51.39 119.8 51.39 119.8 47.94 83.18 47.94"/><polygon class="cls-5" points="83.18 65.04 83.18 47.94 83.92 51.39 83.92 65.04 83.18 65.04"/><polygon class="cls-5" points="94.34 68.84 93.94 71.71 77.01 71.77 76.48 68.84 94.34 68.84"/><polygon class="cls-5" points="110.96 68.84 110.62 71.77 102.18 71.77 102.8 68.84 110.96 68.84"/><polygon class="cls-5" points="67.26 68.84 67.81 71.71 54.66 71.77 53.81 68.84 67.26 68.84"/><polygon class="cls-5" points="67.26 65.28 67.81 68.33 67.81 71.71 67.26 68.84 67.26 65.28"/><polygon class="cls-5" points="102.8 65.04 102.18 68.84 102.18 71.77 102.8 68.84 102.8 65.04"/><path class="cls-5" d="M985.57,1039l-0.34,3.07s3.43-.09,3.43,0,0.71-3.07.71-3.07h-3.8Z" transform="translate(-874.61 -967.55)"/><polygon class="cls-5" points="110.62 74.49 110.62 71.77 110.96 68.84 110.96 71.42 110.62 74.49"/><polygon class="cls-6" points="67.26 44.22 67.81 47.26 67.81 50.65 67.26 47.94 67.26 44.22"/><polygon class="cls-7" points="67.81 50.65 58.31 50.65 57.61 47.94 67.26 47.94 67.81 50.65"/><polygon class="cls-6" points="95.04 88.04 95.04 90.92 98 90.92 98.32 88.04 95.04 88.04"/><rect class="cls-8" x="154.5" y="90.28" width="7.41" height="42.69"/><polygon class="cls-9" points="153.3 91.84 153.3 131.68 154.55 132.98 154.55 90.28 153.3 91.84"/><rect class="cls-8" x="1034.21" y="1066.74" width="3.38" height="24.43" transform="translate(1197.19 1190.36) rotate(-180)"/><polygon class="cls-9" points="159.6 123.16 160.73 123.62 160.73 99.19 159.6 99.51 159.6 123.16"/><circle class="cls-10" cx="158.2" cy="94.79" r="2.22"/><circle class="cls-11" cx="158.2" cy="94.79" r="1.38"/><rect class="cls-12" x="131" y="99.51" width="28.59" height="23.65"/><path class="cls-13" d="M1025.45,1067.06s0.24-.75-2-0.65-11.11.49-12.23,0.32-5.46-.61-5.6,0a21,21,0,0,0,0,4c0.1,1.33,0,11.57-.09,12.25s0.25,4.34,0,5.17-0.1,2.78.38,3,8.24-.15,9.31.24,5.51,0,6,0a16.78,16.78,0,0,0,3.93-.6C1025.45,1090.49,1025.45,1067.06,1025.45,1067.06Z" transform="translate(-874.61 -967.55)"/><path class="cls-13" d="M1027.32,1068s0.26,9,0,9.68,6.56,0.13,7.34.52,0.13-9,.39-9.68-2.53-.52-3.57-0.52S1027.3,1067.26,1027.32,1068Z" transform="translate(-874.61 -967.55)"/><path class="cls-13" d="M1027.32,1079.27s0.26,9,0,9.68,6.56,0.13,7.34.52,0.13-9,.39-9.68-2.53-.52-3.57-0.52S1027.3,1078.56,1027.32,1079.27Z" transform="translate(-874.61 -967.55)"/><path class="cls-14" d="M1025.21,1070.72a46.65,46.65,0,0,1,5.51,1.35c0.63,0.39-1.17,4.48-1.22,5.56s-3.12-.49-4-0.58-2-.29-1.8-1S1024.67,1070.23,1025.21,1070.72Z" transform="translate(-874.61 -967.55)"/><path class="cls-14" d="M1024.9,1078.91a46.65,46.65,0,0,1,5.65-.45c0.72,0.17.3,4.62,0.59,5.66s-3.11.52-4,.7-2,.37-2-0.4S1024.24,1078.61,1024.9,1078.91Z" transform="translate(-874.61 -967.55)"/><polygon class="cls-15" points="67.26 47.94 67.26 44.14 53.81 44.14 53.81 45.7 53.81 47.94 53.81 65.04 53.81 68.84 67.26 68.84 67.26 65.04 57.61 65.04 57.61 47.94 67.26 47.94"/><rect class="cls-16" x="83.18" y="111.97" width="9.67" height="23.14"/><rect class="cls-17" x="92.84" y="121.33" width="2.83" height="6.89"/><rect class="cls-17" x="95.67" y="120.62" width="1.41" height="8.84"/><rect class="cls-18" x="92.84" y="128.22" width="2.83" height="0.97"/><rect class="cls-18" x="92.84" y="120.35" width="2.83" height="0.97"/><rect class="cls-10" x="85.63" y="121.33" width="6.43" height="5.7"/><rect class="cls-18" x="86.36" y="122.09" width="0.21" height="4.18"/><rect class="cls-18" x="86.98" y="122.09" width="0.21" height="4.18"/><rect class="cls-18" x="87.61" y="122.09" width="0.21" height="4.18"/><rect class="cls-18" x="88.21" y="122.09" width="0.21" height="4.18"/><rect class="cls-18" x="88.83" y="122.09" width="0.21" height="4.18"/><rect class="cls-18" x="89.46" y="122.09" width="0.21" height="4.18"/><rect class="cls-18" x="90.07" y="122.09" width="0.21" height="4.18"/><rect class="cls-18" x="90.68" y="122.09" width="0.21" height="4.18"/><rect class="cls-18" x="91.32" y="122.09" width="0.21" height="4.18"/><rect class="cls-8" x="95.78" y="87.98" width="27.28" height="6.01"/><polygon class="cls-9" points="95.78 95.81 95.78 93.99 123.06 93.99 120.54 95.81 95.78 95.81"/><rect class="cls-9" x="96.45" y="88.58" width="8.12" height="4.68"/><rect class="cls-9" x="105.28" y="88.58" width="8.12" height="4.68"/><rect class="cls-9" x="114.11" y="88.64" width="8.12" height="4.68"/><rect class="cls-8" x="72.11" y="99.74" width="7.27" height="35.38"/><rect class="cls-9" x="72.99" y="100.6" width="5.66" height="10.54"/><rect class="cls-9" x="72.99" y="112.06" width="5.66" height="10.54"/><rect class="cls-9" x="72.91" y="123.51" width="5.66" height="10.54"/><rect class="cls-8" x="127.14" y="68.96" width="35.32" height="6.01"/><polygon class="cls-9" points="124.12 78.26 127.14 74.97 162.46 74.97 157.9 78.26 124.12 78.26"/><rect class="cls-9" x="135.85" y="69.56" width="8.12" height="4.68"/><rect class="cls-9" x="144.68" y="69.56" width="8.12" height="4.68"/><rect class="cls-9" x="153.51" y="69.63" width="8.12" height="4.68"/><polygon class="cls-9" points="127.14 68.96 124.12 72.22 124.12 78.26 127.14 74.97 127.14 68.96"/><rect class="cls-8" x="105.34" y="133.43" width="16.7" height="1.69"/><rect class="cls-12" x="105.95" y="102.69" width="15.47" height="30.12"/><polygon class="cls-9" points="105.34 133.43 105.95 132.81 121.42 132.81 122.04 133.43 105.34 133.43"/><path class="cls-19" d="M988.3,1097.75H982s-0.68-.18-0.68,1.22,0.63,1.4.63,1.4H994.6s0.75,0,.75-1.31c0-1.13-.47-1.31-0.86-1.31H988.3Z" transform="translate(-874.61 -967.55)"/><path class="cls-12" d="M983.78,1093c-0.71-.06-1.23-0.13-1.23,1.59s-0.26,4.43.52,4.47,5.2,0,6.63,0,4.48,0.5,4.74-.61a21.85,21.85,0,0,0,0-4.63c-0.06-.5.13-1.41-3.38-1.23C988.53,1092.73,984.5,1093.06,983.78,1093Z" transform="translate(-874.61 -967.55)"/><rect class="cls-8" x="45.33" y="133.43" width="16.7" height="1.69"/><rect class="cls-12" x="45.95" y="102.69" width="15.47" height="30.12"/><polygon class="cls-9" points="45.33 133.43 45.95 132.81 61.41 132.81 62.03 133.43 45.33 133.43"/><path class="cls-19" d="M928.29,1097.75H922s-0.68-.18-0.68,1.22,0.63,1.4.63,1.4h12.67s0.75,0,.75-1.31c0-1.13-.47-1.31-0.86-1.31h-6.19Z" transform="translate(-874.61 -967.55)"/><path class="cls-12" d="M923.78,1093c-0.71-.06-1.23-0.13-1.23,1.59s-0.26,4.43.52,4.47,5.2,0,6.63,0,4.48,0.5,4.74-.61a21.85,21.85,0,0,0,0-4.63c-0.06-.5.13-1.41-3.38-1.23C928.52,1092.73,924.49,1093.06,923.78,1093Z" transform="translate(-874.61 -967.55)"/><path class="cls-20" d="M922.41,1069.6c-0.94.07-2.34-.07-2.41,1.34s0.38,7.23.29,7.77,3.33,1.87,6.61,2.08,9.44-1.71,9.44-1.71-0.4-6,0-6.93,0.48-2.61-.87-2.61S923.35,1069.53,922.41,1069.6Z" transform="translate(-874.61 -967.55)"/><polygon class="cls-21" points="45.69 110.65 45.69 111.89 61.59 112.51 61.73 111.52 61.66 110.64 45.69 110.65"/><path class="cls-20" d="M920.07,1088.21h16a1.22,1.22,0,0,0,.77-0.94c0.13-.74-0.33-3.88-0.47-6s0.94-2.41-.6-2.61-15.51,0-15.51,0a2.08,2.08,0,0,0-.75,1.41,46.38,46.38,0,0,1,0,5.29C919.33,1086,919.43,1088.21,920.07,1088.21Z" transform="translate(-874.61 -967.55)"/><rect class="cls-22" x="62.03" y="129.19" width="6.44" height="5.93"/><rect class="cls-8" x="37.04" y="89.71" width="3.08" height="21.79"/><polygon class="cls-23" points="38.04 109.42 39.69 103.27 39.69 97.91 38.04 91.79 38.04 109.42"/><polygon class="cls-24" points="38.04 91.79 37.68 91.79 37.68 100.6 37.68 109.42 38.04 109.42 39.14 103.3 39.14 100.6 39.14 97.9 38.04 91.79"/><path class="cls-25" d="M912.49,1060.23s0.19,13.74,0,15.92A82.65,82.65,0,0,0,912.49,1060.23Z" transform="translate(-874.61 -967.55)"/><rect class="cls-26" x="7.02" y="84.95" width="11.79" height="30.15"/><polygon class="cls-27" points="19.59 114.1 18.81 115.11 18.81 84.95 19.59 85.4 19.59 114.1"/><path class="cls-8" d="M888.11,1054.19s-2.36-.46-2.36,1.15-0.37,7.42.1,7.76,7.19,0.34,7.58,0,0.93-8.15,0-8.73" transform="translate(-874.61 -967.55)"/><rect class="cls-8" x="7.02" y="84.95" width="11.79" height="1.86"/><path class="cls-8" d="M888.11,1072.06s-2.36.46-2.36-1.15-0.37-7.42.1-7.76,7.19-.34,7.58,0,0.93,8.15,0,8.73S889.61,1072.11,888.11,1072.06Z" transform="translate(-874.61 -967.55)"/><path class="cls-8" d="M888.11,1081.18s-2.36.46-2.36-1.15-0.37-7.42.1-7.76,7.19-.34,7.58,0,0.93,8.15,0,8.73S889.61,1081.22,888.11,1081.18Z" transform="translate(-874.61 -967.55)"/><path class="cls-8" d="M881.63,1062.84s3.38,0.58,3.9,0,0.26-7.41.19-7.86-1.47-.61-2-0.61-1.8-.41-2.12,0S880.85,1061.93,881.63,1062.84Z" transform="translate(-874.61 -967.55)"/><path class="cls-8" d="M881.63,1071.75s3.38,0.58,3.9,0,0.26-7.55.19-8-1.47-.61-2-0.61-1.8-.41-2.12,0S880.85,1070.84,881.63,1071.75Z" transform="translate(-874.61 -967.55)"/><path class="cls-8" d="M881.63,1080.66s3.38,0.58,3.9,0,0.26-7.59.19-8-1.47-.61-2-0.61-1.8-.23-2.12.18C881.51,1072.35,880.65,1079.52,881.63,1080.66Z" transform="translate(-874.61 -967.55)"/><path class="cls-21" d="M892.16,1080.42s-5.2.36-5.65-.65-0.29-7.25.36-7.28a42.64,42.64,0,0,1,5.3-.16c0.39,0.19,1.45.44,1.52,1.05a3.1,3.1,0,0,0-.26-1.12c-0.39-.34-7.12-0.34-7.58,0a0.59,0.59,0,0,0-.13.33,1.58,1.58,0,0,0-1.25-.53c0.05,0,.39.12,0.89,1.27a5,5,0,0,1,.26,1.57c0,0.26,0,.53,0,0.8,0,1.92-.42,4.23-1.2,4.59-1.2.55-3.11-.29-3.07-0.28a4.65,4.65,0,0,0,.28.8h11.79v0.2a1.7,1.7,0,0,0,.39-1.07A2.13,2.13,0,0,1,892.16,1080.42Z" transform="translate(-874.61 -967.55)"/><path class="cls-21" d="M884.46,1063.2l0.14,0A0.18,0.18,0,0,0,884.46,1063.2Z" transform="translate(-874.61 -967.55)"/><polygon class="cls-21" points="9.85 95.64 9.85 95.64 9.85 95.64 9.85 95.64"/><path class="cls-21" d="M892.16,1071.35s-5.2.36-5.65-.65-0.29-7.25.36-7.28a42.63,42.63,0,0,1,5.3-.16c0.39,0.19,1.45.44,1.52,1.05a3.1,3.1,0,0,0-.26-1.12c-0.39-.34-7.12-0.34-7.58,0a0.84,0.84,0,0,0-.15.47,1.64,1.64,0,0,0-1.09-.45,2.09,2.09,0,0,1,.73,1.08c0.55,1.26.29,6.53-.91,7.08s-3-.28-3-0.28a1.55,1.55,0,0,0,.24.65s3.38,0.58,3.9,0a2.25,2.25,0,0,0,.22-1c0,0.06,0,.12,0,0.17,0,1.61,2.36,1.15,2.36,1.15,1.5,0,4.39.4,5.31-.18a1.7,1.7,0,0,0,.39-1.07A2.13,2.13,0,0,1,892.16,1071.35Z" transform="translate(-874.61 -967.55)"/><path class="cls-21" d="M884.48,1054.42h0Z" transform="translate(-874.61 -967.55)"/><path class="cls-21" d="M892.16,1063a42.64,42.64,0,0,1-5.3-.16c-0.65,0-.81-6.27-0.36-7.28s5.65-.65,5.65-0.65a2.13,2.13,0,0,1,1.66.5,1.7,1.7,0,0,0-.39-1.07h-9.22l0.28,0.05a1.47,1.47,0,0,1,.85,1c0.58,1.25.29,6.53-.91,7.08s-3-.28-3-0.28a1.55,1.55,0,0,0,.24.65s3.38,0.58,3.9,0a1,1,0,0,0,.14-0.4,1.18,1.18,0,0,0,.18.66c0.46,0.34,7.19.34,7.58,0a3.1,3.1,0,0,0,.26-1.12C893.61,1062.6,892.55,1062.84,892.16,1063Z" transform="translate(-874.61 -967.55)"/><rect class="cls-8" x="7.02" y="113.24" width="11.79" height="1.86"/><polygon class="cls-28" points="17.5 47.72 18.89 48.97 19.42 48.97 18.13 47.75 17.5 47.72"/><polygon class="cls-29" points="19.42 48.97 19.42 48.51 18.14 47.21 18.13 47.75 19.42 48.97"/><path class="cls-8" d="M894.4,1009.54a10.53,10.53,0,0,0-1.9.39s-1.56-1.32-2.34-1.27-0.93.68-.93,1.51v1.95a1.41,1.41,0,0,0,1,1.41,8.21,8.21,0,0,1,1.95,1.75,15.88,15.88,0,0,0,3.31-.44C895.76,1014.7,896.79,1009.24,894.4,1009.54Z" transform="translate(-874.61 -967.55)"/><path class="cls-30" d="M890,1009s-0.44-.07-0.54.83a14.52,14.52,0,0,0,0,2.1c0,0.33.19-.12,0.39,0s0-1.56.15-2.08S890.21,1009.12,890,1009Z" transform="translate(-874.61 -967.55)"/><path class="cls-21" d="M893,1015.25h0Z" transform="translate(-874.61 -967.55)"/><path class="cls-21" d="M894,1014.51v-4.68a2.67,2.67,0,0,0-1.41.35,0.52,0.52,0,0,0-.12-0.26,5.18,5.18,0,0,0-2-1.22,4.4,4.4,0,0,1,1.67,2.83,9.47,9.47,0,0,1-.16,2.66s-1.4-1.59-2.14-1.72,1.28,0.9,1.66,1.72,0.33,1.13.81,1.1l0.65,0a0.45,0.45,0,0,1-.4-0.47A3.41,3.41,0,0,0,894,1014.51Z" transform="translate(-874.61 -967.55)"/><polygon class="cls-28" points="15.35 55.86 16.75 57.11 17.28 57.11 15.99 55.89 15.35 55.86"/><polygon class="cls-29" points="17.28 57.11 17.28 56.65 15.99 55.35 15.99 55.89 17.28 57.11"/><path class="cls-8" d="M894,1018.07a25.07,25.07,0,0,0-3.51.44s-1.75-1.76-2.53-1.72-0.93.68-.93,1.51v1.95a1.41,1.41,0,0,0,1,1.41,8.21,8.21,0,0,1,1.95,1.75,36.2,36.2,0,0,0,5.12-.18C895.37,1023.09,896.4,1017.77,894,1018.07Z" transform="translate(-874.61 -967.55)"/><path class="cls-30" d="M887.82,1017.21a3.51,3.51,0,0,0-.27,1.34,8,8,0,0,0,.27,2.32c0.07,0.12-.44,0-0.61-0.29a18.45,18.45,0,0,1,0-3.07C887.21,1017.25,888.16,1016.68,887.82,1017.21Z" transform="translate(-874.61 -967.55)"/><path class="cls-21" d="M890.31,1023s-0.13-4.15.13-4.35c0,0-1.79-1.56-2.31-1.43,0,0,1.33.75,1.3,1.49s0,2.53-.62,2.5S889.4,1021.64,890.31,1023Z" transform="translate(-874.61 -967.55)"/><polygon class="cls-28" points="34.51 39.5 35.55 41.61 35.55 42.56 34.02 40.67 34.02 38.59 34.51 39.5"/><polygon class="cls-29" points="35.55 42.56 34.02 40.67 32.41 40.84 34.65 42.56 35.55 42.56"/><polygon class="cls-28" points="38.1 42.45 38.95 44.1 38.95 44.74 37.87 43.32 37.87 42.11 38.1 42.45"/><polygon class="cls-29" points="38.95 44.74 38.49 44.74 37.2 43.31 37.87 43.32 38.95 44.74"/><polygon class="cls-28" points="38.95 48.19 38.95 48.82 37.72 47.22 37.87 46.04 38.95 48.19"/><polygon class="cls-29" points="38.95 48.82 38.49 48.82 37.2 47.4 37.72 47.22 38.95 48.82"/><polygon class="cls-28" points="39.13 49.76 39.98 51.42 39.98 52.05 38.9 50.64 38.9 49.43 39.13 49.76"/><polygon class="cls-29" points="39.98 52.05 39.52 52.05 38.23 50.63 38.9 50.64 39.98 52.05"/><polygon class="cls-28" points="39.98 55.51 39.98 56.14 38.75 54.54 38.9 53.35 39.98 55.51"/><polygon class="cls-29" points="39.98 56.14 39.52 56.14 38.23 54.72 38.75 54.54 39.98 56.14"/><polygon class="cls-28" points="37.31 59.15 38.16 60.81 38.16 61.44 37.07 60.03 37.07 58.82 37.31 59.15"/><polygon class="cls-29" points="38.16 61.44 37.7 61.44 36.4 60.02 37.07 60.03 38.16 61.44"/><polygon class="cls-28" points="38.16 64.89 38.16 65.53 36.93 63.92 37.07 62.74 38.16 64.89"/><polygon class="cls-29" points="38.16 65.53 37.7 65.53 36.4 64.1 36.93 63.92 38.16 65.53"/><polygon class="cls-28" points="16.64 64.78 18.04 66.03 18.57 66.03 17.28 64.81 16.64 64.78"/><polygon class="cls-29" points="18.57 66.03 18.57 65.57 17.29 64.27 17.28 64.81 18.57 66.03"/><path class="cls-8" d="M895.55,1026.59a25.07,25.07,0,0,0-3.51.44,9.33,9.33,0,0,0-2.78-1c-0.78,0-.93.68-0.93,1.51v1.95a1.41,1.41,0,0,0,1,1.41,11.32,11.32,0,0,1,1.95,1.4,36.2,36.2,0,0,0,5.12-.18C896.67,1032,897.94,1026.3,895.55,1026.59Z" transform="translate(-874.61 -967.55)"/><path class="cls-30" d="M888.48,1029.08c0,0.24-.05.31,0.16,0.39s0-2.88.46-3.09C889.1,1026.37,888.32,1026,888.48,1029.08Z" transform="translate(-874.61 -967.55)"/><path class="cls-21" d="M888.65,1029.64a1.37,1.37,0,0,0,.17.8c0.22,0.35,1.49.8,2.32,1.66a3.2,3.2,0,0,0,1.73.15s-1.15-.07-1.17-0.37-0.09-4.25.24-4.58a6.36,6.36,0,0,0-2.12-.93,2.32,2.32,0,0,1,1.19,2.7C890.67,1031.18,889,1030.25,888.65,1029.64Z" transform="translate(-874.61 -967.55)"/><path class="cls-8" d="M907.36,1010.51s-0.19-.63.34-0.68a12,12,0,0,1,3.51,0,1.16,1.16,0,0,1,1.07-.93c0.88,0,.24,5.56.24,5.56a2.75,2.75,0,0,1-.93,1.18,28.29,28.29,0,0,1-3.9.25C907,1015.73,907.36,1010.51,907.36,1010.51Z" transform="translate(-874.61 -967.55)"/><path class="cls-21" d="M911.6,1015.64a2.75,2.75,0,0,0,.93-1.18s0-.28.07-0.71c-0.24-.26-0.48-0.38-0.49-0.23,0,0.36-.45,1.2-0.75.91s0.23-4.81.23-4.81a0.77,0.77,0,0,1-.75.45c-0.36.07-1.36,0.1-2.5,0.16a2.53,2.53,0,0,0-1,.39c0,0.74-.28,5.12.35,5.28A28.31,28.31,0,0,0,911.6,1015.64Z" transform="translate(-874.61 -967.55)"/><path class="cls-30" d="M911.91,1009.62s0.13,2.92.16,3.41,0.53,0.21.53-1S912.56,1008.12,911.91,1009.62Z" transform="translate(-874.61 -967.55)"/><path class="cls-8" d="M908.33,1018s-0.19-.63.34-0.68a12,12,0,0,1,3.51,0,1.16,1.16,0,0,1,1.07-.93c0.88,0,.24,5.56.24,5.56a2.75,2.75,0,0,1-.93,1.18,28.29,28.29,0,0,1-3.9.25C908,1023.2,908.33,1018,908.33,1018Z" transform="translate(-874.61 -967.55)"/><path class="cls-21" d="M912.57,1023.11a2.75,2.75,0,0,0,.93-1.18s0-.28.07-0.71c-0.24-.26-0.48-0.38-0.49-0.23,0,0.36-.45,1.2-0.75.91s0.23-4.81.23-4.81a0.77,0.77,0,0,1-.75.45c-0.36.07-1.36,0.1-2.5,0.16a2.53,2.53,0,0,0-1,.39c0,0.74-.28,5.12.35,5.28A28.31,28.31,0,0,0,912.57,1023.11Z" transform="translate(-874.61 -967.55)"/><path class="cls-30" d="M912.87,1017.09s0.13,2.92.16,3.41,0.53,0.21.53-1S913.52,1015.6,912.87,1017.09Z" transform="translate(-874.61 -967.55)"/><path class="cls-8" d="M906.47,1027.41s-0.19-.63.34-0.68a12,12,0,0,1,3.51,0,1.16,1.16,0,0,1,1.07-.93c0.88,0,.24,5.56.24,5.56a2.75,2.75,0,0,1-.93,1.18,28.29,28.29,0,0,1-3.9.25C906.13,1032.63,906.47,1027.41,906.47,1027.41Z" transform="translate(-874.61 -967.55)"/><path class="cls-21" d="M910.71,1032.54a2.75,2.75,0,0,0,.93-1.18s0-.28.07-0.71c-0.24-.26-0.48-0.38-0.49-0.23,0,0.36-.45,1.2-0.75.91s0.23-4.81.23-4.81a0.77,0.77,0,0,1-.75.45c-0.36.07-1.36,0.1-2.5,0.16a2.53,2.53,0,0,0-1,.39c0,0.74-.28,5.12.35,5.28A28.31,28.31,0,0,0,910.71,1032.54Z" transform="translate(-874.61 -967.55)"/><path class="cls-30" d="M911,1026.52s0.13,2.92.16,3.41,0.53,0.21.53-1S911.67,1025,911,1026.52Z" transform="translate(-874.61 -967.55)"/><polygon class="cls-28" points="21.19 67.85 22.36 68.37 22.81 68.37 22.52 67.77 21.19 67.85"/><polyline class="cls-29" points="22.81 68.37 22.94 67.77 22.52 66.89 22.52 67.77"/><polygon class="cls-28" points="32.43 67.43 33.6 67.95 34.04 67.95 33.75 67.35 32.43 67.43"/><polyline class="cls-29" points="34.04 67.95 34.18 67.35 33.75 66.47 33.75 67.35"/><path class="cls-9" d="M908.24,1004.32l0.88,0.49v30a29,29,0,0,1-13.71.49l-1.4-.68s6.73-8.9,7.83-15.86S907.36,1003.83,908.24,1004.32Z" transform="translate(-874.61 -967.55)"/><path class="cls-8" d="M908.24,1034.64a53.24,53.24,0,0,1-7.12.68,31.19,31.19,0,0,1-7.12-.68v-30.31a32,32,0,0,1,7.12-.94,30.24,30.24,0,0,1,7.12.94v30.31Z" transform="translate(-874.61 -967.55)"/><polygon class="cls-31" points="86.07 16.01 65.6 16.01 55.95 16.01 55.95 24.68 55.95 44.14 65.6 44.14 65.6 24.68 86.07 24.68 86.07 16.01"/><rect class="cls-8" x="83.63" y="36.67" width="11.01" height="7.46"/><rect class="cls-32" x="86.48" y="15.95" width="8.17" height="7.46"/><rect class="cls-33" x="86.48" y="23.41" width="8.17" height="3.66"/><path class="cls-8" d="M967.87,991.54h-5.74a0.45,0.45,0,0,0-.45.45v2.07a0.44,0.44,0,0,0,.23.38,0.4,0.4,0,0,1,0-.08v-1.94a0.42,0.42,0,0,1,.42-0.42h5.37a0.42,0.42,0,0,1,.42.42v1.94a0.4,0.4,0,0,1,0,.08,0.44,0.44,0,0,0,.23-0.38V992A0.45,0.45,0,0,0,967.87,991.54Z" transform="translate(-874.61 -967.55)"/><rect class="cls-8" x="98.73" y="36.67" width="9.51" height="7.46"/><rect class="cls-10" x="110.28" y="36.67" width="9.51" height="7.46"/><rect class="cls-11" x="111.14" y="37.48" width="7.87" height="6.66"/><polygon class="cls-21" points="111.56 40.98 111.56 44.14 111.78 44.14 111.78 42.91 118.41 42.91 118.41 44.14 118.65 44.14 118.65 40.98 111.56 40.98"/><path class="cls-21" d="M993.09,1008.1h-6.76a0.17,0.17,0,0,1-.16-0.14V1008a0.17,0.17,0,0,0,.17.17h6.76a0.17,0.17,0,0,0,.17-0.17V1008A0.17,0.17,0,0,1,993.09,1008.1Z" transform="translate(-874.61 -967.55)"/><path class="cls-21" d="M993.09,1007.73h-6.76a0.17,0.17,0,0,1-.16-0.14v0.07a0.17,0.17,0,0,0,.17.17h6.76a0.17,0.17,0,0,0,.17-0.17v-0.07A0.17,0.17,0,0,1,993.09,1007.73Z" transform="translate(-874.61 -967.55)"/><path class="cls-21" d="M993.09,1007.38h-6.76a0.17,0.17,0,0,1-.16-0.14v0.07a0.17,0.17,0,0,0,.17.17h6.76a0.17,0.17,0,0,0,.17-0.17v-0.07A0.17,0.17,0,0,1,993.09,1007.38Z" transform="translate(-874.61 -967.55)"/><path class="cls-21" d="M993.09,1007h-6.76a0.17,0.17,0,0,1-.16-0.14V1007a0.17,0.17,0,0,0,.17.17h6.76a0.17,0.17,0,0,0,.17-0.17v-0.07A0.17,0.17,0,0,1,993.09,1007Z" transform="translate(-874.61 -967.55)"/><path class="cls-21" d="M993.09,1006.72h-6.76a0.17,0.17,0,0,1-.16-0.14v0.07a0.17,0.17,0,0,0,.17.17h6.76a0.17,0.17,0,0,0,.17-0.17v-0.07A0.17,0.17,0,0,1,993.09,1006.72Z" transform="translate(-874.61 -967.55)"/><path class="cls-21" d="M993.09,1006.42h-6.76a0.17,0.17,0,0,1-.16-0.14v0.07a0.17,0.17,0,0,0,.17.17h6.76a0.17,0.17,0,0,0,.17-0.17v-0.07A0.17,0.17,0,0,1,993.09,1006.42Z" transform="translate(-874.61 -967.55)"/><path class="cls-21" d="M993.09,1006h-6.76a0.17,0.17,0,0,1-.16-0.14V1006a0.17,0.17,0,0,0,.17.17h6.76a0.17,0.17,0,0,0,.17-0.17v-0.07A0.17,0.17,0,0,1,993.09,1006Z" transform="translate(-874.61 -967.55)"/><rect class="cls-10" x="111.78" y="42.91" width="6.63" height="1.23"/><polygon class="cls-34" points="98.43 22.77 119.83 22.77 119.83 16.59 98.73 16.59 98.43 22.77"/><rect class="cls-31" x="98.73" y="16.01" width="21.09" height="6.17"/><polygon class="cls-35" points="94.93 21.89 95.23 28.09 98.2 28.09 98.73 21.89 94.93 21.89"/><path class="cls-34" d="M941.87,1019.06L941,1016l-0.17,7,0.9,2.54a7.35,7.35,0,0,0,.53-3.3A8,8,0,0,0,941.87,1019.06Z" transform="translate(-874.61 -967.55)"/><polygon class="cls-36" points="59.36 51.65 57.61 55.37 57.61 57.11 67.12 57.9 65.41 53.11 59.36 51.65"/><rect class="cls-8" x="57.61" y="55.68" width="7.7" height="9.36"/><path class="cls-31" d="M940.83,1015.49h-8.61v7.43h8.61a10.66,10.66,0,0,0,.55-3.72A8.79,8.79,0,0,0,940.83,1015.49Z" transform="translate(-874.61 -967.55)"/><polygon class="cls-16" points="65.31 55.68 66.9 59.22 66.9 65.04 65.31 65.04 65.31 55.68"/><path class="cls-37" d="M998.34,1032.49V978.69H874.61v107.87h40v20H1041v-74.08H998.34Zm38.73,70.18h-35.59v-50.88h-12.1v-2.88h-3.8v2.88H969.65v3.8h28v47.08H957.79v-47.08h2.88v-3.8h-9.55v3.8H954v47.08H918.54v-20h0v-27.07h23.33v-3.8H914.73v30.87H878.51V982.58h91v6.86h3.8v-6.86h21.09v29.1H973.34v-11.07h-3.8v11.07H957.79v-11.07H954v32H951.1v3.8H969v-3.8H957.79v-17.1h36.65v17.1h-17v3.8h8.16V1039h3.8v-2.58h47.7v66.28Z" transform="translate(-874.61 -967.55)"/><path class="cls-38" d="M932.44,1016v6.54h8a11,11,0,0,0,0-6s0.71,3.88-.32,5.87h-7.46V1016h-0.22Z" transform="translate(-874.61 -967.55)"/><path class="cls-39" d="M982.33,1069.79c-0.94.07-2.34-.07-2.41,1.34s0.38,7.23.29,7.77,3.33,1.87,6.61,2.08,9.44-1.71,9.44-1.71-0.4-6,0-6.93,0.48-2.61-.87-2.61S983.26,1069.72,982.33,1069.79Z" transform="translate(-874.61 -967.55)"/><polygon class="cls-21" points="105.6 110.84 105.6 112.08 121.51 112.7 121.64 111.71 121.58 110.83 105.6 110.84"/><path class="cls-39" d="M980,1088.4h16a1.22,1.22,0,0,0,.77-0.94c0.13-.74-0.33-3.88-0.47-6s0.94-2.41-.6-2.61-15.51,0-15.51,0a2.08,2.08,0,0,0-.75,1.41,46.38,46.38,0,0,1,0,5.29C979.25,1086.19,979.35,1088.4,980,1088.4Z" transform="translate(-874.61 -967.55)"/><rect class="cls-31" x="66.14" y="17.27" width="19.4" height="6.82" rx="2.94" ry="2.94"/><path class="cls-21" d="M959,984.83H941.89a1.15,1.15,0,0,0-1.15,1.15v4.53a1.15,1.15,0,0,0,1.15,1.15h0.28A1.15,1.15,0,0,1,941,990.5v-4.33a1.15,1.15,0,0,1,1.15-1.15h16.54a1.15,1.15,0,0,1,1.15,1.15v4.33a1.15,1.15,0,0,1-1.15,1.15H959a1.15,1.15,0,0,0,1.15-1.15V986A1.15,1.15,0,0,0,959,984.83Z" transform="translate(-874.61 -967.55)"/><path class="cls-21" d="M953,986.68h-4.35a0.67,0.67,0,0,0-.67.67v2.57a0.66,0.66,0,0,0,.38.6,0.66,0.66,0,0,1-.2-0.48v-2.32a0.67,0.67,0,0,1,.67-0.67h4a0.67,0.67,0,0,1,.67.67V990a0.66,0.66,0,0,1-.2.48,0.66,0.66,0,0,0,.38-0.6v-2.57A0.67,0.67,0,0,0,953,986.68Z" transform="translate(-874.61 -967.55)"/><path class="cls-21" d="M951,988.24a0.5,0.5,0,1,0,0,1,0.42,0.42,0,1,1,.42-0.42,0.42,0.42,0,0,1-.42.42A0.5,0.5,0,0,0,951,988.24Z" transform="translate(-874.61 -967.55)"/><polygon class="cls-16" points="86.07 24.68 86.07 27.07 66.14 27.07 65.6 24.68 86.07 24.68"/><polygon class="cls-16" points="66.14 27.07 66.14 44.14 65.6 44.14 65.6 24.68 66.14 27.07"/><rect class="cls-40" x="91" y="20.08" width="2.7" height="2.69"/><rect class="cls-40" x="91" y="16.59" width="2.7" height="2.69"/><rect class="cls-40" x="87.29" y="20.08" width="2.7" height="2.69"/><rect class="cls-40" x="87.29" y="16.59" width="2.7" height="2.69"/><line class="cls-40" x1="87.29" y1="16.59" x2="88.09" y2="17.47"/><line class="cls-40" x1="87.29" y1="19.28" x2="88.21" y2="18.46"/><line class="cls-40" x1="89.99" y1="16.59" x2="89.14" y2="17.47"/><line class="cls-40" x1="89.99" y1="19.28" x2="89.03" y2="18.32"/><line class="cls-40" x1="87.29" y1="20.08" x2="88.09" y2="20.95"/><line class="cls-40" x1="87.29" y1="22.77" x2="88.21" y2="21.94"/><line class="cls-40" x1="89.99" y1="20.08" x2="89.14" y2="20.95"/><line class="cls-40" x1="89.99" y1="22.77" x2="89.03" y2="21.81"/><line class="cls-40" x1="91" y1="16.59" x2="91.81" y2="17.47"/><line class="cls-40" x1="91" y1="19.28" x2="91.93" y2="18.46"/><line class="cls-40" x1="93.7" y1="16.59" x2="92.85" y2="17.47"/><line class="cls-40" x1="93.7" y1="19.28" x2="92.74" y2="18.32"/><line class="cls-40" x1="91" y1="20.08" x2="91.81" y2="20.95"/><line class="cls-40" x1="91" y1="22.77" x2="91.93" y2="21.94"/><line class="cls-40" x1="93.7" y1="20.08" x2="92.85" y2="20.95"/><line class="cls-40" x1="93.7" y1="22.77" x2="92.74" y2="21.81"/><polygon class="cls-41" points="66.62 25.12 66.53 25.24 73.36 26.89 73.46 26.77 73.46 25.12 66.62 25.12"/><polygon class="cls-16" points="66.53 25.24 66.77 26.89 73.36 26.89 73.36 25.24 66.53 25.24"/><polygon class="cls-41" points="68.83 25.63 68.75 25.7 71.16 26.45 71.24 26.38 71.24 25.63 68.83 25.63"/><rect class="cls-16" x="68.75" y="25.7" width="2.42" height="0.75"/><polygon class="cls-41" points="77.78 25.12 77.69 25.24 84.53 26.89 84.62 26.77 84.62 25.12 77.78 25.12"/><rect class="cls-16" x="77.69" y="25.24" width="6.84" height="1.65"/><polygon class="cls-41" points="79.99 25.63 79.91 25.7 82.33 26.45 82.4 26.38 82.4 25.63 79.99 25.63"/><rect class="cls-16" x="79.91" y="25.7" width="2.42" height="0.75"/><rect class="cls-10" x="83.5" y="51.81" width="6.56" height="13.22"/><path class="cls-11" d="M961.79,1030.62c-1.45,0-2.63-2.1-2.63-4.7,0-2.16.82-4,1.94-4.53-1.43.23-2.55,2.38-2.55,5,0,2.77,1.26,5,2.81,5,1,0,1.84-.89,2.34-2.25A2.33,2.33,0,0,1,961.79,1030.62Z" transform="translate(-874.61 -967.55)"/><path class="cls-10" d="M977.41,1018.46h-2.57c0.08,2.68-2,3.07-2,6.68s2,3.9,3.31,3.9,3.31-.29,3.31-3.9S977.33,1021.14,977.41,1018.46Z" transform="translate(-874.61 -967.55)"/><rect class="cls-10" x="98.05" y="49.68" width="6.93" height="2.34"/><polygon class="cls-11" points="98.06 52.02 98.47 53.19 104.57 53.19 104.98 52.02 98.06 52.02"/><polygon class="cls-6" points="86.05 88.04 86.63 90.92 85.06 90.97 83.18 88.04 86.05 88.04"/><polygon class="cls-6" points="86.63 90.92 86.63 87.47 86.05 84.24 86.05 88.04 86.63 90.92"/><polygon class="cls-6" points="67.26 88.04 67.83 90.92 45.8 90.97 43.92 88.04 67.26 88.04"/><polygon class="cls-6" points="67.83 90.92 67.83 87.47 67.26 84.24 67.26 88.04 67.83 90.92"/><polygon class="cls-6" points="76.5 88.04 77.07 90.92 79.38 90.92 79.38 88.04 76.5 88.04"/></svg>