<svg id="Camada_1" data-name="Camada 1" xmlns="http://www.w3.org/2000/svg" viewBox="0 0 1920 600.17"><defs><style>.cls-1{fill:transparent;opacity:0.2;}.cls-2{fill:#fff;}</style></defs><title>Fundo azul com cidade</title><rect class="cls-1" width="1920" height="580.88"/><path class="cls-2" d="M0,600.17V441.58H16v-56H33.32v-8h48v6.66h26.65v60h13.33v-24h46.64V406.94H275.86v7.54h10.66v-10.2h26.65v20h12v-64h13.33v-60h9.33V223h73v131.1h9v-57h7.5v-72h9.5v-8.13h68.46V227.7c0,1.5,6,0,6,0V359.13h8.5V476.57h24.49v10h16V429.09h17v-29h18.49v8.51h16.49v19h15.49v7h8V330.64h70.46V432.09h16.49v25h13v-8h18v12h21.49v9.5h30.48v6.5h22v-27h24.49l11.24,11.24H894v13.24h10l8-8h12v13h9v-17h29V443.08h13.49l9.25,9.25H1030v10.74l58,13v44.48h26.49V484.06h15v-7h13.49l9.5,9.5h15v-7h17v12.49h55.47v14h11v-29h55.47l21.49-15,17.74,17.74v12.24h14.24v50h4.5v-4h11.49V498.56h13v-7.5h13v-43h58l7.5-24.49h9l6.5-12.49h42v9.5l13.49,13.49V538.53h8l5.5,7.5h16l9-9V520.54h11V396.61l21.49-7V374.12h63.47V338.64h117.44l8-9.5h27V496.56h11.49V560h12l7-4V520.54h46V535H1920v65.13H0Z"/></svg>