<svg xmlns="http://www.w3.org/2000/svg" viewBox="0 0 144.56 131.57"><defs><style>.cls-1{isolation:isolate;}.cls-2{fill:#e4e5e5;mix-blend-mode:multiply;}.cls-3{fill:#50782f;}.cls-4{fill:#305324;}.cls-5{opacity:0.5;}.cls-6{fill:#f2f2f2;}.cls-7{fill:#5c853b;}.cls-8{fill:#3d602c;}.cls-14,.cls-9{fill:#fff;}.cls-10{fill:#e3c62c;}.cls-11{fill:#d1b52b;}.cls-12{fill:#b49e23;}.cls-13{fill:#31261d;}.cls-14,.cls-17{opacity:0.8;}.cls-15{fill:#23879a;}.cls-16{fill:#43382e;}</style></defs><title>Layout ALUGA AI 2016</title><g class="cls-1"><g id="Camada_1" data-name="Camada 1"><ellipse class="cls-2" cx="74.11" cy="126.57" rx="70.45" ry="5"/><path class="cls-3" d="M615.39,741.2a1.28,1.28,0,0,1-.32,1.77l-31.74,22a1.28,1.28,0,0,1-1.77-.32l-8.71-12.58a1.28,1.28,0,0,1,.32-1.77l31.74-22a1.28,1.28,0,0,1,1.77.32Z" transform="translate(-483.35 -683.54)"/><circle class="cls-4" cx="594.11" cy="746.63" r="6.05" transform="translate(-802.82 -212.22) rotate(-34.72)"/><g class="cls-5"><path class="cls-6" d="M595.41,749.2a3.59,3.59,0,0,1-1,.22l0.2,0.29-1.09.75-1.25-1.8,1.09-.75A1.27,1.27,0,0,0,595,748a0.69,0.69,0,0,0,.3-0.34,0.32,0.32,0,0,0,0-.28,0.38,0.38,0,0,0-.39-0.14,3.13,3.13,0,0,0-.61.16l-0.75.26a2.88,2.88,0,0,1-.83.16,2,2,0,0,1-.82-0.14,1.7,1.7,0,0,1-.74-0.65,1.54,1.54,0,0,1-.28-0.74,1.74,1.74,0,0,1,.1-0.75,2.45,2.45,0,0,1,.4-0.71,3.06,3.06,0,0,1,.65-0.6l-0.49-.7,0.85-.59,0.56,0.81a3.37,3.37,0,0,1,.46-0.12l0.37,0-0.21-.3,1.1-.76,1.22,1.76-1.1.76a1,1,0,0,0-.34-0.23,1.22,1.22,0,0,0-.4-0.09,1.35,1.35,0,0,0-.41,0,1.14,1.14,0,0,0-.37.17,0.82,0.82,0,0,0-.28.31,0.3,0.3,0,0,0,0,.32,0.36,0.36,0,0,0,.39.13,4,4,0,0,0,.62-0.17l0.77-.27a3,3,0,0,1,.84-0.17,2,2,0,0,1,.83.15,1.77,1.77,0,0,1,.76.66,1.55,1.55,0,0,1,.29.74,1.63,1.63,0,0,1-.1.73,2.32,2.32,0,0,1-.42.69,4.19,4.19,0,0,1-.64.6l0.47,0.68-0.85.59Z" transform="translate(-483.35 -683.54)"/></g><path class="cls-4" d="M614.64,742.2l-31.87,22.09-9-13,31.87-22.09ZM583,763l30.3-21-7.95-11.47-30.3,21Z" transform="translate(-483.35 -683.54)"/><path class="cls-4" d="M577.51,749l-3.22,2.23,2.16,3.12,0.15-.1a3.74,3.74,0,0,0,.95-5.21Z" transform="translate(-483.35 -683.54)"/><path class="cls-4" d="M580.64,760.28l2.23,3.22,3.12-2.16-0.1-.15a3.75,3.75,0,0,0-5.21-.95Z" transform="translate(-483.35 -683.54)"/><path class="cls-4" d="M610.77,744.35l3.22-2.23L611.83,739l-0.15.1a3.75,3.75,0,0,0-.95,5.21Z" transform="translate(-483.35 -683.54)"/><path class="cls-4" d="M607.64,733.06l-2.23-3.22L602.29,732l0.1,0.15a3.74,3.74,0,0,0,5.21.95Z" transform="translate(-483.35 -683.54)"/><rect class="cls-3" x="513.11" y="725.85" width="17.85" height="41.17" rx="1.27" ry="1.27" transform="translate(-834.61 -196) rotate(-38.52)"/><circle class="cls-4" cx="522.03" cy="746.43" r="6.05" transform="translate(-834.61 -196.01) rotate(-38.52)"/><g class="cls-5"><path class="cls-6" d="M519.34,749.09l-0.64-.81,0.65-.52a4.18,4.18,0,0,1-.44-0.76,2.33,2.33,0,0,1-.2-0.78,1.63,1.63,0,0,1,.11-0.73,1.55,1.55,0,0,1,.49-0.63,1.76,1.76,0,0,1,.92-0.42,2,2,0,0,1,.84.1,3,3,0,0,1,.76.4l0.66,0.48a4,4,0,0,0,.54.34,0.36,0.36,0,0,0,.41,0,0.3,0.3,0,0,0,.11-0.3,0.81,0.81,0,0,0-.18-0.38,1.13,1.13,0,0,0-.3-0.26,1.34,1.34,0,0,0-.38-0.16,1.22,1.22,0,0,0-.41,0,0.94,0.94,0,0,0-.39.13l-0.83-1,1.68-1.33,0.83,1-0.29.23,0.34,0.15a3.35,3.35,0,0,1,.4.25l0.77-.61,0.64,0.81-0.67.53a3,3,0,0,1,.45.76,2.44,2.44,0,0,1,.18.79,1.74,1.74,0,0,1-.12.74,1.54,1.54,0,0,1-.49.63,1.7,1.7,0,0,1-.9.41,2,2,0,0,1-.83-0.1,2.87,2.87,0,0,1-.75-0.39l-0.65-.47a3.14,3.14,0,0,0-.54-0.33,0.38,0.38,0,0,0-.42,0,0.32,0.32,0,0,0-.11.26,0.69,0.69,0,0,0,.18.42,1.26,1.26,0,0,0,.7.45,1.27,1.27,0,0,0,.87-0.1l0.82,1-1.72,1.37-0.82-1,0.28-.22a3.59,3.59,0,0,1-.87-0.49Z" transform="translate(-483.35 -683.54)"/></g><path class="cls-4" d="M516.07,726.39l24.15,30.34-12.41,9.88-24.15-30.34Zm22.81,30.19-23-28.84L505,736.43l23,28.84Z" transform="translate(-483.35 -683.54)"/><path class="cls-4" d="M537.25,753.47l2.44,3.07-3,2.36-0.12-.14a3.74,3.74,0,0,1,.6-5.26Z" transform="translate(-483.35 -683.54)"/><path class="cls-4" d="M531,763.38l-3.07,2.44-2.36-3,0.14-.12a3.74,3.74,0,0,1,5.26.6Z" transform="translate(-483.35 -683.54)"/><path class="cls-4" d="M506.74,739.44l-2.44-3.07,3-2.36,0.12,0.14a3.74,3.74,0,0,1-.6,5.26Z" transform="translate(-483.35 -683.54)"/><path class="cls-4" d="M513,729.53l3.07-2.44,2.36,3-0.14.12a3.74,3.74,0,0,1-5.26-.6Z" transform="translate(-483.35 -683.54)"/><path class="cls-3" d="M510.44,792.9a1.28,1.28,0,0,0,1.79.18l29.87-24.48a1.28,1.28,0,0,0,.18-1.79L532.58,755a1.28,1.28,0,0,0-1.79-.18l-29.87,24.48a1.28,1.28,0,0,0-.18,1.79Z" transform="translate(-483.35 -683.54)"/><circle class="cls-4" cx="521.51" cy="773.93" r="6.05" transform="translate(-855.76 -177.65) rotate(-39.33)"/><g class="cls-5"><path class="cls-6" d="M524.21,776.59l-0.8.65-0.53-.64a4.21,4.21,0,0,1-.76.45,2.32,2.32,0,0,1-.78.21,1.63,1.63,0,0,1-.73-0.1,1.56,1.56,0,0,1-.63-0.48,1.76,1.76,0,0,1-.43-0.91,2,2,0,0,1,.09-0.84,3,3,0,0,1,.39-0.76l0.47-.67a4,4,0,0,0,.33-0.55,0.36,0.36,0,0,0,0-.41,0.3,0.3,0,0,0-.3-0.11,0.82,0.82,0,0,0-.38.19,1.13,1.13,0,0,0-.26.31,1.35,1.35,0,0,0-.15.38,1.22,1.22,0,0,0,0,.41,0.94,0.94,0,0,0,.13.39l-1,.85-1.36-1.66,1-.85,0.23,0.28a3.1,3.1,0,0,1,.15-0.34,3.37,3.37,0,0,1,.24-0.41l-0.62-.76,0.8-.65,0.54,0.66a3,3,0,0,1,.75-0.46,2.43,2.43,0,0,1,.79-0.19,1.75,1.75,0,0,1,.75.11,1.54,1.54,0,0,1,.63.48,1.7,1.7,0,0,1,.42.89,2,2,0,0,1-.09.83,2.89,2.89,0,0,1-.38.75l-0.46.65a3.15,3.15,0,0,0-.32.54,0.38,0.38,0,0,0,0,.41,0.32,0.32,0,0,0,.26.1,0.69,0.69,0,0,0,.41-0.19,1.27,1.27,0,0,0,.32-1.58l1-.84,1.39,1.7-1,.84-0.23-.28a3.59,3.59,0,0,1-.48.88Z" transform="translate(-483.35 -683.54)"/></g><path class="cls-4" d="M501.57,780.18l30-24.58,10.06,12.27-30,24.58Zm29.86-23.23-28.51,23.37,8.84,10.79,28.51-23.37Z" transform="translate(-483.35 -683.54)"/><path class="cls-4" d="M528.34,758.62l3-2.49,2.41,2.94-0.13.12a3.75,3.75,0,0,1-5.27-.52Z" transform="translate(-483.35 -683.54)"/><path class="cls-4" d="M538.34,764.72l2.49,3-2.94,2.41-0.12-.13a3.75,3.75,0,0,1,.52-5.27Z" transform="translate(-483.35 -683.54)"/><path class="cls-4" d="M514.75,789.32l-3,2.49-2.41-2.94,0.13-.12a3.75,3.75,0,0,1,5.27.52Z" transform="translate(-483.35 -683.54)"/><path class="cls-4" d="M504.75,783.21l-2.49-3,2.94-2.41,0.12,0.13a3.74,3.74,0,0,1-.52,5.27Z" transform="translate(-483.35 -683.54)"/><path class="cls-7" d="M619.15,759a1.28,1.28,0,0,1-1.08,1.44l-38.23,5.42a1.28,1.28,0,0,1-1.44-1.08l-2.15-15.15a1.28,1.28,0,0,1,1.08-1.44l38.23-5.42a1.28,1.28,0,0,1,1.44,1.08Z" transform="translate(-483.35 -683.54)"/><circle class="cls-8" cx="597.69" cy="754.34" r="6.05" transform="translate(-583.39 -592.1) rotate(-8.08)"/><g class="cls-5"><path class="cls-9" d="M597.7,757.22a3.58,3.58,0,0,1-1-.24l0.05,0.35-1.31.19-0.31-2.17,1.31-.19a1.27,1.27,0,0,0,1.38.83,0.69,0.69,0,0,0,.42-0.18,0.32,0.32,0,0,0,.1-0.26,0.38,0.38,0,0,0-.28-0.3,3.13,3.13,0,0,0-.62-0.13l-0.79-.1a2.89,2.89,0,0,1-.81-0.23,2,2,0,0,1-.67-0.5,1.7,1.7,0,0,1-.37-0.91,1.54,1.54,0,0,1,.08-0.79,1.74,1.74,0,0,1,.42-0.63,2.44,2.44,0,0,1,.68-0.45,3.05,3.05,0,0,1,.85-0.25l-0.12-.85,1-.14,0.14,1a3.33,3.33,0,0,1,.47.1l0.35,0.12-0.05-.36,1.32-.19,0.3,2.12-1.32.19a0.93,0.93,0,0,0-.2-0.36,1.22,1.22,0,0,0-.31-0.26,1.33,1.33,0,0,0-.38-0.15,1.12,1.12,0,0,0-.4,0,0.81,0.81,0,0,0-.39.15,0.3,0.3,0,0,0-.12.29,0.36,0.36,0,0,0,.29.3,4,4,0,0,0,.63.13l0.81,0.11a3,3,0,0,1,.83.23,2,2,0,0,1,.68.51,1.76,1.76,0,0,1,.38.93,1.55,1.55,0,0,1-.07.79,1.62,1.62,0,0,1-.42.61,2.32,2.32,0,0,1-.68.43,4.17,4.17,0,0,1-.85.25l0.12,0.82-1,.14Z" transform="translate(-483.35 -683.54)"/></g><path class="cls-8" d="M618,759.59L579.63,765l-2.23-15.71,38.39-5.45ZM580.44,764l36.5-5.18L615,745l-36.5,5.18Z" transform="translate(-483.35 -683.54)"/><path class="cls-8" d="M581.8,749l-3.88.55,0.53,3.76,0.18,0a3.74,3.74,0,0,0,3.18-4.23V749Z" transform="translate(-483.35 -683.54)"/><path class="cls-8" d="M579.53,760.49l0.55,3.88,3.76-.53c0-.06,0-0.12,0-0.18a3.74,3.74,0,0,0-4.23-3.18h-0.06Z" transform="translate(-483.35 -683.54)"/><path class="cls-8" d="M613.6,759.77l3.88-.55L617,755.46l-0.18,0a3.74,3.74,0,0,0-3.18,4.23v0.06Z" transform="translate(-483.35 -683.54)"/><path class="cls-8" d="M615.87,748.27l-0.55-3.88-3.76.53c0,0.06,0,.12,0,0.18a3.74,3.74,0,0,0,4.23,3.18h0.06Z" transform="translate(-483.35 -683.54)"/><path class="cls-7" d="M620.68,784a1.28,1.28,0,0,1-1.54.94l-37.52-9.15a1.28,1.28,0,0,1-.94-1.54l3.62-14.87a1.28,1.28,0,0,1,1.54-.94l37.52,9.15a1.28,1.28,0,0,1,.94,1.54Z" transform="translate(-483.35 -683.54)"/><circle class="cls-8" cx="602.5" cy="771.73" r="6.05" transform="translate(-773.33 490.75) rotate(-76.3)"/><g class="cls-5"><path class="cls-9" d="M601.43,774.41a3.6,3.6,0,0,1-.81-0.58l-0.08.35-1.28-.31,0.52-2.13,1.28,0.31a1.27,1.27,0,0,0,1,1.28,0.69,0.69,0,0,0,.45,0,0.32,0.32,0,0,0,.19-0.21,0.38,0.38,0,0,0-.15-0.39,3.14,3.14,0,0,0-.52-0.35l-0.7-.39a2.9,2.9,0,0,1-.67-0.51,2,2,0,0,1-.44-0.71,1.71,1.71,0,0,1,0-1,1.54,1.54,0,0,1,.36-0.7,1.74,1.74,0,0,1,.62-0.43,2.44,2.44,0,0,1,.8-0.17,3,3,0,0,1,.88.09l0.2-.83,1,0.24-0.23,1a3.38,3.38,0,0,1,.4.26l0.28,0.24,0.09-.36,1.3,0.32-0.51,2.08-1.3-.32a0.94,0.94,0,0,0,0-.41,1.23,1.23,0,0,0-.2-0.36,1.34,1.34,0,0,0-.3-0.28,1.13,1.13,0,0,0-.37-0.17,0.81,0.81,0,0,0-.42,0,0.3,0.3,0,0,0-.22.23,0.36,0.36,0,0,0,.16.38,4,4,0,0,0,.54.35l0.71,0.4a3,3,0,0,1,.68.52,2,2,0,0,1,.44.72,1.77,1.77,0,0,1,0,1,1.56,1.56,0,0,1-.36.71,1.62,1.62,0,0,1-.62.41,2.32,2.32,0,0,1-.79.14,4.2,4.2,0,0,1-.88-0.08l-0.2.81-1-.24Z" transform="translate(-483.35 -683.54)"/></g><path class="cls-8" d="M619.42,784.15L581.75,775l3.76-15.41,37.67,9.19Zm-36.52-9.89L618.72,783,622,769.44l-35.82-8.73Z" transform="translate(-483.35 -683.54)"/><path class="cls-8" d="M589.72,760.88l-3.81-.93-0.9,3.69,0.17,0.05a3.74,3.74,0,0,0,4.53-2.75v-0.06Z" transform="translate(-483.35 -683.54)"/><path class="cls-8" d="M583.34,770.71l-0.93,3.81,3.69,0.9c0-.06,0-0.11.05-0.17a3.75,3.75,0,0,0-2.75-4.53h-0.06Z" transform="translate(-483.35 -683.54)"/><path class="cls-8" d="M615.25,782.68l3.81,0.93,0.9-3.69-0.17-.05a3.75,3.75,0,0,0-4.53,2.75v0.06Z" transform="translate(-483.35 -683.54)"/><path class="cls-8" d="M621.63,772.84l0.93-3.81-3.69-.9c0,0.06,0,.11-0.05.17a3.74,3.74,0,0,0,2.75,4.53h0.06Z" transform="translate(-483.35 -683.54)"/><path class="cls-7" d="M603.09,793a1.28,1.28,0,0,1-1.79.18l-29.87-24.48a1.28,1.28,0,0,1-.18-1.79l9.7-11.84a1.28,1.28,0,0,1,1.79-.18l29.87,24.48a1.28,1.28,0,0,1,.18,1.79Z" transform="translate(-483.35 -683.54)"/><circle class="cls-8" cx="592.02" cy="774.02" r="6.05" transform="matrix(0.63, -0.77, 0.77, 0.63, -865.25, 57.78)"/><g class="cls-5"><path class="cls-9" d="M589.9,776a3.59,3.59,0,0,1-.48-0.88l-0.23.27-1-.84,1.39-1.7,1,0.84a1.27,1.27,0,0,0-.12.87,1.26,1.26,0,0,0,.44.71,0.69,0.69,0,0,0,.41.19,0.32,0.32,0,0,0,.26-0.1,0.37,0.37,0,0,0,0-.41,3.12,3.12,0,0,0-.32-0.54l-0.46-.65a2.89,2.89,0,0,1-.38-0.75,2,2,0,0,1-.09-0.83,1.71,1.71,0,0,1,.42-0.89,1.54,1.54,0,0,1,.63-0.48,1.75,1.75,0,0,1,.75-0.11,2.43,2.43,0,0,1,.79.19,3,3,0,0,1,.75.46l0.54-.66,0.8,0.65-0.62.76a3.37,3.37,0,0,1,.24.41,3.07,3.07,0,0,1,.15.34l0.23-.28,1,0.85L594.74,775l-1-.85a0.94,0.94,0,0,0,.13-0.39,1.22,1.22,0,0,0,0-.41,1.34,1.34,0,0,0-.15-0.38,1.13,1.13,0,0,0-.26-0.31,0.81,0.81,0,0,0-.38-0.19,0.3,0.3,0,0,0-.3.11,0.36,0.36,0,0,0,0,.41,3.93,3.93,0,0,0,.33.55l0.47,0.67a3,3,0,0,1,.39.76,2,2,0,0,1,.09.84,1.76,1.76,0,0,1-.43.91,1.55,1.55,0,0,1-.63.48,1.63,1.63,0,0,1-.73.1,2.32,2.32,0,0,1-.78-0.21,4.2,4.2,0,0,1-.76-0.45l-0.53.64-0.8-.65Z" transform="translate(-483.35 -683.54)"/></g><path class="cls-8" d="M601.91,792.53l-30-24.58L582,755.68l30,24.58Zm-28.65-24.71,28.51,23.37,8.84-10.79L582.11,757Z" transform="translate(-483.35 -683.54)"/><path class="cls-8" d="M585.2,758.7l-3-2.49-2.41,2.94,0.13,0.12a3.75,3.75,0,0,0,5.27-.52Z" transform="translate(-483.35 -683.54)"/><path class="cls-8" d="M575.2,764.81l-2.49,3,2.94,2.41,0.12-.13a3.75,3.75,0,0,0-.52-5.27Z" transform="translate(-483.35 -683.54)"/><path class="cls-8" d="M598.79,789.4l3,2.49,2.41-2.94-0.13-.12a3.75,3.75,0,0,0-5.27.52Z" transform="translate(-483.35 -683.54)"/><path class="cls-8" d="M608.79,783.3l2.49-3-2.94-2.41-0.12.13a3.74,3.74,0,0,0,.52,5.27Z" transform="translate(-483.35 -683.54)"/><rect class="cls-7" x="525.55" y="727.1" width="17.85" height="41.17" rx="1.27" ry="1.27" transform="translate(-584.04 -600.13) rotate(-8.16)"/><circle class="cls-8" cx="534.47" cy="747.68" r="6.05" transform="translate(-584.04 -600.13) rotate(-8.16)"/><g class="cls-5"><path class="cls-9" d="M530.8,748.61l-0.15-1,0.82-.12a4.18,4.18,0,0,1,0-.88,2.32,2.32,0,0,1,.22-0.77,1.63,1.63,0,0,1,.47-0.58,1.55,1.55,0,0,1,.74-0.29,1.77,1.77,0,0,1,1,.1,2,2,0,0,1,.68.51,3,3,0,0,1,.45.73l0.33,0.75a4,4,0,0,0,.3.57,0.36,0.36,0,0,0,.36.2,0.3,0.3,0,0,0,.25-0.2,0.81,0.81,0,0,0,0-.42,1.14,1.14,0,0,0-.13-0.38,1.34,1.34,0,0,0-.25-0.33,1.21,1.21,0,0,0-.34-0.23,0.94,0.94,0,0,0-.4-0.09L535,744.83l2.12-.3,0.19,1.32-0.36.05a3,3,0,0,1,.22.3,3.34,3.34,0,0,1,.22.42l1-.14,0.15,1-0.84.12a3,3,0,0,1,0,.88,2.44,2.44,0,0,1-.25.78,1.74,1.74,0,0,1-.48.58,1.54,1.54,0,0,1-.74.3,1.7,1.7,0,0,1-1-.1,2,2,0,0,1-.66-0.51,2.87,2.87,0,0,1-.45-0.71l-0.32-.73a3.14,3.14,0,0,0-.3-0.55,0.38,0.38,0,0,0-.37-0.19,0.32,0.32,0,0,0-.22.17,0.69,0.69,0,0,0-.05.45,1.26,1.26,0,0,0,.38.74,1.27,1.27,0,0,0,.8.35l0.19,1.31-2.17.31-0.19-1.31,0.35-.05a3.59,3.59,0,0,1-.5-0.86Z" transform="translate(-483.35 -683.54)"/></g><path class="cls-8" d="M539.46,727.38l5.5,38.38L529.25,768l-5.5-38.38ZM543.88,765l-5.23-36.49-13.81,2,5.23,36.49Z" transform="translate(-483.35 -683.54)"/><path class="cls-8" d="M544,761.45l0.56,3.88-3.76.54c0-.06,0-0.12,0-0.18a3.74,3.74,0,0,1,3.18-4.24H544Z" transform="translate(-483.35 -683.54)"/><path class="cls-8" d="M533.64,766.84l-3.88.56-0.54-3.76,0.18,0a3.74,3.74,0,0,1,4.24,3.18S533.64,766.82,533.64,766.84Z" transform="translate(-483.35 -683.54)"/><path class="cls-8" d="M524.81,733.92L524.25,730l3.76-.54c0,0.06,0,.12,0,0.18a3.75,3.75,0,0,1-3.18,4.24h-0.06Z" transform="translate(-483.35 -683.54)"/><path class="cls-8" d="M535.21,728.53l3.88-.56,0.54,3.76-0.18,0a3.74,3.74,0,0,1-4.24-3.18S535.22,728.55,535.21,728.53Z" transform="translate(-483.35 -683.54)"/><path class="cls-7" d="M495.46,756.45a1.28,1.28,0,0,0,1.08,1.44l38.23,5.42a1.28,1.28,0,0,0,1.44-1.08l2.15-15.15a1.28,1.28,0,0,0-1.08-1.44L499,740.22a1.28,1.28,0,0,0-1.44,1.08Z" transform="translate(-483.35 -683.54)"/><circle class="cls-8" cx="516.91" cy="751.77" r="6.05" transform="translate(-783.36 474.41) rotate(-81.92)"/><g class="cls-5"><path class="cls-9" d="M516.78,755.55l-1-.14,0.12-.82a4.17,4.17,0,0,1-.85-0.25,2.32,2.32,0,0,1-.68-0.43,1.63,1.63,0,0,1-.42-0.61,1.55,1.55,0,0,1-.07-0.79,1.76,1.76,0,0,1,.38-0.93,2,2,0,0,1,.68-0.51,3,3,0,0,1,.83-0.23l0.81-.11a4,4,0,0,0,.63-0.13,0.36,0.36,0,0,0,.29-0.3,0.3,0.3,0,0,0-.12-0.29,0.81,0.81,0,0,0-.39-0.15,1.12,1.12,0,0,0-.4,0,1.33,1.33,0,0,0-.38.15,1.21,1.21,0,0,0-.31.26,0.94,0.94,0,0,0-.2.36l-1.32-.19,0.3-2.12,1.32,0.19-0.05.36,0.35-.12a3.41,3.41,0,0,1,.47-0.1l0.14-1,1,0.14-0.12.85a3.06,3.06,0,0,1,.85.25,2.44,2.44,0,0,1,.68.45,1.75,1.75,0,0,1,.42.63,1.54,1.54,0,0,1,.08.79,1.7,1.7,0,0,1-.37.91,2,2,0,0,1-.67.5,2.89,2.89,0,0,1-.81.23l-0.79.1a3.15,3.15,0,0,0-.62.13,0.38,0.38,0,0,0-.28.3,0.32,0.32,0,0,0,.1.26,0.69,0.69,0,0,0,.42.18,1.27,1.27,0,0,0,1.38-.83l1.31,0.19-0.31,2.17-1.31-.19,0-.35a3.59,3.59,0,0,1-1,.24Z" transform="translate(-483.35 -683.54)"/></g><path class="cls-8" d="M498.81,741.31l38.39,5.45L535,762.46,496.59,757Zm37.31,6.26-36.5-5.18-2,13.81,36.5,5.18Z" transform="translate(-483.35 -683.54)"/><path class="cls-8" d="M532.81,746.43l3.88,0.55-0.53,3.76-0.18,0a3.74,3.74,0,0,1-3.18-4.23v-0.06Z" transform="translate(-483.35 -683.54)"/><path class="cls-8" d="M535.08,757.92l-0.55,3.88-3.76-.53c0-.06,0-0.12,0-0.18a3.74,3.74,0,0,1,4.23-3.18h0.06Z" transform="translate(-483.35 -683.54)"/><path class="cls-8" d="M501,757.2l-3.88-.55,0.53-3.76,0.18,0a3.74,3.74,0,0,1,3.18,4.23v0.06Z" transform="translate(-483.35 -683.54)"/><path class="cls-8" d="M498.73,745.7l0.55-3.88,3.76,0.53c0,0.06,0,.12,0,0.18a3.74,3.74,0,0,1-4.23,3.18h-0.06Z" transform="translate(-483.35 -683.54)"/><path class="cls-7" d="M490,782.61a1.28,1.28,0,0,0,1.54.94l37.52-9.15a1.28,1.28,0,0,0,.94-1.54L526.39,758a1.28,1.28,0,0,0-1.54-.94l-37.52,9.15a1.28,1.28,0,0,0-.94,1.54Z" transform="translate(-483.35 -683.54)"/><circle class="cls-8" cx="508.21" cy="770.3" r="6.05" transform="translate(-651.34 -541.24) rotate(-13.7)"/><g class="cls-5"><path class="cls-9" d="M509.49,773.86l-1,.24-0.2-.81a4.18,4.18,0,0,1-.88.08,2.31,2.31,0,0,1-.79-0.14,1.62,1.62,0,0,1-.62-0.41,1.55,1.55,0,0,1-.36-0.71,1.76,1.76,0,0,1,0-1,2,2,0,0,1,.44-0.72,3,3,0,0,1,.68-0.52l0.71-.4a4,4,0,0,0,.54-0.35,0.36,0.36,0,0,0,.16-0.38,0.3,0.3,0,0,0-.22-0.23,0.81,0.81,0,0,0-.42,0,1.13,1.13,0,0,0-.37.17,1.35,1.35,0,0,0-.3.28,1.23,1.23,0,0,0-.2.36,0.94,0.94,0,0,0,0,.41l-1.3.32L504.81,768l1.3-.32L506.2,768a3.1,3.1,0,0,1,.28-0.24,3.37,3.37,0,0,1,.4-0.26l-0.23-1,1-.24,0.2,0.83a3,3,0,0,1,.88-0.09,2.44,2.44,0,0,1,.8.17,1.74,1.74,0,0,1,.62.43,1.54,1.54,0,0,1,.36.7,1.7,1.7,0,0,1,0,1,2,2,0,0,1-.44.71,2.87,2.87,0,0,1-.67.51l-0.7.39a3.12,3.12,0,0,0-.52.35,0.37,0.37,0,0,0-.15.39,0.32,0.32,0,0,0,.19.21,0.69,0.69,0,0,0,.45,0,1.26,1.26,0,0,0,.7-0.45,1.27,1.27,0,0,0,.27-0.83l1.28-.31,0.52,2.13-1.28.31-0.08-.35a3.6,3.6,0,0,1-.81.58Z" transform="translate(-483.35 -683.54)"/></g><path class="cls-8" d="M487.52,767.3l37.67-9.19,3.76,15.41-37.67,9.18Zm37-8L488.67,768,492,781.56l35.82-8.73Z" transform="translate(-483.35 -683.54)"/><path class="cls-8" d="M521,759.44l3.81-.93,0.9,3.69-0.17.05A3.74,3.74,0,0,1,521,759.5v-0.06Z" transform="translate(-483.35 -683.54)"/><path class="cls-8" d="M527.36,769.28l0.93,3.81-3.69.9-0.05-.17a3.75,3.75,0,0,1,2.75-4.53h0.06Z" transform="translate(-483.35 -683.54)"/><path class="cls-8" d="M495.45,781.24l-3.81.93-0.9-3.69,0.17-.05a3.74,3.74,0,0,1,4.53,2.75v0.06Z" transform="translate(-483.35 -683.54)"/><path class="cls-8" d="M489.07,771.41l-0.93-3.81,3.69-.9c0,0.06,0,.11.05,0.17a3.74,3.74,0,0,1-2.75,4.53h-0.06Z" transform="translate(-483.35 -683.54)"/><circle class="cls-10" cx="107.46" cy="42.66" r="6.16"/><circle class="cls-11" cx="107.56" cy="42.76" r="4.96"/><g class="cls-5"><path class="cls-9" d="M590.51,728.35a2.69,2.69,0,0,1-.69-0.28v0.27h-1v-1.65h1a1,1,0,0,0,.35.56,0.94,0.94,0,0,0,.59.2,0.52,0.52,0,0,0,.33-0.09,0.24,0.24,0,0,0,.1-0.18,0.28,0.28,0,0,0-.18-0.26,2.33,2.33,0,0,0-.44-0.16L590,726.6a2.16,2.16,0,0,1-.58-0.26,1.49,1.49,0,0,1-.45-0.44,1.28,1.28,0,0,1-.18-0.72,1.16,1.16,0,0,1,.14-0.58,1.31,1.31,0,0,1,.38-0.42,1.83,1.83,0,0,1,.55-0.26,2.27,2.27,0,0,1,.66-0.09v-0.64h0.77v0.74l0.34,0.12,0.25,0.13v-0.27h1v1.61h-1a0.71,0.71,0,0,0-.11-0.29,0.91,0.91,0,0,0-.21-0.23,1,1,0,0,0-.27-0.15,0.85,0.85,0,0,0-.3-0.06,0.61,0.61,0,0,0-.31.07,0.22,0.22,0,0,0-.12.2,0.27,0.27,0,0,0,.18.25,3,3,0,0,0,.45.16l0.59,0.16a2.27,2.27,0,0,1,.59.26,1.46,1.46,0,0,1,.45.45,1.32,1.32,0,0,1,.18.73,1.16,1.16,0,0,1-.14.58,1.22,1.22,0,0,1-.38.41,1.75,1.75,0,0,1-.55.25,3.13,3.13,0,0,1-.66.1V729h-0.77v-0.69Z" transform="translate(-483.35 -683.54)"/></g><circle class="cls-10" cx="95.06" cy="52.28" r="6.16"/><circle class="cls-11" cx="95.16" cy="52.38" r="4.96"/><g class="cls-5"><path class="cls-9" d="M578.11,738a2.7,2.7,0,0,1-.69-0.28v0.27h-1V736.3h1a1,1,0,0,0,.94.76,0.52,0.52,0,0,0,.33-0.09,0.24,0.24,0,0,0,.1-0.18,0.28,0.28,0,0,0-.18-0.26,2.35,2.35,0,0,0-.44-0.16l-0.58-.16A2.16,2.16,0,0,1,577,736a1.48,1.48,0,0,1-.45-0.44,1.28,1.28,0,0,1-.18-0.72,1.15,1.15,0,0,1,.14-0.58,1.31,1.31,0,0,1,.38-0.42,1.84,1.84,0,0,1,.55-0.26,2.28,2.28,0,0,1,.66-0.09V732.8h0.77v0.74l0.34,0.12,0.25,0.13v-0.27h1v1.61h-1a0.71,0.71,0,0,0-.11-0.29,0.91,0.91,0,0,0-.21-0.23,1,1,0,0,0-.27-0.15,0.85,0.85,0,0,0-.3-0.06,0.61,0.61,0,0,0-.31.07,0.22,0.22,0,0,0-.12.2,0.27,0.27,0,0,0,.18.25,3,3,0,0,0,.45.16l0.59,0.16a2.25,2.25,0,0,1,.59.26,1.46,1.46,0,0,1,.45.45,1.32,1.32,0,0,1,.18.73,1.16,1.16,0,0,1-.14.58,1.22,1.22,0,0,1-.38.41,1.74,1.74,0,0,1-.55.25,3.13,3.13,0,0,1-.66.1v0.63h-0.77V738Z" transform="translate(-483.35 -683.54)"/></g><circle class="cls-10" cx="99.99" cy="28.26" r="6.16"/><circle class="cls-11" cx="100.08" cy="28.36" r="4.96"/><g class="cls-5"><path class="cls-9" d="M583,713.95a2.7,2.7,0,0,1-.69-0.28v0.27h-1v-1.65h1a1,1,0,0,0,.94.76,0.52,0.52,0,0,0,.33-0.09,0.24,0.24,0,0,0,.1-0.18,0.28,0.28,0,0,0-.18-0.26,2.37,2.37,0,0,0-.44-0.16l-0.58-.16a2.16,2.16,0,0,1-.58-0.26,1.48,1.48,0,0,1-.45-0.44,1.28,1.28,0,0,1-.18-0.72,1.16,1.16,0,0,1,.14-0.58,1.31,1.31,0,0,1,.38-0.42,1.83,1.83,0,0,1,.55-0.26,2.27,2.27,0,0,1,.66-0.09v-0.64h0.77v0.74l0.34,0.12,0.25,0.13v-0.27h1v1.61h-1a0.71,0.71,0,0,0-.11-0.29,0.93,0.93,0,0,0-.21-0.23,1,1,0,0,0-.27-0.15,0.85,0.85,0,0,0-.3-0.06,0.61,0.61,0,0,0-.31.07,0.22,0.22,0,0,0-.12.2,0.27,0.27,0,0,0,.18.25,3,3,0,0,0,.45.16l0.59,0.16a2.27,2.27,0,0,1,.59.26,1.47,1.47,0,0,1,.45.45,1.32,1.32,0,0,1,.18.73,1.16,1.16,0,0,1-.14.58,1.22,1.22,0,0,1-.38.41,1.74,1.74,0,0,1-.55.25,3.13,3.13,0,0,1-.66.1v0.63H583v-0.69Z" transform="translate(-483.35 -683.54)"/></g><circle class="cls-10" cx="114.73" cy="29.02" r="6.16"/><circle class="cls-11" cx="114.82" cy="29.11" r="4.96"/><g class="cls-5"><path class="cls-9" d="M597.77,714.7a2.71,2.71,0,0,1-.69-0.28v0.27h-1V713h1a1,1,0,0,0,.94.76,0.52,0.52,0,0,0,.33-0.09,0.24,0.24,0,0,0,.1-0.18,0.28,0.28,0,0,0-.18-0.26,2.38,2.38,0,0,0-.44-0.16l-0.58-.16a2.16,2.16,0,0,1-.58-0.26,1.48,1.48,0,0,1-.45-0.44,1.28,1.28,0,0,1-.18-0.72,1.16,1.16,0,0,1,.14-0.58,1.31,1.31,0,0,1,.38-0.42,1.83,1.83,0,0,1,.55-0.26,2.27,2.27,0,0,1,.66-0.09v-0.64h0.77v0.74l0.34,0.12,0.25,0.13v-0.27h1v1.61h-1a0.71,0.71,0,0,0-.11-0.29,0.93,0.93,0,0,0-.21-0.23,1,1,0,0,0-.27-0.15,0.85,0.85,0,0,0-.3-0.06,0.61,0.61,0,0,0-.31.07,0.22,0.22,0,0,0-.12.2,0.27,0.27,0,0,0,.18.25,3,3,0,0,0,.45.16L599,712a2.26,2.26,0,0,1,.59.26,1.46,1.46,0,0,1,.45.45,1.32,1.32,0,0,1,.18.73,1.16,1.16,0,0,1-.14.58,1.22,1.22,0,0,1-.38.41,1.74,1.74,0,0,1-.55.25,3.13,3.13,0,0,1-.66.1v0.63h-0.77V714.7Z" transform="translate(-483.35 -683.54)"/></g><circle class="cls-10" cx="24.78" cy="35.86" r="6.85"/><circle class="cls-12" cx="24.78" cy="35.86" r="5.65"/><circle class="cls-11" cx="24.65" cy="35.73" r="5.52"/><g class="cls-5"><path class="cls-9" d="M507.79,721.79a3,3,0,0,1-.77-0.31v0.3h-1.1v-1.83H507a1.06,1.06,0,0,0,1,.85,0.58,0.58,0,0,0,.37-0.1,0.27,0.27,0,0,0,.12-0.21,0.31,0.31,0,0,0-.2-0.28,2.64,2.64,0,0,0-.49-0.18l-0.64-.18a2.4,2.4,0,0,1-.64-0.28,1.65,1.65,0,0,1-.5-0.49,1.42,1.42,0,0,1-.2-0.8,1.29,1.29,0,0,1,.16-0.64,1.45,1.45,0,0,1,.42-0.47,2,2,0,0,1,.61-0.29,2.53,2.53,0,0,1,.73-0.1V716h0.86v0.82L509,717l0.28,0.14v-0.31h1.11v1.79H509.3a0.79,0.79,0,0,0-.12-0.32,1,1,0,0,0-.23-0.25,1.12,1.12,0,0,0-.3-0.17,1,1,0,0,0-.33-0.06,0.68,0.68,0,0,0-.34.08,0.25,0.25,0,0,0-.14.23,0.3,0.3,0,0,0,.21.28,3.35,3.35,0,0,0,.5.18l0.66,0.18a2.52,2.52,0,0,1,.66.29,1.63,1.63,0,0,1,.5.5,1.47,1.47,0,0,1,.2.82,1.29,1.29,0,0,1-.15.65,1.36,1.36,0,0,1-.42.46,1.94,1.94,0,0,1-.61.27,3.5,3.5,0,0,1-.73.11v0.7h-0.86v-0.76Z" transform="translate(-483.35 -683.54)"/></g><rect class="cls-10" x="545.74" y="690.06" width="27.5" height="15.6" rx="1.11" ry="1.11" transform="translate(-799.57 -167.76) rotate(-39.53)"/><rect class="cls-13" x="544.15" y="693.94" width="27.5" height="3.97" transform="translate(-798.71 -169.22) rotate(-39.53)"/><rect class="cls-13" x="555.8" y="698.56" width="10.35" height="0.5" transform="translate(-799.84 -166.61) rotate(-39.53)"/><rect class="cls-13" x="556.82" y="699.79" width="10.35" height="0.49" transform="translate(-800.39 -165.69) rotate(-39.53)"/><rect class="cls-13" x="557.84" y="701.02" width="10.35" height="0.5" transform="translate(-800.94 -164.75) rotate(-39.53)"/><rect class="cls-14" x="551.73" y="703.33" width="6.05" height="6.05" transform="translate(-806.07 -168.86) rotate(-39.53)"/><path class="cls-13" d="M555.84,706.72a0.45,0.45,0,0,1-.32-0.2,1.72,1.72,0,0,0-.19-0.93c0.16-.13-0.06-0.61-0.34-0.62a1.12,1.12,0,1,0-1.63,1.35c0,0.27.38,0.58,0.54,0.45a1.72,1.72,0,0,0,.87.37,0.45,0.45,0,0,1,.13.36c-0.27.3-1,1.74-.53,2.29l1.92-1.58,1.92-1.58C557.74,706.08,556.19,706.51,555.84,706.72Z" transform="translate(-483.35 -683.54)"/><rect class="cls-13" x="567.84" y="690.87" width="2.55" height="2.55" transform="translate(-793.76 -162.84) rotate(-39.54)"/><rect class="cls-13" x="570.11" y="693.62" width="2.55" height="2.55" transform="translate(-795 -160.74) rotate(-39.54)"/><path class="cls-8" d="M576.73,721.06c0,1.29-2.32,2.11-2.78,3.23s0.56,3.38-.32,4.25-3.09-.17-4.25.32-1.94,2.78-3.23,2.78-2.11-2.32-3.23-2.78-3.38.56-4.25-.32,0.17-3.09-.32-4.25-2.78-1.94-2.78-3.23,2.32-2.11,2.78-3.23-0.56-3.38.32-4.25,3.09,0.17,4.25-.32,1.94-2.78,3.23-2.78,2.11,2.32,3.23,2.78,3.38-.56,4.25.32-0.17,3.09.32,4.25S576.73,719.78,576.73,721.06Z" transform="translate(-483.35 -683.54)"/><path class="cls-7" d="M561.43,719a2.31,2.31,0,0,1,.16-0.88,1.8,1.8,0,0,1,.43-0.64,1.86,1.86,0,0,1,.66-0.4,2.7,2.7,0,0,1,1.7,0,1.86,1.86,0,0,1,.66.4,1.78,1.78,0,0,1,.43.64,2.58,2.58,0,0,1,0,1.76,1.81,1.81,0,0,1-.43.64,1.84,1.84,0,0,1-.66.4,2.69,2.69,0,0,1-1.7,0,1.78,1.78,0,0,1-1.09-1A2.28,2.28,0,0,1,561.43,719Zm6.86-1.95h1.56L564,725h-1.55Zm-5.2,1.95q0,0.32,0,.53a1.21,1.21,0,0,0,.07.34,0.33,0.33,0,0,0,.14.17,0.43,0.43,0,0,0,.22.05,0.42,0.42,0,0,0,.22-0.05,0.35,0.35,0,0,0,.13-0.17,1.29,1.29,0,0,0,.07-0.34c0-.14,0-0.32,0-0.53a2.78,2.78,0,0,0-.09-0.87,0.39,0.39,0,0,0-.71,0A2.76,2.76,0,0,0,563.08,719Zm3.58,4.05a2.33,2.33,0,0,1,.15-0.88,1.75,1.75,0,0,1,.43-0.64,1.88,1.88,0,0,1,.66-0.4,2.69,2.69,0,0,1,1.7,0,1.89,1.89,0,0,1,.66.4,1.76,1.76,0,0,1,.43.64,2.59,2.59,0,0,1,0,1.76,1.76,1.76,0,0,1-.43.64,1.89,1.89,0,0,1-.66.4,2.69,2.69,0,0,1-1.7,0,1.88,1.88,0,0,1-.66-0.4,1.75,1.75,0,0,1-.43-0.64A2.32,2.32,0,0,1,566.66,723.09Zm1.66,0q0,0.32,0,.53a1.11,1.11,0,0,0,.07.34,0.33,0.33,0,0,0,.14.17,0.45,0.45,0,0,0,.22,0,0.42,0.42,0,0,0,.22,0,0.35,0.35,0,0,0,.13-0.17,1.21,1.21,0,0,0,.07-0.34q0-.22,0-0.53a2.77,2.77,0,0,0-.09-0.87,0.39,0.39,0,0,0-.71,0A2.78,2.78,0,0,0,568.32,723.09Z" transform="translate(-483.35 -683.54)"/><path class="cls-3" d="M536.26,702.24s3-3.82,1-4.08-2.07,1.21-3.08,1.39-1.83-.65-3.24-0.39c-1.85.34-1.88,1.28-2.77,1.34-1.33.09-2.66-.65-4,0.32s2.37,3.29,2.37,3.29a16.09,16.09,0,0,0-3.45,10.15c0.29,5.73,3.5,10.58,12.19,9s10.52-6.6,8.22-12.72A15.05,15.05,0,0,0,536.26,702.24Z" transform="translate(-483.35 -683.54)"/><g class="cls-5"><path class="cls-9" d="M533.81,716.86a4.85,4.85,0,0,1-1.32-.28l0.09,0.47-1.76.32-0.53-2.92,1.76-.32a1.72,1.72,0,0,0,1.91,1,0.94,0.94,0,0,0,.56-0.26,0.44,0.44,0,0,0,.13-0.36,0.51,0.51,0,0,0-.4-0.4,4.23,4.23,0,0,0-.84-0.15l-1.08-.1a3.9,3.9,0,0,1-1.11-.27,2.68,2.68,0,0,1-.93-0.64,2.31,2.31,0,0,1-.56-1.22,2.08,2.08,0,0,1,.06-1.07,2.35,2.35,0,0,1,.54-0.87,3.3,3.3,0,0,1,.89-0.65,4.11,4.11,0,0,1,1.13-.38l-0.21-1.14,1.37-.25,0.24,1.31a4.51,4.51,0,0,1,.63.1,4,4,0,0,1,.48.15l-0.09-.49,1.78-.33,0.52,2.86-1.78.33a1.29,1.29,0,0,0-.29-0.48,1.65,1.65,0,0,0-.44-0.33,1.81,1.81,0,0,0-.53-0.18,1.53,1.53,0,0,0-.55,0,1.1,1.1,0,0,0-.53.23,0.4,0.4,0,0,0-.15.4,0.49,0.49,0,0,0,.41.38,5.4,5.4,0,0,0,.86.14l1.1,0.1a4.08,4.08,0,0,1,1.13.27,2.64,2.64,0,0,1,.95.65,2.38,2.38,0,0,1,.56,1.24,2.1,2.1,0,0,1-.06,1.08,2.21,2.21,0,0,1-.54.85,3.15,3.15,0,0,1-.9.62,5.68,5.68,0,0,1-1.13.39l0.2,1.11-1.37.25Z" transform="translate(-483.35 -683.54)"/></g><path class="cls-4" d="M531.11,704.11a45.12,45.12,0,0,1-4.49.6,0.61,0.61,0,0,1-.1-1.22,47.64,47.64,0,0,0,9.54-1.83,0.61,0.61,0,0,1,.38,1.17A45.82,45.82,0,0,1,531.11,704.11Z" transform="translate(-483.35 -683.54)"/><path class="cls-13" d="M567.1,754.23H547.52a3.75,3.75,0,0,1-3.75-3.75V740.33a3.75,3.75,0,0,1,3.75-3.75H567.1a3.75,3.75,0,0,1,3.75,3.75v10.15A3.75,3.75,0,0,1,567.1,754.23Zm-19.41-3.91h19.25V740.5H547.69v9.82Z" transform="translate(-483.35 -683.54)"/><path class="cls-13" d="M528.89,807.57a1.3,1.3,0,0,1-1.3,1.3H523a1.3,1.3,0,0,1-1.3-1.3h0a1.3,1.3,0,0,1,1.3-1.3h4.56a1.3,1.3,0,0,1,1.3,1.3h0Z" transform="translate(-483.35 -683.54)"/><path class="cls-13" d="M591.78,807.57a1.3,1.3,0,0,1-1.3,1.3h-4.56a1.3,1.3,0,0,1-1.3-1.3h0a1.3,1.3,0,0,1,1.3-1.3h4.56a1.3,1.3,0,0,1,1.3,1.3h0Z" transform="translate(-483.35 -683.54)"/><rect class="cls-15" x="30.22" y="62.43" width="86.36" height="60.74" rx="2.35" ry="2.35"/><circle class="cls-14" cx="74.47" cy="92.84" r="19.12"/><path class="cls-16" d="M556.55,785.4a11.33,11.33,0,0,1-2.92-1.19v1.12h-4.17V778.4h4.17a4,4,0,0,0,3.95,3.21,2.18,2.18,0,0,0,1.39-.36,1,1,0,0,0,.44-0.78,1.18,1.18,0,0,0-.75-1.07,9.87,9.87,0,0,0-1.87-.69l-2.43-.67a9.11,9.11,0,0,1-2.43-1.07A6.26,6.26,0,0,1,550,775.1a5.38,5.38,0,0,1-.76-3,4.86,4.86,0,0,1,.59-2.43,5.49,5.49,0,0,1,1.6-1.77,7.71,7.71,0,0,1,2.32-1.11,9.59,9.59,0,0,1,2.76-.39v-2.7h3.26v3.1a10.53,10.53,0,0,1,1.41.51,9.28,9.28,0,0,1,1,.54v-1.16h4.22v6.77h-4.22a3,3,0,0,0-.46-1.21,3.86,3.86,0,0,0-.87-0.95,4.24,4.24,0,0,0-1.13-.63,3.58,3.58,0,0,0-1.25-.23,2.57,2.57,0,0,0-1.3.3,0.94,0.94,0,0,0-.51.86,1.14,1.14,0,0,0,.78,1.05,12.57,12.57,0,0,0,1.91.67l2.48,0.69a9.49,9.49,0,0,1,2.48,1.08,6.15,6.15,0,0,1,1.9,1.89,5.56,5.56,0,0,1,.77,3.09,4.89,4.89,0,0,1-.59,2.45,5.15,5.15,0,0,1-1.59,1.72,7.34,7.34,0,0,1-2.32,1,13.11,13.11,0,0,1-2.76.41v2.63h-3.26V785.4Z" transform="translate(-483.35 -683.54)"/><g class="cls-17"><path class="cls-9" d="M583.1,690.85c0.21-.43.56-0.43,0.77,0l0.65,1.32a1.86,1.86,0,0,0,1.25.91l1.45,0.21c0.47,0.07.58,0.4,0.24,0.73l-1.05,1a1.86,1.86,0,0,0-.48,1.46l0.25,1.45c0.08,0.47-.2.68-0.62,0.45l-1.3-.68a1.86,1.86,0,0,0-1.54,0l-1.3.68c-0.42.22-.7,0-0.62-0.45L581,696.5a1.86,1.86,0,0,0-.48-1.46l-1.05-1c-0.34-.33-0.24-0.66.24-0.73l1.45-.21a1.86,1.86,0,0,0,1.25-.91Z" transform="translate(-483.35 -683.54)"/></g><g class="cls-17"><path class="cls-9" d="M546.43,719.52c0.21-.43.56-0.43,0.77,0l0.65,1.32a1.86,1.86,0,0,0,1.25.91l1.45,0.21c0.47,0.07.58,0.4,0.24,0.73l-1.05,1a1.86,1.86,0,0,0-.48,1.46l0.25,1.45c0.08,0.47-.2.68-0.62,0.45l-1.3-.68a1.86,1.86,0,0,0-1.54,0l-1.3.68c-0.42.22-.7,0-0.62-0.45l0.25-1.45a1.86,1.86,0,0,0-.48-1.46l-1.05-1c-0.34-.33-0.24-0.66.24-0.73l1.45-.21a1.86,1.86,0,0,0,1.25-.91Z" transform="translate(-483.35 -683.54)"/></g><g class="cls-17"><path class="cls-9" d="M487.13,753.36c0.21-.43.56-0.43,0.77,0l0.65,1.32a1.86,1.86,0,0,0,1.25.91l1.45,0.21c0.47,0.07.58,0.4,0.24,0.73l-1.05,1A1.86,1.86,0,0,0,490,759l0.25,1.45c0.08,0.47-.2.68-0.62,0.45l-1.3-.68a1.86,1.86,0,0,0-1.54,0l-1.3.68c-0.42.22-.7,0-0.62-0.45l0.25-1.45a1.86,1.86,0,0,0-.48-1.46l-1.05-1c-0.34-.33-0.24-0.66.24-0.73l1.45-.21a1.86,1.86,0,0,0,1.25-.91Z" transform="translate(-483.35 -683.54)"/></g><g class="cls-17"><path class="cls-9" d="M622.17,725.37c0.21-.43.56-0.43,0.77,0l0.65,1.32a1.86,1.86,0,0,0,1.25.91l1.45,0.21c0.47,0.07.58,0.4,0.24,0.73l-1.05,1A1.86,1.86,0,0,0,625,731l0.25,1.45c0.08,0.47-.2.68-0.62,0.45l-1.3-.68a1.86,1.86,0,0,0-1.54,0l-1.3.68c-0.42.22-.7,0-0.62-0.45l0.25-1.45a1.86,1.86,0,0,0-.48-1.46l-1.05-1c-0.34-.33-0.24-0.66.24-0.73l1.45-.21a1.86,1.86,0,0,0,1.25-.91Z" transform="translate(-483.35 -683.54)"/></g><g class="cls-17"><path class="cls-9" d="M576.5,699.14c0.12-.25.33-0.25,0.45,0l0.38,0.77a1.08,1.08,0,0,0,.73.53l0.85,0.12c0.28,0,.34.23,0.14,0.43l-0.61.6a1.08,1.08,0,0,0-.28.85l0.14,0.84c0,0.27-.12.39-0.36,0.26l-0.76-.4a1.08,1.08,0,0,0-.9,0l-0.76.4c-0.25.13-.41,0-0.36-0.26l0.14-.84a1.08,1.08,0,0,0-.28-0.85l-0.61-.6c-0.2-.19-0.14-0.39.14-0.43l0.85-.12a1.08,1.08,0,0,0,.73-0.53Z" transform="translate(-483.35 -683.54)"/></g><g class="cls-17"><path class="cls-9" d="M516.59,704.59c0.12-.25.33-0.25,0.45,0l0.38,0.77a1.08,1.08,0,0,0,.73.53L519,706c0.28,0,.34.23,0.14,0.43l-0.61.6a1.08,1.08,0,0,0-.28.85l0.14,0.84c0,0.27-.12.39-0.36,0.26l-0.76-.4a1.08,1.08,0,0,0-.9,0l-0.76.4c-0.25.13-.41,0-0.36-0.26l0.14-.84a1.08,1.08,0,0,0-.28-0.85l-0.61-.6c-0.2-.19-0.14-0.39.14-0.43l0.85-.12a1.08,1.08,0,0,0,.73-0.53Z" transform="translate(-483.35 -683.54)"/></g><g class="cls-17"><path class="cls-9" d="M496.9,731.23c0.12-.25.33-0.25,0.45,0l0.38,0.77a1.08,1.08,0,0,0,.73.53l0.85,0.12c0.28,0,.34.23,0.14,0.43l-0.61.6a1.08,1.08,0,0,0-.28.85l0.14,0.84c0,0.27-.12.39-0.36,0.26l-0.76-.4a1.08,1.08,0,0,0-.9,0l-0.76.4c-0.25.13-.41,0-0.36-0.26l0.14-.84a1.08,1.08,0,0,0-.28-0.85l-0.61-.6c-0.2-.19-0.14-0.39.14-0.43l0.85-.12a1.08,1.08,0,0,0,.73-0.53Z" transform="translate(-483.35 -683.54)"/></g><g class="cls-17"><path class="cls-9" d="M496.36,721.41c0.12-.25.33-0.25,0.45,0l0.38,0.77a1.08,1.08,0,0,0,.73.53l0.85,0.12c0.28,0,.34.23,0.14,0.43l-0.61.6a1.08,1.08,0,0,0-.28.85l0.14,0.84c0,0.27-.12.39-0.36,0.26l-0.76-.4a1.08,1.08,0,0,0-.9,0l-0.76.4c-0.25.13-.41,0-0.36-0.26l0.14-.84a1.08,1.08,0,0,0-.28-0.85l-0.61-.6c-0.2-.19-0.14-0.39.14-0.43l0.85-.12a1.08,1.08,0,0,0,.73-0.53Z" transform="translate(-483.35 -683.54)"/></g><g class="cls-17"><path class="cls-9" d="M544.16,691c0.12-.25.33-0.25,0.45,0l0.38,0.77a1.08,1.08,0,0,0,.73.53l0.85,0.12c0.28,0,.34.23,0.14,0.43l-0.61.6a1.08,1.08,0,0,0-.28.85l0.14,0.84c0,0.27-.12.39-0.36,0.26l-0.76-.4a1.08,1.08,0,0,0-.9,0l-0.76.4c-0.25.13-.41,0-0.36-0.26l0.14-.84a1.08,1.08,0,0,0-.28-0.85l-0.61-.6c-0.2-.19-0.14-0.39.14-0.43l0.85-.12a1.08,1.08,0,0,0,.73-0.53Z" transform="translate(-483.35 -683.54)"/></g><g class="cls-17"><path class="cls-9" d="M600.55,721.05c0.12-.25.33-0.25,0.45,0l0.38,0.77a1.08,1.08,0,0,0,.73.53l0.85,0.12c0.28,0,.34.23,0.14,0.43l-0.61.6a1.08,1.08,0,0,0-.28.85l0.14,0.84c0,0.27-.12.39-0.36,0.26l-0.76-.4a1.08,1.08,0,0,0-.9,0l-0.76.4c-0.25.13-.41,0-0.36-0.26l0.14-.84a1.08,1.08,0,0,0-.28-0.85l-0.61-.6c-0.2-.19-0.14-0.39.14-0.43l0.85-.12a1.08,1.08,0,0,0,.73-0.53Z" transform="translate(-483.35 -683.54)"/></g><g class="cls-17"><path class="cls-9" d="M618.93,735.87c0.12-.25.33-0.25,0.45,0l0.38,0.77a1.08,1.08,0,0,0,.73.53l0.85,0.12c0.28,0,.34.23,0.14,0.43l-0.61.6a1.08,1.08,0,0,0-.28.85l0.14,0.84c0,0.27-.12.39-0.36,0.26l-0.76-.4a1.08,1.08,0,0,0-.9,0l-0.76.4c-0.25.13-.41,0-0.36-0.26l0.14-.84a1.08,1.08,0,0,0-.28-0.85l-0.61-.6c-0.2-.19-0.14-0.39.14-0.43l0.85-.12a1.08,1.08,0,0,0,.73-0.53Z" transform="translate(-483.35 -683.54)"/></g></g></g></svg>