<svg id="Camada_1" data-name="Camada 1" xmlns="http://www.w3.org/2000/svg" viewBox="0 0 189.23 113.22"><defs><style>.cls-1{fill:#fbec52;}.cls-1,.cls-11,.cls-12,.cls-14,.cls-15,.cls-16,.cls-17,.cls-18,.cls-19,.cls-2,.cls-20,.cls-21,.cls-23,.cls-24,.cls-3,.cls-4,.cls-5,.cls-6,.cls-7,.cls-8{fill-rule:evenodd;}.cls-2{fill:#f7cdc6;}.cls-13,.cls-3{fill:#eaaca1;}.cls-4,.cls-9{fill:#fff;}.cls-25,.cls-5{fill:#278884;}.cls-6{fill:#cdcccc;}.cls-10,.cls-7{fill:#e6e6e6;}.cls-8{fill:#e5c549;}.cls-11{fill:#df5038;}.cls-12{fill:#e57f66;}.cls-14{fill:#f7d6b2;}.cls-15{fill:#7e6055;}.cls-16{fill:#fad2cb;}.cls-17{fill:#1d1d1b;}.cls-18{fill:#cc3917;}.cls-19{fill:#e96775;}.cls-20{fill:#84cbc9;}.cls-21{fill:#c1e3e5;}.cls-22,.cls-23{fill:#23879a;}.cls-24{opacity:0.2;}</style></defs><title>SOCIALIZE</title><path class="cls-1" d="M1418.66,1031.95c-2.5,4.53-19.16-6-19.52-7.05-1.69-5.09-1.32-20.78,5.37-27.63-0.56,2.13-1.53,5.26,1,6.87,0.19-4.39.7-10.27,7.29-12.68a8.58,8.58,0,0,0-1.63,9.8c5-3.61,2.57-13,10-13.5-4.05,7.78,2.09,13.58,5.81,12.93,2.39-3.73-.82-7-3.06-9.35,4.5-.32,9.82,8.31,9.79,12.45,2-2.13,1.17-4.29-.22-7.43,8.6,6.4,6.1,22,4.77,28.53C1438,1026,1421.16,1036.48,1418.66,1031.95Z" transform="translate(-1258.54 -987.75)"/><path class="cls-2" d="M1399.35,1059.65c-5.07,3.29-7.17,10.37-10.15,18.75a51.25,51.25,0,0,0,29.42,9.23c10.92,0,17.13-6,29.14-10.14-3-8.42-4.8-14.63-9.93-17.85-8.79-5.5-14.07-6.82-19.26-6.89S1408.08,1054,1399.35,1059.65Z" transform="translate(-1258.54 -987.75)"/><path class="cls-2" d="M1446.59,1078.27l1.17-.77-0.8-2-6.46-1.74-26.09,12.81s0,2.36-.06,5.55C1435.26,1085.73,1446.59,1078.27,1446.59,1078.27Z" transform="translate(-1258.54 -987.75)"/><path class="cls-3" d="M1399.35,1059.65c-5.07,3.29-7.17,10.37-10.15,18.75,8.33,5.81,18.46,12.43,29.39,12.44v-38.08h0C1413.27,1052.69,1408.08,1054,1399.35,1059.65Z" transform="translate(-1258.54 -987.75)"/><path class="cls-4" d="M1411.32,1033.43h14.55v21c0,3.58-5.62,16.38-7.28,27.88-1.21-7-7.28-23.95-7.28-27.88v-21Z" transform="translate(-1258.54 -987.75)"/><path class="cls-5" d="M1422.34,1067.07a102.08,102.08,0,0,0-3.75,15.29c-0.61-3.56-2.49-9.7-4.18-15.39A20.42,20.42,0,0,0,1422.34,1067.07Z" transform="translate(-1258.54 -987.75)"/><polygon class="cls-6" points="167.33 58.9 167.33 56.21 152.78 56.21 152.78 66.11 167.33 58.9"/><path class="cls-7" d="M1418.59,1006.67c30.82,0,18.32,40.71,0,40.71S1387.77,1006.67,1418.59,1006.67Z" transform="translate(-1258.54 -987.75)"/><path class="cls-4" d="M1418.59,1006.67c30.82,0,18.32,40.71,0,40.71v-40.71Z" transform="translate(-1258.54 -987.75)"/><path class="cls-1" d="M1418.27,1011.56c10.34,0,15.42,5.76,17.09,12s0.73,5.72,3,1-3.24-25.34-19.22-25.34-22.53,15.83-20.29,24.47,2.24,6.59,3.63,0S1406.82,1011.85,1418.27,1011.56Z" transform="translate(-1258.54 -987.75)"/><path class="cls-8" d="M1418.61,1011.56c-11.86.07-16.22,8.8-14.86,18.37,0.34,2.41-1.47,1.92-1.53,0-0.08-2.13-1.47-6.81-3.81-6.69-0.21-4.64,4.48-13.35,8.66-17.13-0.46,1.54-1.26,3.81.8,5,0.16-3.18.57-7.44,6-9.19a5.69,5.69,0,0,0-1.34,7.1c4.11-2.62,2.11-9.45,8.18-9.78-3.33,5.64,1.72,9.84,4.78,9.37,2-2.7-.68-5.09-2.51-6.77,3.7-.23,8.08,6,8,9,1.61-1.55,1-3.11-.18-5.38,5.19,3.4,8.51,11.8,8,16.56-1.15-1-3.26-.7-4.27,7.66-0.41,3.37-2,2.3-1.46.36C1436.42,1017.71,1429.4,1011.49,1418.61,1011.56Z" transform="translate(-1258.54 -987.75)"/><ellipse class="cls-9" cx="1437.35" cy="1025.38" rx="4.82" ry="2.08" transform="translate(-1134.19 1218.05) rotate(-77.46)"/><ellipse class="cls-10" cx="1399.86" cy="1025.38" rx="2.08" ry="4.82" transform="translate(-1447.82 -659.25) rotate(-12.54)"/><path class="cls-5" d="M1418.62,1025h1.2a4.4,4.4,0,0,0,.71,2.75,10.11,10.11,0,0,0,6.62,3.93c2.42,0.24,4.4-1.37,5-4.61s-0.93-4.79-2-5.29a8,8,0,0,0-3.35-.57h-8.16v0.51h4.45a9.23,9.23,0,0,0-1.52.53,3.09,3.09,0,0,0-1.66,2.23h-1.27V1025Zm-11.5-3.22c-1.08.5-2.59,2-2,5.29s2.56,4.85,5,4.61a10.11,10.11,0,0,0,6.62-3.93,4.41,4.41,0,0,0,.71-2.75h1.2v-0.51h-1.27a3.09,3.09,0,0,0-1.66-2.23,9.23,9.23,0,0,0-1.52-.53h4.45v-0.51h-8.16A8,8,0,0,0,1407.12,1021.82Z" transform="translate(-1258.54 -987.75)"/><path class="cls-5" d="M1407.34,1022.29a3.09,3.09,0,0,0-1.39,1.39,5.3,5.3,0,0,0-.33,3.35,5,5,0,0,0,2.64,3.95,3.72,3.72,0,0,0,1.79.24,9.61,9.61,0,0,0,6.25-3.7,3.59,3.59,0,0,0,0-4.16,2.31,2.31,0,0,0-.77-0.59,13,13,0,0,0-4.31-1A8.38,8.38,0,0,0,1407.34,1022.29Z" transform="translate(-1258.54 -987.75)"/><path class="cls-5" d="M1429.91,1022.29a3.09,3.09,0,0,1,1.39,1.39,5.31,5.31,0,0,1,.33,3.35A5,5,0,0,1,1429,1031a3.73,3.73,0,0,1-1.79.24,9.61,9.61,0,0,1-6.25-3.7,3.59,3.59,0,0,1,0-4.16,2.31,2.31,0,0,1,.77-0.59,13,13,0,0,1,4.31-1A8.38,8.38,0,0,1,1429.91,1022.29Z" transform="translate(-1258.54 -987.75)"/><path class="cls-2" d="M1418.59,1082.36c0-11.34-8.48-24.56-7.06-37a18.51,18.51,0,0,1-2.54-1.83c-4.87,2.22-8.52,8.82-10.2,12C1413.2,1055.8,1414.72,1072.8,1418.59,1082.36Z" transform="translate(-1258.54 -987.75)"/><path class="cls-3" d="M1418.59,1082.36c0-16.36,7.06-15,7.06-37a18.51,18.51,0,0,0,2.54-1.83c4.87,2.22,8.52,8.82,10.2,12C1424,1055.8,1422.46,1072.8,1418.59,1082.36Z" transform="translate(-1258.54 -987.75)"/><path class="cls-3" d="M1418.29,1090.85l-1.83-5.68c-3.85-1.83-37,5.5-37,5.89,0,0.2,0,4.12.34,8.24A200.87,200.87,0,0,0,1418.29,1090.85Z" transform="translate(-1258.54 -987.75)"/><path class="cls-11" d="M1365.45,1065.46c-5.32,3.46-7.53,10.88-10.65,19.68a54,54,0,0,0,61.69,0c-3.11-8.84-5.28-16.33-10.67-19.7-9.22-5.77-14.77-7.16-20.21-7.23S1374.6,1059.52,1365.45,1065.46Z" transform="translate(-1258.54 -987.75)"/><path class="cls-12" d="M1410.42,1088.83v-18.5c2.39,3.85,4,9.06,6.07,14.85A54,54,0,0,1,1410.42,1088.83Z" transform="translate(-1258.54 -987.75)"/><path class="cls-12" d="M1405.82,1065.47v25.47a53.63,53.63,0,0,1-6.64,2.18v-31.38a71.57,71.57,0,0,1,6.64,3.73h0Z" transform="translate(-1258.54 -987.75)"/><path class="cls-12" d="M1394.58,1059.81v34.28a54.16,54.16,0,0,1-6.64.69v-36.42A27.81,27.81,0,0,1,1394.58,1059.81Z" transform="translate(-1258.54 -987.75)"/><path class="cls-12" d="M1383.34,1058.29v36.48a54.14,54.14,0,0,1-6.64-.69v-34.43A25.33,25.33,0,0,1,1383.34,1058.29Z" transform="translate(-1258.54 -987.75)"/><path class="cls-12" d="M1372.1,1061.6v31.5a53.62,53.62,0,0,1-6.64-2.19v-25.46A68,68,0,0,1,1372.1,1061.6Z" transform="translate(-1258.54 -987.75)"/><path class="cls-12" d="M1360.86,1070.39v18.42a54.08,54.08,0,0,1-6.07-3.67C1356.83,1079.4,1358.48,1074.24,1360.86,1070.39Z" transform="translate(-1258.54 -987.75)"/><path class="cls-12" d="M1364,1066.53a20.15,20.15,0,0,0-4.68,6.64H1412a19.62,19.62,0,0,0-4.7-6.64H1364Z" transform="translate(-1258.54 -987.75)"/><path class="cls-12" d="M1357.43,1077.77c-0.78,2.08-1.55,4.31-2.37,6.64h61.16c-0.82-2.33-1.57-4.56-2.35-6.64h-56.44Z" transform="translate(-1258.54 -987.75)"/><path class="cls-12" d="M1361.26,1089a54.1,54.1,0,0,0,48.81,0h-48.81Z" transform="translate(-1258.54 -987.75)"/><path class="cls-3" d="M1410.42,1073.17H1412l-0.06-.13-0.12-.25-0.06-.13-0.25-.49-0.06-.12-0.25-.48h0l-0.06-.12-0.06-.11h0l-0.06-.11-0.07-.12h0l0-.08v0l-0.07-.11h0l-0.07-.11v0l-0.06-.09-0.07-.11-0.06-.1,0,0,0-.07v2.85Z" transform="translate(-1258.54 -987.75)"/><polygon class="cls-3" points="151.88 96.66 157.68 96.66 157.66 96.61 157.64 96.55 157.6 96.44 157.57 96.34 157.57 96.33 157.53 96.22 157.45 96 157.41 95.9 157.38 95.81 157.38 95.79 157.34 95.68 157.3 95.57 157.29 95.54 157.26 95.47 157.23 95.36 157.15 95.14 157.12 95.03 157.11 95.02 157.08 94.93 156.86 94.29 156.84 94.23 156.71 93.87 156.67 93.76 156.66 93.71 156.64 93.66 156.6 93.56 156.57 93.46 156.56 93.45 156.53 93.35 156.49 93.24 156.48 93.2 156.31 92.73 156.31 92.72 156.3 92.69 156.27 92.62 156.24 92.52 156.21 92.44 156.2 92.42 156.16 92.31 156.13 92.21 156.12 92.19 156.06 92.01 156.03 91.94 156.02 91.91 155.95 91.7 155.94 91.69 155.91 91.6 155.87 91.5 155.85 91.44 155.84 91.4 155.8 91.3 155.77 91.2 155.76 91.2 155.73 91.1 155.69 91 155.68 90.95 155.66 90.9 155.62 90.8 155.59 90.71 155.59 90.7 155.5 90.47 155.48 90.41 155.44 90.31 155.41 90.22 155.33 90.02 151.88 90.02 151.88 96.66"/><rect class="cls-13" x="140.64" y="78.78" width="6.64" height="6.64"/><rect class="cls-13" x="140.64" y="90.02" width="6.64" height="6.64"/><polygon class="cls-3" points="140.71 105.35 140.95 105.29 140.96 105.28 141.02 105.27 141.07 105.26 141.32 105.19 141.45 105.15 141.7 105.08 141.78 105.06 141.81 105.05 141.82 105.05 142.09 104.97 142.21 104.94 142.23 104.93 142.34 104.9 142.44 104.87 142.59 104.83 142.85 104.75 142.86 104.74 142.9 104.73 142.97 104.71 143.2 104.64 143.38 104.58 143.38 104.58 143.49 104.55 143.59 104.52 143.7 104.48 143.8 104.45 143.91 104.42 144.01 104.38 144.06 104.36 144.31 104.28 144.46 104.23 144.71 104.14 144.81 104.11 145.05 104.03 145.21 103.97 145.45 103.88 145.49 103.87 145.56 103.85 145.56 103.84 145.79 103.76 145.86 103.73 145.97 103.69 146.14 103.63 146.27 103.58 146.37 103.54 146.47 103.5 146.57 103.46 146.65 103.44 146.68 103.42 146.78 103.39 146.88 103.34 146.91 103.33 147 103.3 147.18 103.22 147.28 103.19 147.28 101.26 140.64 101.26 140.64 105.37 140.71 105.35"/><rect class="cls-13" x="129.4" y="78.78" width="6.64" height="6.64"/><rect class="cls-13" x="129.4" y="90.02" width="6.64" height="6.64"/><path class="cls-3" d="M1388.26,1094.76h0.11l0.32,0h0.11l0.32,0h0.52l0.21,0H1390l0.3,0h0.12l0.2,0H1391l0.16,0h0.1l0.16,0,0.22,0,0.14,0,0.27,0h0.13l0.33,0h0l0.38,0h0l0.39-.05h0l1.23-.19V1089h-6.64v5.77h0.32Z" transform="translate(-1258.54 -987.75)"/><rect class="cls-13" x="118.16" y="78.78" width="6.64" height="6.64"/><rect class="cls-13" x="118.16" y="90.02" width="6.64" height="6.64"/><path class="cls-3" d="M1376.7,1094.08h0.12l0.35,0.06h0l0.36,0.05h0.05l0.35,0.05H1378l0.31,0h0.1l0.29,0h0.1l0.23,0,0.2,0h0.22l0.21,0h0.21l0.19,0h0.14l0.29,0h0.1q1.35,0.13,2.73.18V1089h-6.64v5.08Z" transform="translate(-1258.54 -987.75)"/><rect class="cls-13" x="106.92" y="78.78" width="6.64" height="6.64"/><rect class="cls-13" x="106.92" y="90.02" width="6.64" height="6.64"/><polygon class="cls-3" points="107.02 103.21 107.12 103.25 107.22 103.29 107.43 103.37 107.53 103.41 107.56 103.42 107.73 103.49 107.83 103.53 107.94 103.56 107.95 103.57 108.11 103.63 108.14 103.64 108.24 103.68 108.34 103.72 108.52 103.78 108.55 103.79 108.65 103.83 108.82 103.89 109.06 103.98 109.16 104.01 109.27 104.05 109.37 104.09 109.37 104.09 109.58 104.16 109.68 104.19 109.78 104.23 109.81 104.24 109.89 104.26 109.99 104.3 110.09 104.33 110.2 104.37 110.29 104.4 110.3 104.4 110.4 104.43 110.51 104.47 110.52 104.47 110.66 104.52 110.89 104.59 111.03 104.63 111.03 104.63 111.13 104.67 111.24 104.7 111.28 104.71 111.41 104.75 111.66 104.83 111.72 104.84 111.76 104.86 111.97 104.92 112.08 104.95 112.14 104.97 112.4 105.04 112.5 105.07 112.61 105.1 112.71 105.13 112.82 105.16 112.92 105.19 112.92 105.19 113.03 105.22 113.14 105.25 113.23 105.27 113.25 105.27 113.27 105.28 113.56 105.36 113.56 101.26 106.92 101.26 106.92 103.17 107.02 103.21"/><polygon class="cls-3" points="102.32 82.64 102.3 82.67 102.3 82.68 102.23 82.79 102.21 82.82 102.16 82.91 102.13 82.95 102.09 83.02 102.03 83.13 101.97 83.23 101.96 83.25 101.89 83.36 101.86 83.43 101.81 83.51 101.76 83.59 101.7 83.71 101.7 83.71 101.64 83.81 101.63 83.83 101.57 83.95 101.57 83.95 101.5 84.06 101.44 84.19 101.38 84.31 101.38 84.31 101.32 84.41 101.31 84.44 101.2 84.66 101.19 84.68 101.13 84.79 101.06 84.92 100.94 85.17 100.88 85.29 100.88 85.29 100.82 85.42 102.32 85.42 102.32 82.64"/><polygon class="cls-3" points="98.89 90.02 98.85 90.11 98.82 90.21 98.8 90.25 98.78 90.31 98.74 90.41 98.71 90.49 98.71 90.51 98.67 90.61 98.63 90.7 98.63 90.73 98.6 90.8 98.56 90.9 98.53 90.97 98.52 91 98.49 91.1 98.45 91.2 98.45 91.21 98.41 91.3 98.38 91.4 98.36 91.46 98.34 91.5 98.3 91.6 98.27 91.7 98.23 91.81 98.19 91.91 98.18 91.95 98.16 92.01 98.12 92.11 98.09 92.2 98.08 92.21 98.05 92.31 98.01 92.42 98 92.45 97.97 92.52 97.94 92.62 97.91 92.7 97.9 92.72 97.86 92.83 97.83 92.93 97.82 92.95 97.79 93.03 97.75 93.14 97.73 93.2 97.72 93.24 97.68 93.34 97.64 93.45 97.64 93.46 97.61 93.55 97.57 93.66 97.55 93.71 97.53 93.76 97.5 93.87 97.46 93.97 97.46 93.97 97.42 94.08 97.39 94.18 97.37 94.22 97.35 94.29 97.31 94.4 97.28 94.48 97.27 94.5 97.12 94.93 97.1 95 97.09 95.03 97.05 95.14 97.01 95.25 97.01 95.26 96.97 95.36 96.94 95.46 96.91 95.53 96.9 95.57 96.86 95.68 96.82 95.79 96.82 95.79 96.78 95.9 96.75 96 96.73 96.05 96.71 96.11 96.67 96.22 96.64 96.32 96.63 96.33 96.59 96.44 96.56 96.55 96.54 96.58 96.52 96.66 102.32 96.66 102.32 90.02 98.89 90.02"/><path class="cls-4" d="M1378,1037.95h15.27V1060c0,7.45-15.27,8.31-15.27,0v-22.08Z" transform="translate(-1258.54 -987.75)"/><polygon class="cls-7" points="134.73 64.06 134.73 61.24 119.46 61.24 119.46 71.64 134.73 64.06"/><path class="cls-14" d="M1385.63,1009.87c32.33,0,19.23,42.71,0,42.71S1353.3,1009.87,1385.63,1009.87Z" transform="translate(-1258.54 -987.75)"/><path class="cls-15" d="M1385.29,1015c10.84,0,16.57,6.36,17.15,13.09s1.55,5.53,3.9.53-3.4-26.59-20.17-26.59-23.63,16.61-21.29,25.68,2.35,6.92,3.81,0S1373.28,1015.31,1385.29,1015Z" transform="translate(-1258.54 -987.75)"/><path class="cls-16" d="M1403.18,1008.38l2,14.39c0.73,5.19-5.46,8.75-8.51,8.75h-22.1c-3.05,0-9.24-3.56-8.51-8.75l2-14.39C1369.93,995.39,1401.35,995.39,1403.18,1008.38Z" transform="translate(-1258.54 -987.75)"/><path class="cls-3" d="M1385.64,1033.33c15.44,0,28-4.58,28-10.2s-12.6-10.2-28-10.2-28,4.58-28,10.2S1370.2,1033.33,1385.64,1033.33Z" transform="translate(-1258.54 -987.75)"/><path class="cls-7" d="M1385.63,1015c14.14,0,18.23,10.87,17.06,20.21s-7.77,15.33-17.06,15.33c-9,0-15.5-5.61-17-14.76C1367,1026.14,1371,1015,1385.63,1015Z" transform="translate(-1258.54 -987.75)"/><path class="cls-4" d="M1404.47,1021.54c3.76,12.65-6.22,31-18.84,31v-36c4.3-.4,10.16-0.19,13,1.58C1400.59,1019.45,1402.86,1020.7,1404.47,1021.54Z" transform="translate(-1258.54 -987.75)"/><path class="cls-3" d="M1373.26,1012.58c3.53-6.26,7.25-13.86,12.59-13.65,5.13-.2,8.77,6.81,12.18,12.92a59.67,59.67,0,0,0-10.73-.94A57,57,0,0,0,1373.26,1012.58Z" transform="translate(-1258.54 -987.75)"/><path class="cls-17" d="M1401.58,1026.63c-0.07-3.54-3-7.33-5.19-8.41s-13.05.27-18.68,3.85c-6.09,3.87-7.21,6.81-7.61,10.28-0.13,1.09-.42,2.2-1,2-1.86-.68-2.23-5.89-3.81-6.84-2.31-1.39-1.25-3.6-.33-7.14s11.34-5.48,20-5.79,15.07,1.69,17.74,4.16a9.37,9.37,0,0,1,2.51,9.8c-0.85,2.42-1.69,5.36-3.42,4.86C1400.93,1033.16,1401.62,1028.68,1401.58,1026.63Z" transform="translate(-1258.54 -987.75)"/><ellipse class="cls-9" cx="1405.31" cy="1029.5" rx="5.05" ry="2.18" transform="translate(-1163.37 1189.92) rotate(-77.46)"/><ellipse class="cls-10" cx="1365.97" cy="1029.5" rx="2.18" ry="5.05" transform="translate(-1449.53 -666.49) rotate(-12.54)"/><path class="cls-16" d="M1371.48,1061.37c-6.43,0-7.77.8-8,5.09s0.8,14.46,4.82,20.09,1.88-.8,2.41-5.36,1.34,6.43,3.21,1.34S1373.35,1074,1371.48,1061.37Z" transform="translate(-1258.54 -987.75)"/><path class="cls-16" d="M1403.47,1063.38c2.93,0,6.54,1.89,4,6s-4,13.6-4.13,17.56-2.07,6.71-2.07,3.44-2.41-10.84-3.1-7.57-3.27,6.54-2.93.34S1396.93,1059.94,1403.47,1063.38Z" transform="translate(-1258.54 -987.75)"/><path class="cls-16" d="M1403.05,1064.2c-5.57,6-22.57,14.14-33.71-.25-1.23-3.74-.88-5.74,2.37-4.81-0.23-3.48,2.91-4.78,5.92-3.15,4.41,4.64,14.23,2.25,16.08-.76,2.87-.78,4.66.38,4.66,4.32C1404.18,1056.75,1405.37,1061.18,1403.05,1064.2Z" transform="translate(-1258.54 -987.75)"/><path class="cls-12" d="M1400.85,1071.31v-2.14c1.1-2,2.31-3.4,3.18-3.68-0.58.48-1.94,2.91-3.18,5.82h0Zm0-4a6.59,6.59,0,0,0,2.66-3.72h0a9.08,9.08,0,0,1-2.66,2.67v1Zm0-1v1a5.41,5.41,0,0,1-3,1.1v-0.21c0.81-.47,2-1.15,3-1.94h0Zm0,2.88v2.14c-1.26,3-2.39,6.47-2.39,8.93-0.9-3.2.58-7.84,2.39-11.07h0Zm-3-9.18v-0.07l0.31-.25h0Zm-27.48,18.18a11.47,11.47,0,0,1-.65-1.38v0.71a6.67,6.67,0,0,0,.65.67h0Zm27.48-18.26V1060c-4.69,4.69-15.44,9.42-24.83,0,9.59,7.77,20.27,3.45,24.83-.06h0Zm0,8.31-0.31.18,0.31,0v-0.21h0Zm-28.13-2.55v-1.27a18.05,18.05,0,0,0,2.79,2.83A3.88,3.88,0,0,1,1369.67,1065.67Zm0,11.12c-1.71-4.25-2.58-11.69-2-12.72-1.79,1.37-1.24,9.66,2,13.44v-0.71h0Zm0-12.39v1.27a3.35,3.35,0,0,1-.64-2.25A7.16,7.16,0,0,0,1369.67,1064.4Z" transform="translate(-1258.54 -987.75)"/><path class="cls-17" d="M1370.09,1028.9c-0.77,3.06-.57,10.61,2.46,13.06s3.23,1.62,3.74-1.19c1-5.24,18-5.14,19,.1,0.51,2.81.4,3.54,3.43,1.09s3.23-10,2.46-13.06c0.37-3.16,2.77-3,2.08-.71-0.39,1.31.33,3.08,0.6,4.18,1,4.05.25,8.35-2.55,13.2-6.73,11.63-24.58,11.63-31.31,0-2.81-4.85-3.54-9.14-2.55-13.2,0.27-1.1,1-2.87.6-4.18C1367.32,1025.91,1369.72,1025.74,1370.09,1028.9Z" transform="translate(-1258.54 -987.75)"/><path class="cls-4" d="M1385.56,1038.78c8.5,0.13,7.57,1.82,7.57,4.44,0,1.89-.54,5.22-3.4,5.22s-2-2.39-4-2.36c-2.22,0-1.62,2.33-4.37,2.33-2.6,0-3.34-3.07-3.34-4.92C1378,1040.82,1376.77,1038.65,1385.56,1038.78Z" transform="translate(-1258.54 -987.75)"/><path class="cls-12" d="M1393.13,1035.11l0.5,0c3.94-.3,4.85-1.94,5.23-4,0.41-2.28.42-3.07,1-3.28a1.09,1.09,0,0,0,.52-1.25c0-.59-0.06-0.66-0.84-0.91a30.84,30.84,0,0,0-6.46-.35v0.61a11.21,11.21,0,0,1,4.44.47c1.29,0.76,1,4.43,0,6.24-0.71,1.28-2.69,1.91-4.48,1.92v0.58Zm-7.57-8.63c-0.87,0-4.47-.94-7-1.15l-0.51,0v0.61c2.05,0.09,4.17.53,4.94,1.55,1.25,1.67-.77,5.75-2.69,6.66a5.38,5.38,0,0,1-2.25.42v0.58a5.2,5.2,0,0,0,5.07-3c0.75-1.43.52-3.4,2.47-3.4s1.76,1.94,2.5,3.37a5.16,5.16,0,0,0,5,3.06v-0.58a5.39,5.39,0,0,1-2.25-.42c-1.92-.91-3.94-5-2.68-6.66,0.76-1,2.88-1.45,4.94-1.55v-0.61l-0.51,0C1390.35,1025.51,1387.61,1026.43,1385.56,1026.47Zm-7.52-1.18a30.85,30.85,0,0,0-6.47.35c-0.78.25-.8,0.31-0.84,0.91a1.09,1.09,0,0,0,.52,1.25c0.63,0.21.63,1,1,3.28,0.38,2.07,1.29,3.71,5.23,4l0.5,0v-0.58c-1.78,0-3.77-.64-4.48-1.92-1-1.81-1.26-5.48,0-6.24a11.2,11.2,0,0,1,4.44-.47v-0.61Z" transform="translate(-1258.54 -987.75)"/><path class="cls-18" d="M1269.29,1012.13c-2.9,5.36-8.74,37.17-.47,55.5s29.17,18.94,29.62,8.44S1274.88,1007.88,1269.29,1012.13Z" transform="translate(-1258.54 -987.75)"/><path class="cls-18" d="M1305.61,1012.11c2.9,5.36,8.32,35.22.05,53.54s-28.89,20.91-29.33,10.41S1300,1007.86,1305.61,1012.11Z" transform="translate(-1258.54 -987.75)"/><path class="cls-12" d="M1268.66,1059.58c-5.06,3.28-7.15,10.34-10.12,18.69,8.31,5.8,21.3,6.38,32.2,6.38s18.1-.57,26.41-6.35c-3-8.4-5-15.52-10.14-18.72-8.76-5.48-14-6.8-19.2-6.87S1277.35,1053.93,1268.66,1059.58Z" transform="translate(-1258.54 -987.75)"/><path class="cls-12" d="M1289.92,1083.67l-25.83-6.75-5.55,1.35s10.62,7,30.27,13.21Z" transform="translate(-1258.54 -987.75)"/><path class="cls-4" d="M1280.58,1033.43h14.51v21c0,7.08-14.51,7.9-14.51,0v-21Z" transform="translate(-1258.54 -987.75)"/><polygon class="cls-6" points="36.55 58.86 36.55 56.18 22.05 56.18 22.05 66.05 36.55 58.86"/><path class="cls-7" d="M1287.84,1006.75c30.72,0,18.27,40.58,0,40.58S1257.11,1006.75,1287.84,1006.75Z" transform="translate(-1258.54 -987.75)"/><path class="cls-4" d="M1287.84,1006.75c30.72,0,18.27,40.58,0,40.58v-40.58Z" transform="translate(-1258.54 -987.75)"/><path class="cls-18" d="M1294.08,1010.66c5.09,2.51,8.23,6.71,9.32,13.14s1.89,5.51,4.12.76-3.23-25.26-19.16-25.26-22.46,15.78-20.23,24.4,4,5.8,5.36-.74S1281.7,1010,1294.08,1010.66Z" transform="translate(-1258.54 -987.75)"/><path class="cls-19" d="M1302.23,1060.2c8.94-30.39-5-49-8.14-49.24C1300.12,1009.44,1314.23,1028,1302.23,1060.2Z" transform="translate(-1258.54 -987.75)"/><path class="cls-4" d="M1295.16,1053.72c-0.67,6.95-7.26,12.88-7.26,18.5,0-5.63-6.62-11.57-7.26-18.55Z" transform="translate(-1258.54 -987.75)"/><path class="cls-11" d="M1287.9,1069.65c3.17-4.74,6.48-7.47,10.46-8.71,2-.61,5.42-1.27,7.27-0.37-3.5-4-7.18-6-10.48-9.71C1295.12,1061.66,1287.83,1063.55,1287.9,1069.65Z" transform="translate(-1258.54 -987.75)"/><path class="cls-20" d="M1287.9,1069.65c2.37-5,6-9.31,10-10.55a7.39,7.39,0,0,1,5.68.43c-3.5-4-5.16-6.27-8.45-8.67C1295.12,1061.66,1287.83,1063.55,1287.9,1069.65Z" transform="translate(-1258.54 -987.75)"/><path class="cls-11" d="M1287.9,1069.65c-3.17-4.74-6.48-7.47-10.46-8.71-2-.61-5.42-1.27-7.27-0.37,3.5-4,7.18-6,10.48-9.71C1280.67,1061.66,1288,1063.55,1287.9,1069.65Z" transform="translate(-1258.54 -987.75)"/><path class="cls-20" d="M1287.9,1069.65c-2.37-5-6-9.31-10-10.55a7.39,7.39,0,0,0-5.68.43c3.5-4,5.16-6.27,8.45-8.67C1280.67,1061.66,1288,1063.55,1287.9,1069.65Z" transform="translate(-1258.54 -987.75)"/><path class="cls-19" d="M1274.41,1066.12c-10.15-61.51,15.16-54.55,20.1-55.3C1287.52,1003.33,1255.13,1002.73,1274.41,1066.12Z" transform="translate(-1258.54 -987.75)"/><path class="cls-11" d="M1272.13,1057.69c-2.6,1.59-3.73,5.35-4.09,8.27,5.14-1.11,10.87,1.95,11.84,3.34-3.86,2.17-5,4.18-7.09,7,1.83,2.45,5.7,6.09,9.13,10.86l1.37,0.14c-3.08-5-6.82-8.7-8.72-11.24a20.71,20.71,0,0,1,7.52-6.48c-1-1.39-7.63-6.78-12.77-5.66C1269.84,1061,1270.12,1059.76,1272.13,1057.69Z" transform="translate(-1258.54 -987.75)"/><path class="cls-11" d="M1303.75,1057.69c2.6,1.59,3.73,5.35,4.09,8.27-5.14-1.11-10.87,1.95-11.84,3.34,3.86,2.17,5,4.18,7.09,7-1.83,2.45-5.7,6.08-9.13,10.84l-1.38.14c3.09-5,6.83-8.68,8.73-11.23a20.71,20.71,0,0,0-7.52-6.48c1-1.39,7.63-6.78,12.77-5.66C1306,1061,1305.76,1059.76,1303.75,1057.69Z" transform="translate(-1258.54 -987.75)"/><path class="cls-11" d="M1287.74,1087.47c-0.06-5.79,0-13,.38-17-1.24,4.46-1.36,11.45-1,17h0.66Z" transform="translate(-1258.54 -987.75)"/><path class="cls-11" d="M1294.93,1030.79l1.41-.12c2.19-.21,5.06-1.62,5.16-2.13s-0.13-3,0-3.63c0-.34-4.13-0.18-6.58.09v0.58c2-.22,5.42-0.3,5.42.4,0,0.38,0,2.3-.56,2.9s-2.51,1.13-4.29,1.36l-0.57.06v0.49Zm-14.19,0c2,0.13,4.09.14,4.46-.23a9.92,9.92,0,0,0,1.45-2.52c0.14-.55,2.25-0.45,2.37,0a9.9,9.9,0,0,0,1.46,2.52c0.37,0.37,2.49.35,4.45,0.21v-0.49a8.88,8.88,0,0,1-3.87-.33c-0.82-.38-1.8-2.32-1.48-2.9s3.12-1.21,5-1.46l0.33,0V1025l-0.82.11a57.49,57.49,0,0,1-6.1.94c-1.73,0-3.21-.47-6.46-1l-0.82-.1v0.57l0.33,0c1.9,0.24,4.7.86,5,1.44s-0.66,2.52-1.47,2.9a8.89,8.89,0,0,1-3.88.34v0.49Zm-6.58-5.86c0.14,0.67-.08,3.11,0,3.63s3,1.91,5.17,2.12l1.4,0.11v-0.49l-0.56-.06c-1.78-.23-3.71-0.75-4.29-1.35s-0.57-2.51-.57-2.9c0-.7,3.43-0.63,5.42-0.42V1025C1278.29,1024.72,1274.17,1024.58,1274.15,1024.92Z" transform="translate(-1258.54 -987.75)"/><path class="cls-21" d="M1297.92,1064c-5.5,3.57-7.79,11.24-11,20.32a56.05,56.05,0,0,0,64,.21c-3.25-9.21-5.49-17-11.1-20.53-9.56-6-15.32-7.42-21-7.5S1307.41,1057.82,1297.92,1064Z" transform="translate(-1258.54 -987.75)"/><path class="cls-21" d="M1323.44,1099.06c2.62-2.93-7.24-12.14-7.24-12.14l-29.3-2.61-2.27,5.8A198.83,198.83,0,0,0,1323.44,1099.06Z" transform="translate(-1258.54 -987.75)"/><path class="cls-20" d="M1309.41,1058c2.05,11.65,5,13.94,8.43,15.71h2c4-2.88,7.79-7.54,8.56-15.54C1330,1041.79,1306.73,1042.81,1309.41,1058Z" transform="translate(-1258.54 -987.75)"/><path class="cls-4" d="M1310.94,1035.44h15.84v22.91c0,7.73-15.84,8.62-15.84,0v-22.91Z" transform="translate(-1258.54 -987.75)"/><polygon class="cls-6" points="68.24 62.07 68.24 59.14 52.4 59.14 52.4 69.93 68.24 62.07"/><path class="cls-7" d="M1318.86,1006.3c33.55,0,19.95,44.31,0,44.31S1285.31,1006.3,1318.86,1006.3Z" transform="translate(-1258.54 -987.75)"/><path class="cls-4" d="M1318.86,1006.3c33.55,0,19.95,44.31,0,44.31V1006.3Z" transform="translate(-1258.54 -987.75)"/><path class="cls-4" d="M1310.94,1057.53c0,8.18,6.9,5.08,6.9,16.2h2c0-11.11,6.9-8,6.9-16.2h-15.84Z" transform="translate(-1258.54 -987.75)"/><path class="cls-17" d="M1329.86,1013.6c-3,1.31-13.52,8-17.85,8.14s0.79-.79,2-2.1-8.27,3-10.5,3.15,0-.26,1.05-1.71-3.81.79-3,4.73-3.25,2.46-3.51-1.21,0.1-4.3,1.54-7.72,20.48-8.14,26.52-8.14,11,6,12.47,8.66a10.57,10.57,0,0,1,1.11,7.83c-0.66,2.36-2.69,3.46-2.69.44S1332.09,1019.12,1329.86,1013.6Z" transform="translate(-1258.54 -987.75)"/><ellipse class="cls-9" cx="1339.46" cy="1026.67" rx="5.24" ry="2.26" transform="translate(-1212.09 1123.5) rotate(-77.46)"/><ellipse class="cls-10" cx="1298.65" cy="1026.67" rx="2.26" ry="5.24" transform="translate(-1450.52 -681.19) rotate(-12.54)"/><path class="cls-17" d="M1297.51,1021.55c2-23.33,25.95-27.84,33.16-16.07,8.64,2.2,9,14.32,9.25,16.39-0.13-.3-8.29-7.88-10-10.22l-11.06,3.21S1306.2,1018.49,1297.51,1021.55Z" transform="translate(-1258.54 -987.75)"/><path class="cls-20" d="M1319.06,1094.44a59.86,59.86,0,0,1-.19-20.72A81.33,81.33,0,0,1,1319.06,1094.44Z" transform="translate(-1258.54 -987.75)"/><path class="cls-20" d="M1301.55,1091.51c0.35-8.23-3.33-18-6.66-21.37C1299.24,1072.86,1303.22,1082.49,1301.55,1091.51Z" transform="translate(-1258.54 -987.75)"/><path class="cls-20" d="M1336.14,1091.51c-0.35-8.23,3.33-18,6.66-21.37C1338.44,1072.86,1334.47,1082.49,1336.14,1091.51Z" transform="translate(-1258.54 -987.75)"/><rect class="cls-22" x="83.06" y="73.64" width="23.86" height="26.48"/><path class="cls-23" d="M1330.43,1068.78c-5.84,3.79-8.25,11.93-11.68,21.57a59.24,59.24,0,0,0,67.64,0c-3.42-9.69-5.79-17.91-11.7-21.61-10.11-6.33-16.19-7.85-22.15-7.93S1340.47,1062.26,1330.43,1068.78Z" transform="translate(-1258.54 -987.75)"/><path class="cls-23" d="M1352.58,1100.94s-20.68-10.24-21.54-10.59-12.28,0-12.28,0l-2.56,7.64A222.46,222.46,0,0,0,1352.58,1100.94Z" transform="translate(-1258.54 -987.75)"/><path class="cls-23" d="M1352.56,1100.94s20.68-10.24,21.54-10.59,12.28,0,12.28,0l2.56,7.64A222.46,222.46,0,0,1,1352.56,1100.94Z" transform="translate(-1258.54 -987.75)"/><path class="cls-4" d="M1344.2,1036.6h16.74v24.21c0,8.17-16.74,9.11-16.74,0V1036.6Z" transform="translate(-1258.54 -987.75)"/><polygon class="cls-6" points="102.4 66.06 102.4 62.97 85.66 62.97 85.66 74.36 102.4 66.06"/><path class="cls-7" d="M1352.57,1007.82c35.45,0,21.08,46.83,0,46.83S1317.11,1007.82,1352.57,1007.82Z" transform="translate(-1258.54 -987.75)"/><path class="cls-4" d="M1352.57,1007.82c35.45,0,21.08,46.83,0,46.83v-46.83Z" transform="translate(-1258.54 -987.75)"/><path class="cls-5" d="M1362.46,1012.52c5.74,2.44,8.07,9.8,9.4,14.76,1.93,7.2.84,6.58,3.41,1.1s-3.73-29.15-22.11-29.15-25.91,18.21-23.34,28.15,2.57,7.58,4.18,0C1338.13,1008,1352.68,1016.5,1362.46,1012.52Z" transform="translate(-1258.54 -987.75)"/><path class="cls-21" d="M1350.73,1075.58l-1.8,25.25c1.2,0.07,2.42.11,3.64,0.11s2.4,0,3.59-.11l-1.8-25.25,5.91-14.17c-5.54-.1-9.83,0-15.47,0Z" transform="translate(-1258.54 -987.75)"/><polygon class="cls-24" points="78.69 77.05 78.13 87.71 93.46 80.57 109.05 87.71 108.77 76.74 94.19 73.64 93.81 73.64 81.18 75.86 78.69 77.05"/><ellipse class="cls-9" cx="1374.14" cy="1029.34" rx="5.54" ry="2.39" transform="translate(-1187.63 1159.35) rotate(-77.46)"/><ellipse class="cls-10" cx="1331.01" cy="1029.34" rx="2.39" ry="5.54" transform="translate(-1450.33 -674.08) rotate(-12.54)"/><polygon class="cls-23" points="85.63 68.63 80.36 73.86 79.39 84.31 93.81 73.64 85.63 68.63"/><polygon class="cls-23" points="102.37 68.63 107.64 73.86 108.61 84.31 94.19 73.64 102.37 68.63"/><path class="cls-4" d="M1343.69,1040.86c0,4.18,4,7.58,9,7.58s9-3.39,9-7.58A66.28,66.28,0,0,1,1343.69,1040.86Z" transform="translate(-1258.54 -987.75)"/><path class="cls-25" d="M1343.7,1040.88l0.07,0.8c0.06,0.26.1,0.53,0.17,0.79a7.39,7.39,0,0,0,.61,1.5,7,7,0,0,0,.93,1.32,7.39,7.39,0,0,0,1.19,1.1,7.93,7.93,0,0,0,1.37.86,9.75,9.75,0,0,0,1.49.62,10,10,0,0,0,1.57.38,10.28,10.28,0,0,0,3.23,0,10,10,0,0,0,1.58-.36,8.34,8.34,0,0,0,1.5-.61,8,8,0,0,0,1.37-.88,7.41,7.41,0,0,0,1.18-1.11,7,7,0,0,0,1.5-2.83c0.07-.26.1-0.53,0.15-0.79l0-.8,0.1,0.09a63.75,63.75,0,0,1-9,.63A60,60,0,0,1,1343.7,1040.88Zm0,0a68.42,68.42,0,0,0,9,.52c1.51,0,3,0,4.52-.14,0.75,0,1.5-.11,2.25-0.19s1.5-.18,2.24-0.27h0.11v0.1l-0.06.82c-0.06.27-.09,0.54-0.16,0.81a7,7,0,0,1-.62,1.52,7.26,7.26,0,0,1-.95,1.34,7.5,7.5,0,0,1-1.2,1.11,8,8,0,0,1-1.39.87,9.32,9.32,0,0,1-1.51.63,10.1,10.1,0,0,1-1.59.39,10.32,10.32,0,0,1-3.27,0,10.14,10.14,0,0,1-1.6-.37,9.15,9.15,0,0,1-2.9-1.52,7.52,7.52,0,0,1-1.19-1.13,7.15,7.15,0,0,1-.93-1.35,6.62,6.62,0,0,1-.59-1.53c-0.07-.27-0.1-0.54-0.14-0.81l0-.83h0Z" transform="translate(-1258.54 -987.75)"/><path class="cls-25" d="M1344.19,1043.38a22,22,0,0,0,2.64.68c0.8,0.18,1.74.31,2.75,0.43a23.65,23.65,0,0,0,3.18.15c0.54,0,1.08,0,1.61,0s1.05-.1,1.56-0.15,1-.16,1.45-0.22a12.21,12.21,0,0,0,1.29-.27c0.39-.1.77-0.16,1.08-0.26l0.82-.25,0.73-.21-0.69.3a14.49,14.49,0,0,1-1.87.69,12.44,12.44,0,0,1-1.29.35,13.41,13.41,0,0,1-1.46.29c-0.51.06-1,.17-1.58,0.19s-1.09.09-1.65,0.08a24.1,24.1,0,0,1-3.23-.22,21.08,21.08,0,0,1-2.76-.59A14.48,14.48,0,0,1,1344.19,1043.38Z" transform="translate(-1258.54 -987.75)"/><path class="cls-4" d="M1312,1040c0,3.1,3,5.62,6.69,5.62s6.69-2.51,6.69-5.62A49.12,49.12,0,0,1,1312,1040Z" transform="translate(-1258.54 -987.75)"/><path class="cls-25" d="M1312,1040.05l0,0.59c0,0.2.07,0.4,0.13,0.59a5.48,5.48,0,0,0,.45,1.11,5.22,5.22,0,0,0,.69,1,5.48,5.48,0,0,0,.88.81,5.88,5.88,0,0,0,1,.63,7.23,7.23,0,0,0,1.11.46,7.41,7.41,0,0,0,1.17.28,7.62,7.62,0,0,0,2.4,0,7.43,7.43,0,0,0,1.17-.27,6.18,6.18,0,0,0,1.11-.45,5.91,5.91,0,0,0,1-.65,5.49,5.49,0,0,0,.87-0.83,5.16,5.16,0,0,0,1.11-2.1c0-.19.07-0.39,0.11-0.59l0-.6,0.07,0.06a47.24,47.24,0,0,1-6.7.46A44.47,44.47,0,0,1,1312,1040.05Zm0,0a50.71,50.71,0,0,0,6.69.39c1.12,0,2.23,0,3.35-.11,0.56,0,1.11-.08,1.67-0.14s1.11-.14,1.66-0.2h0.08V1040l0,0.61c0,0.2-.07.4-0.12,0.6a5.22,5.22,0,0,1-.46,1.13,5.38,5.38,0,0,1-.7,1,5.56,5.56,0,0,1-.89.83,6,6,0,0,1-1,.64,6.91,6.91,0,0,1-1.12.47,7.49,7.49,0,0,1-1.18.29,7.65,7.65,0,0,1-2.42,0,7.52,7.52,0,0,1-1.19-.27,6.78,6.78,0,0,1-2.15-1.12,5.58,5.58,0,0,1-.88-0.84,5.3,5.3,0,0,1-.69-1,4.91,4.91,0,0,1-.44-1.13c0-.2-0.07-0.4-0.11-0.6l0-.61h0Z" transform="translate(-1258.54 -987.75)"/><path class="cls-25" d="M1312.36,1041.91a16.27,16.27,0,0,0,2,.51c0.59,0.13,1.29.23,2,.32a17.53,17.53,0,0,0,2.35.11c0.4,0,.8,0,1.2,0s0.78-.08,1.15-0.11,0.73-.12,1.07-0.16a9,9,0,0,0,1-.2c0.29-.08.57-0.12,0.8-0.19l0.61-.18,0.54-.15-0.51.22a10.74,10.74,0,0,1-1.39.51,9.22,9.22,0,0,1-1,.26,9.94,9.94,0,0,1-1.08.22c-0.38,0-.77.12-1.17,0.14s-0.81.07-1.22,0.06a17.86,17.86,0,0,1-2.4-.17,15.62,15.62,0,0,1-2-.43A10.73,10.73,0,0,1,1312.36,1041.91Z" transform="translate(-1258.54 -987.75)"/><path class="cls-4" d="M1281.11,1038c0,3.1,3,5.62,6.69,5.62s6.69-2.51,6.69-5.62A49.12,49.12,0,0,1,1281.11,1038Z" transform="translate(-1258.54 -987.75)"/><path class="cls-25" d="M1281.12,1038l0,0.59c0,0.2.07,0.4,0.13,0.59a5.48,5.48,0,0,0,.45,1.11,5.22,5.22,0,0,0,.69,1,5.48,5.48,0,0,0,.88.81,5.88,5.88,0,0,0,1,.63,7.23,7.23,0,0,0,1.11.46,7.41,7.41,0,0,0,1.17.28,7.62,7.62,0,0,0,2.4,0,7.43,7.43,0,0,0,1.17-.27,6.18,6.18,0,0,0,1.11-.45,5.91,5.91,0,0,0,1-.65,5.49,5.49,0,0,0,.87-0.83,5.16,5.16,0,0,0,1.11-2.1c0-.19.07-0.39,0.11-0.59l0-.6,0.07,0.06a47.24,47.24,0,0,1-6.7.46A44.47,44.47,0,0,1,1281.12,1038Zm0,0a50.71,50.71,0,0,0,6.69.39c1.12,0,2.23,0,3.35-.11,0.56,0,1.11-.08,1.67-0.14s1.11-.14,1.66-0.2h0.08V1038l0,0.61c0,0.2-.07.4-0.12,0.6a5.22,5.22,0,0,1-.46,1.13,5.38,5.38,0,0,1-.7,1,5.56,5.56,0,0,1-.89.83,6,6,0,0,1-1,.64,6.91,6.91,0,0,1-1.12.47,7.49,7.49,0,0,1-1.18.29,7.65,7.65,0,0,1-2.42,0,7.52,7.52,0,0,1-1.19-.27,6.78,6.78,0,0,1-2.15-1.12,5.58,5.58,0,0,1-.88-0.84,5.3,5.3,0,0,1-.69-1,4.91,4.91,0,0,1-.44-1.13c0-.2-0.07-0.4-0.11-0.6l0-.61h0Z" transform="translate(-1258.54 -987.75)"/><path class="cls-25" d="M1281.48,1039.83a16.27,16.27,0,0,0,2,.51c0.59,0.13,1.29.23,2,.32a17.53,17.53,0,0,0,2.35.11c0.4,0,.8,0,1.2,0s0.78-.08,1.15-0.11,0.73-.12,1.07-0.16a9,9,0,0,0,1-.2c0.29-.08.57-0.12,0.8-0.19l0.61-.18,0.54-.15-0.51.22a10.74,10.74,0,0,1-1.39.51,9.22,9.22,0,0,1-1,.26,9.94,9.94,0,0,1-1.08.22c-0.38,0-.77.12-1.17,0.14s-0.81.07-1.22,0.06a17.86,17.86,0,0,1-2.4-.17,15.62,15.62,0,0,1-2-.43A10.73,10.73,0,0,1,1281.48,1039.83Z" transform="translate(-1258.54 -987.75)"/><path class="cls-4" d="M1411.87,1038c0,3.1,3,5.62,6.69,5.62s6.69-2.51,6.69-5.62A49.12,49.12,0,0,1,1411.87,1038Z" transform="translate(-1258.54 -987.75)"/><path class="cls-25" d="M1411.88,1038l0,0.59c0,0.2.07,0.4,0.13,0.59a5.48,5.48,0,0,0,.45,1.11,5.22,5.22,0,0,0,.69,1,5.48,5.48,0,0,0,.88.81,5.88,5.88,0,0,0,1,.63,7.23,7.23,0,0,0,1.11.46,7.41,7.41,0,0,0,1.17.28,7.62,7.62,0,0,0,2.4,0,7.43,7.43,0,0,0,1.17-.27,6.18,6.18,0,0,0,1.11-.45,5.91,5.91,0,0,0,1-.65,5.49,5.49,0,0,0,.87-0.83,5.16,5.16,0,0,0,1.11-2.1c0-.19.07-0.39,0.11-0.59l0-.6,0.07,0.06a47.24,47.24,0,0,1-6.7.46A44.47,44.47,0,0,1,1411.88,1038Zm0,0a50.71,50.71,0,0,0,6.69.39c1.12,0,2.23,0,3.35-.11,0.56,0,1.11-.08,1.67-0.14s1.11-.14,1.66-0.2h0.08V1038l0,0.61c0,0.2-.07.4-0.12,0.6a5.22,5.22,0,0,1-.46,1.13,5.38,5.38,0,0,1-.7,1,5.56,5.56,0,0,1-.89.83,6,6,0,0,1-1,.64,6.91,6.91,0,0,1-1.12.47,7.49,7.49,0,0,1-1.18.29,7.65,7.65,0,0,1-2.42,0,7.52,7.52,0,0,1-1.19-.27,6.78,6.78,0,0,1-2.15-1.12,5.58,5.58,0,0,1-.88-0.84,5.3,5.3,0,0,1-.69-1,4.91,4.91,0,0,1-.44-1.13c0-.2-0.07-0.4-0.11-0.6l0-.61h0Z" transform="translate(-1258.54 -987.75)"/><path class="cls-25" d="M1412.24,1039.83a16.27,16.27,0,0,0,2,.51c0.59,0.13,1.29.23,2,.32a17.53,17.53,0,0,0,2.35.11c0.4,0,.8,0,1.2,0s0.78-.08,1.15-0.11,0.73-.12,1.07-0.16a9,9,0,0,0,1-.2c0.29-.08.57-0.12,0.8-0.19l0.61-.18,0.54-.15-0.51.22a10.74,10.74,0,0,1-1.39.51,9.22,9.22,0,0,1-1,.26,9.94,9.94,0,0,1-1.08.22c-0.38,0-.77.12-1.17,0.14s-0.81.07-1.22,0.06a17.86,17.86,0,0,1-2.4-.17,15.62,15.62,0,0,1-2-.43A10.73,10.73,0,0,1,1412.24,1039.83Z" transform="translate(-1258.54 -987.75)"/><path class="cls-4" d="M1378.66,1040c0,3.1,3,5.62,6.69,5.62s6.69-2.51,6.69-5.62A49.12,49.12,0,0,1,1378.66,1040Z" transform="translate(-1258.54 -987.75)"/><path class="cls-25" d="M1378.67,1040.05l0,0.59c0,0.2.07,0.4,0.13,0.59a5.48,5.48,0,0,0,.45,1.11,5.22,5.22,0,0,0,.69,1,5.48,5.48,0,0,0,.88.81,5.88,5.88,0,0,0,1,.63,7.23,7.23,0,0,0,1.11.46,7.41,7.41,0,0,0,1.17.28,7.62,7.62,0,0,0,2.4,0,7.43,7.43,0,0,0,1.17-.27,6.18,6.18,0,0,0,1.11-.45,5.91,5.91,0,0,0,1-.65,5.49,5.49,0,0,0,.87-0.83,5.16,5.16,0,0,0,1.11-2.1c0-.19.07-0.39,0.11-0.59l0-.6,0.07,0.06a47.24,47.24,0,0,1-6.7.46A44.47,44.47,0,0,1,1378.67,1040.05Zm0,0a50.71,50.71,0,0,0,6.69.39c1.12,0,2.23,0,3.35-.11,0.56,0,1.11-.08,1.67-0.14s1.11-.14,1.66-0.2h0.08V1040l0,0.61c0,0.2-.07.4-0.12,0.6a5.22,5.22,0,0,1-.46,1.13,5.38,5.38,0,0,1-.7,1,5.56,5.56,0,0,1-.89.83,6,6,0,0,1-1,.64,6.91,6.91,0,0,1-1.12.47,7.49,7.49,0,0,1-1.18.29,7.65,7.65,0,0,1-2.42,0,7.52,7.52,0,0,1-1.19-.27,6.78,6.78,0,0,1-2.15-1.12,5.58,5.58,0,0,1-.88-0.84,5.3,5.3,0,0,1-.69-1,4.91,4.91,0,0,1-.44-1.13c0-.2-0.07-0.4-0.11-0.6l0-.61h0Z" transform="translate(-1258.54 -987.75)"/><path class="cls-25" d="M1379,1041.91a16.27,16.27,0,0,0,2,.51c0.59,0.13,1.29.23,2,.32a17.53,17.53,0,0,0,2.35.11c0.4,0,.8,0,1.2,0s0.78-.08,1.15-0.11,0.73-.12,1.07-0.16a9,9,0,0,0,1-.2c0.29-.08.57-0.12,0.8-0.19l0.61-.18,0.54-.15-0.51.22a10.74,10.74,0,0,1-1.39.51,9.22,9.22,0,0,1-1,.26,9.94,9.94,0,0,1-1.08.22c-0.38,0-.77.12-1.17,0.14s-0.81.07-1.22,0.06a17.86,17.86,0,0,1-2.4-.17,15.62,15.62,0,0,1-2-.43A10.73,10.73,0,0,1,1379,1041.91Z" transform="translate(-1258.54 -987.75)"/></svg>