<svg id="Camada_1" data-name="Camada 1" xmlns="http://www.w3.org/2000/svg" viewBox="0 0 207.61 167.32"><defs><style>.cls-1{fill:#141414;}.cls-2{fill:#969696;}.cls-3{fill:#202827;}.cls-4{fill:#04050b;}.cls-5{fill:#235ba7;}.cls-6{opacity:0.2;}.cls-7{fill:#9f3416;}.cls-8{fill:#24170e;}.cls-9{fill:#e34a3d;}.cls-10{fill:#1e1e1e;}.cls-11{fill:#040202;}.cls-12{fill:#323233;}.cls-13{fill:#23879a;}.cls-14{font-size:10.81px;fill:#fff;font-family:Myriad Pro;font-weight:700;}</style></defs><title>Bicicleta</title><path class="cls-1" d="M1347.76,529.38l0.85,0.11s1.35-.16,1,2.58c-0.3,2.42-1.38,2.07-1.38,2.07l-1.84-.23s-0.74-.46-0.5-2.41,1.16-2.21,1.16-2.21Z" transform="translate(-1321.05 -424.29)"/><polygon class="cls-2" points="25.68 105.55 21.49 71.63 20.97 71.97 25.2 105.99 25.68 105.55"/><polygon class="cls-2" points="26.71 105.09 30.36 68.07 30 68.12 26.29 105.03 26.71 105.09"/><path class="cls-3" d="M1346.4,533.91s1.15-.36,1.4-2.38-0.74-2.24-.74-2.24-0.9.15-1.16,2.21S1346.4,533.91,1346.4,533.91Z" transform="translate(-1321.05 -424.29)"/><path class="cls-4" d="M1324,536.54c-3.57,30.32,11.87,33.72,16.72,34.55a12.74,12.74,0,0,0,1.53.16c-5.65-1.07-20.75-5.67-15.56-38.29,5.41-34,23.27-41.69,23.27-41.69a13.67,13.67,0,0,1,6.59-1.06,14.76,14.76,0,0,0-8.76.79s-9.82,4.24-17.1,20.29a97.77,97.77,0,0,0-6.5,23.9C1324.11,535.64,1324,536.09,1324,536.54Z" transform="translate(-1321.05 -424.29)"/><polygon class="cls-2" points="24.92 106.27 12 84.77 11.5 85.52 24.61 106.82 24.92 106.27"/><polygon class="cls-2" points="24.52 107.5 7.55 95.96 7.12 97.17 24.46 107.95 24.52 107.5"/><path class="cls-1" d="M1349.74,485.67s-21.55,9-27.6,49.45c-6.08,40.56,15.28,45.07,19.21,45.56,6,0.75,30-3,37.3-49.84C1386.06,483,1356.95,482.07,1349.74,485.67Zm22.54,43.6c-4.21,33.78-25.07,43.11-31.45,42-5.05-.86-21.58-4.5-16.19-38.41s23.27-41.69,23.27-41.69C1354,488.16,1377.32,488.76,1372.27,529.27Z" transform="translate(-1321.05 -424.29)"/><polygon class="cls-2" points="26.67 109.53 30.87 143.45 31.38 143.11 27.16 109.09 26.67 109.53"/><polygon class="cls-2" points="25.7 109.75 22 147.01 22.36 146.96 26.11 109.71 25.7 109.75"/><polygon class="cls-2" points="27.44 108.81 41.78 132.42 42.27 131.67 27.74 108.26 27.44 108.81"/><polygon class="cls-2" points="27.83 107.58 47.52 120.89 47.95 119.67 27.89 107.13 27.83 107.58"/><path class="cls-2" d="M1348.06,529.42l14.61-36.66,0.83,0.56-14.92,36.53A0.86,0.86,0,0,0,1348.06,529.42Z" transform="translate(-1321.05 -424.29)"/><path class="cls-2" d="M1348.84,530.3l23.57-19.92,0.21,1.57L1349,530.86A1.28,1.28,0,0,0,1348.84,530.3Z" transform="translate(-1321.05 -424.29)"/><path class="cls-2" d="M1346.4,533.91L1331,565.54l-0.52-.47,15.61-31.56A0.37,0.37,0,0,0,1346.4,533.91Z" transform="translate(-1321.05 -424.29)"/><path class="cls-2" d="M1345.17,533.59l-20,18.42a2.6,2.6,0,0,1-.31-1l20-17.95A0.85,0.85,0,0,0,1345.17,533.59Z" transform="translate(-1321.05 -424.29)"/><path class="cls-2" d="M1344.61,532.13l-19,.68-0.17,1.33,19.34-1.18S1344.68,532.5,1344.61,532.13Z" transform="translate(-1321.05 -424.29)"/><path class="cls-5" d="M1447.36,434.7s5-1.49,6,2.95,20.07,88.07,20.07,88.07-1.15,3.31-5.32,2Z" transform="translate(-1321.05 -424.29)"/><path class="cls-6" d="M1455.27,477.14s0.5-4.45,2.53-4.6,2.56,1,2.56,1l11.47,51.61s-0.84,2-4.56,1.46-4.46-29.61-6.33-31.15S1455.27,477.14,1455.27,477.14Z" transform="translate(-1321.05 -424.29)"/><path class="cls-1" d="M1468.1,521.34l1.63,0.2s2.57-.13,2.1,3.6c-0.41,3.29-2.5,2.75-2.5,2.75l-3.53-.44s-1.44-.68-1.11-3.34,2.07-2.95,2.07-2.95Z" transform="translate(-1321.05 -424.29)"/><polygon class="cls-2" points="145.13 97.61 134.79 50.82 133.83 51.26 144.23 98.19 145.13 97.61"/><polygon class="cls-2" points="147.05 97.05 151.5 46.55 150.81 46.59 146.24 96.93 147.05 97.05"/><path class="cls-3" d="M1465.81,527.46a3.44,3.44,0,0,0,2.52-3.16c0.34-2.74-1.56-3.12-1.56-3.12s-1.72.15-2.07,2.95S1465.81,527.46,1465.81,527.46Z" transform="translate(-1321.05 -424.29)"/><path class="cls-4" d="M1423.18,529.53c-4.74,41.32,25,47,34.3,48.5,0.85,0.13,1.85.24,2.94,0.32-10.87-1.85-40-9.2-32.34-53.56,8-46.24,41.6-55.56,41.6-55.56a34.39,34.39,0,0,1,12.52-1c-7-1.19-13.28-.62-16.67.49,0,0-18.47,5.14-31.28,26.64a97.85,97.85,0,0,0-10.79,32.33C1423.35,528.31,1423.26,528.92,1423.18,529.53Z" transform="translate(-1321.05 -424.29)"/><polygon class="cls-2" points="143.72 98.54 117.56 68.18 116.67 69.19 143.17 99.28 143.72 98.54"/><polygon class="cls-2" points="143.04 100.21 109.83 83.23 109.1 84.86 142.97 100.83 143.04 100.21"/><path class="cls-1" d="M1468.89,461.56s-40.55,10.93-49.35,65.9c-8.83,55.19,32.27,62.83,39.8,63.77,16.6,2.07,57.18-2,67.85-65.78C1538.09,460.38,1485.31,455.63,1468.89,461.56Zm46,61.31c-5.74,46-44.94,57.38-57.2,55.46-9.71-1.53-41.54-7.64-33.56-53.76s41.6-55.56,41.6-55.56C1477.17,465.26,1521.81,467.68,1514.92,522.87Z" transform="translate(-1321.05 -424.29)"/><polygon class="cls-1" points="65.76 128.47 65.72 128.81 66.52 129.05 66.91 128.82 66.46 128.22 65.76 128.47"/><path class="cls-5" d="M1467.65,524.19c-1.63-7.73-16.68-79-16.94-80.31s6.53-12.13,8.32-15a1.11,1.11,0,0,0-.09-1.32c-7.13-8.24-11.87,5.51-12.25,8.56s-5,3.91-5,3.91-49.72,10-63.92,23.07a2.63,2.63,0,0,0,0-.37l-0.8-6.13a0.77,0.77,0,0,0-1.23-.52l-2.15,1.62a2.45,2.45,0,0,0-1,2.08l0.48,9.33c-10.42,16.34-23.46,51.78-24.81,55.47a1.09,1.09,0,0,1-.37.5c-0.88.68-3.71,3.12-3.76,6.56-0.05,4.07,3.12,4,3.12,4l29.75,5a1.13,1.13,0,0,1,.93,1c0.24,1.64,1.42,5.27,7.25,6,6.9,0.86,8.81-9.4,9.1-11.26a1.1,1.1,0,0,1,.24-0.53l51.42-63.48a1.13,1.13,0,0,1,2,.41c2.67,9.92,13.81,51.14,14.74,53.25,0.81,1.84,3.12.84,4.46-.18A2.26,2.26,0,0,0,1467.65,524.19Zm-86.29,9.55a1.91,1.91,0,0,0-.94,1.3c-0.11.86-18.15-1.87-26.36-3.15a3.41,3.41,0,0,1-2.7-4.49c2.45-7.09,8.62-23.81,20.23-49a1.13,1.13,0,0,1,1.95-.18h0a1.1,1.1,0,0,1,.2.48l8.12,53.9A1.13,1.13,0,0,1,1381.36,533.74Zm5.53-4.44a1.13,1.13,0,0,1-2-.57l-6.37-55a8.07,8.07,0,0,1,2.87-7c16.3-13.6,55.58-20.46,57.13-17.74s3.24,7.95,2.93,9.3C1441.39,458.48,1386.89,529.3,1386.89,529.3Z" transform="translate(-1321.05 -424.29)"/><path class="cls-6" d="M1345.19,528.1s3,2.7,5.39-3.75,23.12-53.82,23.12-53.82l0.33,10s0.12-4-2.25-2.44l-8,17.81L1350.82,527s-0.35,4.31,3.23,4.87c0,0-6,5.47-6.81,3.74S1344.64,530,1345.19,528.1Z" transform="translate(-1321.05 -424.29)"/><path class="cls-7" d="M1368.32,441s-1.51.37-5.66-4.23-3.4-3.3-3.84-4.93,2.52-2.44,7.3-1.8,18-1.89,19.8-1.8,7,0.64,1.44,2.85a87.58,87.58,0,0,0-13.48,6.69C1372.34,438.85,1370.25,441.76,1368.32,441Z" transform="translate(-1321.05 -424.29)"/><path class="cls-8" d="M1372.9,458.49l-2.17-20.17s-4.59.45-4.32-1.66c0,0,4.69-5.57,7.12-5.2s3,3.06,3,3.06-0.85,3-2.68,3.22l1.85,18.34Z" transform="translate(-1321.05 -424.29)"/><path class="cls-9" d="M1385.92,428.21c-1.81-.09-15,2.44-19.8,1.8s-7.74.17-7.3,1.8c0.35,1.31-.06.73,1.94,2.86a7.21,7.21,0,0,0,5.65,2c3.87-.36,10.52-2.24,12.67-2.84s7.51-2.46,7.51-2.46h0l0.77-.31C1393,428.84,1387.73,428.3,1385.92,428.21Z" transform="translate(-1321.05 -424.29)"/><polygon class="cls-2" points="147.29 103.14 157.62 149.93 158.59 149.49 148.19 102.56 147.29 103.14"/><polygon class="cls-2" points="145.46 103.37 140.92 154.2 141.61 154.16 146.22 103.35 145.46 103.37"/><polygon class="cls-2" points="148.7 102.21 177.71 135.55 178.6 134.55 149.25 101.47 148.7 102.21"/><polygon class="cls-2" points="149.38 100.54 187.9 120.13 188.62 118.5 149.45 99.92 149.38 100.54"/><path class="cls-2" d="M1468.69,521.41l25.4-49.25,1.62,0.83-26,49.06A1.74,1.74,0,0,0,1468.69,521.41Z" transform="translate(-1321.05 -424.29)"/><path class="cls-2" d="M1470.23,522.68l43.66-25.7,0.5,2.16-43.9,24.31A1.41,1.41,0,0,0,1470.23,522.68Z" transform="translate(-1321.05 -424.29)"/><path class="cls-2" d="M1465.81,527.46l-27.24,42.31-1-.68,27.66-42.2S1465.11,527.26,1465.81,527.46Z" transform="translate(-1321.05 -424.29)"/><path class="cls-2" d="M1463.44,526.94l-37,23.88a3.23,3.23,0,0,1-.67-1.43l37-23.23A1.28,1.28,0,0,0,1463.44,526.94Z" transform="translate(-1321.05 -424.29)"/><path class="cls-2" d="M1462.28,524.9l-36.25-.37-0.23,1.81,36.86-.3S1462.44,525.41,1462.28,524.9Z" transform="translate(-1321.05 -424.29)"/><path class="cls-5" d="M1436.3,424.3s13.94,0.55,18.67.72c0,0,11.91-.2,16.05-0.7,0,0,4.47,1.07,5.49,5.1,0,0-14.27.53-18.65,1.33s-17.73.15-20.24-.16C1437.63,430.59,1435.4,426.91,1436.3,424.3Z" transform="translate(-1321.05 -424.29)"/><path class="cls-5" d="M1436.3,424.3s-2.45,3.83,1.33,6.28,13,2.21,13.83,2.69c2.38,1.45,4.88,2.65,4.9,9.56,0,10.94-12.14,10.67-13.76,11.55s-0.77,2.5.65,2.91,13.57-1,15.73-7.22,2-10.91-.92-16.09-7.45-3.87-11.07-5.69S1445.1,424.1,1436.3,424.3Z" transform="translate(-1321.05 -424.29)"/><path class="cls-5" d="M1466,426.93s-2.46.94,1.32,3.39,13,2.21,13.83,2.69c2.38,1.45,4.88,2.65,4.9,9.56,0,10.94-12.14,10.67-13.76,11.55s-0.77,2.5.65,2.91,13.57-1,15.73-7.22,2-10.91-.92-16.09-7.45-3.87-11.07-5.69S1474.75,426.72,1466,426.93Z" transform="translate(-1321.05 -424.29)"/><path class="cls-1" d="M1386.71,525.06c-8-1-15.34,5.69-16.49,14.94s4.36,17.54,12.32,18.53,14.23-5.83,15.38-15.08S1394.66,526.05,1386.71,525.06Zm0.21,1.54a7.94,7.94,0,0,1,1.1.4s6.92,2.82,7.55,12.12l-1.23-.05c-0.48-7.38-4.87-10.25-7.84-11.35Zm-4-.35s0.56,0,1.26,0l-0.11.85-0.28,0-0.27,2.2a14.84,14.84,0,0,1,2.78,1.16c-0.78,1.31-2.62,4.43-2.48,4.59a14.93,14.93,0,0,1,2.35,4.69l5.82-1.26a12,12,0,0,1,0,3.49l2.3,0.63c0-.09,0-0.16,0-0.25,0.39,0.11.87,0.22,1.22,0.3,0,0.43-.09.85-0.15,1.25l-14.23-3.65Zm-4.7,1.54,0.12,0.69a15.52,15.52,0,0,0-5.14,6.3l-0.38-.33A15.48,15.48,0,0,1,1378.18,527.8Zm-6.88,16.2,0.52-.16a17.32,17.32,0,0,0,3.2,8.27l-0.46.47A16.79,16.79,0,0,1,1371.31,544Zm6.39,11.2c-0.26-.14-0.5-0.3-0.75-0.46l0.08-.61c0.1,0.08.2,0.18,0.3,0.26l0.27-2.18a6.59,6.59,0,0,1-1.93-2.09l2.38-3.68c-0.94-.41-2-3.48-2-3.48l-2.48.89a27.14,27.14,0,0,1-.26-3.06l-1.65-.42s0,0.14,0,.38l-0.42-.13c0-.25,0-0.48.06-0.69s0-.21.05-0.32l8,2.6Zm1.92-15.4-7.94-2c0.08-.34.17-0.66,0.26-1l0.37,0.08-0.09.27,1.57,0.37a20.53,20.53,0,0,1,1.3-2.71l1.84,2.55c-0.31-1.14,2.47-1.6,2.47-1.6L1378,531a11,11,0,0,1,2.49-1.9l0.22-1.74-0.29.11c0-.29.05-0.6,0.07-0.82a7.29,7.29,0,0,1,.81-0.24Zm3.28,16.64-0.18-.84a11.4,11.4,0,0,0,9.24-5.86l1.2,0.78A12.19,12.19,0,0,1,1382.9,556.44Zm11.4-8.35-1.38-.42a0.54,0.54,0,0,0,0-.34l-2.17-.66a14.65,14.65,0,0,1-.89,1.86l-5.48-3.7s-2.12,2.66-3.19,2.38c-0.21-.05.59,4.78,0.82,6.17a7.63,7.63,0,0,1-1.85-.24l-0.29,2.34,0.27,0c0,0.22-.06.48-0.08,0.71a5.33,5.33,0,0,1-.91-0.32l1.64-13.18,13.8,4.49C1394.53,547.53,1394.41,547.8,1394.3,548.09Z" transform="translate(-1321.05 -424.29)"/><path class="cls-10" d="M1386.52,525c-8-1-15.34,5.69-16.49,14.94s4.36,17.54,12.32,18.53,14.23-5.83,15.38-15.08S1394.48,526,1386.52,525Zm0.21,1.54a7.94,7.94,0,0,1,1.1.4s6.92,2.82,7.55,12.12l-1.23-.05c-0.48-7.38-4.87-10.25-7.84-11.35Zm-4-.35s0.56,0,1.26,0l-0.11.85-0.28,0-0.27,2.2a14.84,14.84,0,0,1,2.78,1.16c-0.78,1.31-2.62,4.43-2.48,4.59a14.93,14.93,0,0,1,2.35,4.69l5.82-1.26a12,12,0,0,1,0,3.49l2.3,0.63c0-.09,0-0.16,0-0.25,0.39,0.11.87,0.22,1.22,0.3,0,0.43-.09.85-0.15,1.25L1381,540.17Zm-4.7,1.54,0.12,0.69a15.52,15.52,0,0,0-5.14,6.3l-0.38-.33A15.48,15.48,0,0,1,1378,527.78Zm-6.88,16.2,0.52-.16a17.32,17.32,0,0,0,3.2,8.27l-0.46.47A16.79,16.79,0,0,1,1371.12,544Zm6.39,11.2c-0.26-.14-0.5-0.3-0.75-0.46l0.08-.61c0.1,0.08.2,0.18,0.3,0.26l0.27-2.18a6.59,6.59,0,0,1-1.93-2.09l2.38-3.68c-0.94-.41-2-3.48-2-3.48l-2.48.89a27.14,27.14,0,0,1-.26-3.06l-1.65-.42s0,0.14,0,.38l-0.42-.13c0-.25,0-0.48.06-0.69s0-.21.05-0.32l8,2.6Zm1.92-15.4-7.94-2c0.08-.34.17-0.66,0.26-1l0.37,0.08-0.09.27,1.57,0.37a20.53,20.53,0,0,1,1.3-2.71l1.84,2.55c-0.31-1.14,2.47-1.6,2.47-1.6l-1.39-4.78a11,11,0,0,1,2.49-1.9l0.22-1.74-0.29.11c0-.29.05-0.6,0.07-0.82a7.29,7.29,0,0,1,.81-0.24Zm3.28,16.64-0.18-.84a11.4,11.4,0,0,0,9.24-5.86l1.2,0.78A12.19,12.19,0,0,1,1382.71,556.42Zm11.4-8.35-1.38-.42a0.54,0.54,0,0,0,0-.34l-2.17-.66a14.65,14.65,0,0,1-.89,1.86l-5.48-3.7s-2.12,2.66-3.19,2.38c-0.21-.05.59,4.78,0.82,6.17a7.63,7.63,0,0,1-1.85-.24l-0.29,2.34,0.27,0c0,0.22-.06.48-0.08,0.71a5.33,5.33,0,0,1-.91-0.32l1.64-13.18,13.8,4.49C1394.34,547.5,1394.22,547.78,1394.11,548.07Z" transform="translate(-1321.05 -424.29)"/><path class="cls-1" d="M1386.62,541.86c-0.48,3.86-3.1,6.7-6.42,6.29s-5.62-3.88-5.14-7.73,3.56-6.65,6.88-6.23S1387.1,538,1386.62,541.86Z" transform="translate(-1321.05 -424.29)"/><path class="cls-10" d="M1386.32,541.82c-0.48,3.86-3.1,6.7-6.42,6.29s-5.62-3.88-5.14-7.73,3.56-6.65,6.88-6.23S1386.81,538,1386.32,541.82Z" transform="translate(-1321.05 -424.29)"/><path class="cls-1" d="M1396,554.56l-15.06-13.42a1.85,1.85,0,0,0-1.1-3.06l-3-.38a2.21,2.21,0,0,0-2.38,2.81l19.07,17.13S1397.1,558.22,1396,554.56Z" transform="translate(-1321.05 -424.29)"/><polygon class="cls-1" points="63.91 126.44 63.67 126.69 63.62 127.06 64.68 127.09 64.42 126.69 63.91 126.44"/><path class="cls-1" d="M1381.42,551.07l-1-.25-0.12-.23s3.87,0.15,3.91.14a3.16,3.16,0,0,1,.52.26l0,0.37-2.84-.1Z" transform="translate(-1321.05 -424.29)"/><path class="cls-11" d="M1391.2,551.65l-0.09.12,0,0.37,0.83,0.1-0.42-.56Z" transform="translate(-1321.05 -424.29)"/><path class="cls-11" d="M1394.76,553.83l-0.06.46,0.83,0.22-0.24-.55s-0.4-.48-0.41-0.51A2.39,2.39,0,0,0,1394.76,553.83Z" transform="translate(-1321.05 -424.29)"/><path class="cls-10" d="M1393.66,552.55c-1.91-.18-2.22-1.2-2.22-1.2l-0.09,0c-2.57.21-4.45-1-6.42-1-4.22.15-6-.43-6.43-0.6l-0.11-.08,0,0h0l-0.12.93-0.09.75,0,0.23-0.08.63-0.11.87c2.38-.37,4.26.7,6.51,0.91l-0.15,1.22,11.94-.16,1.39-.46C1395.88,554.92,1395.57,552.73,1393.66,552.55Zm-12.52-1.61a3.2,3.2,0,0,1-.67-0.29s3.28,0.23,4.25.32c0,0,.44.21,0.62,0.29S1381.47,551,1381.14,550.94Zm3.6,2a1.44,1.44,0,0,1-.59-0.21s1.94,0.09,2.67.07a3.08,3.08,0,0,1,.92.38A23.29,23.29,0,0,1,1384.74,552.9Zm2.29-1.75-0.24-.19c1.54,0.32,4.32.81,4.32,0.81a1.08,1.08,0,0,0,.45.27A27.69,27.69,0,0,1,1387,551.15Zm4.87,2.35-0.84-.44a4.1,4.1,0,0,1,1.35.25,16.91,16.91,0,0,0,2.34.51,3,3,0,0,0,.51.53A26.53,26.53,0,0,1,1391.91,553.5Z" transform="translate(-1321.05 -424.29)"/><path class="cls-12" d="M1380.6,551c-1.91-.18-2.22-1.2-2.22-1.2l-0.12.93-0.09.75,0,0.23-0.08.63-0.11.87c1.78-.2,2.08,2,4,2.16s2.22,1.2,2.22,1.2l0.13-1,0.08-.66,0-.23,0.08-.63,0.11-.88C1382.82,553.32,1382.52,551.13,1380.6,551Z" transform="translate(-1321.05 -424.29)"/><path class="cls-10" d="M1378.89,552.51a1.46,1.46,0,0,0,1.45,1.79,1.3,1.3,0,0,0,1.39-1.42,1.63,1.63,0,0,0-.9-1.49A1.29,1.29,0,0,0,1378.89,552.51Z" transform="translate(-1321.05 -424.29)"/><path class="cls-10" d="M1380.74,551.36a0.88,0.88,0,0,1,.55.19,1.69,1.69,0,0,1,.52,1.41c0,0.8-.66,1.52-1.15,1.35C1380.66,554.32,1381.78,552.25,1380.74,551.36Z" transform="translate(-1321.05 -424.29)"/><path class="cls-1" d="M1380.82,551.39a1.93,1.93,0,0,0-1.06-.09,1.49,1.49,0,0,1,.27,1.45c-0.17,1.07-.74,1.09-0.78,1.1a1.79,1.79,0,0,0,1.07.46,1.3,1.3,0,0,0,1.39-1.42A1.63,1.63,0,0,0,1380.82,551.39Z" transform="translate(-1321.05 -424.29)"/><path class="cls-10" d="M1378.57,552.38a0.68,0.68,0,0,0,.67.83,0.6,0.6,0,0,0,.64-0.66,0.75,0.75,0,0,0-.41-0.69A0.6,0.6,0,0,0,1378.57,552.38Z" transform="translate(-1321.05 -424.29)"/><path class="cls-1" d="M1379.46,551.86a0.89,0.89,0,0,0-.49,0,0.69,0.69,0,0,1,.12.67c-0.08.49-.34,0.51-0.36,0.51a0.83,0.83,0,0,0,.5.21,0.6,0.6,0,0,0,.64-0.66A0.75,0.75,0,0,0,1379.46,551.86Z" transform="translate(-1321.05 -424.29)"/><path class="cls-12" d="M1391.14,553.76c-4.92.17-6.55-.64-6.55-0.64l-0.12.93-0.09.75,0,0.23-0.08.63-0.11.87c2.62-.4,4.62.94,7.2,1,4.27,0,5.86.64,5.86,0.64l0.13-1,0.08-.66,0-.23,0.08-.63,0.11-.88C1395,555,1393.14,553.69,1391.14,553.76Z" transform="translate(-1321.05 -424.29)"/><path class="cls-1" d="M1343.11,535.48c-2-.25-3.92,1.46-4.21,3.82s1.11,4.48,3.15,4.74,3.64-1.49,3.93-3.85S1345.14,535.74,1343.11,535.48Zm0.05,0.39a2,2,0,0,1,.28.1,3.52,3.52,0,0,1,1.93,3.1h-0.31a3.05,3.05,0,0,0-2-2.9Zm-1-.09h0.32l0,0.22h-0.07l-0.07.56a3.79,3.79,0,0,1,.71.3,8.49,8.49,0,0,0-.63,1.17,3.82,3.82,0,0,1,.6,1.2l1.49-.32a3.06,3.06,0,0,1,0,.89L1345,540v-0.06l0.31,0.08c0,0.11,0,.22,0,0.32l-3.64-.93Zm-1.2.39,0,0.18a4,4,0,0,0-1.31,1.61l-0.1-.08A4,4,0,0,1,1340.93,536.19Zm-1.76,4.14,0.13,0a4.42,4.42,0,0,0,.82,2.11l-0.12.12A4.29,4.29,0,0,1,1339.18,540.33Zm1.63,2.86-0.19-.12,0-.16,0.08,0.07,0.07-.56a1.68,1.68,0,0,1-.49-0.53l0.61-.94a2.26,2.26,0,0,1-.52-0.89l-0.63.23a6.93,6.93,0,0,1-.07-0.78l-0.42-.11s0,0,0,.1l-0.11,0c0-.06,0-0.12,0-0.18v-0.08l2,0.67Zm0.49-3.93-2-.52c0-.09,0-0.17.07-0.25l0.09,0,0,0.07,0.4,0.09a5.25,5.25,0,0,1,.33-0.69l0.47,0.65c-0.08-.29.63-0.41,0.63-0.41l-0.35-1.22a2.8,2.8,0,0,1,.64-0.49l0.06-.44-0.07,0c0-.08,0-0.15,0-0.21l0.21-.06Zm0.84,4.25,0-.21a2.91,2.91,0,0,0,2.36-1.5l0.31,0.2A3.11,3.11,0,0,1,1342.14,543.5Zm2.91-2.13-0.35-.11a0.14,0.14,0,0,0,0-.09l-0.55-.17a3.74,3.74,0,0,1-.23.47l-1.4-.95a1.58,1.58,0,0,1-.81.61,13.09,13.09,0,0,0,.21,1.58,2,2,0,0,1-.47-0.06l-0.07.6h0.07l0,0.18-0.23-.08,0.42-3.37,3.53,1.15C1345.11,541.23,1345.08,541.3,1345.05,541.37Z" transform="translate(-1321.05 -424.29)"/><path class="cls-10" d="M1343.06,535.48c-2-.25-3.92,1.46-4.21,3.82s1.11,4.48,3.15,4.74,3.64-1.49,3.93-3.85S1345.1,535.73,1343.06,535.48Zm0.05,0.39a2,2,0,0,1,.28.1,3.52,3.52,0,0,1,1.93,3.1H1345a3.05,3.05,0,0,0-2-2.9Zm-1-.09h0.32l0,0.22h-0.07l-0.07.56a3.79,3.79,0,0,1,.71.3,8.49,8.49,0,0,0-.63,1.17,3.82,3.82,0,0,1,.6,1.2l1.49-.32a3.06,3.06,0,0,1,0,.89l0.59,0.16v-0.06l0.31,0.08c0,0.11,0,.22,0,0.32l-3.64-.93Zm-1.2.39,0,0.18a4,4,0,0,0-1.31,1.61l-0.1-.08A4,4,0,0,1,1340.88,536.18Zm-1.76,4.14,0.13,0a4.42,4.42,0,0,0,.82,2.11l-0.12.12A4.29,4.29,0,0,1,1339.13,540.32Zm1.63,2.86-0.19-.12,0-.16,0.08,0.07,0.07-.56a1.68,1.68,0,0,1-.49-0.53l0.61-.94a2.26,2.26,0,0,1-.52-0.89l-0.63.23a6.93,6.93,0,0,1-.07-0.78l-0.42-.11s0,0,0,.1l-0.11,0c0-.06,0-0.12,0-0.18V539.2l2,0.67Zm0.49-3.93-2-.52c0-.09,0-0.17.07-0.25l0.09,0,0,0.07,0.4,0.09a5.25,5.25,0,0,1,.33-0.69l0.47,0.65c-0.08-.29.63-0.41,0.63-0.41l-0.35-1.22a2.8,2.8,0,0,1,.64-0.49l0.06-.44-0.07,0c0-.08,0-0.15,0-0.21l0.21-.06Zm0.84,4.25,0-.21a2.91,2.91,0,0,0,2.36-1.5l0.31,0.2A3.11,3.11,0,0,1,1342.09,543.5Zm2.91-2.13-0.35-.11a0.14,0.14,0,0,0,0-.09l-0.55-.17a3.74,3.74,0,0,1-.23.47l-1.4-.95a1.58,1.58,0,0,1-.81.61,13.09,13.09,0,0,0,.21,1.58,2,2,0,0,1-.47-0.06l-0.07.6h0.07l0,0.18-0.23-.08,0.42-3.37,3.53,1.15C1345.06,541.22,1345,541.29,1345,541.36Z" transform="translate(-1321.05 -424.29)"/><path class="cls-1" d="M1343.09,539.78a1.6,1.6,0,0,1-1.64,1.61,1.82,1.82,0,0,1,.45-3.57A1.6,1.6,0,0,1,1343.09,539.78Z" transform="translate(-1321.05 -424.29)"/><path class="cls-10" d="M1343,539.77a1.6,1.6,0,0,1-1.64,1.61,1.82,1.82,0,0,1,.45-3.57A1.6,1.6,0,0,1,1343,539.77Z" transform="translate(-1321.05 -424.29)"/><path class="cls-1" d="M1348.31,527.83c-2-.25-3.92,1.46-4.21,3.82s1.11,4.48,3.15,4.74,3.64-1.49,3.93-3.85S1350.34,528.08,1348.31,527.83Zm0.05,0.39a2,2,0,0,1,.28.1,3.52,3.52,0,0,1,1.93,3.1h-0.31a3.05,3.05,0,0,0-2-2.9Zm-1-.09h0.32l0,0.22h-0.07l-0.07.56a3.79,3.79,0,0,1,.71.3,8.49,8.49,0,0,0-.63,1.17,3.82,3.82,0,0,1,.6,1.2l1.49-.32a3.06,3.06,0,0,1,0,.89l0.59,0.16v-0.06l0.31,0.08c0,0.11,0,.22,0,0.32l-3.64-.93Zm-1.2.39,0,0.18a4,4,0,0,0-1.31,1.61l-0.1-.08A4,4,0,0,1,1346.13,528.53Zm-1.76,4.14,0.13,0a4.42,4.42,0,0,0,.82,2.11l-0.12.12A4.29,4.29,0,0,1,1344.37,532.67Zm1.63,2.86-0.19-.12,0-.16,0.08,0.07,0.07-.56a1.68,1.68,0,0,1-.49-0.53l0.61-.94a2.26,2.26,0,0,1-.52-0.89l-0.63.23a6.93,6.93,0,0,1-.07-0.78l-0.42-.11s0,0,0,.1l-0.11,0c0-.06,0-0.12,0-0.18v-0.08l2,0.67Zm0.49-3.93-2-.52c0-.09,0-0.17.07-0.25l0.09,0,0,0.07L1345,531a5.25,5.25,0,0,1,.33-0.69l0.47,0.65c-0.08-.29.63-0.41,0.63-0.41l-0.35-1.22a2.8,2.8,0,0,1,.64-0.49l0.06-.44-0.07,0c0-.08,0-0.15,0-0.21l0.21-.06Zm0.84,4.25,0-.21a2.91,2.91,0,0,0,2.36-1.5l0.31,0.2A3.11,3.11,0,0,1,1347.34,535.85Zm2.91-2.13-0.35-.11a0.14,0.14,0,0,0,0-.09l-0.55-.17a3.74,3.74,0,0,1-.23.47l-1.4-.95a1.58,1.58,0,0,1-.81.61,13.09,13.09,0,0,0,.21,1.58,2,2,0,0,1-.47-0.06l-0.07.6h0.07l0,0.18-0.23-.08,0.42-3.37,3.53,1.15C1350.31,533.57,1350.28,533.64,1350.25,533.71Z" transform="translate(-1321.05 -424.29)"/><path class="cls-10" d="M1348.26,527.82c-2-.25-3.92,1.46-4.21,3.82s1.11,4.48,3.15,4.74,3.64-1.49,3.93-3.85S1350.29,528.08,1348.26,527.82Zm0.05,0.39a2,2,0,0,1,.28.1,3.52,3.52,0,0,1,1.93,3.1h-0.31a3.05,3.05,0,0,0-2-2.9Zm-1-.09h0.32l0,0.22h-0.07l-0.07.56a3.79,3.79,0,0,1,.71.3,8.49,8.49,0,0,0-.63,1.17,3.82,3.82,0,0,1,.6,1.2l1.49-.32a3.06,3.06,0,0,1,0,.89l0.59,0.16v-0.06l0.31,0.08c0,0.11,0,.22,0,0.32l-3.64-.93Zm-1.2.39,0,0.18a4,4,0,0,0-1.31,1.61l-0.1-.08A4,4,0,0,1,1346.08,528.52Zm-1.76,4.14,0.13,0a4.42,4.42,0,0,0,.82,2.11l-0.12.12A4.29,4.29,0,0,1,1344.33,532.66Zm1.63,2.86-0.19-.12,0-.16,0.08,0.07,0.07-.56a1.68,1.68,0,0,1-.49-0.53l0.61-.94a2.26,2.26,0,0,1-.52-0.89l-0.63.23a6.93,6.93,0,0,1-.07-0.78l-0.42-.11s0,0,0,.1l-0.11,0c0-.06,0-0.12,0-0.18v-0.08l2,0.67Zm0.49-3.93-2-.52c0-.09,0-0.17.07-0.25l0.09,0,0,0.07L1345,531a5.25,5.25,0,0,1,.33-0.69l0.47,0.65c-0.08-.29.63-0.41,0.63-0.41l-0.35-1.22a2.8,2.8,0,0,1,.64-0.49l0.06-.44-0.07,0c0-.08,0-0.15,0-0.21l0.21-.06Zm0.84,4.25,0-.21a2.91,2.91,0,0,0,2.36-1.5l0.31,0.2A3.11,3.11,0,0,1,1347.29,535.84Zm2.91-2.13-0.35-.11a0.14,0.14,0,0,0,0-.09l-0.55-.17a3.74,3.74,0,0,1-.23.47l-1.4-.95a1.58,1.58,0,0,1-.81.61,13.09,13.09,0,0,0,.21,1.58,2,2,0,0,1-.47-0.06l-0.07.6h0.07l0,0.18-0.23-.08,0.42-3.37,3.53,1.15C1350.26,533.56,1350.23,533.63,1350.2,533.71Z" transform="translate(-1321.05 -424.29)"/><path class="cls-1" d="M1348.29,532.12a1.6,1.6,0,0,1-1.64,1.61,1.82,1.82,0,0,1,.45-3.57A1.6,1.6,0,0,1,1348.29,532.12Z" transform="translate(-1321.05 -424.29)"/><path class="cls-10" d="M1348.21,532.11a1.6,1.6,0,0,1-1.64,1.61,1.82,1.82,0,0,1,.45-3.57A1.6,1.6,0,0,1,1348.21,532.11Z" transform="translate(-1321.05 -424.29)"/><path class="cls-1" d="M1345.23,544.56a3.1,3.1,0,0,0-.76,6.08c1.45,0.18,2.58-1.06,2.79-2.74S1346.67,544.74,1345.23,544.56Zm0,0.28,0.2,0.07a2.51,2.51,0,0,1,1.37,2.2h-0.22a2.17,2.17,0,0,0-1.42-2.06Zm-0.73-.06h0.23l0,0.15h-0.05l0,0.4a2.7,2.7,0,0,1,.51.21,6,6,0,0,0-.45.83,2.71,2.71,0,0,1,.43.85l1.06-.23a2.18,2.18,0,0,1,0,.63l0.42,0.11v0l0.22,0.05c0,0.08,0,.15,0,0.23l-2.58-.66Zm-0.85.28,0,0.13a2.82,2.82,0,0,0-.93,1.14l-0.07-.06A2.81,2.81,0,0,1,1343.68,545.05Zm-1.25,2.94,0.09,0a3.15,3.15,0,0,0,.58,1.5l-0.08.09A3.05,3.05,0,0,1,1342.43,548Zm1.16,2-0.14-.08v-0.11l0.06,0,0-.4a1.2,1.2,0,0,1-.35-0.38l0.43-.67a1.61,1.61,0,0,1-.37-0.63l-0.45.16a4.93,4.93,0,0,1,0-.56l-0.3-.08s0,0,0,.07l-0.08,0s0-.09,0-0.13V547.2l1.45,0.47Zm0.35-2.8-1.44-.37,0-.18h0.07l0,0,0.28,0.07a3.73,3.73,0,0,1,.24-0.49l0.33,0.46c-0.06-.21.45-0.29,0.45-0.29l-0.25-.87a2,2,0,0,1,.45-0.35l0-.32-0.05,0v-0.15l0.15,0Zm0.6,3,0-.15a2.07,2.07,0,0,0,1.68-1.06l0.22,0.14A2.21,2.21,0,0,1,1344.54,550.26Zm2.07-1.52-0.25-.08a0.1,0.1,0,0,0,0-.06l-0.39-.12a2.66,2.66,0,0,1-.16.34l-1-.67a1.12,1.12,0,0,1-.58.43,9.3,9.3,0,0,0,.15,1.12,1.38,1.38,0,0,1-.34,0l-0.05.43h0v0.13l-0.17-.06,0.3-2.39,2.51,0.82Z" transform="translate(-1321.05 -424.29)"/><path class="cls-10" d="M1345.2,544.55a3.1,3.1,0,0,0-.76,6.08c1.45,0.18,2.58-1.06,2.79-2.74S1346.64,544.73,1345.2,544.55Zm0,0.28,0.2,0.07a2.51,2.51,0,0,1,1.37,2.2h-0.22a2.17,2.17,0,0,0-1.42-2.06Zm-0.73-.06h0.23l0,0.15h-0.05l0,0.4a2.7,2.7,0,0,1,.51.21,6,6,0,0,0-.45.83,2.71,2.71,0,0,1,.43.85l1.06-.23a2.18,2.18,0,0,1,0,.63l0.42,0.11v0l0.22,0.05c0,0.08,0,.15,0,0.23l-2.58-.66Zm-0.85.28,0,0.13a2.82,2.82,0,0,0-.93,1.14l-0.07-.06A2.81,2.81,0,0,1,1343.65,545ZM1342.4,548l0.09,0a3.15,3.15,0,0,0,.58,1.5l-0.08.09A3.05,3.05,0,0,1,1342.4,548Zm1.16,2-0.14-.08v-0.11l0.06,0,0-.4a1.2,1.2,0,0,1-.35-0.38l0.43-.67a1.61,1.61,0,0,1-.37-0.63l-0.45.16a4.93,4.93,0,0,1,0-.56l-0.3-.08s0,0,0,.07l-0.08,0s0-.09,0-0.13V547.2l1.45,0.47Zm0.35-2.8-1.44-.37,0-.18h0.07l0,0,0.28,0.07a3.73,3.73,0,0,1,.24-0.49l0.33,0.46c-0.06-.21.45-0.29,0.45-0.29l-0.25-.87a2,2,0,0,1,.45-0.35l0-.32-0.05,0v-0.15l0.15,0Zm0.6,3,0-.15a2.07,2.07,0,0,0,1.68-1.06l0.22,0.14A2.21,2.21,0,0,1,1344.5,550.25Zm2.07-1.52-0.25-.08a0.1,0.1,0,0,0,0-.06l-0.39-.12a2.66,2.66,0,0,1-.16.34l-1-.67a1.12,1.12,0,0,1-.58.43,9.3,9.3,0,0,0,.15,1.12,1.38,1.38,0,0,1-.34,0l-0.05.43h0v0.13l-0.17-.06,0.3-2.39,2.51,0.82Z" transform="translate(-1321.05 -424.29)"/><path class="cls-1" d="M1345.21,547.61a1.14,1.14,0,0,1-1.17,1.14,1.29,1.29,0,0,1,.32-2.54A1.14,1.14,0,0,1,1345.21,547.61Z" transform="translate(-1321.05 -424.29)"/><path class="cls-10" d="M1345.16,547.6a1.14,1.14,0,0,1-1.17,1.14,1.29,1.29,0,0,1,.32-2.54A1.14,1.14,0,0,1,1345.16,547.6Z" transform="translate(-1321.05 -424.29)"/><path class="cls-1" d="M1344.44,550.63l38.09,7.9-6.8-3-29.88-5.18A7.71,7.71,0,0,1,1344.44,550.63Z" transform="translate(-1321.05 -424.29)"/><path class="cls-1" d="M1343,545.47l2.12-3.06a5.9,5.9,0,0,0,.47-4.86,40.65,40.65,0,0,1-1.58-4.76,4.24,4.24,0,0,0,1.33,2.74l0.68,2.18a6.52,6.52,0,0,1-.53,5l-1.35,1.9A6,6,0,0,0,1343,545.47Z" transform="translate(-1321.05 -424.29)"/><path class="cls-1" d="M1348.26,527.82l36.94-3a16.75,16.75,0,0,0-4.63.94l-31.35,2.29A1.6,1.6,0,0,0,1348.26,527.82Z" transform="translate(-1321.05 -424.29)"/><path class="cls-1" d="M1453.23,434.79a6.22,6.22,0,0,1,4.75-1.62c2.85,0.31,7.68-2.14,7.68-2.14s3.44-2.11,5.17-1.48,2.14,4,2.14,4-3.34,2-3.06,3.36,1.41,3.24.9,5.5-1.28,7.15-.06,8.88c0,0-2.82-.33-3.39-4.83s-0.1-8.3-.85-9.52-6,0-6,0l-3.79,1.34S1453.66,438.6,1453.23,434.79Z" transform="translate(-1321.05 -424.29)"/><path class="cls-6" d="M1380.91,541.14l63.63-74.62a3.18,3.18,0,0,1,5.51,1.27l15.17,59.09s-1.83.73-2.54-.85-14.74-53.25-14.74-53.25a1.16,1.16,0,0,0-2-.41l-51.42,63.48s-1.26,9-6.44,11.44S1376.57,546.23,1380.91,541.14Z" transform="translate(-1321.05 -424.29)"/><path class="cls-6" d="M1385.56,529.7s-0.63-.35-1.58-8.57l-5.49-47.37s-1.14-5.64,7.1-10.09A129.57,129.57,0,0,1,1420,450.44s16.21-3,18.47-1.44c0,0,.82-3.35-11.44-1.77s-32.16,8.15-46.85,18.45c0,0-4.72.93-3,12.65s6.38,55.51,6.38,55.51S1386.33,532.52,1385.56,529.7Z" transform="translate(-1321.05 -424.29)"/><path class="cls-6" d="M1458.05,434c-2.91-5.18-7.45-3.87-11.07-5.69s-1.88-4.2-10.68-4c0,0-2.45,3.83,1.33,6.28,2.08,1.35,5.83,1.89,8.91,2.17,2.71-1,5.42-1.79,7.69-.19,4.91,3.47,4.59,8.14,2.3,15.58s-12.65,6.72-12.65,6.72l-1.14-.56-0.15.07c-1.62.87-.77,2.5,0.65,2.91s13.57-1,15.73-7.22S1461,439.16,1458.05,434Z" transform="translate(-1321.05 -424.29)"/><path class="cls-6" d="M1487.87,433.74c-2.91-5.18-7.45-3.87-11.07-5.69s-1.42-3.69-10.21-3.48c0,0-2.92,3.32.86,5.77,2.08,1.35,5.83,1.89,8.91,2.17,2.71-1,5.42-1.79,7.69-.19,4.91,3.47,4.59,8.14,2.3,15.58s-12.65,6.72-12.65,6.72l-1.14-.56-0.15.07c-1.62.87-.77,2.5,0.65,2.91s13.57-1,15.73-7.22S1490.78,438.92,1487.87,433.74Z" transform="translate(-1321.05 -424.29)"/><path class="cls-1" d="M1481.1,433a6.22,6.22,0,0,1,4.75-1.62c2.85,0.31,7.68-2.14,7.68-2.14s3.44-2.11,5.17-1.48,2.14,4,2.14,4-3.34,2-3.06,3.36,1.41,3.24.9,5.5-1.28,7.15-.06,8.88c0,0-2.82-.33-3.39-4.83s-0.1-8.3-.85-9.52-6,0-6,0l-3.79,1.34S1481.53,436.81,1481.1,433Z" transform="translate(-1321.05 -424.29)"/><path class="cls-13" d="M1449,478.6s-9.6,13.83-15.13,20.88l-17.19,21.86-12.29-14.58L1437,464.39Z" transform="translate(-1321.05 -424.29)"/><text class="cls-14" transform="matrix(0.62, -0.78, 0.78, 0.62, 92.85, 90.63)">A<tspan x="7.09" y="0">L</tspan><tspan x="12.29" y="0">UGADO</tspan></text></svg>