<svg id="Camada_1" data-name="Camada 1" xmlns="http://www.w3.org/2000/svg" viewBox="0 0 211.81 252.12"><defs><style>.cls-1{fill:#798ca0;}.cls-2{fill:#44515f;}.cls-3{fill:#235ba7;}.cls-4{fill:#3173b9;}.cls-5{fill:#191f39;}.cls-6{fill:#213b7e;}.cls-7{fill:#f4eede;}.cls-8{fill:#191919;}.cls-9{fill:#656564;}.cls-10{fill:#404044;}.cls-11{fill:#d4d0cf;}.cls-12{fill:#2d2d2d;}.cls-13{fill:#0d1928;}.cls-14{fill:#222223;}.cls-15{fill:#23879a;}.cls-16{font-size:10.81px;fill:#fff;font-family:Myriad Pro;font-weight:700;}.cls-17{fill:#e94b3c;opacity:0.6;}.cls-18{fill:#9d223d;}.cls-19{fill:#661126;}.cls-20{fill:#4f1020;}</style></defs><title>Impressora</title><path class="cls-1" d="M1093.28,446.2l-88.15-1.43-0.33-4.8-61,6.17L942.4,451s-2.7,2-2.47,3.88l65.41-7.14,95.29,3.81A11.68,11.68,0,0,0,1093.28,446.2Z" transform="translate(-908.9 -341.58)"/><path class="cls-2" d="M998.46,444.55L992.67,441l-48.9,4.94-1.35,4.89s-2.7,2-2.47,3.88l63.07-6.88C1002.67,445.65,998.46,444.55,998.46,444.55Z" transform="translate(-908.9 -341.58)"/><path class="cls-3" d="M947.63,399.16V386.34s0-10.34,12.82-9.67,81.11,7.24,81.11,7.24,4.39,5.89,11.35,13.38Z" transform="translate(-908.9 -341.58)"/><path class="cls-4" d="M1041.56,383.9s-48.2-4.63-71.22-6.51l-11.89-.73-0.46,0,5.48,15.77s0.61,3,1.44,6.39l88-1.56C1046,389.8,1041.56,383.9,1041.56,383.9Z" transform="translate(-908.9 -341.58)"/><polygon class="cls-5" points="56.32 50.7 51.5 37.11 132.34 45.35 139.93 54.65 56.32 50.7"/><path class="cls-6" d="M960.21,349.24s-3.36-.37-0.89,5.43,14.39,38.68,14.39,38.68l63,3-16.19-38.57-58.73-8.55h-1.54Z" transform="translate(-908.9 -341.58)"/><path class="cls-7" d="M976.19,393.36s-5-13.82-6.15-18.55c-3.29-13-14.42-33.23-14.42-33.23s55.76,13.39,67.12,8.61c0,0,1.44,14.44,7.42,25.46,5.83,10.75,10.31,20.71,10.31,20.71Z" transform="translate(-908.9 -341.58)"/><path class="cls-1" d="M976.24,393.12l94.32,4.28s26.08-2.8,27.66,14.39a225,225,0,0,1,.35,28.94,5.78,5.78,0,0,1-5.87,5.48l-97-1.6s-9.22-27-28.56-31.93S976.24,393.12,976.24,393.12Z" transform="translate(-908.9 -341.58)"/><path class="cls-8" d="M938.72,447.11L938,400.94a5.34,5.34,0,0,1,4.24-5.32c8.58-1.8,26.61-4.17,34.92-4,9.54,0.2,18.77,2,24.39,13,3.89,7.61,2,33.72,1.35,35.3-2,4.95-4.72,4.45-7.2,4.67s-51.88,6.26-51.88,6.26A4,4,0,0,1,938.72,447.11Z" transform="translate(-908.9 -341.58)"/><path class="cls-6" d="M1060.87,397a3,3,0,0,1,2.75-1c2,0.1,21.68.51,25.64,8.94s2.36,40.05,1.86,40.22l-3.12,1h-1.43s1.58-.58,1.69-4.81c0.13-5.23-.08-16.35-0.17-21.66-0.07-4.4,1.43-20.44-23.09-22.52Z" transform="translate(-908.9 -341.58)"/><path class="cls-3" d="M1098.22,411.79c-1.57-17.19-29-15.55-29-15.55l-5.63-.28c9.38,0.8,24.32,4.19,25.54,17.58a236.87,236.87,0,0,1,.67,25.59c-0.24,6.57-1.83,7-1.83,7h1.59v0l3.12,0.05a5.78,5.78,0,0,0,5.87-5.48A225.17,225.17,0,0,0,1098.22,411.79Z" transform="translate(-908.9 -341.58)"/><path class="cls-9" d="M1000.81,413.68c-0.67-7.93-3.63-11-6.75-13.86s-8.68-5.08-19.73-5-30,2.78-31.28,3.29-1.29,1-1.29,1,28.19,1.43,43.53,9.27c8.22,4.2,10,13.45,10,21.22a9.49,9.49,0,0,0-2.54-1.74c-0.84-.08-29.76,1-31,1.86s-21.34,7.17-22.09,8-2.14,12,3.93,12l51.26-6.83s5.7,0.18,6-4.47C1001.31,434.92,1001.48,421.6,1000.81,413.68Z" transform="translate(-908.9 -341.58)"/><path class="cls-3" d="M1008.25,402c-7.08-11.13-31.37-10.34-31.37-10.34,9.54,0.2,18.88,2.47,24.51,13.49,3.89,7.61,2.09,33.38,1.44,35-1.72,4.21-4.71,4.54-6.85,4.53l11.85,0.22c3.37,0.06,4-4.75,4-4.75S1015.34,413.09,1008.25,402Z" transform="translate(-908.9 -341.58)"/><path class="cls-10" d="M1018.35,445s4.55-1,5.22-11.17l60.26,1.29s1,11-4,10.88Z" transform="translate(-908.9 -341.58)"/><path class="cls-8" d="M1020.8,443.09h0l47.63,0.86c4.5,0,3.22-9.08,3.22-9.08l-48.06-1C1023.25,438.77,1022,441.54,1020.8,443.09Z" transform="translate(-908.9 -341.58)"/><path class="cls-11" d="M1003.41,394.35s9.27,2.29,12.83,10l61.38,3s-1.26-7.32-18.72-10.54Z" transform="translate(-908.9 -341.58)"/><path class="cls-12" d="M999.67,413.42c0-.16.36-19.72-26.74-18.6-17,.71-12.75,26.64-9.44,39.89-5.62.07-15.36,0.22-15.9,0.46-0.76.34-7.65,11.84-7.65,11.84s1.12,2,8.16.83c2.22-.39,44.63-5.49,44.63-5.49s4.86-.67,5.71-1.43,1.73-.68,1.72-11C1000.13,421,999.73,414.33,999.67,413.42Z" transform="translate(-908.9 -341.58)"/><path class="cls-13" d="M1027,399c0.35,0,5,3.52,5.64,6.21l24.36,1.15a10.12,10.12,0,0,0-6.48-6.17Z" transform="translate(-908.9 -341.58)"/><path class="cls-3" d="M1027.48,399.16c0.34,0,4.87,3.41,5.54,6.06l24,1.19a10,10,0,0,0-6.38-6.07Z" transform="translate(-908.9 -341.58)"/><path class="cls-14" d="M938.64,444.33L938,403.13a4.77,4.77,0,0,1,3.79-4.75c7.66-1.61,23.74-3.56,31.16-3.56,12,0,18,1.41,23,11.24,3.47,6.79,2.42,28.88,2.28,30.41-0.44,4.78-4.24,4.5-8.79,5.35-2.18.4-46.21,5.89-46.21,5.89A3.57,3.57,0,0,1,938.64,444.33Z" transform="translate(-908.9 -341.58)"/><path class="cls-15" d="M996.62,407.83l-58,34.41-0.29-18.89,46.29-27.45A15.1,15.1,0,0,1,991.7,400,17.61,17.61,0,0,1,996.62,407.83Z" transform="translate(-908.9 -341.58)"/><text class="cls-16" transform="translate(33.03 91.94) rotate(-29.68)">A<tspan x="7.09" y="0">L</tspan><tspan x="12.29" y="0">UGADO</tspan></text><path class="cls-6" d="M996,444.65l5.27,0.1h0c3.31,0.26,3.55-4.78,3.55-4.78s2.27-26.39-2.47-36a21.79,21.79,0,0,0-14.92-11.69,71.92,71.92,0,0,0-10.52-.62c9.54,0.2,18.88,2.47,24.51,13.49,3.89,7.61,2.09,33.38,1.44,35C1001.11,444.33,998.12,444.66,996,444.65Z" transform="translate(-908.9 -341.58)"/><ellipse class="cls-13" cx="1043.82" cy="402.97" rx="1.62" ry="4.64" transform="translate(-345.84 1071.75) rotate(-85.66)"/><ellipse class="cls-11" cx="1044.04" cy="402.78" rx="1.62" ry="4.64" transform="translate(-345.45 1071.79) rotate(-85.66)"/><polygon class="cls-17" points="7.64 135.67 59.81 122.61 204.61 124.86 204.61 248.41 61.16 252.12 10.34 240.43 7.64 135.67"/><polygon class="cls-18" points="59.81 122.61 59.81 104.73 211.81 110.8 211.81 126.65 59.81 122.61"/><polygon class="cls-19" points="0 122.61 0 138.12 59.81 122.61 59.81 104.73 0 122.61"/><path class="cls-20" d="M908.9,479.7h7.64L970,466.21s143.48,3.2,143.48,3.71,7.2-1.69,7.2-1.69l-152-4Z" transform="translate(-908.9 -341.58)"/><polygon class="cls-19" points="61.13 124.63 61.16 252.12 10.34 240.43 7.64 138.12 61.13 124.63"/><polygon class="cls-18" points="201.9 244.7 140.99 246.27 140.99 128.46 201.9 130.36 201.9 244.7"/><polygon class="cls-19" points="137.39 129.75 140.99 128.46 140.99 246.27 137.39 245.54 137.39 129.75"/><polygon class="cls-18" points="139.43 246.27 68.13 248.24 68.13 126.48 139.43 128.46 139.43 246.27"/><polygon class="cls-19" points="64.53 127.78 68.13 126.48 68.13 248.24 64.53 247.51 64.53 127.78"/><path class="cls-7" d="M1066.07,438.89l-43-1.34a21.65,21.65,0,0,1-.87,2.93h0s15.17,1.94,21.81,14.2c0,0,29.46-4.34,49.86-.8C1093.89,453.9,1088.16,444.82,1066.07,438.89Z" transform="translate(-908.9 -341.58)"/></svg>