<svg id="Camada_1" data-name="Camada 1" xmlns="http://www.w3.org/2000/svg" viewBox="0 0 677.55 265.34"><defs><style>.cls-1{fill:#e9c68e;}.cls-2{fill:#2b3549;}.cls-3{fill:#3d4e69;}.cls-4{fill:#fff;}.cls-5{fill:#1a2f3b;}.cls-6{fill:#e83d30;}.cls-7{opacity:0.2;}.cls-8{fill:#e94b3a;}.cls-9{fill:#4e4216;}.cls-10{fill:#fde2ca;}.cls-11{fill:#d3a681;}.cls-12{fill:#804617;}.cls-13{fill:#131416;}.cls-14{fill:#516b92;}.cls-15{fill:#41577b;}.cls-16{fill:#d0d7e2;}.cls-17{fill:#21a637;}</style></defs><title>personagem com o chão</title><polygon class="cls-1" points="677.55 259.58 303.14 222.27 0 240.85 0 258.05 677.55 265.34 677.55 259.58"/><path class="cls-2" d="M1270.89,470.59s1.48,100.39,1.9,103.72-6.72,5.65-8,0-2.09-103.72-2.09-103.72h8.16Z" transform="translate(-901.56 -341.07)"/><path class="cls-3" d="M1191.42,510.45s-1.67,68.65,0,70.43h7.11V510.45C1198.53,507.56,1191.49,508,1191.42,510.45Z" transform="translate(-901.56 -341.07)"/><path class="cls-3" d="M1234.36,509.45s0.75,67.78,2.36,68.2,6.85,0,6.85,0,1-61.28,0-66.41S1234.36,509.45,1234.36,509.45Z" transform="translate(-901.56 -341.07)"/><path class="cls-3" d="M1249.44,500.94l-2.63,11-57.65-.77L1188.93,497S1234.7,496.46,1249.44,500.94Z" transform="translate(-901.56 -341.07)"/><path class="cls-4" d="M1204.79,432.86s-4.86,7.51-5.08,9.89C1199.71,442.75,1204.16,436,1204.79,432.86Z" transform="translate(-901.56 -341.07)"/><path class="cls-5" d="M1243.77,559.65s-5,8.13-5.84,10.51,1.66,8.7,2.92,9,10.24,2,10.9,3.66,0,4.48,0,4.48-10.86,1.15-16.74,0-10.42-18.78-9.48-25.43c0,0,8-6,9.48-7.32S1243.77,559.65,1243.77,559.65Z" transform="translate(-901.56 -341.07)"/><path class="cls-6" d="M1244.89,484.62s49.1-5.87,52.75-3.21a9.26,9.26,0,0,1,1.66,13c-3.33,4.66-50.55,62.34-53.21,65.26s-12.39-1.74-13.85-5.73c0,0,43.78-52.88,45.44-57.21,0,0-40.84-.13-45.44-6s-11.43-7.3-7.77-9.29S1244.89,484.62,1244.89,484.62Z" transform="translate(-901.56 -341.07)"/><path class="cls-7" d="M1244.89,484.62s49.1-5.87,52.75-3.21a9.26,9.26,0,0,1,1.66,13c-3.33,4.66-50.55,62.34-53.21,65.26s-12.39-1.74-13.85-5.73c0,0,43.78-52.88,45.44-57.21,0,0-40.84-.13-45.44-6s-11.43-7.3-7.77-9.29S1244.89,484.62,1244.89,484.62Z" transform="translate(-901.56 -341.07)"/><path class="cls-5" d="M1279,578.86s2,8,3.66,9.31,16-2,17.29,0,1.24,9,1.24,9-26.18,3-29.84,0c0,0-6.78,1.66-9-.33,0,0,1.4-17.61,3.39-19.95S1279,578.86,1279,578.86Z" transform="translate(-901.56 -341.07)"/><path class="cls-8" d="M1224.48,481.41s5.76,7.32,10.53,7.65,51.33-.67,55.32,4-10,77.78-8.31,87.62c0,0-17.63.48-20,0,0,0,14.63-69.32,13-72.65s-67-6.67-70.65-10.33-4-10.31-3-14S1224.48,481.41,1224.48,481.41Z" transform="translate(-901.56 -341.07)"/><path class="cls-9" d="M1213.95,386.23s-6.07-7.12-7.12-11.1-1-17.59-1-17.59-2.51,0-3.14-1.25,1.88-4.13,3.14-3.64c0,0-2.72-3-1-5.14s5.86,2.71,5.86,2.71,9.84-9.21,26.17-5.65c0,0,5.23-7.29,8.16-.82,0,0,6.49-5.67,9.63,2.07s-2,12.56-2,12.56,3.9,15.35-1.43,19.82S1221.7,387.9,1213.95,386.23Z" transform="translate(-901.56 -341.07)"/><path class="cls-10" d="M1219.18,370.78s5.23,30.52,6.07,32,10.68,7.33,18.42,6.07,9.21-4,8.79-13.19-2.93-34.54-3.56-35.59c0,0-3.35,2-5,1.74s-14.24-.35-15.7,0S1219.18,370.78,1219.18,370.78Z" transform="translate(-901.56 -341.07)"/><path class="cls-10" d="M1225.06,387.27s-4.61-6.28-8.58-5.44-3.56,7.75-2.3,10S1224.86,399.62,1225.06,387.27Z" transform="translate(-901.56 -341.07)"/><path class="cls-11" d="M1242.21,381.75s-0.1,4.37.63,4.26,4.29-.2,4.92.53,0.52,4.08,0,4.39a13.43,13.43,0,0,1-5.55.63s4.92-.94,5-1.47,0.1-3.45-.42-3.4-3.88.58-4.61,0S1242,382.51,1242.21,381.75Z" transform="translate(-901.56 -341.07)"/><path class="cls-12" d="M1232.58,395.86s8.58,3.14,15.18.73C1247.76,396.59,1238.76,401.19,1232.58,395.86Z" transform="translate(-901.56 -341.07)"/><ellipse class="cls-13" cx="1233.07" cy="382.21" rx="1.22" ry="2.02" transform="translate(-935.24 -207.66) rotate(-6.11)"/><ellipse class="cls-13" cx="1246.96" cy="380.19" rx="1.22" ry="2.02" transform="translate(-934.94 -206.2) rotate(-6.11)"/><path class="cls-9" d="M1235,369.06c0.37-.07-5.47-1.58-7.64,3.45C1227.35,372.51,1233.21,369.37,1235,369.06Z" transform="translate(-901.56 -341.07)"/><path class="cls-9" d="M1242.42,367.59a3.87,3.87,0,0,1,5.77,2.09A8.61,8.61,0,0,0,1242.42,367.59Z" transform="translate(-901.56 -341.07)"/><path class="cls-10" d="M1245.28,434.46s6.15,18.26,9,23.79-7,5.12-7,5.12-8.85-19.69-9.4-24.71S1242.9,427.59,1245.28,434.46Z" transform="translate(-901.56 -341.07)"/><path class="cls-14" d="M1211.38,413.07c1.73,3.3,9.42,10.36,14.29,9.73s11.46-3.73,5.4-12.25c-2.22-.57-4.59-1.1-6.92-1.55a47.48,47.48,0,0,0-12.85-.39C1211,408.91,1209.89,410.22,1211.38,413.07Z" transform="translate(-901.56 -341.07)"/><path class="cls-15" d="M1241.37,414.28c-0.73-.88-5.08-2.38-10.3-3.72,6.05,8.51-.53,11.62-5.4,12.25s-12.56-6.44-14.29-9.73c-1.5-2.86-.4-4.16-0.08-4.46a81.3,81.3,0,0,0-13.42,2.37c-2.09,1.51-12.25,24.61-11.36,25.69,1.78,2.15,13.19,6.07,13.19,6.07s-4.08,13.15-2.93,20.64c0.48,3.11,2.93,26.76,2.93,26.76,12.56-10.68,39.48-6.1,39.48-6.1s-5.39-11.78-6.09-16.18,6.18-30.56,6.18-30.56,8,0.84,8-1.47S1242.42,415.53,1241.37,414.28Z" transform="translate(-901.56 -341.07)"/><path class="cls-7" d="M1204.79,415.61s9,8.42-.83,28.23l-4.25-1.09a68,68,0,0,0-3.06,19.53c0,10.7,3.73,23.06,3.06,27.87,0,0,7.2-6.69,24.44-7.05a39.14,39.14,0,0,1-13.75-35.95C1213.62,423.64,1208.2,420,1204.79,415.61Z" transform="translate(-901.56 -341.07)"/><path class="cls-10" d="M1234.26,405.07s-3.9,4.4-5.2,7.12c0,0,4.78,5.65-2.13,7.12s-13.82-7.81-12.77-10.29c0,0,5.86-.38,7.54-1.22s2.46-9.63,2.46-9.63S1231.12,394.81,1234.26,405.07Z" transform="translate(-901.56 -341.07)"/><path class="cls-10" d="M1198.16,442.2s-4.09,12.49-3.47,14.16,24.7,3.56,28.47,3.35,3.14,6.07-.84,6.91-36.64,1.67-39.36-.63,3.65-26.44,4.48-28.54C1191.51,439.36,1192.69,439.81,1198.16,442.2Z" transform="translate(-901.56 -341.07)"/><path class="cls-10" d="M1231.13,457a59.18,59.18,0,0,1,4.73-5.57,6.6,6.6,0,0,1,3.43-1.23s2.51,1.47,2.93,2.72,2.2,5.06,0,5.88-5-3.47-5-3.47a9.23,9.23,0,0,0-2.72,2.19C1233.85,458.59,1231.13,457,1231.13,457Z" transform="translate(-901.56 -341.07)"/><path class="cls-10" d="M1222.18,461.65s10.17-4.37,12.91-3.39a33.18,33.18,0,0,0,7.69,1.62c1.73,0.14,2.93,2,3.25,1.77S1225.6,465,1222.18,461.65Z" transform="translate(-901.56 -341.07)"/><path class="cls-10" d="M1223.16,459.71a28,28,0,0,0,6.8-2c1.47-.84,4.91-4,5.86-3.66s1.78,1.88,2,4.5-1,4.19-2.83,3.56-1.47-2.72-1.47-2.72-6.18,3.21-8.27,2.86A2.58,2.58,0,0,1,1223.16,459.71Z" transform="translate(-901.56 -341.07)"/><polygon class="cls-7" points="295.48 104.66 296.59 101.13 285.88 96.38 284.1 102.77 295.48 104.66"/><path class="cls-7" d="M1247.24,440.15a37.62,37.62,0,0,0-5.84,0l-2.68,2-0.37-1.23,0.94-3.66s6.19,0.46,6.7,0Z" transform="translate(-901.56 -341.07)"/><path class="cls-16" d="M1215.94,467.48a15.54,15.54,0,0,1,0-3.17c0.21-.73,2.41-2.51,2.41-2.51s28.89-1.15,33.18-1.36c0,0,11.83-35,13.71-36.85,0,0,40.19,1.57,47.73,3.14l-11,35.54v5.2s-49.09.86-52.65,0h-33.39Z" transform="translate(-901.56 -341.07)"/><path class="cls-4" d="M1265.24,423.59s3.61,0.16,3.77,1.41-11.93,35.07-12.72,35.59-4.76-.16-4.76-0.16S1263.51,425.64,1265.24,423.59Z" transform="translate(-901.56 -341.07)"/><path class="cls-17" d="M1308.85,412.12a2.55,2.55,0,0,1-1.44,1.73,4.6,4.6,0,0,1-2.75.2l-0.44,1.59-1.06-.3,0.43-1.56a9,9,0,0,1-3.13-1.59l0.57-2a9.27,9.27,0,0,0,1.46,1,9,9,0,0,0,1.61.77l0.67-2.4-0.46-.35a6,6,0,0,1-1.81-1.92,2.62,2.62,0,0,1-.15-1.93,2.38,2.38,0,0,1,1.39-1.61,4.64,4.64,0,0,1,2.7-.2l0.33-1.19,1.06,0.3-0.32,1.16a9.14,9.14,0,0,1,3,1.61l-1.23,1.61a8.71,8.71,0,0,0-2.31-1.3l-0.64,2.29a12.39,12.39,0,0,1,1.87,1.61,3.06,3.06,0,0,1,.68,1.2A2.42,2.42,0,0,1,1308.85,412.12Zm-4.18-6.11a0.76,0.76,0,0,0,.08.63,2.91,2.91,0,0,0,.64.67l0.51-1.82A1,1,0,0,0,1304.67,406Zm1.81,5.58a0.72,0.72,0,0,0-.11-0.62,3.6,3.6,0,0,0-.66-0.69l-0.54,1.93A1,1,0,0,0,1306.48,411.59Z" transform="translate(-901.56 -341.07)"/><path class="cls-17" d="M1297.67,413.83a2.55,2.55,0,0,1-.2,2.25,4.6,4.6,0,0,1-2.14,1.73l0.54,1.56-1,.36-0.53-1.53a9,9,0,0,1-3.48.48l-0.7-2a9.27,9.27,0,0,0,1.79,0,9,9,0,0,0,1.76-.28l-0.82-2.36-0.58,0a6,6,0,0,1-2.58-.55,2.62,2.62,0,0,1-1.23-1.5,2.38,2.38,0,0,1,.23-2.11,4.64,4.64,0,0,1,2.11-1.7l-0.4-1.16,1-.36,0.39,1.13a9.14,9.14,0,0,1,3.39-.4l-0.1,2a8.71,8.71,0,0,0-2.64.25l0.78,2.24a12.39,12.39,0,0,1,2.45.25,3.06,3.06,0,0,1,1.24.6A2.42,2.42,0,0,1,1297.67,413.83Zm-6.91-2.64a0.76,0.76,0,0,0,.42.47,2.91,2.91,0,0,0,.9.18l-0.62-1.79A1,1,0,0,0,1290.76,411.19Zm4.66,3.55a0.72,0.72,0,0,0-.45-0.45,3.6,3.6,0,0,0-.93-0.19l0.66,1.89A1,1,0,0,0,1295.42,414.74Z" transform="translate(-901.56 -341.07)"/><path class="cls-17" d="M1321.84,416.82a2.55,2.55,0,0,1-1.72,1.46,4.6,4.6,0,0,1-2.74-.27l-0.7,1.49-1-.47,0.69-1.46a9,9,0,0,1-2.82-2.1l0.91-1.92a9.27,9.27,0,0,0,1.26,1.27,9,9,0,0,0,1.46,1l1.07-2.26-0.4-.42a6,6,0,0,1-1.46-2.2,2.62,2.62,0,0,1,.18-1.93,2.38,2.38,0,0,1,1.65-1.35,4.64,4.64,0,0,1,2.69.26l0.53-1.11,1,0.47-0.51,1.08a9.14,9.14,0,0,1,2.7,2.09l-1.49,1.38a8.71,8.71,0,0,0-2.06-1.67l-1,2.15a12.39,12.39,0,0,1,1.57,1.9,3.06,3.06,0,0,1,.47,1.3A2.42,2.42,0,0,1,1321.84,416.82Zm-3.08-6.73a0.76,0.76,0,0,0,0,.63,2.91,2.91,0,0,0,.52.76l0.81-1.71A1,1,0,0,0,1318.76,410.1Zm0.84,5.8a0.72,0.72,0,0,0,0-.63,3.6,3.6,0,0,0-.54-0.79l-0.86,1.81A1,1,0,0,0,1319.6,415.9Z" transform="translate(-901.56 -341.07)"/><path class="cls-17" d="M1328.82,429.64a2.55,2.55,0,0,1-2.25.13,4.6,4.6,0,0,1-2-1.87l-1.46.76-0.51-1,1.43-.75a9,9,0,0,1-1-3.38l1.88-1a9.27,9.27,0,0,0,.24,1.78,9,9,0,0,0,.54,1.7l2.21-1.15-0.06-.58a6,6,0,0,1,.16-2.63,2.62,2.62,0,0,1,1.31-1.43,2.38,2.38,0,0,1,2.13-.08,4.64,4.64,0,0,1,2,1.84l1.09-.57,0.51,1L1334,423a9.14,9.14,0,0,1,.89,3.3l-2,.2a8.71,8.71,0,0,0-.64-2.57l-2.11,1.1a12.39,12.39,0,0,1,.11,2.46,3.06,3.06,0,0,1-.41,1.31A2.42,2.42,0,0,1,1328.82,429.64Zm1.61-7.22a0.76,0.76,0,0,0-.4.49,2.91,2.91,0,0,0-.05.92l1.68-.88A1,1,0,0,0,1330.43,422.42Zm-2.83,5.13A0.72,0.72,0,0,0,1328,427a3.6,3.6,0,0,0,0-1l-1.78.93A1,1,0,0,0,1327.59,427.55Z" transform="translate(-901.56 -341.07)"/><path class="cls-17" d="M1320.52,441.91a2.55,2.55,0,0,1-1.79-1.37,4.6,4.6,0,0,1-.32-2.74l-1.61-.37,0.25-1.07,1.58,0.37a9,9,0,0,1,1.45-3.2l2.07,0.48a9.27,9.27,0,0,0-1,1.51,9,9,0,0,0-.7,1.64l2.43,0.56,0.33-.48a6,6,0,0,1,1.84-1.89,2.62,2.62,0,0,1,1.93-.24,2.38,2.38,0,0,1,1.66,1.32,4.64,4.64,0,0,1,.32,2.69l1.2,0.28-0.25,1.07-1.17-.27a9.14,9.14,0,0,1-1.47,3.08l-1.66-1.16a8.71,8.71,0,0,0,1.19-2.37l-2.31-.54a12.39,12.39,0,0,1-1.52,1.94,3.06,3.06,0,0,1-1.17.73A2.42,2.42,0,0,1,1320.52,441.91Zm5.92-4.44a0.76,0.76,0,0,0-.62.11,2.91,2.91,0,0,0-.64.67l1.84,0.43A1,1,0,0,0,1326.44,437.48Zm-5.49,2a0.72,0.72,0,0,0,.62-0.14,3.6,3.6,0,0,0,.66-0.69l-2-.45A1,1,0,0,0,1320.95,439.53Z" transform="translate(-901.56 -341.07)"/><path class="cls-2" d="M1332.65,473.36s1.48,113.52,1.9,117.29-6.72,6.39-8,0-2.09-117.29-2.09-117.29h8.16Z" transform="translate(-901.56 -341.07)"/><polygon class="cls-2" points="265.49 128.06 309.05 125.54 309.05 139.05 265.49 139.05 265.49 128.06"/><polygon class="cls-2" points="437.16 125.54 309.05 125.54 309.05 139.05 437.16 136.01 437.16 125.54"/><path class="cls-2" d="M1175.66,477s-7.19,106.82-7.19,110.54c0,0-5.79,5.55-7,0S1167.3,477,1167.3,477h8.36Z" transform="translate(-901.56 -341.07)"/><path class="cls-2" d="M1210.62,480.12s-7.33,112.52-6.61,115,6.49,3.9,7.56,1.39,7.61-117.08,7.61-117.08Z" transform="translate(-901.56 -341.07)"/></svg>