<svg id="Camada_1" data-name="Camada 1" xmlns="http://www.w3.org/2000/svg" viewBox="0 0 200.47 315.72"><defs><style>.cls-1{fill:#9b6959;}.cls-2{fill:#e0a78e;}.cls-3{fill:#23879a;}.cls-4{font-size:10.81px;fill:#fff;font-family:Myriad Pro;font-weight:700;}.cls-5{fill:#562716;}.cls-6{fill:#c28b77;}</style></defs><title>Prateleira</title><polygon class="cls-1" points="1.15 16.22 1.15 307.62 50.04 315.72 200.47 302.23 200.47 31.73 50.04 0.03 1.15 16.22"/><polygon class="cls-2" points="153.02 56.54 153.02 289.52 189.57 291.42 189.57 41.17 153.02 56.54"/><polygon class="cls-2" points="50.04 0.03 50.04 315.72 1.15 307.62 1.15 16.22 50.04 0.03"/><polygon class="cls-3" points="50.04 50.81 1.15 79.81 1.15 60.74 50.04 31.74 50.04 50.81"/><text class="cls-4" transform="translate(4.48 71.08) rotate(-29.68)">A<tspan x="7.09" y="0">L</tspan><tspan x="12.29" y="0">UGADO</tspan></text><path class="cls-5" d="M1272.48,576l0-258.8h0V305.57s-150.39-32.85-150.39-31.72V589.53h0l12.17-1.09h0L1261.59,577h0ZM1261.59,315v57.47c-27.62-4.84-100.4-17.56-128.36-22L1133,288.26Zm0,69.26v53.89c-27.51-2.56-99.84-9.25-128-11.38L1133.28,363Zm-128,55,128,10.65v54c-27.41-.31-99.29-1.08-127.72-0.91Zm0.58,136.68-0.25-60.45,127.66,0.19v49.56C1234.27,567.42,1162.81,573.17,1134.18,575.94Z" transform="translate(-1072.01 -273.82)"/><polygon class="cls-6" points="189.57 41.17 153.02 56.54 61.06 40.74 60.95 14.44 189.57 41.17"/><polygon class="cls-6" points="189.57 110.42 153.02 117.78 60.95 104.86 60.95 89.19 189.57 110.42"/><polygon class="cls-6" points="189.57 176.09 153.02 183.46 61.66 178.29 61.59 165.44 189.57 176.09"/><polygon class="cls-6" points="189.57 241.67 153.02 243.51 61.94 243.49 61.91 241.67 189.57 241.67"/><polygon class="cls-6" points="189.57 291.42 153.02 289.52 62.16 292.39 62.16 302.12 189.57 291.42"/></svg>