<svg id="Camada_1" data-name="Camada 1" xmlns="http://www.w3.org/2000/svg" viewBox="0 0 175.48 178.01"><defs><style>.cls-1{fill:#161616;}.cls-2{fill:#2d2d2d;}.cls-3{fill:#acc9d9;}.cls-4{fill:#e2eed9;opacity:0.5;}.cls-5{fill:#23879a;}.cls-6{font-size:10.81px;fill:#fff;font-family:Myriad Pro;font-weight:700;}</style></defs><title>TV</title><path class="cls-1" d="M1490.24,239a7.88,7.88,0,0,0-6.16-6.24l-0.06,0c-2.47-.57-8.29-0.08-8.29-0.08-2.62.15-1.14,8.46-.84,8.58s6.16-.3,9.94-0.55c-2.83,44.06,4.53,114.21,10.52,133.21,1,3-1.86,6-4.87,7.09-50.63,17.56-124,26-151.06,28.61l0.32-5.58s-7.25-2.11-7.71-1.43-1.83,7,0,7.63,6.58,0,6.58,0c19-1.69,102-9.94,157.62-29.22a7.24,7.24,0,0,0,4.87-7.09C1500.38,353.12,1497.41,276.36,1490.24,239Z" transform="translate(-1325.6 -232.47)"/><path class="cls-2" d="M1326.6,318.73c-0.64,13.83-2.5,62.51,1.48,87.81a4.36,4.36,0,0,0,4.69,3.68c19-1.69,102-9.94,157.62-29.22,3-1,5.45-4,4.87-7.09-3.88-21-9.62-95.22-10.83-134.89-0.14-4.68-5.52-7.43-10-6.07-18.29,5.54-67.09,24-144.61,79.85A7.77,7.77,0,0,0,1326.6,318.73Z" transform="translate(-1325.6 -232.47)"/><path class="cls-3" d="M1330.13,321.72c-0.58,12.54-2.27,56.67,1.34,79.6a4,4,0,0,0,4.25,3.34c17.21-1.53,91.41-17.74,141.79-35.22,2.73-.95,4.87-3.58,4.42-6.43-5.06-31.71-6.41-58-9.82-112.18-0.27-4.23-5-6.73-9.06-5.5-16.58,5-59.73,20.39-130,71A7,7,0,0,0,1330.13,321.72Z" transform="translate(-1325.6 -232.47)"/><path class="cls-1" d="M1472.11,250.83a5.81,5.81,0,0,0-2.92-4.69,7.6,7.6,0,0,0-6.14-.83c-16.58,5-59.73,20.39-130,71a7,7,0,0,0-2.92,5.39c-0.58,12.54-2.27,56.67,1.34,79.6a4,4,0,0,0,1.58,2.58c-3.21-25.46-2.54-68.46-2-81.18a7.56,7.56,0,0,1,3.13-5.78c22.22-16,41.78-28.59,59.08-38C1469.53,237.53,1472.11,250.83,1472.11,250.83Z" transform="translate(-1325.6 -232.47)"/><ellipse cx="1394.55" cy="398.06" rx="12.9" ry="2.65" transform="translate(-1376.61 49.05) rotate(-11.32)"/><ellipse class="cls-1" cx="1393.81" cy="398.06" rx="12.9" ry="2.65" transform="translate(-1376.62 48.9) rotate(-11.32)"/><path class="cls-4" d="M1345,309.31s16.93,71.89,41.59,85.5c0,0,24.22-5.84,29.53-7.22,0,0-58.78-45.85-64.43-82.89Z" transform="translate(-1325.6 -232.47)"/><path class="cls-4" d="M1354.06,303.07s9,40.2,67.4,83.12l8.61-2.31s-64.21-42.87-73.29-82.63Z" transform="translate(-1325.6 -232.47)"/><path class="cls-5" d="M1470.34,388.76s-16.12,4-24.89,5.85c-9.12,1.89-27.37,5.18-27.37,5.18V380.73l52.26-11.37v19.4Z" transform="translate(-1325.6 -232.47)"/><text class="cls-6" transform="translate(94.5 160.64) rotate(-11.23)">A<tspan x="7.09" y="0">L</tspan><tspan x="12.29" y="0">UGADO</tspan></text></svg>